<svg width="24" height="25" viewBox="0 0 24 25" fill="none" xmlns="http://www.w3.org/2000/svg">
<g id="Frame">
<path id="Vector" d="M10 13.7597C10.4295 14.3339 10.9774 14.8089 11.6066 15.1527C12.2357 15.4964 12.9315 15.7008 13.6467 15.7521C14.3618 15.8033 15.0796 15.7001 15.7513 15.4495C16.4231 15.1989 17.0331 14.8068 17.54 14.2997L20.54 11.2997C21.4508 10.3567 21.9548 9.09371 21.9434 7.78272C21.932 6.47174 21.4061 5.21768 20.4791 4.29064C19.5521 3.3636 18.298 2.83775 16.987 2.82636C15.676 2.81497 14.413 3.31894 13.47 4.22973L11.75 5.93973" stroke="#696B6C" stroke-width="2" stroke-linecap="round" stroke-linejoin="round"/>
<path id="Vector_2" d="M14.0002 11.76C13.5707 11.1859 13.0228 10.7108 12.3936 10.3671C11.7645 10.0233 11.0687 9.81887 10.3535 9.76766C9.63841 9.71644 8.92061 9.81962 8.24885 10.0702C7.5771 10.3208 6.96709 10.7129 6.4602 11.22L3.4602 14.22C2.54941 15.163 2.04544 16.426 2.05683 17.737C2.06822 19.048 2.59407 20.302 3.52111 21.2291C4.44815 22.1561 5.70221 22.682 7.01319 22.6934C8.32418 22.7048 9.58719 22.2008 10.5302 21.29L12.2402 19.58" stroke="#696B6C" stroke-width="2" stroke-linecap="round" stroke-linejoin="round"/>
</g>
</svg>
