<svg width="6" height="5" viewBox="0 0 6 5" fill="none" xmlns="http://www.w3.org/2000/svg">
<path d="M3.008 4.744C2.60267 4.744 2.22933 4.64267 1.888 4.44C1.55733 4.23733 1.29067 3.96533 1.088 3.624C0.885333 3.28267 0.784 2.91467 0.784 2.52C0.784 2.11467 0.885333 1.74133 1.088 1.4C1.29067 1.05867 1.55733 0.786666 1.888 0.584C2.22933 0.381333 2.60267 0.28 3.008 0.28C3.41333 0.28 3.78133 0.381333 4.112 0.584C4.44267 0.786666 4.70933 1.05867 4.912 1.4C5.11467 1.74133 5.216 2.11467 5.216 2.52C5.216 2.91467 5.11467 3.28267 4.912 3.624C4.70933 3.96533 4.44267 4.23733 4.112 4.44C3.78133 4.64267 3.41333 4.744 3.008 4.744Z" fill="black"/>
</svg>
