<svg width="24" height="25" viewBox="0 0 24 25" fill="none" xmlns="http://www.w3.org/2000/svg">
<g id="Frame">
<path id="Vector" d="M15 2.5H6C5.46957 2.5 4.96086 2.71071 4.58579 3.08579C4.21071 3.46086 4 3.96957 4 4.5V20.5C4 21.0304 4.21071 21.5391 4.58579 21.9142C4.96086 22.2893 5.46957 22.5 6 22.5H18C18.5304 22.5 19.0391 22.2893 19.4142 21.9142C19.7893 21.5391 20 21.0304 20 20.5V7.5L15 2.5Z" stroke="#494C4D" stroke-width="2" stroke-linecap="round" stroke-linejoin="round"/>
<path id="Vector_2" d="M14 2.5V6.5C14 7.03043 14.2107 7.53914 14.5858 7.91421C14.9609 8.28929 15.4696 8.5 16 8.5H20" stroke="#494C4D" stroke-width="2" stroke-linecap="round" stroke-linejoin="round"/>
<path id="Vector_3" d="M10 9.5H8" stroke="#494C4D" stroke-width="2" stroke-linecap="round" stroke-linejoin="round"/>
<path id="Vector_4" d="M16 13.5H8" stroke="#494C4D" stroke-width="2" stroke-linecap="round" stroke-linejoin="round"/>
<path id="Vector_5" d="M16 17.5H8" stroke="#494C4D" stroke-width="2" stroke-linecap="round" stroke-linejoin="round"/>
</g>
</svg>
