<svg width="24" height="25" viewBox="0 0 24 25" fill="none" xmlns="http://www.w3.org/2000/svg">
<g id="Frame">
<path id="Vector" d="M17 2.75977H7C4.23858 2.75977 2 4.99834 2 7.75977V17.7598C2 20.5212 4.23858 22.7598 7 22.7598H17C19.7614 22.7598 22 20.5212 22 17.7598V7.75977C22 4.99834 19.7614 2.75977 17 2.75977Z" stroke="#4696E6" stroke-width="2" stroke-linecap="round" stroke-linejoin="round"/>
<path id="Vector_2" d="M16.0002 12.1301C16.1236 12.9623 15.9815 13.8123 15.594 14.5591C15.2065 15.3059 14.5933 15.9115 13.8418 16.2897C13.0903 16.668 12.2386 16.7997 11.408 16.666C10.5773 16.5323 9.80996 16.1401 9.21503 15.5452C8.62011 14.9503 8.22793 14.1829 8.09426 13.3523C7.9606 12.5216 8.09226 11.67 8.47052 10.9184C8.84878 10.1669 9.45438 9.55381 10.2012 9.16631C10.948 8.77881 11.7979 8.63666 12.6302 8.76007C13.4791 8.88595 14.265 9.28153 14.8719 9.88837C15.4787 10.4952 15.8743 11.2811 16.0002 12.1301Z" stroke="#4696E6" stroke-width="2" stroke-linecap="round" stroke-linejoin="round"/>
<path id="Vector_3" d="M17.5 7.25977H17.51" stroke="#4696E6" stroke-width="2" stroke-linecap="round" stroke-linejoin="round"/>
</g>
</svg>
