<svg width="36" height="36" viewBox="0 0 36 36" fill="none" xmlns="http://www.w3.org/2000/svg">
<path d="M17.2902 3.44234C17.3559 3.30953 17.4575 3.19774 17.5834 3.11958C17.7093 3.04142 17.8545 3 18.0027 3C18.1509 3 18.2961 3.04142 18.422 3.11958C18.5479 3.19774 18.6495 3.30953 18.7152 3.44234L22.1802 10.4608C22.4085 10.9228 22.7454 11.3225 23.1621 11.6255C23.5789 11.9286 24.0629 12.126 24.5727 12.2008L32.3217 13.3348C32.4685 13.3561 32.6065 13.418 32.7199 13.5136C32.8334 13.6092 32.9178 13.7347 32.9637 13.8758C33.0096 14.0168 33.0151 14.168 32.9796 14.312C32.9441 14.456 32.8689 14.5873 32.7627 14.6908L27.1587 20.1478C26.7891 20.508 26.5126 20.9526 26.353 21.4433C26.1933 21.934 26.1553 22.4562 26.2422 22.9648L27.5652 30.6748C27.5911 30.8216 27.5753 30.9727 27.5194 31.1109C27.4636 31.249 27.3701 31.3688 27.2495 31.4563C27.1289 31.5439 26.9862 31.5958 26.8375 31.6062C26.6888 31.6165 26.5402 31.5849 26.4087 31.5148L19.4817 27.8728C19.0253 27.6332 18.5175 27.508 18.0019 27.508C17.4864 27.508 16.9786 27.6332 16.5222 27.8728L9.5967 31.5148C9.4652 31.5845 9.3168 31.6158 9.16838 31.6052C9.01996 31.5947 8.87748 31.5427 8.75714 31.4552C8.63681 31.3677 8.54345 31.2481 8.48768 31.1102C8.43192 30.9722 8.41599 30.8214 8.4417 30.6748L9.7632 22.9663C9.85049 22.4574 9.81268 21.9349 9.65301 21.4439C9.49334 20.9529 9.21661 20.5081 8.8467 20.1478L3.2427 14.6923C3.13559 14.5889 3.05969 14.4574 3.02364 14.313C2.9876 14.1685 2.99285 14.0168 3.03882 13.8751C3.08478 13.7335 3.1696 13.6076 3.28361 13.5118C3.39763 13.416 3.53625 13.3542 3.6837 13.3333L11.4312 12.2008C11.9416 12.1266 12.4263 11.9294 12.8436 11.6263C13.2609 11.3232 13.5983 10.9232 13.8267 10.4608L17.2902 3.44234Z" fill="#FF7A00" stroke="#FF7A00" stroke-width="3" stroke-linecap="round" stroke-linejoin="round"/>
</svg>
