<svg width="24" height="25" viewBox="0 0 24 25" fill="none" xmlns="http://www.w3.org/2000/svg">
<g id="whatsapp 1" clip-path="url(#clip0_983_5755)">
<path id="Vector" d="M20.4015 4.24885C19.3014 3.13809 17.9911 2.25752 16.5471 1.65849C15.1031 1.05946 13.5543 0.753974 11.991 0.759849C5.4405 0.759849 0.102 6.09685 0.096 12.6488C0.096 14.7473 0.645 16.7888 1.6815 18.5963L0 24.7598L6.306 23.1068C8.04973 24.0582 10.0046 24.556 11.991 24.5543H11.997C18.549 24.5543 23.886 19.2174 23.892 12.6593C23.8933 11.0964 23.5855 9.5487 22.9862 8.10526C22.3869 6.66182 21.5094 5.35119 20.4015 4.24885ZM11.991 22.5413C10.2198 22.54 8.48134 22.0634 6.957 21.1613L6.597 20.9453L2.856 21.9263L3.855 18.2768L3.621 17.9003C2.63071 16.3258 2.10697 14.5029 2.1105 12.6428C2.1105 7.20385 6.546 2.76685 11.997 2.76685C13.2956 2.76452 14.5818 3.01926 15.7815 3.51639C16.9812 4.01351 18.0707 4.74319 18.987 5.66335C19.9063 6.58007 20.6352 7.66966 21.1315 8.86934C21.6279 10.069 21.8819 11.3551 21.879 12.6533C21.873 18.1118 17.4375 22.5413 11.991 22.5413ZM17.4135 15.1403C17.118 14.9918 15.6585 14.2733 15.384 14.1713C15.111 14.0738 14.9115 14.0228 14.7165 14.3198C14.517 14.6153 13.947 15.2888 13.776 15.4823C13.605 15.6818 13.428 15.7043 13.131 15.5573C12.8355 15.4073 11.877 15.0953 10.743 14.0798C9.858 13.2923 9.2655 12.3173 9.0885 12.0218C8.9175 11.7248 9.072 11.5658 9.2205 11.4173C9.351 11.2853 9.516 11.0693 9.6645 10.8983C9.8145 10.7273 9.864 10.6013 9.9615 10.4033C10.059 10.2023 10.0125 10.0313 9.939 9.88285C9.864 9.73435 9.2715 8.26885 9.021 7.67785C8.781 7.09435 8.5365 7.17535 8.3535 7.16785C8.1825 7.15735 7.983 7.15735 7.7835 7.15735C7.63286 7.16118 7.48464 7.19607 7.3481 7.25982C7.21156 7.32357 7.08965 7.41482 6.99 7.52785C6.717 7.82485 5.9535 8.54335 5.9535 10.0088C5.9535 11.4743 7.0185 12.8828 7.1685 13.0823C7.3155 13.2818 9.2595 16.2803 12.243 17.5703C12.948 17.8778 13.503 18.0593 13.9365 18.1973C14.649 18.4253 15.2925 18.3908 15.8055 18.3173C16.3755 18.2303 17.562 17.5973 17.8125 16.9028C18.0585 16.2068 18.0585 15.6128 17.9835 15.4883C17.91 15.3623 17.7105 15.2888 17.4135 15.1403Z" fill="#25D366"/>
</g>
<defs>
<clipPath id="clip0_983_5755">
<rect width="24" height="24" fill="white" transform="translate(0 0.759766)"/>
</clipPath>
</defs>
</svg>
