<svg width="750" height="623" viewBox="0 0 750 623" fill="none" xmlns="http://www.w3.org/2000/svg">
<g clip-path="url(#clip0_1000_8688)">
<path d="M750 573.6H0V573.975H750V573.6Z" fill="#EBEBEB"/>
<path d="M357.6 506.7H67.9498C65.6782 506.7 63.4996 505.798 61.8934 504.191C60.2871 502.585 59.3848 500.407 59.3848 498.135V90.99C59.4045 88.7314 60.3156 86.5721 61.9198 84.9821C63.5239 83.392 65.6911 82.4999 67.9498 82.5H357.6C358.725 82.5 359.838 82.7215 360.877 83.152C361.917 83.5824 362.861 84.2133 363.656 85.0086C364.451 85.804 365.082 86.7482 365.513 87.7873C365.943 88.8265 366.165 89.9402 366.165 91.065V498.135C366.165 499.26 365.943 500.374 365.513 501.413C365.082 502.452 364.451 503.396 363.656 504.191C362.861 504.987 361.917 505.618 360.877 506.048C359.838 506.478 358.725 506.7 357.6 506.7ZM67.9498 82.8C65.7789 82.804 63.698 83.6681 62.1629 85.2032C60.6279 86.7382 59.7637 88.8191 59.7598 90.99V498.135C59.7637 500.306 60.6279 502.387 62.1629 503.922C63.698 505.457 65.7789 506.321 67.9498 506.325H357.6C359.771 506.321 361.852 505.457 363.387 503.922C364.922 502.387 365.786 500.306 365.79 498.135V90.99C365.786 88.8191 364.922 86.7382 363.387 85.2032C361.852 83.6681 359.771 82.804 357.6 82.8H67.9498Z" fill="#EBEBEB"/>
<path d="M682.05 506.7H392.4C390.128 506.7 387.95 505.798 386.344 504.191C384.737 502.585 383.835 500.407 383.835 498.135V90.99C383.855 88.7314 384.766 86.5721 386.37 84.9821C387.974 83.392 390.141 82.4999 392.4 82.5H682.05C684.322 82.5 686.5 83.4024 688.106 85.0086C689.713 86.6149 690.615 88.7934 690.615 91.065V498.135C690.615 500.407 689.713 502.585 688.106 504.191C686.5 505.798 684.322 506.7 682.05 506.7ZM392.4 82.8C390.229 82.804 388.148 83.6681 386.613 85.2032C385.078 86.7382 384.214 88.8191 384.21 90.99V498.135C384.214 500.306 385.078 502.387 386.613 503.922C388.148 505.457 390.229 506.321 392.4 506.325H682.05C684.221 506.321 686.302 505.457 687.837 503.922C689.372 502.387 690.236 500.306 690.24 498.135V90.99C690.236 88.8191 689.372 86.7382 687.837 85.2032C686.302 83.6681 684.221 82.804 682.05 82.8H392.4Z" fill="#EBEBEB"/>
<path d="M750 573.6H0V573.975H750V573.6Z" fill="#EBEBEB"/>
<path d="M674.85 597.735H625.17V598.11H674.85V597.735Z" fill="#EBEBEB"/>
<path d="M496.83 601.815H483.795V602.19H496.83V601.815Z" fill="#EBEBEB"/>
<path d="M623.67 583.815H594.885V584.19H623.67V583.815Z" fill="#EBEBEB"/>
<path d="M143.475 586.335H78.6899V586.71H143.475V586.335Z" fill="#EBEBEB"/>
<path d="M337.725 592.665H197.205V593.04H337.725V592.665Z" fill="#EBEBEB"/>
<path d="M263.577 148.803C272.761 139.888 272.978 125.216 264.063 116.032C255.148 106.849 240.476 106.631 231.293 115.546C222.109 124.461 221.891 139.133 230.806 148.317C239.721 157.501 254.393 157.718 263.577 148.803Z" fill="#E0E0E0"/>
<path d="M259.951 154.048C271.521 148.574 276.462 134.758 270.988 123.188C265.514 111.618 251.698 106.677 240.128 112.151C228.559 117.625 223.617 131.441 229.091 143.011C234.565 154.58 248.381 159.522 259.951 154.048Z" fill="#F0F0F0"/>
<path d="M266.385 138.945C265.23 142.177 263.142 144.994 260.385 147.039C257.629 149.085 254.328 150.267 250.899 150.436C247.471 150.605 244.07 149.754 241.125 147.99C238.181 146.226 235.825 143.629 234.357 140.526C232.888 137.424 232.373 133.956 232.876 130.56C233.378 127.165 234.877 123.995 237.181 121.451C239.485 118.907 242.492 117.103 245.822 116.268C249.151 115.433 252.653 115.604 255.885 116.76C258.032 117.527 260.006 118.709 261.695 120.24C263.384 121.77 264.755 123.618 265.73 125.678C266.705 127.738 267.265 129.97 267.377 132.246C267.49 134.522 267.153 136.799 266.385 138.945Z" fill="#E6E6E6"/>
<path d="M258.48 137.55C258.132 136.523 257.471 135.632 256.59 135C257.477 134.896 258.316 134.541 259.009 133.978C259.702 133.415 260.221 132.667 260.505 131.82C260.77 131.134 260.858 130.393 260.761 129.664C260.664 128.935 260.385 128.243 259.95 127.65C259.14 126.571 258.065 125.719 256.83 125.175L257.31 123.84L255.24 123.105L254.79 124.35L252.735 123.615L253.17 122.37L251.115 121.62L250.665 122.865L246.165 121.275L239.55 139.77L244.05 141.36L243.585 142.68L245.655 143.415L246.12 142.095L248.175 142.845L247.71 144.15L249.78 144.885L250.26 143.52C251.822 144.06 253.5 144.174 255.12 143.85C255.87 143.668 256.56 143.297 257.125 142.771C257.69 142.246 258.11 141.584 258.345 140.85C258.763 139.797 258.811 138.633 258.48 137.55ZM249.3 126L253.5 127.5C254.357 127.737 255.124 128.222 255.705 128.895C255.894 129.173 256.014 129.492 256.056 129.825C256.099 130.159 256.063 130.497 255.95 130.814C255.838 131.131 255.653 131.417 255.409 131.649C255.166 131.881 254.872 132.053 254.55 132.15C253.67 132.312 252.761 132.207 251.94 131.85L247.695 130.35L249.3 126ZM252.72 140.19C251.79 140.33 250.838 140.205 249.975 139.83L244.98 138L246.615 133.5L251.61 135.285C253.89 136.095 254.745 137.265 254.205 138.795C254.102 139.137 253.91 139.446 253.649 139.691C253.389 139.936 253.068 140.108 252.72 140.19Z" fill="white"/>
<path d="M363.795 144.135V151.065C368.13 151.411 372.246 153.117 375.555 155.94L380.445 151.035C375.828 146.929 369.963 144.499 363.795 144.135Z" fill="#E6E6E6"/>
<path d="M360.45 192.405C355.544 192.009 350.94 189.881 347.458 186.402C343.977 182.923 341.845 178.32 341.445 173.415H334.5C334.906 180.159 337.769 186.521 342.548 191.297C347.327 196.073 353.691 198.933 360.435 199.335L360.45 192.405Z" fill="#F5F5F5"/>
<path d="M341.445 170.07C341.842 165.162 343.972 160.555 347.454 157.073C350.935 153.592 355.542 151.462 360.45 151.065V144.135C353.702 144.537 347.334 147.398 342.553 152.177C337.771 156.956 334.906 163.322 334.5 170.07H341.445Z" fill="#E0E0E0"/>
<path d="M382.815 153.405L377.91 158.31C380.388 161.215 382.015 164.747 382.612 168.518C383.208 172.289 382.751 176.152 381.291 179.679C379.831 183.207 377.424 186.262 374.336 188.508C371.249 190.754 367.601 192.102 363.795 192.405V199.335C368.969 199.022 373.951 197.261 378.173 194.252C382.394 191.242 385.684 187.107 387.667 182.318C389.65 177.528 390.247 172.278 389.389 167.165C388.531 162.053 386.253 157.285 382.815 153.405Z" fill="#EBEBEB"/>
<path d="M127.785 226.23L128.43 241.635L165.36 231.69L183.645 208.95L204.21 201.225L206.25 206.67L221.85 189.885L198.36 182.34L200.685 188.505L180.165 195.915L162.525 219.18L127.785 226.23Z" fill="#E6E6E6"/>
<path d="M588.09 241.92C590.454 246.128 591.518 250.942 591.147 255.754C590.775 260.566 588.986 265.16 586.004 268.955C583.021 272.75 578.981 275.576 574.393 277.075C569.805 278.573 564.876 278.678 560.229 277.376C555.581 276.074 551.424 273.422 548.284 269.758C545.143 266.093 543.159 261.579 542.583 256.787C542.008 251.995 542.866 247.14 545.049 242.836C547.233 238.532 550.643 234.971 554.85 232.605C557.644 231.034 560.72 230.028 563.903 229.645C567.086 229.263 570.313 229.511 573.4 230.376C576.486 231.242 579.373 232.706 581.893 234.687C584.414 236.668 586.519 239.125 588.09 241.92Z" fill="#E6E6E6"/>
<path d="M586.027 270.344C595.883 261.15 596.42 245.707 587.226 235.851C578.032 225.995 562.588 225.458 552.733 234.653C542.877 243.847 542.34 259.29 551.534 269.146C560.728 279.002 576.171 279.538 586.027 270.344Z" fill="#F0F0F0"/>
<path d="M585.911 260.08C590.149 250.923 586.16 240.064 577.002 235.827C567.845 231.59 556.986 235.579 552.749 244.736C548.512 253.894 552.501 264.752 561.658 268.989C570.816 273.227 581.674 269.238 585.911 260.08Z" fill="#E6E6E6"/>
<path d="M578.25 251.91C580.845 255.075 579.75 258.795 575.61 261.615L577.11 264.615L574.47 266.115L572.97 263.115C570.592 264.2 567.993 264.713 565.38 264.615L564.735 260.67C566.924 260.806 569.114 260.42 571.125 259.545L568.725 255.045C565.725 255.75 562.305 256.395 559.935 253.545C557.355 250.38 558.435 246.6 562.74 243.795L561.24 240.795L563.88 239.295L565.47 242.295C567.356 241.433 569.398 240.964 571.47 240.915L572.265 244.785C570.565 244.753 568.877 245.085 567.315 245.76L569.82 250.485C572.685 249.78 576 249.165 578.25 251.91ZM566.67 251.235L564.63 247.38C563.34 248.49 563.13 249.705 563.805 250.62C564.48 251.535 565.5 251.415 566.67 251.235ZM574.5 255C574.145 254.668 573.706 254.44 573.23 254.339C572.754 254.239 572.26 254.27 571.8 254.43L573.75 258.09C574.935 256.965 575.22 255.84 574.5 255Z" fill="white"/>
<path d="M485.37 107.43L462.36 145.62L485.37 159.525V107.43Z" fill="#F5F5F5"/>
<path d="M462.36 145.62L485.37 135.3V159.525L462.36 145.62Z" fill="#EBEBEB"/>
<path d="M485.37 107.43L508.38 145.62L485.37 159.525V107.43Z" fill="#EBEBEB"/>
<path d="M508.38 145.62L485.37 135.3V159.525L508.38 145.62Z" fill="#E0E0E0"/>
<path d="M462.285 152.58L485.445 185.22L485.37 166.38L462.285 152.58Z" fill="#F5F5F5"/>
<path d="M508.455 152.58L485.28 185.22L485.37 166.38L508.455 152.58Z" fill="#EBEBEB"/>
<path d="M166.335 586.335H156.84V586.71H166.335V586.335Z" fill="#EBEBEB"/>
<path d="M378.21 640.515C538.834 640.515 669.045 632.912 669.045 623.535C669.045 614.157 538.834 606.555 378.21 606.555C217.586 606.555 87.375 614.157 87.375 623.535C87.375 632.912 217.586 640.515 378.21 640.515Z" fill="#F5F5F5"/>
<path d="M416.34 622.32H111C104.741 617.917 100.324 611.361 98.5945 603.906C96.8649 596.45 97.944 588.619 101.625 581.91C103.01 579.196 105.078 576.89 107.625 575.22C104.211 568.781 103.19 561.34 104.745 554.22C106.335 547.515 111.885 542.97 117.615 539.31C113.374 514.767 118.17 489.518 131.115 468.24C143.985 447.33 165.21 433.74 188.55 427.125C187.483 418.173 188.311 409.097 190.978 400.486C193.646 391.874 198.095 383.92 204.035 377.139C209.976 370.358 217.276 364.902 225.462 361.125C233.648 357.348 242.536 355.334 251.55 355.215C252.221 348.86 254.265 342.728 257.542 337.242C260.818 331.756 265.248 327.048 270.525 323.445C275.718 319.912 281.637 317.589 287.847 316.647C294.056 315.705 300.398 316.167 306.405 318C307.336 313.5 309.278 309.271 312.084 305.632C314.891 301.994 318.489 299.042 322.605 297C326.725 295.057 331.242 294.101 335.796 294.207C340.35 294.314 344.816 295.481 348.84 297.615C361.11 294.135 374.61 300.69 380.175 312.36C385.74 324.03 382.02 339.51 371.745 347.205C383.34 364.485 382.83 391.545 370.515 408.3C377.295 410.13 380.235 419.85 381.24 426.93C384.143 447.509 380.645 468.482 371.22 487.005C383.73 486.405 395.835 495.735 403.29 505.995C406.989 511.203 409.398 517.216 410.319 523.537C411.239 529.858 410.645 536.308 408.585 542.355C415.845 541.905 422.01 547.65 425.58 554.085C428.258 559.428 429.975 565.201 430.65 571.14C430.937 571.733 431.153 572.357 431.295 573C435.18 590.07 429.195 610.365 416.34 622.32Z" fill="#407BFF"/>
<g opacity="0.6">
<path d="M416.341 622.32H111.001C104.741 617.917 100.325 611.361 98.595 603.906C96.8654 596.45 97.9445 588.619 101.626 581.91C103.01 579.196 105.078 576.89 107.626 575.22C104.211 568.781 103.191 561.34 104.746 554.22C106.336 547.515 111.886 542.97 117.616 539.31C113.374 514.767 118.17 489.518 131.116 468.24C143.986 447.33 165.211 433.74 188.551 427.125C187.484 418.173 188.311 409.097 190.979 400.486C193.646 391.874 198.095 383.92 204.036 377.139C209.976 370.358 217.277 364.902 225.462 361.125C233.648 357.348 242.537 355.334 251.551 355.215C252.221 348.86 254.266 342.728 257.542 337.242C260.819 331.756 265.249 327.048 270.526 323.445C275.719 319.912 281.638 317.589 287.847 316.647C294.057 315.705 300.399 316.167 306.406 318C307.336 313.5 309.278 309.271 312.085 305.632C314.892 301.994 318.489 299.042 322.606 297C326.726 295.057 331.242 294.101 335.796 294.207C340.35 294.314 344.816 295.481 348.841 297.615C361.111 294.135 374.611 300.69 380.176 312.36C385.741 324.03 382.021 339.51 371.746 347.205C383.341 364.485 382.831 391.545 370.516 408.3C377.296 410.13 380.236 419.85 381.241 426.93C384.144 447.509 380.645 468.482 371.221 487.005C383.731 486.405 395.836 495.735 403.291 505.995C406.99 511.203 409.399 517.216 410.319 523.537C411.24 529.858 410.646 536.308 408.586 542.355C415.846 541.905 422.011 547.65 425.581 554.085C428.259 559.428 429.975 565.201 430.651 571.14C430.937 571.733 431.153 572.357 431.296 573C435.181 590.07 429.196 610.365 416.341 622.32Z" fill="white"/>
</g>
<path d="M343.08 272.43L437.445 257.115C437.776 257.065 438.113 257.104 438.424 257.226C438.735 257.348 439.009 257.55 439.217 257.812C439.425 258.073 439.561 258.385 439.61 258.715C439.66 259.046 439.622 259.384 439.5 259.695L403.605 348.3C403.484 348.608 403.283 348.878 403.024 349.084C402.764 349.289 402.455 349.422 402.128 349.469C401.8 349.517 401.466 349.476 401.159 349.353C400.852 349.229 400.583 349.026 400.38 348.765L341.88 275.475C341.674 275.215 341.539 274.906 341.49 274.578C341.441 274.25 341.48 273.914 341.601 273.606C341.723 273.297 341.924 273.026 342.183 272.82C342.443 272.613 342.752 272.479 343.08 272.43Z" fill="#407BFF"/>
<path opacity="0.2" d="M343.08 272.43L437.445 257.115C437.776 257.065 438.113 257.104 438.424 257.226C438.735 257.348 439.009 257.55 439.217 257.812C439.425 258.073 439.561 258.385 439.61 258.715C439.66 259.046 439.622 259.384 439.5 259.695L403.605 348.3C403.484 348.608 403.283 348.878 403.024 349.084C402.764 349.289 402.455 349.422 402.128 349.469C401.8 349.517 401.466 349.476 401.159 349.353C400.852 349.229 400.583 349.026 400.38 348.765L341.88 275.475C341.674 275.215 341.539 274.906 341.49 274.578C341.441 274.25 341.48 273.914 341.601 273.606C341.723 273.297 341.924 273.026 342.183 272.82C342.443 272.613 342.752 272.479 343.08 272.43Z" fill="white"/>
<path d="M349.815 308.175L355.695 300.57L350.58 294.15L341.85 298.2C342.455 300.305 343.47 302.271 344.837 303.983C346.204 305.694 347.896 307.119 349.815 308.175Z" fill="#263238"/>
<path opacity="0.2" d="M350.58 294.15L348.525 295.095C349.729 298.014 351.737 300.532 354.315 302.355L355.695 300.57L350.58 294.15Z" fill="white"/>
<path opacity="0.4" d="M346.336 296.115L344.701 296.88C346.103 300.458 348.556 303.527 351.736 305.685L352.831 304.26C350.159 301.99 347.954 299.224 346.336 296.115Z" fill="white"/>
<path d="M359.055 303.72C356.451 302.294 354.155 300.368 352.299 298.051C350.442 295.734 349.063 293.072 348.24 290.22L402.495 246.93C405.53 244.5 409.015 242.695 412.751 241.618C416.486 240.542 420.398 240.217 424.26 240.66C423.834 244.522 422.647 248.262 420.768 251.663C418.888 255.064 416.354 258.059 413.31 260.475L359.055 303.72Z" fill="#407BFF"/>
<path d="M402.495 246.885L351.36 287.7C353.344 293.284 357.148 298.039 362.16 301.2L413.31 260.385C416.354 257.969 418.889 254.974 420.768 251.573C422.647 248.172 423.834 244.432 424.26 240.57C420.395 240.133 416.482 240.466 412.746 241.55C409.01 242.633 405.526 244.447 402.495 246.885Z" fill="#407BFF"/>
<path opacity="0.5" d="M402.495 246.885L351.36 287.7C353.344 293.284 357.148 298.039 362.16 301.2L413.31 260.385C416.354 257.969 418.889 254.974 420.768 251.573C422.647 248.172 423.834 244.432 424.26 240.57C420.395 240.133 416.482 240.466 412.746 241.55C409.01 242.633 405.526 244.447 402.495 246.885Z" fill="white"/>
<path d="M402.495 246.885L400.155 248.76C402.426 254.179 406.167 258.855 410.955 262.26L413.31 260.385C416.354 257.969 418.889 254.974 420.768 251.573C422.647 248.172 423.834 244.432 424.26 240.57C420.395 240.133 416.482 240.466 412.746 241.55C409.01 242.633 405.526 244.447 402.495 246.885Z" fill="#407BFF"/>
<path opacity="0.2" d="M402.495 246.885L400.155 248.76C402.426 254.179 406.167 258.855 410.955 262.26L413.31 260.385C416.354 257.969 418.889 254.974 420.768 251.573C422.647 248.172 423.834 244.432 424.26 240.57C420.395 240.133 416.482 240.466 412.746 241.55C409.01 242.633 405.526 244.447 402.495 246.885Z" fill="white"/>
<path d="M378.33 341.655L384.21 334.035L379.095 327.63L370.38 331.68C370.981 333.785 371.993 335.75 373.358 337.462C374.722 339.174 376.412 340.599 378.33 341.655Z" fill="#263238"/>
<path opacity="0.2" d="M379.096 327.63L377.056 328.575C378.253 331.494 380.263 334.008 382.846 335.82L384.211 334.035L379.096 327.63Z" fill="white"/>
<path opacity="0.4" d="M374.865 329.595L373.23 330.345C374.622 333.928 377.07 337.004 380.25 339.165L381.36 337.665C378.693 335.421 376.487 332.68 374.865 329.595Z" fill="white"/>
<path d="M387.586 337.2C382.333 334.312 378.443 329.456 376.771 323.7L431.026 280.41C434.061 277.981 437.546 276.175 441.281 275.096C445.016 274.018 448.927 273.688 452.79 274.125C452.357 277.987 451.167 281.726 449.288 285.129C447.409 288.531 444.878 291.53 441.841 293.955L387.586 337.2Z" fill="#407BFF"/>
<path d="M431.025 280.365L379.875 321.165C381.866 326.749 385.674 331.503 390.69 334.665L441.84 293.865C444.878 291.44 447.409 288.441 449.287 285.039C451.166 281.636 452.356 277.897 452.79 274.035C448.924 273.604 445.011 273.941 441.276 275.027C437.541 276.114 434.057 277.928 431.025 280.365Z" fill="#407BFF"/>
<path opacity="0.5" d="M431.025 280.365L379.875 321.165C381.866 326.749 385.674 331.503 390.69 334.665L441.84 293.865C444.878 291.44 447.409 288.441 449.287 285.039C451.166 281.636 452.356 277.897 452.79 274.035C448.924 273.604 445.011 273.941 441.276 275.027C437.541 276.114 434.057 277.928 431.025 280.365Z" fill="white"/>
<path d="M431.026 280.365L428.686 282.225C430.956 287.644 434.697 292.32 439.486 295.725L441.841 293.85C444.878 291.425 447.409 288.426 449.288 285.024C451.167 281.621 452.357 277.882 452.791 274.02C448.924 273.591 445.01 273.931 441.275 275.02C437.539 276.108 434.056 277.925 431.026 280.365Z" fill="#407BFF"/>
<path opacity="0.2" d="M431.026 280.365L428.686 282.225C430.956 287.644 434.697 292.32 439.486 295.725L441.841 293.85C444.878 291.425 447.409 288.426 449.288 285.024C451.167 281.621 452.357 277.882 452.791 274.02C448.924 273.591 445.01 273.931 441.275 275.02C437.539 276.108 434.056 277.925 431.026 280.365Z" fill="white"/>
<path d="M363.136 330.66L372.646 318.39L364.381 308.025L350.296 314.565C351.267 317.963 352.902 321.134 355.106 323.897C357.31 326.659 360.039 328.958 363.136 330.66Z" fill="#263238"/>
<path opacity="0.2" d="M364.381 308.025L361.081 309.525C363.014 314.233 366.251 318.292 370.411 321.225L372.646 318.36L364.381 308.025Z" fill="white"/>
<path opacity="0.4" d="M357.541 311.205L354.886 312.435C357.148 318.213 361.106 323.171 366.241 326.655L368.026 324.345C363.71 320.688 360.148 316.225 357.541 311.205Z" fill="white"/>
<path d="M378.001 323.475C373.796 321.158 370.09 318.033 367.096 314.28C364.103 310.527 361.88 306.219 360.556 301.605L448.141 231.72C453.042 227.803 458.668 224.892 464.696 223.154C470.725 221.417 477.037 220.887 483.271 221.595C482.579 227.829 480.662 233.865 477.629 239.356C474.597 244.847 470.509 249.684 465.601 253.59L378.001 323.475Z" fill="#407BFF"/>
<path d="M448.201 231.72L365.701 297.6C368.872 306.645 374.996 314.359 383.086 319.5L465.661 253.62C470.569 249.714 474.657 244.877 477.689 239.386C480.722 233.895 482.639 227.859 483.331 221.625C477.099 220.913 470.788 221.438 464.759 223.17C458.731 224.903 453.104 227.808 448.201 231.72Z" fill="#407BFF"/>
<path opacity="0.6" d="M448.201 231.72L365.701 297.6C368.872 306.645 374.996 314.359 383.086 319.5L465.661 253.62C470.569 249.714 474.657 244.877 477.689 239.386C480.722 233.895 482.639 227.859 483.331 221.625C477.099 220.913 470.788 221.438 464.759 223.17C458.731 224.903 453.104 227.808 448.201 231.72Z" fill="white"/>
<path d="M448.201 231.72L444.421 234.72C448.077 243.497 454.121 251.074 461.866 256.59L465.661 253.59C470.569 249.684 474.657 244.847 477.69 239.356C480.722 233.865 482.639 227.829 483.331 221.595C477.097 220.887 470.785 221.417 464.756 223.154C458.728 224.892 453.102 227.803 448.201 231.72Z" fill="#407BFF"/>
<path opacity="0.2" d="M448.201 231.72L444.421 234.72C448.077 243.497 454.121 251.074 461.866 256.59L465.661 253.59C470.569 249.684 474.657 244.847 477.69 239.356C480.722 233.865 482.639 227.829 483.331 221.595C477.097 220.887 470.785 221.417 464.756 223.154C458.728 224.892 453.102 227.803 448.201 231.72Z" fill="white"/>
<path d="M444.495 263.01C443.235 264.012 441.707 264.619 440.102 264.753C438.498 264.887 436.889 264.543 435.48 263.763C434.072 262.983 432.925 261.804 432.187 260.373C431.448 258.943 431.15 257.325 431.33 255.725C431.51 254.125 432.16 252.614 433.199 251.384C434.237 250.153 435.617 249.258 437.164 248.811C438.71 248.364 440.355 248.386 441.89 248.873C443.424 249.361 444.78 250.292 445.785 251.55C447.133 253.241 447.753 255.398 447.512 257.547C447.27 259.695 446.185 261.66 444.495 263.01Z" fill="#407BFF"/>
<path d="M433.036 261.72C431.757 260.114 431.131 258.085 431.284 256.038C431.437 253.991 432.357 252.077 433.86 250.68C433.688 250.79 433.523 250.91 433.366 251.04C432.529 251.707 431.833 252.533 431.316 253.47C430.799 254.407 430.471 255.437 430.352 256.5C430.233 257.564 430.325 258.64 430.622 259.668C430.919 260.696 431.415 261.656 432.083 262.492C432.751 263.328 433.577 264.025 434.514 264.542C435.451 265.059 436.48 265.386 437.544 265.505C438.607 265.624 439.684 265.533 440.712 265.236C441.74 264.939 442.699 264.442 443.536 263.775L443.985 263.37C442.288 264.526 440.217 264.998 438.187 264.692C436.157 264.386 434.317 263.324 433.036 261.72Z" fill="#407BFF"/>
<path opacity="0.3" d="M433.036 261.72C431.757 260.114 431.131 258.085 431.284 256.038C431.437 253.991 432.357 252.077 433.86 250.68C433.688 250.79 433.523 250.91 433.366 251.04C432.529 251.707 431.833 252.533 431.316 253.47C430.799 254.407 430.471 255.437 430.352 256.5C430.233 257.564 430.325 258.64 430.622 259.668C430.919 260.696 431.415 261.656 432.083 262.492C432.751 263.328 433.577 264.025 434.514 264.542C435.451 265.059 436.48 265.386 437.544 265.505C438.607 265.624 439.684 265.533 440.712 265.236C441.74 264.939 442.699 264.442 443.536 263.775L443.985 263.37C442.288 264.526 440.217 264.998 438.187 264.692C436.157 264.386 434.317 263.324 433.036 261.72Z" fill="black"/>
<path d="M442.995 261.135C442.104 261.846 441.023 262.277 439.887 262.373C438.751 262.47 437.612 262.227 436.615 261.676C435.617 261.124 434.806 260.289 434.283 259.277C433.76 258.264 433.549 257.119 433.677 255.986C433.805 254.854 434.267 253.785 435.003 252.914C435.739 252.044 436.716 251.412 437.812 251.097C438.907 250.783 440.072 250.801 441.157 251.148C442.243 251.496 443.201 252.158 443.91 253.05C444.384 253.64 444.736 254.317 444.946 255.044C445.157 255.771 445.222 256.532 445.136 257.283C445.051 258.035 444.818 258.762 444.451 259.423C444.083 260.084 443.588 260.666 442.995 261.135Z" fill="white"/>
<path d="M434.745 259.98L444.885 254.895C444.685 254.273 444.381 253.69 443.985 253.17L433.875 258.225C434.067 258.854 434.361 259.447 434.745 259.98Z" fill="#407BFF"/>
<path d="M436.32 261.465L445.14 257.055C445.178 256.696 445.178 256.334 445.14 255.975L435.495 260.805C435.75 261.048 436.026 261.269 436.32 261.465Z" fill="#407BFF"/>
<g opacity="0.7">
<path d="M434.745 259.98L444.885 254.895C444.685 254.273 444.381 253.69 443.985 253.17L433.875 258.225C434.067 258.854 434.361 259.447 434.745 259.98Z" fill="white"/>
<path d="M436.32 261.465L445.14 257.055C445.178 256.696 445.178 256.334 445.14 255.975L435.495 260.805C435.75 261.049 436.026 261.27 436.32 261.465Z" fill="white"/>
</g>
<path d="M543.39 351.51H462.78V622.11H543.39V351.51Z" fill="#407BFF"/>
<path opacity="0.2" d="M485.355 351.48H462.585V621.96H485.355V351.48Z" fill="black"/>
<path d="M177.945 546.855H97.3354V622.125H177.945V546.855Z" fill="#407BFF"/>
<path opacity="0.2" d="M119.355 546.78H96.5854V621.975H119.355V546.78Z" fill="black"/>
<path d="M294.975 481.74H214.365V622.11H294.975V481.74Z" fill="#407BFF"/>
<path opacity="0.2" d="M236.581 481.68H213.811V621.975H236.581V481.68Z" fill="black"/>
<path d="M420.345 416.625H339.735V622.11H420.345V416.625Z" fill="#407BFF"/>
<path opacity="0.2" d="M362.13 416.58H339.36V621.975H362.13V416.58Z" fill="black"/>
<path d="M660.421 286.395H579.811V622.11H660.421V286.395Z" fill="#407BFF"/>
<path opacity="0.2" d="M602.581 286.395H579.811V621.975H602.581V286.395Z" fill="black"/>
<path d="M257.88 437.76L251.22 460.485L261.03 462.78L268.5 441.03L257.88 437.76Z" fill="#FF8B7B"/>
<path d="M263.235 460.155L252 457.98C251.785 457.948 251.566 457.99 251.378 458.099C251.19 458.208 251.044 458.378 250.965 458.58L246.93 468.03C246.747 468.415 246.721 468.856 246.859 469.26C246.996 469.663 247.285 469.997 247.665 470.19L247.98 470.295C252.06 471 255.735 471.45 260.805 472.425C266.805 473.58 265.11 474.06 272.13 475.515C276.345 476.385 278.13 471.375 276.435 470.775C268.425 468.09 268.11 465.27 265.575 461.505C265.003 460.765 264.162 460.28 263.235 460.155Z" fill="#263238"/>
<path d="M204.825 289.425L243.54 313.125L202.98 320.235L204.825 289.425Z" fill="#263238"/>
<path d="M266.88 452.04L252.9 449.535C252.9 449.535 258.105 430.155 263.745 403.665C264.615 399.585 275.85 368.535 275.85 368.535C275.85 368.535 220.35 342.525 219.465 342.24C218.76 342.015 214.215 341.67 207.12 336.12C193.92 325.8 198.12 305.61 198.12 305.61L232.62 306.435C266.295 324.435 295.53 350.73 299.475 361.5C305.025 376.665 266.88 452.04 266.88 452.04Z" fill="#263238"/>
<path d="M128.355 427.635L105.3 433.065L108.165 442.74L130.755 438.48L128.355 427.635Z" fill="#FF8B7B"/>
<path d="M111.525 443.34L107.835 432.45C107.754 432.248 107.609 432.078 107.422 431.967C107.235 431.856 107.016 431.809 106.8 431.835L96.5849 433.005C96.1603 433.036 95.765 433.232 95.4843 433.552C95.2036 433.872 95.0601 434.29 95.0849 434.715C95.0707 434.819 95.0707 434.925 95.0849 435.03C96.4949 438.93 97.9049 442.35 99.5849 447.24C101.55 453.015 100.305 451.74 102.585 458.61C103.905 462.72 109.17 461.82 108.825 460.005C107.205 451.725 109.5 450.06 111.525 445.995C111.869 445.143 111.869 444.191 111.525 443.34Z" fill="#263238"/>
<path d="M120.39 442.5L115.665 429.12L189 388.245C189 388.245 184.215 327.18 183.99 326.235C183.765 325.29 181.89 321.39 183.21 312.465C185.655 295.965 205.245 289.53 205.245 289.53L222 324.885C222 324.885 214.215 396.555 206.805 405.3C196.38 417.615 120.39 442.5 120.39 442.5Z" fill="#263238"/>
<path opacity="0.2" d="M219.465 342.24L207.12 336.12L216.63 365.4L219.465 342.24Z" fill="black"/>
<path d="M249 246.12C242.64 247.485 236.25 248.7 229.86 249.885L225.06 250.755L220.785 251.49C218.934 251.884 217.23 252.788 215.865 254.1L209.13 261C206.88 263.34 204.63 265.68 202.335 267.975C197.835 272.595 193.185 277.2 188.505 281.73C187.767 282.443 186.79 282.855 185.764 282.886C184.738 282.917 183.737 282.565 182.957 281.897C182.177 281.23 181.674 280.296 181.546 279.277C181.418 278.259 181.675 277.229 182.265 276.39C185.985 271.065 189.765 265.89 193.665 260.61C195.57 257.97 197.52 255.39 199.47 252.81L205.47 244.905C208.421 241.338 212.345 238.706 216.765 237.33L221.955 235.92L226.635 234.69C232.89 233.1 239.13 231.51 245.415 230.07C247.456 229.806 249.521 230.315 251.206 231.496C252.891 232.676 254.074 234.444 254.523 236.452C254.972 238.46 254.654 240.563 253.633 242.349C252.611 244.135 250.959 245.474 249 246.105V246.12Z" fill="#407BFF"/>
<path opacity="0.1" d="M249 246.12C242.64 247.485 236.25 248.7 229.86 249.885L225.06 250.755L220.785 251.49C218.934 251.884 217.23 252.788 215.865 254.1L209.13 261C206.88 263.34 204.63 265.68 202.335 267.975C197.835 272.595 193.185 277.2 188.505 281.73C187.767 282.443 186.79 282.855 185.764 282.886C184.738 282.917 183.737 282.565 182.957 281.897C182.177 281.23 181.674 280.296 181.546 279.277C181.418 278.259 181.675 277.229 182.265 276.39C185.985 271.065 189.765 265.89 193.665 260.61C195.57 257.97 197.52 255.39 199.47 252.81L205.47 244.905C208.421 241.338 212.345 238.706 216.765 237.33L221.955 235.92L226.635 234.69C232.89 233.1 239.13 231.51 245.415 230.07C247.456 229.806 249.521 230.315 251.206 231.496C252.891 232.676 254.074 234.444 254.523 236.452C254.972 238.46 254.654 240.563 253.633 242.349C252.611 244.135 250.959 245.474 249 246.105V246.12Z" fill="black"/>
<path d="M180.99 276.3L171.09 280.14L180.09 288.81L187.59 282.81C187.801 282.644 187.976 282.437 188.103 282.202C188.231 281.966 188.31 281.707 188.333 281.44C188.357 281.173 188.326 280.904 188.242 280.649C188.158 280.395 188.023 280.16 187.845 279.96C187.002 278.926 185.962 278.07 184.785 277.442C183.608 276.813 182.318 276.425 180.99 276.3Z" fill="#FF8B7B"/>
<path d="M171.09 280.14L169.59 283.02C169.216 283.712 169.098 284.515 169.258 285.286C169.417 286.057 169.843 286.747 170.46 287.235L173.64 289.725C174.115 290.1 174.683 290.338 175.283 290.415C175.882 290.491 176.492 290.403 177.045 290.16L180.045 288.81L171.09 280.14Z" fill="#FF8B7B"/>
<path d="M126.63 319.395L122.985 318.795L125.25 316.05L170.865 299.67C178.125 297.06 182.865 292.17 179.115 283.29C175.65 275.04 167.85 272.595 160.605 275.175L114.99 291.36L111.3 290.67L113.595 288L159.225 271.845C167.655 268.845 175.725 269.535 181.26 282.495C186.795 295.455 180.69 299.91 172.26 302.94L126.63 319.395Z" fill="#263238"/>
<path d="M140.145 269.895L139.14 267.63C138.131 265.358 136.329 263.531 134.07 262.493C131.811 261.455 129.251 261.276 126.87 261.99L93.2251 272.1L99.2251 286.965L140.145 269.895Z" fill="#263238"/>
<path opacity="0.2" d="M140.145 269.895L139.14 267.63C138.131 265.358 136.329 263.531 134.07 262.493C131.811 261.455 129.251 261.276 126.87 261.99L93.2251 272.1L99.2251 286.965L140.145 269.895Z" fill="white"/>
<path d="M128.58 324.735L127.185 321.39L171.42 301.89C178.455 298.8 182.985 293.445 179.265 284.61C175.8 276.345 168.18 274.29 161.145 277.35L116.91 296.64L115.5 293.31L159.735 274.065C167.925 270.51 175.86 270.735 181.32 283.725C186.78 296.715 180.975 301.62 172.8 305.22L128.58 324.735Z" fill="#263238"/>
<path d="M123.54 345.63L96.2695 279.72L129.27 265.635C130.258 265.194 131.324 264.955 132.406 264.931C133.488 264.907 134.564 265.099 135.571 265.496C136.578 265.893 137.495 266.486 138.27 267.241C139.045 267.996 139.662 268.899 140.085 269.895L160.11 317.805C161.178 320.449 161.177 323.405 160.104 326.048C159.032 328.691 156.974 330.813 154.365 331.965L123.54 345.63Z" fill="#263238"/>
<g opacity="0.3">
<path d="M128.581 324.735L125.026 324.315L127.186 321.315L171.421 301.815C178.456 298.725 182.986 293.37 179.266 284.535C175.801 276.27 168.181 274.215 161.146 277.275L116.911 296.64L113.311 296.145L115.501 293.31L159.736 274.065C167.926 270.51 175.861 270.735 181.321 283.725C186.781 296.715 180.976 301.62 172.801 305.22L128.581 324.735Z" fill="white"/>
</g>
<path d="M134.415 290.115L132.135 284.64L134.175 283.74L136.47 289.23L134.415 290.115Z" fill="#263238"/>
<path d="M121.125 295.92L118.83 290.415L120.885 289.515L123.18 295.02L121.125 295.92Z" fill="#263238"/>
<path d="M146.175 318.315L143.88 312.795L145.92 311.895L148.215 317.4L146.175 318.315Z" fill="#263238"/>
<path d="M132.87 324.18L130.575 318.66L132.63 317.745L134.925 323.265L132.87 324.18Z" fill="#263238"/>
<path d="M300.705 221.085C301.14 221.295 301.23 222 300.9 222.585C300.57 223.17 299.97 223.605 299.55 223.395C299.13 223.185 299.04 222.48 299.355 221.82C299.67 221.16 300.285 220.86 300.705 221.085Z" fill="#263238"/>
<path d="M300.405 221.595C300.965 221.702 301.545 221.606 302.04 221.325C301.759 221.352 301.475 221.324 301.205 221.242C300.935 221.16 300.683 221.025 300.465 220.845C300.515 220.966 300.536 221.097 300.526 221.227C300.515 221.357 300.474 221.483 300.405 221.595Z" fill="#263238"/>
<path d="M296.67 227.85C297.136 228.249 297.683 228.542 298.274 228.708C298.865 228.874 299.484 228.908 300.09 228.81C299.643 226.458 299.517 224.056 299.715 221.67L296.67 227.85Z" fill="#FF5652"/>
<path d="M298.335 217.725C298.859 217.603 299.404 217.607 299.926 217.738C300.447 217.868 300.931 218.121 301.335 218.475L301.425 218.58C301.471 218.615 301.524 218.64 301.58 218.655C301.636 218.669 301.694 218.672 301.752 218.664C301.809 218.656 301.864 218.636 301.914 218.606C301.963 218.576 302.006 218.536 302.04 218.49C302.075 218.445 302.1 218.393 302.115 218.339C302.129 218.284 302.132 218.227 302.123 218.17C302.115 218.114 302.095 218.061 302.066 218.012C302.036 217.964 301.997 217.922 301.95 217.89C301.459 217.426 300.862 217.089 300.212 216.906C299.561 216.723 298.876 216.7 298.215 216.84C298.114 216.856 298.023 216.909 297.96 216.99C297.882 217.073 297.839 217.183 297.839 217.297C297.839 217.411 297.882 217.521 297.96 217.605C298.011 217.65 298.07 217.684 298.135 217.705C298.2 217.726 298.268 217.732 298.335 217.725Z" fill="#263238"/>
<path d="M268.394 248.385C258.674 240.885 261.344 234.465 261.344 234.465C266.429 233.925 270.629 228.9 273.629 223.845C273.556 225.539 273.795 227.232 274.334 228.84C275.429 232.17 282.344 233.685 282.344 233.685C282.344 233.685 281.669 234.54 280.844 235.815C278.624 238.95 275.129 244.74 277.214 247.71C277.139 247.71 279.089 256.65 268.394 248.385Z" fill="#FF8B7B"/>
<path d="M281.88 234.585C281.43 234.945 280.98 235.305 280.545 235.725C280.497 235.742 280.444 235.742 280.395 235.725C278.973 235.071 277.704 234.126 276.67 232.95C275.636 231.774 274.861 230.394 274.395 228.9C273.849 227.289 273.609 225.589 273.69 223.89C274.47 222.615 275.19 221.31 275.76 220.11L281.76 234.12L281.88 234.585Z" fill="#FF8B7B"/>
<path d="M294.99 232.17C293.653 233.808 291.923 235.08 289.961 235.867C287.998 236.654 285.868 236.93 283.77 236.67C282.676 236.548 281.608 236.254 280.605 235.8C280.557 235.817 280.504 235.817 280.455 235.8C279.033 235.146 277.764 234.201 276.73 233.025C275.696 231.849 274.921 230.469 274.455 228.975C273.909 227.364 273.669 225.664 273.75 223.965C273.915 219.885 275.85 215.82 278.34 209.895C279.119 207.959 280.381 206.255 282.006 204.944C283.63 203.634 285.563 202.761 287.62 202.409C289.677 202.058 291.79 202.238 293.758 202.934C295.725 203.63 297.482 204.818 298.86 206.385C305.04 213.33 300.27 225.78 294.99 232.17Z" fill="#FF8B7B"/>
<path opacity="0.2" d="M283.095 236.4C282.289 236.355 281.5 236.157 280.77 235.815C281.67 234.54 282.36 233.7 282.27 233.685L284.115 231.645C284.115 231.645 282.585 235.995 283.095 236.4Z" fill="black"/>
<path d="M302.82 217.035C301.065 217.665 297.765 216.765 298.08 216.555C299.31 215.85 300.795 213.81 299.16 213.255C298.89 214.335 295.245 221.115 294.195 221.445C293.625 221.64 289.695 226.185 284.28 228.78C280.035 230.85 279.21 231.885 279.21 231.885L271.71 227.97C269.49 225.72 264.135 205.575 275.49 201.735C279.21 200.475 282.06 197.325 287.97 199.02C291.615 200.07 295.89 199.425 299.475 200.67C301.304 201.205 302.975 202.177 304.345 203.502C305.714 204.827 306.74 206.465 307.335 208.275C307.74 210.075 307.26 215.475 302.82 217.035Z" fill="#263238"/>
<path d="M295.98 218.655C297.48 220.845 296.235 224.655 294.825 226.635C293.415 228.615 290.82 229.02 290.1 226.17C289.585 224.004 289.79 221.729 290.685 219.69C291.81 217.26 294.42 216.465 295.98 218.655Z" fill="#FF8B7B"/>
<path d="M255.841 235.755C255.841 235.755 260.986 232.32 264.391 232.65C267.796 232.98 276.511 242.31 277.591 244.14C278.671 245.97 277.396 250.785 277.396 250.785L255.841 235.755Z" fill="#407BFF"/>
<path opacity="0.3" d="M255.841 235.755C255.841 235.755 260.986 232.32 264.391 232.65C267.796 232.98 276.511 242.31 277.591 244.14C278.671 245.97 277.396 250.785 277.396 250.785L255.841 235.755Z" fill="white"/>
<path d="M280.02 251.654C279.009 250.404 277.927 249.212 276.78 248.084C271.663 243.634 266.294 239.482 260.7 235.649C258.66 234.31 256.513 233.141 254.28 232.154C252.096 231.145 249.625 230.944 247.306 231.586C244.988 232.229 242.973 233.674 241.62 235.664C233.865 247.124 232.035 256.019 226.875 263.519C220.143 273.139 212.276 281.912 203.445 289.649L209.865 296.519C219.86 304.261 231.313 309.909 243.54 313.124C243.54 313.124 255.225 294.464 261.93 289.709C280.245 276.704 279.15 271.499 282 265.874C283.155 263.584 283.584 260.996 283.231 258.455C282.877 255.915 281.757 253.542 280.02 251.654Z" fill="#407BFF"/>
<path d="M282.001 265.89C280.981 267.885 280.501 269.865 279.376 272.16C277.33 276.214 274.452 279.792 270.931 282.66C268.069 285.186 265.064 287.545 261.931 289.725C259.107 292.049 256.587 294.72 254.431 297.675C253.214 299.23 252.504 301.121 252.397 303.093C252.29 305.065 252.79 307.022 253.831 308.7C258.586 316.455 265.831 327.525 265.831 327.525C260.671 326.175 258.571 325.62 250.366 328.215C237.526 332.265 210.601 328.695 203.011 317.85C205.044 312.78 208.24 308.258 212.341 304.65C207.637 307.765 203.321 311.431 199.486 315.57C196.096 316.275 192.661 314.415 190.216 312C187.771 309.585 185.941 306.555 183.586 304.05C181.231 301.545 178.651 299.175 175.216 299.475C179.716 293.475 187.321 291.015 194.476 288.975C199.816 287.475 206.626 285.225 211.726 281.85C217.324 276.218 222.409 270.099 226.921 263.565C232.066 256.065 233.881 247.17 241.666 235.695C243.016 233.702 245.031 232.255 247.351 231.612C249.67 230.969 252.142 231.172 254.326 232.185C256.558 233.177 258.705 234.351 260.746 235.695C266.329 239.525 271.693 243.667 276.811 248.1C277.954 249.236 279.036 250.433 280.051 251.685C281.774 253.578 282.882 255.949 283.231 258.485C283.579 261.021 283.15 263.602 282.001 265.89Z" fill="#407BFF"/>
<path d="M352.966 246.315L360.691 242.97C361.01 242.83 361.312 242.654 361.591 242.445L365.071 239.73C365.312 239.545 365.492 239.291 365.586 239.001C365.679 238.712 365.683 238.401 365.596 238.11L362.071 232.5C361.967 232.085 361.714 231.723 361.359 231.485C361.004 231.247 360.574 231.149 360.151 231.21L354.931 233.16C354.538 233.3 354.187 233.537 353.911 233.85L348.676 239.55C348.466 239.818 348.331 240.137 348.286 240.475C348.241 240.812 348.288 241.156 348.421 241.47L350.731 245.13C350.882 245.575 351.198 245.945 351.613 246.165C352.029 246.386 352.512 246.439 352.966 246.315Z" fill="#FF8B7B"/>
<path opacity="0.2" d="M270.916 282.629L274.246 264.479L281.296 268.274C278.806 274.859 275.881 278.219 270.916 282.629Z" fill="black"/>
<path d="M321.871 270.09C331.501 263.4 343.591 253.95 352.411 246.345C353.236 243.435 350.491 239.61 347.701 240.78C340.756 243.69 320.011 255.195 316.351 255.3C313.831 255.375 287.851 251.625 279.361 250.395C277.674 250.132 275.949 250.501 274.516 251.43C269.821 254.61 268.621 258.09 268.891 261.15C269.162 263.476 270.245 265.633 271.949 267.24C273.652 268.848 275.868 269.804 278.206 269.94C290.071 270.825 307.861 271.815 314.791 272.115C317.31 272.239 319.799 271.527 321.871 270.09Z" fill="#407BFF"/>
<path d="M289.306 224.445C286.576 232.29 282.916 247.26 276.901 252.945C270.886 258.63 262.441 258.945 254.401 260.835C252.466 261.315 249.991 263.76 250.021 263.37C248.026 265.596 246.764 268.382 246.406 271.35L237.661 264.525C236.783 263.944 236.062 263.156 235.561 262.23C235.298 261.381 235.249 260.481 235.419 259.609C235.589 258.738 235.973 257.922 236.536 257.235C237.642 255.4 238.528 253.442 239.176 251.4C236.143 253.669 233.872 256.808 232.666 260.4C228.406 258.9 223.426 255.315 223.336 250.785C223.304 248.991 223.649 247.211 224.349 245.56C225.05 243.909 226.089 242.423 227.401 241.2C224.421 242.778 222.009 245.248 220.501 248.265C219.586 245.58 217.351 242.91 214.501 243C216.682 238.159 219.48 233.621 222.826 229.5C226.336 225.555 231.121 222.45 236.326 222.09C240.346 221.805 244.291 223.11 248.131 224.325C251.971 225.54 255.961 226.725 259.951 226.215C263.941 225.705 268.051 219.585 268.801 215.625C274.501 212.355 282.511 220.395 289.306 224.445Z" fill="#263238"/>
<path opacity="0.2" d="M315.885 217.305C315.485 225.098 312.007 232.413 306.216 237.642C300.424 242.871 292.793 245.586 285 245.19H284.895C283.671 245.117 282.454 244.966 281.25 244.74C275.534 236.668 267.83 230.21 258.885 225.99C258.473 224.862 258.132 223.71 257.865 222.54C256.906 218.441 256.838 214.185 257.665 210.057C258.492 205.93 260.196 202.029 262.66 198.616C265.125 195.204 268.293 192.36 271.951 190.278C275.609 188.195 279.671 186.921 283.863 186.543C288.055 186.165 292.28 186.69 296.251 188.085C300.223 189.479 303.849 191.71 306.884 194.626C309.92 197.542 312.294 201.076 313.847 204.988C315.4 208.901 316.095 213.101 315.885 217.305Z" fill="black"/>
<path d="M296.475 243.51C292.804 244.824 288.909 245.395 285.015 245.19H284.91C283.682 245.118 282.459 244.968 281.25 244.74C275.537 236.665 267.833 230.206 258.885 225.99C258.466 224.864 258.125 223.712 257.865 222.54C256.972 218.753 256.839 214.826 257.475 210.987C258.11 207.148 259.502 203.474 261.568 200.177C263.634 196.879 266.335 194.025 269.513 191.78C272.69 189.534 276.282 187.942 280.08 187.095C281.804 187.957 283.312 189.198 284.49 190.725C286.937 194.251 288.416 198.358 288.78 202.635C289.651 209.078 289.499 215.619 288.33 222.015C287.427 226.405 287.855 230.965 289.56 235.11C292.5 241.77 296.475 243.51 296.475 243.51Z" fill="#407BFF"/>
<path opacity="0.4" d="M296.475 243.51C292.804 244.824 288.909 245.395 285.015 245.19H284.91C283.682 245.118 282.459 244.968 281.25 244.74C275.537 236.665 267.833 230.206 258.885 225.99C258.466 224.864 258.125 223.712 257.865 222.54C256.972 218.753 256.839 214.826 257.475 210.987C258.11 207.148 259.502 203.474 261.568 200.177C263.634 196.879 266.335 194.025 269.513 191.78C272.69 189.534 276.282 187.942 280.08 187.095C281.804 187.957 283.312 189.198 284.49 190.725C286.937 194.251 288.416 198.358 288.78 202.635C289.651 209.078 289.499 215.619 288.33 222.015C287.427 226.405 287.855 230.965 289.56 235.11C292.5 241.77 296.475 243.51 296.475 243.51Z" fill="white"/>
<path d="M284.535 247.35C284.402 247.47 284.245 247.563 284.075 247.621C283.906 247.68 283.726 247.704 283.546 247.691C283.367 247.678 283.192 247.63 283.032 247.548C282.872 247.466 282.73 247.353 282.615 247.215C282.135 246.435 281.625 245.715 281.115 244.905C275.531 236.741 267.923 230.166 259.035 225.825C258.12 225.36 257.205 224.94 256.29 224.535C255.375 224.13 255.615 223.035 256.29 222.42C256.546 222.235 256.853 222.136 257.168 222.136C257.483 222.136 257.79 222.235 258.045 222.42C258.256 222.538 258.428 222.715 258.54 222.93C269.1 228.009 278.145 235.767 284.775 245.43C284.968 245.727 285.05 246.082 285.006 246.434C284.962 246.785 284.795 247.109 284.535 247.35Z" fill="#407BFF"/>
<path d="M290.7 218.28C290.7 218.793 290.548 219.295 290.262 219.721C289.977 220.148 289.572 220.481 289.098 220.677C288.624 220.873 288.102 220.925 287.599 220.825C287.095 220.725 286.633 220.477 286.27 220.115C285.907 219.752 285.66 219.289 285.56 218.786C285.459 218.282 285.511 217.761 285.707 217.287C285.904 216.812 286.236 216.407 286.663 216.122C287.09 215.837 287.592 215.685 288.105 215.685C288.793 215.685 289.453 215.958 289.94 216.445C290.426 216.931 290.7 217.591 290.7 218.28Z" fill="#263238"/>
<path d="M291.57 219C291.573 219.517 291.422 220.024 291.136 220.455C290.851 220.887 290.443 221.224 289.966 221.423C289.488 221.623 288.962 221.676 288.455 221.575C287.947 221.475 287.48 221.226 287.115 220.86C286.749 220.494 286.5 220.028 286.4 219.52C286.299 219.013 286.352 218.487 286.552 218.009C286.751 217.532 287.088 217.124 287.519 216.838C287.951 216.553 288.458 216.402 288.975 216.405C289.662 216.409 290.32 216.683 290.806 217.169C291.291 217.655 291.566 218.313 291.57 219Z" fill="#407BFF"/>
<path opacity="0.7" d="M291.57 219C291.573 219.517 291.422 220.024 291.136 220.455C290.851 220.887 290.443 221.224 289.966 221.423C289.488 221.623 288.962 221.676 288.455 221.575C287.947 221.475 287.48 221.226 287.115 220.86C286.749 220.494 286.5 220.028 286.4 219.52C286.299 219.013 286.352 218.487 286.552 218.009C286.751 217.532 287.088 217.124 287.519 216.838C287.951 216.553 288.458 216.402 288.975 216.405C289.662 216.409 290.32 216.683 290.806 217.169C291.291 217.655 291.566 218.313 291.57 219Z" fill="white"/>
<path d="M657.465 156.195C657.465 165.962 653.585 175.328 646.679 182.234C639.773 189.14 630.407 193.02 620.64 193.02C619.815 193.02 619.005 193.02 618.18 192.93C608.839 192.333 600.076 188.201 593.672 181.375C587.268 174.549 583.704 165.54 583.704 156.18C583.704 146.82 587.268 137.811 593.672 130.985C600.076 124.159 608.839 120.027 618.18 119.43C619.005 119.43 619.815 119.43 620.64 119.43C630.396 119.43 639.754 123.302 646.658 130.195C653.562 137.088 657.449 146.439 657.465 156.195Z" fill="#407BFF"/>
<path opacity="0.2" d="M652.5 156.195C652.061 162.911 649.667 169.352 645.614 174.724C641.56 180.097 636.023 184.166 629.686 186.432C623.348 188.697 616.487 189.059 609.946 187.474C603.405 185.888 597.471 182.424 592.874 177.509C588.277 172.593 585.219 166.44 584.075 159.807C582.931 153.175 583.753 146.353 586.437 140.182C589.122 134.01 593.554 128.759 599.186 125.074C604.818 121.39 611.405 119.433 618.135 119.445C627.457 120.065 636.195 124.208 642.576 131.032C648.958 137.856 652.505 146.852 652.5 156.195Z" fill="white"/>
<path opacity="0.4" d="M643.571 166.734C649.395 152.674 642.718 136.555 628.658 130.731C614.599 124.908 598.48 131.584 592.656 145.644C586.832 159.704 593.509 175.823 607.569 181.646C621.629 187.47 637.747 180.794 643.571 166.734Z" fill="white"/>
<path opacity="0.4" d="M622.866 175.824C633.807 173.242 640.583 162.279 638.001 151.338C635.418 140.396 624.455 133.62 613.514 136.203C602.573 138.785 595.797 149.748 598.379 160.689C600.962 171.63 611.925 178.406 622.866 175.824Z" fill="white"/>
<path d="M624.84 156.195C624.84 157.767 624.374 159.305 623.501 160.612C622.627 161.919 621.385 162.938 619.933 163.54C618.48 164.142 616.882 164.299 615.339 163.992C613.797 163.686 612.381 162.928 611.269 161.817C610.157 160.705 609.4 159.288 609.093 157.746C608.786 156.204 608.944 154.605 609.546 153.153C610.147 151.7 611.166 150.459 612.474 149.585C613.781 148.711 615.318 148.245 616.89 148.245C617.935 148.243 618.97 148.447 619.935 148.846C620.901 149.245 621.778 149.831 622.516 150.569C623.255 151.308 623.84 152.185 624.239 153.15C624.638 154.116 624.842 155.151 624.84 156.195Z" fill="#263238"/>
<path d="M561.66 183.51L569.025 184.71L579.825 178.335V178.32L574.32 175.89L561.66 183.51Z" fill="#407BFF"/>
<path d="M612.611 158.238L568.748 184.199L569.306 185.142L613.169 159.18L612.611 158.238Z" fill="#263238"/>
<path d="M568.08 191.295L578.73 184.98L579.825 178.335L569.025 184.71L568.08 191.295Z" fill="#407BFF"/>
<path opacity="0.2" d="M568.08 191.295L578.73 184.98L579.825 178.335L569.025 184.71L568.08 191.295Z" fill="black"/>
<path d="M615.735 155.79L608.415 157.665L615.09 161.34L618.105 156.555L615.735 155.79Z" fill="white"/>
<path d="M619.5 109.17C619.141 109.18 618.784 109.119 618.449 108.989C618.114 108.86 617.807 108.666 617.548 108.418C617.288 108.169 617.081 107.872 616.937 107.543C616.793 107.214 616.716 106.859 616.71 106.5V94.5C616.71 93.776 616.998 93.0816 617.51 92.5696C618.022 92.0576 618.716 91.77 619.44 91.77C620.164 91.77 620.859 92.0576 621.371 92.5696C621.883 93.0816 622.17 93.776 622.17 94.5V106.5C622.159 107.205 621.874 107.877 621.376 108.375C620.877 108.873 620.205 109.158 619.5 109.17Z" fill="#407BFF"/>
<path d="M619.5 220.755C619.141 220.757 618.785 220.688 618.452 220.551C618.12 220.415 617.819 220.214 617.565 219.96C617.311 219.706 617.11 219.404 616.973 219.072C616.837 218.74 616.768 218.384 616.77 218.025V206.025C616.77 205.301 617.057 204.606 617.569 204.095C618.081 203.583 618.776 203.295 619.5 203.295C620.224 203.295 620.918 203.583 621.43 204.095C621.942 204.606 622.23 205.301 622.23 206.025V218.025C622.232 218.384 622.162 218.74 622.026 219.072C621.889 219.404 621.688 219.706 621.434 219.96C621.181 220.214 620.879 220.415 620.547 220.551C620.215 220.688 619.859 220.757 619.5 220.755Z" fill="#407BFF"/>
<path d="M569.82 157.215H557.745C557.369 157.243 556.99 157.193 556.634 157.068C556.278 156.943 555.951 156.746 555.674 156.489C555.398 156.232 555.177 155.921 555.026 155.575C554.875 155.228 554.797 154.855 554.797 154.477C554.797 154.1 554.875 153.726 555.026 153.38C555.177 153.034 555.398 152.723 555.674 152.466C555.951 152.209 556.278 152.012 556.634 151.887C556.99 151.762 557.369 151.712 557.745 151.74H569.82C570.197 151.712 570.575 151.762 570.931 151.887C571.287 152.012 571.614 152.209 571.891 152.466C572.168 152.723 572.388 153.034 572.539 153.38C572.69 153.726 572.768 154.1 572.768 154.477C572.768 154.855 572.69 155.228 572.539 155.575C572.388 155.921 572.168 156.232 571.891 156.489C571.614 156.746 571.287 156.943 570.931 157.068C570.575 157.193 570.197 157.243 569.82 157.215Z" fill="#407BFF"/>
<path d="M682.71 157.215H670.62C669.929 157.164 669.283 156.853 668.812 156.346C668.34 155.838 668.078 155.171 668.078 154.478C668.078 153.785 668.34 153.118 668.812 152.61C669.283 152.102 669.929 151.791 670.62 151.74H682.71C683.401 151.791 684.047 152.102 684.519 152.61C684.991 153.118 685.253 153.785 685.253 154.478C685.253 155.171 684.991 155.838 684.519 156.346C684.047 156.853 683.401 157.164 682.71 157.215Z" fill="#407BFF"/>
</g>
<defs>
<clipPath id="clip0_1000_8688">
<rect width="750" height="622.5" fill="white"/>
</clipPath>
</defs>
</svg>
