<svg width="500" height="500" viewBox="0 0 500 500" fill="none" xmlns="http://www.w3.org/2000/svg">
<path d="M449.9 398.49H416.78V398.74H449.9V398.49Z" fill="#EBEBEB"/>
<path d="M331.22 401.21H322.53V401.46H331.22V401.21Z" fill="#EBEBEB"/>
<path d="M415.78 389.21H396.59V389.46H415.78V389.21Z" fill="#EBEBEB"/>
<path d="M95.65 390.89H52.46V391.14H95.65V390.89Z" fill="#EBEBEB"/>
<path d="M110.89 390.89H104.56V391.14H110.89V390.89Z" fill="#EBEBEB"/>
<path d="M225.15 395.11H131.47V395.36H225.15V395.11Z" fill="#EBEBEB"/>
<path d="M237 337.8H43.92C42.4056 337.8 40.9532 337.198 39.8824 336.128C38.8115 335.057 38.21 333.604 38.21 332.09V60.66C38.2231 59.1543 38.8305 57.7147 39.9 56.6547C40.9694 55.5947 42.4142 54.9999 43.92 55H237C238.514 55 239.967 55.6016 241.038 56.6724C242.108 57.7433 242.71 59.1956 242.71 60.71V332.09C242.71 333.604 242.108 335.057 241.038 336.128C239.967 337.198 238.514 337.8 237 337.8ZM43.92 55.2C42.4727 55.2026 41.0855 55.7787 40.0621 56.8021C39.0387 57.8255 38.4626 59.2127 38.46 60.66V332.09C38.4626 333.537 39.0387 334.924 40.0621 335.948C41.0855 336.971 42.4727 337.547 43.92 337.55H237C238.447 337.547 239.834 336.971 240.858 335.948C241.881 334.924 242.457 333.537 242.46 332.09V60.66C242.457 59.2127 241.881 57.8255 240.858 56.8021C239.834 55.7787 238.447 55.2026 237 55.2H43.92Z" fill="#EBEBEB"/>
<path d="M453.31 337.8H260.21C258.696 337.797 257.246 337.195 256.175 336.125C255.105 335.054 254.503 333.604 254.5 332.09V60.66C254.516 59.1551 255.124 57.7171 256.193 56.6576C257.262 55.5981 258.705 55.0025 260.21 55H453.31C454.812 55.0052 456.252 55.6022 457.317 56.6617C458.382 57.7212 458.987 59.1578 459 60.66V332.09C459 333.601 458.401 335.05 457.335 336.121C456.268 337.191 454.821 337.795 453.31 337.8ZM260.21 55.2C258.763 55.2026 257.375 55.7787 256.352 56.8021C255.329 57.8255 254.753 59.2127 254.75 60.66V332.09C254.753 333.537 255.329 334.924 256.352 335.948C257.375 336.971 258.763 337.547 260.21 337.55H453.31C454.757 337.547 456.145 336.971 457.168 335.948C458.191 334.924 458.767 333.537 458.77 332.09V60.66C458.767 59.2127 458.191 57.8255 457.168 56.8021C456.145 55.7787 454.757 55.2026 453.31 55.2H260.21Z" fill="#EBEBEB"/>
<path d="M500 382.4H0V382.65H500V382.4Z" fill="#EBEBEB"/>
<path d="M170.9 359.4H194.07L181.89 260.2C181.597 258.126 180.578 256.223 179.015 254.83C177.451 253.436 175.444 252.643 173.35 252.59H72.25L87.07 359.4H170.9Z" fill="#F5F5F5"/>
<path d="M97.4102 359.4H74.2402L62.0602 260.2C61.9105 259.246 61.9721 258.271 62.2407 257.344C62.5093 256.417 62.9784 255.56 63.6146 254.834C64.2509 254.108 65.0389 253.531 65.9228 253.143C66.8068 252.755 67.7652 252.566 68.7302 252.59H76.7302C78.8228 252.643 80.8287 253.437 82.3907 254.831C83.9528 256.224 84.9696 258.127 85.2602 260.2L97.4102 359.4Z" fill="#F0F0F0"/>
<path d="M106 359.28L101.8 311.28C101.709 310.236 101.262 309.255 100.534 308.501C99.8054 307.747 98.8403 307.267 97.7999 307.14L96.0699 306.92C94.6802 306.743 93.3928 306.096 92.4215 305.086C91.4502 304.077 90.8533 302.765 90.7299 301.37L89.9999 292.64C89.9296 291.799 90.0338 290.953 90.3058 290.154C90.5779 289.355 91.0119 288.621 91.5808 287.997C92.1497 287.374 92.8412 286.875 93.6119 286.531C94.3826 286.188 95.216 286.007 96.0599 286H57.3399C56.489 285.999 55.6474 286.176 54.8685 286.519C54.0897 286.861 53.3906 287.362 52.8159 287.989C52.2412 288.617 51.8033 289.357 51.5303 290.163C51.2572 290.969 51.1549 291.822 51.2299 292.67L51.9899 301.42C52.1097 302.817 52.7054 304.13 53.6774 305.14C54.6494 306.151 55.9388 306.796 57.3299 306.97L59.0499 307.19C60.0895 307.319 61.0537 307.8 61.7816 308.553C62.5095 309.306 62.9572 310.287 63.0499 311.33L67.2499 359.33C67.407 361.011 68.1863 362.572 69.435 363.708C70.6838 364.844 72.3118 365.472 73.9999 365.47H112.7C111.013 365.456 109.392 364.815 108.153 363.67C106.914 362.526 106.147 360.96 106 359.28Z" fill="#E6E6E6"/>
<path d="M212.51 299.29C212.835 295.659 214.508 292.281 217.199 289.821C219.89 287.361 223.404 285.998 227.05 286H193.33C189.681 286.001 186.165 287.37 183.476 289.835C180.786 292.301 179.118 295.685 178.8 299.32L175.47 337.32H209.19L212.51 299.29Z" fill="#E6E6E6"/>
<path d="M242 286H227C223.349 285.999 219.831 287.366 217.139 289.832C214.447 292.298 212.778 295.683 212.46 299.32L209.14 337.32H128.9L125.57 299.32C125.252 295.678 123.578 292.289 120.88 289.822C118.181 287.355 114.656 285.991 111 286H95.9998C95.1611 286.015 94.3343 286.202 93.5706 286.549C92.807 286.897 92.1228 287.397 91.5603 288.019C90.9979 288.642 90.5692 289.373 90.3007 290.168C90.0323 290.963 89.9299 291.804 89.9998 292.64L90.7599 301.39C90.8832 302.786 91.4801 304.097 92.4515 305.107C93.4228 306.116 94.7101 306.763 96.0998 306.94L97.8299 307.16C98.8702 307.287 99.8354 307.767 100.564 308.521C101.292 309.275 101.739 310.256 101.83 311.3L106.03 359.3C106.177 360.989 106.952 362.561 108.202 363.707C109.451 364.853 111.085 365.489 112.78 365.49H225.38C227.075 365.489 228.709 364.853 229.958 363.707C231.207 362.561 231.982 360.989 232.13 359.3L236.33 311.3C236.423 310.257 236.87 309.277 237.598 308.523C238.326 307.77 239.29 307.289 240.33 307.16L242.05 306.94C243.441 306.767 244.73 306.121 245.702 305.11C246.674 304.1 247.27 302.787 247.39 301.39L248.15 292.64C248.221 291.792 248.114 290.938 247.837 290.133C247.559 289.328 247.117 288.589 246.538 287.965C245.96 287.34 245.257 286.843 244.476 286.504C243.695 286.166 242.851 285.994 242 286Z" fill="#F0F0F0"/>
<path d="M140.93 192.73C165.446 192.73 185.32 172.856 185.32 148.34C185.32 123.824 165.446 103.95 140.93 103.95C116.414 103.95 96.54 123.824 96.54 148.34C96.54 172.856 116.414 192.73 140.93 192.73Z" fill="#F5F5F5"/>
<path d="M140.93 185.98C161.718 185.98 178.57 169.128 178.57 148.34C178.57 127.552 161.718 110.7 140.93 110.7C120.142 110.7 103.29 127.552 103.29 148.34C103.29 169.128 120.142 185.98 140.93 185.98Z" fill="#FAFAFA"/>
<path d="M140.93 110.7C140.34 110.7 139.75 110.7 139.16 110.7C148.832 111.146 157.96 115.303 164.647 122.305C171.334 129.308 175.065 138.618 175.065 148.3C175.065 157.983 171.334 167.293 164.647 174.295C157.96 181.298 148.832 185.454 139.16 185.9C139.75 185.9 140.34 185.9 140.93 185.9C150.913 185.9 160.487 181.934 167.546 174.876C174.605 167.817 178.57 158.243 178.57 148.26C178.57 138.277 174.605 128.703 167.546 121.645C160.487 114.586 150.913 110.62 140.93 110.62V110.7Z" fill="#E6E6E6"/>
<path d="M140.94 185.94C141.89 185.89 142.83 185.8 143.77 185.69V151.17H176.7C176.77 150.23 176.81 149.29 176.81 148.34C176.81 147.39 176.81 146.45 176.7 145.51H143.76V111C142.82 110.88 141.88 110.79 140.93 110.75H138.1V145.52H103.33V151.18H138.1V185.95L140.94 185.94Z" fill="#F0F0F0"/>
<path d="M138.1 110.74H135.27V145.51H138.1V110.74Z" fill="#E6E6E6"/>
<path d="M138.1 151.17H135.27V185.94H138.1V151.17Z" fill="#E6E6E6"/>
<path d="M359.07 192.73C383.586 192.73 403.46 172.856 403.46 148.34C403.46 123.824 383.586 103.95 359.07 103.95C334.554 103.95 314.68 123.824 314.68 148.34C314.68 172.856 334.554 192.73 359.07 192.73Z" fill="#F5F5F5"/>
<path d="M359.07 185.98C379.858 185.98 396.71 169.128 396.71 148.34C396.71 127.552 379.858 110.7 359.07 110.7C338.282 110.7 321.43 127.552 321.43 148.34C321.43 169.128 338.282 185.98 359.07 185.98Z" fill="#FAFAFA"/>
<path d="M359.07 110.7C358.48 110.7 357.89 110.7 357.31 110.7C366.982 111.146 376.11 115.303 382.797 122.305C389.484 129.308 393.215 138.618 393.215 148.3C393.215 157.983 389.484 167.293 382.797 174.295C376.11 181.298 366.982 185.454 357.31 185.9C357.89 185.9 358.48 185.9 359.07 185.9C369.053 185.9 378.627 181.934 385.686 174.876C392.744 167.817 396.71 158.243 396.71 148.26C396.71 138.277 392.744 128.703 385.686 121.645C378.627 114.586 369.053 110.62 359.07 110.62V110.7Z" fill="#E6E6E6"/>
<path d="M359.09 185.94C360.09 185.89 360.99 185.8 361.92 185.69V151.17H394.85C394.92 150.23 394.97 149.29 394.97 148.34C394.97 147.39 394.92 146.45 394.85 145.51H361.9V111C360.97 110.88 360.03 110.79 359.07 110.75H356.24V145.52H321.47V151.18H356.24V185.95L359.09 185.94Z" fill="#F0F0F0"/>
<path d="M356.25 110.74H353.42V145.51H356.25V110.74Z" fill="#E6E6E6"/>
<path d="M356.25 151.17H353.42V185.94H356.25V151.17Z" fill="#E6E6E6"/>
<path d="M282.56 354.77H359.43V328.24H282.56V354.77Z" fill="#EBEBEB"/>
<path d="M282.56 381.31H359.43V354.78H282.56V381.31Z" fill="#EBEBEB"/>
<path d="M362.11 354.77H438.98V328.24H362.11V354.77Z" fill="#EBEBEB"/>
<path d="M362.11 381.31H438.98V354.78H362.11V381.31Z" fill="#EBEBEB"/>
<path d="M409.77 354.77L400.2 328.24H414.92L424.49 354.77H409.77Z" fill="#F0F0F0"/>
<path d="M393.08 328.24H396.31L405.88 354.77H402.64L393.08 328.24Z" fill="#F0F0F0"/>
<path d="M419.33 381.31L409.77 354.77H424.49L434.05 381.31H419.33Z" fill="#F0F0F0"/>
<path d="M402.64 354.77H405.88L415.44 381.31H412.21L402.64 354.77Z" fill="#F0F0F0"/>
<path d="M299.82 354.77L290.26 328.24H304.98L314.54 354.77H299.82Z" fill="#F0F0F0"/>
<path d="M283.14 328.24H286.37L295.93 354.77H292.7L283.14 328.24Z" fill="#F0F0F0"/>
<path d="M309.39 381.31L299.82 354.77H314.54L324.11 381.31H309.39Z" fill="#F0F0F0"/>
<path d="M292.7 354.77H295.93L305.5 381.31H302.26L292.7 354.77Z" fill="#F0F0F0"/>
<path d="M438.98 332.32V329.64H362.11V332.32H438.98Z" fill="#E0E0E0"/>
<path d="M438.98 358.64V355.96H362.11V358.64H438.98Z" fill="#E0E0E0"/>
<path d="M398.58 344.9C398.275 344.9 397.982 344.779 397.767 344.563C397.551 344.348 397.43 344.055 397.43 343.75C397.43 343.445 397.551 343.153 397.767 342.937C397.982 342.721 398.275 342.6 398.58 342.6H402.51C402.815 342.6 403.107 342.721 403.323 342.937C403.539 343.153 403.66 343.445 403.66 343.75C403.66 344.055 403.539 344.348 403.323 344.563C403.107 344.779 402.815 344.9 402.51 344.9H398.58Z" fill="#E0E0E0"/>
<path d="M398.58 344.5C398.419 344.515 398.257 344.496 398.104 344.445C397.951 344.394 397.811 344.311 397.691 344.203C397.572 344.094 397.477 343.961 397.411 343.814C397.346 343.666 397.312 343.506 397.312 343.345C397.312 343.184 397.346 343.024 397.411 342.876C397.477 342.729 397.572 342.596 397.691 342.488C397.811 342.379 397.951 342.296 398.104 342.245C398.257 342.194 398.419 342.175 398.58 342.19H402.51C402.798 342.217 403.065 342.35 403.26 342.564C403.455 342.777 403.562 343.056 403.562 343.345C403.562 343.634 403.455 343.913 403.26 344.126C403.065 344.34 402.798 344.473 402.51 344.5H398.58Z" fill="#F5F5F5"/>
<path d="M398.58 369.4C398.419 369.415 398.257 369.396 398.104 369.345C397.951 369.294 397.811 369.211 397.691 369.102C397.572 368.994 397.477 368.861 397.411 368.714C397.346 368.566 397.312 368.406 397.312 368.245C397.312 368.084 397.346 367.924 397.411 367.776C397.477 367.629 397.572 367.496 397.691 367.388C397.811 367.279 397.951 367.196 398.104 367.145C398.257 367.094 398.419 367.075 398.58 367.09H402.51C402.798 367.117 403.065 367.25 403.26 367.464C403.455 367.677 403.562 367.956 403.562 368.245C403.562 368.534 403.455 368.813 403.26 369.026C403.065 369.24 402.798 369.373 402.51 369.4H398.58Z" fill="#E0E0E0"/>
<path d="M398.58 369C398.419 369.015 398.257 368.996 398.104 368.945C397.951 368.894 397.811 368.811 397.691 368.703C397.572 368.594 397.477 368.461 397.411 368.314C397.346 368.166 397.312 368.006 397.312 367.845C397.312 367.684 397.346 367.524 397.411 367.376C397.477 367.229 397.572 367.096 397.691 366.988C397.811 366.879 397.951 366.796 398.104 366.745C398.257 366.694 398.419 366.675 398.58 366.69H402.51C402.798 366.717 403.065 366.85 403.26 367.064C403.455 367.277 403.562 367.556 403.562 367.845C403.562 368.134 403.455 368.413 403.26 368.626C403.065 368.84 402.798 368.973 402.51 369H398.58Z" fill="#F5F5F5"/>
<path d="M360.77 327.05V382.47H440.32V327.05H360.77ZM363.45 356.18H437.64V379.78H363.45V356.18ZM363.45 329.89H437.64V353.49H363.45V329.89Z" fill="#F5F5F5"/>
<path d="M359.43 332.32V329.64H282.56V332.32H359.43Z" fill="#E0E0E0"/>
<path d="M359.42 358.65V355.97H282.55V358.65H359.42Z" fill="#E0E0E0"/>
<path d="M319 344.9C318.695 344.9 318.403 344.779 318.187 344.563C317.971 344.348 317.85 344.055 317.85 343.75C317.85 343.445 317.971 343.153 318.187 342.937C318.403 342.721 318.695 342.6 319 342.6H323C323.305 342.6 323.598 342.721 323.813 342.937C324.029 343.153 324.15 343.445 324.15 343.75C324.15 344.055 324.029 344.348 323.813 344.563C323.598 344.779 323.305 344.9 323 344.9H319Z" fill="#E0E0E0"/>
<path d="M319 344.5C318.712 344.473 318.445 344.34 318.25 344.126C318.055 343.913 317.948 343.634 317.948 343.345C317.948 343.056 318.055 342.777 318.25 342.564C318.445 342.35 318.712 342.217 319 342.19H323C323.288 342.217 323.555 342.35 323.75 342.564C323.944 342.777 324.052 343.056 324.052 343.345C324.052 343.634 323.944 343.913 323.75 344.126C323.555 344.34 323.288 344.473 323 344.5H319Z" fill="#F5F5F5"/>
<path d="M319 369.4C318.712 369.373 318.445 369.24 318.25 369.026C318.055 368.812 317.948 368.534 317.948 368.245C317.948 367.956 318.055 367.677 318.25 367.464C318.445 367.25 318.712 367.117 319 367.09H323C323.288 367.117 323.555 367.25 323.75 367.464C323.944 367.677 324.052 367.956 324.052 368.245C324.052 368.534 323.944 368.812 323.75 369.026C323.555 369.24 323.288 369.373 323 369.4H319Z" fill="#E0E0E0"/>
<path d="M319 369C318.712 368.973 318.445 368.84 318.25 368.626C318.055 368.413 317.948 368.134 317.948 367.845C317.948 367.556 318.055 367.277 318.25 367.064C318.445 366.85 318.712 366.717 319 366.69H323C323.288 366.717 323.555 366.85 323.75 367.064C323.944 367.277 324.052 367.556 324.052 367.845C324.052 368.134 323.944 368.413 323.75 368.626C323.555 368.84 323.288 368.973 323 369H319Z" fill="#F5F5F5"/>
<path d="M281.21 327.05V382.47H360.77V327.05H281.21ZM283.9 356.18H358.08V379.78H283.9V356.18ZM283.9 329.89H358.08V353.49H283.9V329.89Z" fill="#F5F5F5"/>
<path d="M395 322.67H383.14L380.39 311H375.64L372.9 322.67H361C360.517 322.669 360.039 322.763 359.593 322.946C359.146 323.13 358.74 323.4 358.398 323.741C358.057 324.082 357.785 324.487 357.6 324.933C357.415 325.379 357.32 325.857 357.32 326.34V327.05H398.66V326.34C398.66 325.368 398.275 324.436 397.589 323.748C396.903 323.06 395.972 322.673 395 322.67Z" fill="#E0E0E0"/>
<path d="M430.6 248.94H325.45V317H430.6V248.94Z" fill="#E0E0E0"/>
<path d="M428.6 250.94H327.45V312H428.6V250.94Z" fill="#F5F5F5"/>
<path d="M383.2 312H420.41L398.4 250.94H361.19L383.2 312Z" fill="#FAFAFA"/>
<path d="M365.19 312H373.37L351.36 250.94H343.18L365.19 312Z" fill="#FAFAFA"/>
<path d="M220.87 382.52H115.64V364.47H223.87L220.87 382.52Z" fill="#F5F5F5"/>
<path d="M124.19 382.65H77.4902L75.4902 364.47H122.19L124.19 382.65Z" fill="#E0E0E0"/>
<path d="M245.18 423.71C352.263 423.71 439.07 418.642 439.07 412.39C439.07 406.138 352.263 401.07 245.18 401.07C138.098 401.07 51.29 406.138 51.29 412.39C51.29 418.642 138.098 423.71 245.18 423.71Z" fill="#F5F5F5"/>
<path d="M375.18 410.97H370.39L369.34 337.89H376.23L375.18 410.97Z" fill="#263238"/>
<path opacity="0.5" d="M375.18 410.97H370.39L369.34 337.89H376.23L375.18 410.97Z" fill="white"/>
<path d="M332.88 410.97H328.08L327.04 337.89H333.93L332.88 410.97Z" fill="#263238"/>
<path opacity="0.5" d="M332.88 410.97H328.08L327.04 337.89H333.93L332.88 410.97Z" fill="white"/>
<path d="M323.06 410.97H318.27L317.22 337.89H324.11L323.06 410.97Z" fill="#263238"/>
<path opacity="0.5" d="M323.06 410.97H318.27L317.22 337.89H324.11L323.06 410.97Z" fill="white"/>
<path d="M280.76 410.97H275.96L274.92 337.89H281.81L280.76 410.97Z" fill="#263238"/>
<path opacity="0.5" d="M280.76 410.97H275.96L274.92 337.89H281.81L280.76 410.97Z" fill="white"/>
<path d="M352.2 339.57H274.45C273.608 339.57 272.774 339.404 271.997 339.082C271.219 338.76 270.512 338.288 269.917 337.693C269.322 337.097 268.85 336.391 268.528 335.613C268.206 334.835 268.04 334.002 268.04 333.16V324.62C268.042 322.922 268.719 321.294 269.921 320.094C271.123 318.894 272.751 318.22 274.45 318.22H343.29L349.22 261.8C349.623 258.496 351.204 255.447 353.672 253.214C356.141 250.981 359.332 249.712 362.66 249.64H391.55L384.65 270.7L378.35 317.87L373.92 331.05L352.2 339.57Z" fill="#407BFF"/>
<path opacity="0.2" d="M352.2 339.57H274.45C273.608 339.57 272.774 339.404 271.997 339.082C271.219 338.76 270.512 338.288 269.917 337.693C269.322 337.097 268.85 336.391 268.528 335.613C268.206 334.835 268.04 334.002 268.04 333.16V324.62C268.042 322.922 268.719 321.294 269.921 320.094C271.123 318.894 272.751 318.22 274.45 318.22H343.29L349.22 261.8C349.623 258.496 351.204 255.447 353.672 253.214C356.141 250.981 359.332 249.712 362.66 249.64H391.55L384.65 270.7L378.35 317.87L373.92 331.05L352.2 339.57Z" fill="black"/>
<path d="M393.94 249.64H388.17C384.843 249.712 381.653 250.982 379.186 253.215C376.72 255.449 375.141 258.497 374.74 261.8L368.81 318.22H326.39C324.693 318.223 323.067 318.898 321.867 320.098C320.668 321.297 319.992 322.924 319.99 324.62V333.16C319.99 334.859 320.664 336.488 321.864 337.689C323.064 338.891 324.691 339.568 326.39 339.57H377.71C379.658 339.571 381.538 338.85 382.986 337.546C384.434 336.242 385.347 334.448 385.55 332.51L392.27 268.57C394.961 268.516 397.534 267.453 399.478 265.591C401.423 263.73 402.597 261.207 402.77 258.52C402.791 257.353 402.578 256.192 402.142 255.108C401.707 254.025 401.058 253.039 400.235 252.211C399.411 251.383 398.429 250.728 397.348 250.287C396.267 249.845 395.108 249.625 393.94 249.64Z" fill="#407BFF"/>
<path d="M282.42 380.78L285.75 402.54L292.62 401.95L291.66 379.99L282.42 380.78Z" fill="#EBB376"/>
<path d="M292.86 393.44C292.86 393.44 293.19 399.06 294.54 401.86C295.89 404.66 297.76 408.38 293.19 408.79C290.49 409.03 285.77 410.15 280.6 410.65C277.03 410.99 272.14 410.65 271.97 408.76C271.77 406.57 284.43 401.98 284.38 399.87C284.33 397.76 283.76 394.12 283.76 394.12L292.86 393.44Z" fill="#263238"/>
<path opacity="0.1" d="M292.86 393.44C292.86 393.44 293.19 399.06 294.54 401.86C295.89 404.66 297.76 408.38 293.19 408.79C290.49 409.03 285.77 410.15 280.6 410.65C277.03 410.99 272.14 410.65 271.97 408.76C271.77 406.57 284.43 401.98 284.38 399.87C284.33 397.76 283.76 394.12 283.76 394.12L292.86 393.44Z" fill="white"/>
<path d="M327.19 277.27L325.33 292.75C325.33 292.75 272.5 297.39 269.49 310.6C266.64 323.16 282.23 386.93 282.23 386.93L292.78 385.88C292.78 385.88 294.25 336.57 289.63 318.98C289.63 318.98 329.79 318.68 343.18 318.98C349.18 319.12 364.57 318.92 360.76 301.42C356.42 281.42 351.83 277.27 351.83 277.27L351.67 268.51H327.67L327.19 277.27Z" fill="#407BFF"/>
<path opacity="0.2" d="M327.19 277.27L325.33 292.75C325.33 292.75 272.5 297.39 269.49 310.6C266.64 323.16 282.23 386.93 282.23 386.93L292.78 385.88C292.78 385.88 294.25 336.57 289.63 318.98C289.63 318.98 329.79 318.68 343.18 318.98C349.18 319.12 364.57 318.92 360.76 301.42C356.42 281.42 351.83 277.27 351.83 277.27L351.67 268.51H327.67L327.19 277.27Z" fill="white"/>
<path d="M281.21 387.2L282.09 389.79C282.173 390.023 282.331 390.222 282.539 390.356C282.747 390.49 282.993 390.551 283.24 390.53L292.45 389.68C292.708 389.658 292.949 389.545 293.132 389.362C293.315 389.179 293.427 388.938 293.45 388.68L293.62 386C293.628 385.841 293.601 385.683 293.543 385.535C293.484 385.387 293.394 385.254 293.279 385.144C293.165 385.034 293.028 384.95 292.878 384.898C292.728 384.845 292.568 384.826 292.41 384.84L282.15 385.78C281.988 385.796 281.831 385.849 281.692 385.933C281.552 386.017 281.433 386.131 281.343 386.267C281.253 386.403 281.195 386.557 281.172 386.719C281.149 386.88 281.162 387.044 281.21 387.2Z" fill="#407BFF"/>
<path opacity="0.6" d="M281.21 387.2L282.09 389.79C282.173 390.023 282.331 390.222 282.539 390.356C282.747 390.49 282.993 390.551 283.24 390.53L292.45 389.68C292.708 389.658 292.949 389.545 293.132 389.362C293.315 389.179 293.427 388.938 293.45 388.68L293.62 386C293.628 385.841 293.601 385.683 293.543 385.535C293.484 385.387 293.394 385.254 293.279 385.144C293.165 385.034 293.028 384.95 292.878 384.898C292.728 384.845 292.568 384.826 292.41 384.84L282.15 385.78C281.988 385.796 281.831 385.849 281.692 385.933C281.552 386.017 281.433 386.131 281.343 386.267C281.253 386.403 281.195 386.557 281.172 386.719C281.149 386.88 281.162 387.044 281.21 387.2Z" fill="white"/>
<path d="M302.66 380.34L304.13 402.31H311.02L311.94 380.34H302.66Z" fill="#EBB376"/>
<path d="M311.81 395.65C311.81 395.65 311.63 401.28 312.73 404.19C313.83 407.1 315.36 410.97 310.73 410.97C308.03 410.97 303.24 411.03 298.13 410.65C294.55 410.39 289.6 410.97 289.6 409.04C289.6 406.84 302.99 403.27 303.12 401.17C303.25 399.07 303.12 395.53 303.12 395.53L311.81 395.65Z" fill="#263238"/>
<path d="M335.46 277.27L333.77 292.75C333.77 292.75 300.91 297.22 295.64 305.09C290.37 312.96 302.75 390.4 302.75 390.4H311.94C318.5 347.4 315.09 318.92 315.09 318.92H356.3C382.55 318.92 359.19 277.27 359.19 277.27L359.29 268.07L335 269.47L335.46 277.27Z" fill="#407BFF"/>
<path opacity="0.3" d="M335.46 277.27L333.77 292.75C333.77 292.75 300.91 297.22 295.64 305.09C290.37 312.96 302.75 390.4 302.75 390.4H311.94C318.5 347.4 315.09 318.92 315.09 318.92H356.3C382.55 318.92 359.19 277.27 359.19 277.27L359.29 268.07L335 269.47L335.46 277.27Z" fill="white"/>
<path d="M301.07 388.9L301.76 391.73C301.813 391.954 301.941 392.153 302.123 392.293C302.305 392.433 302.53 392.506 302.76 392.5H311.91C312.142 392.505 312.37 392.429 312.552 392.285C312.735 392.141 312.861 391.938 312.91 391.71L313.52 388.87C313.553 388.722 313.553 388.568 313.518 388.42C313.483 388.272 313.414 388.134 313.318 388.016C313.221 387.898 313.099 387.804 312.961 387.741C312.823 387.677 312.672 387.646 312.52 387.65H302.06C301.905 387.647 301.752 387.679 301.613 387.745C301.473 387.811 301.35 387.908 301.254 388.029C301.158 388.15 301.092 388.292 301.06 388.443C301.028 388.594 301.031 388.751 301.07 388.9Z" fill="#407BFF"/>
<path opacity="0.6" d="M301.07 388.9L301.76 391.73C301.813 391.954 301.941 392.153 302.123 392.293C302.305 392.433 302.53 392.506 302.76 392.5H311.91C312.142 392.505 312.37 392.429 312.552 392.285C312.735 392.141 312.861 391.938 312.91 391.71L313.52 388.87C313.553 388.722 313.553 388.568 313.518 388.42C313.483 388.272 313.414 388.134 313.318 388.016C313.221 387.898 313.099 387.804 312.961 387.741C312.823 387.677 312.672 387.646 312.52 387.65H302.06C301.905 387.647 301.752 387.679 301.613 387.745C301.473 387.811 301.35 387.908 301.254 388.029C301.158 388.15 301.092 388.292 301.06 388.443C301.028 388.594 301.031 388.751 301.07 388.9Z" fill="white"/>
<path d="M288.27 268.44L280.83 269.89L273.83 267.84C272.86 267.708 271.873 267.828 270.962 268.187C270.052 268.546 269.249 269.132 268.63 269.89C267.616 271.101 267.064 272.631 267.07 274.21V274.48H281.46L289.27 273.43L288.27 268.44Z" fill="#EBB376"/>
<path d="M328.47 225.41C328.458 225.067 328.346 224.736 328.146 224.457C327.947 224.178 327.669 223.964 327.349 223.842C327.028 223.721 326.679 223.696 326.345 223.772C326.01 223.848 325.706 224.022 325.47 224.27C323.07 226.63 319.62 229.4 318.01 244.27C315.94 263.42 284.01 268.17 284.01 268.17L285.53 275.17C285.53 275.17 309.05 275.97 318.79 265.81C331.39 252.76 329.55 233.17 328.47 225.41Z" fill="#407BFF"/>
<path opacity="0.2" d="M328.47 225.41C328.458 225.067 328.346 224.736 328.146 224.457C327.947 224.178 327.669 223.964 327.349 223.842C327.028 223.721 326.679 223.696 326.345 223.772C326.01 223.848 325.706 224.022 325.47 224.27C323.07 226.63 319.62 229.4 318.01 244.27C315.94 263.42 284.01 268.17 284.01 268.17L285.53 275.17C285.53 275.17 309.05 275.97 318.79 265.81C331.39 252.76 329.55 233.17 328.47 225.41Z" fill="white"/>
<path d="M357.09 194.5C354.2 175.13 337.89 182.11 337.89 182.11C327.35 185.91 330.89 199 330.89 206.11C330.89 213.22 329.99 215.68 329.99 215.68C331.21 215.41 332.34 215.18 333.43 214.96L333.81 212.73L334.47 214.73C343.33 213.04 348.11 213.06 350.69 213.6C351.415 212.279 351.938 210.857 352.24 209.38C352.24 209.38 353.5 210.2 352.24 214.08C353.77 214.77 353.7 215.66 353.7 215.66C353.7 215.66 360 213.87 357.09 194.5Z" fill="#263238"/>
<path d="M367.11 223.16L329 222.71C328.11 222.697 327.244 223 326.557 223.566C325.87 224.132 325.407 224.924 325.25 225.8C320.75 250.68 323.82 249.8 323.82 249.8L325.74 280.25H330C331.246 280.252 332.455 279.821 333.419 279.031C334.384 278.242 335.045 277.143 335.29 275.92L335.72 273.78L336.85 276.78C337.234 277.799 337.917 278.677 338.809 279.3C339.701 279.923 340.762 280.261 341.85 280.27H361.3C359.04 256.89 366.45 234.33 369.03 225.9C369.131 225.592 369.159 225.264 369.111 224.943C369.064 224.622 368.942 224.316 368.756 224.05C368.569 223.784 368.323 223.565 368.038 223.411C367.752 223.256 367.434 223.171 367.11 223.16Z" fill="#407BFF"/>
<path opacity="0.4" d="M367.11 223.16L329 222.71C328.11 222.697 327.244 223 326.557 223.566C325.87 224.132 325.407 224.924 325.25 225.8C320.75 250.68 323.82 249.8 323.82 249.8L325.74 280.25H330C331.246 280.252 332.455 279.821 333.419 279.031C334.384 278.242 335.045 277.143 335.29 275.92L335.72 273.78L336.85 276.78C337.234 277.799 337.917 278.677 338.809 279.3C339.701 279.923 340.762 280.261 341.85 280.27H361.3C359.04 256.89 366.45 234.33 369.03 225.9C369.131 225.592 369.159 225.264 369.111 224.943C369.064 224.622 368.942 224.316 368.756 224.05C368.569 223.784 368.323 223.565 368.038 223.411C367.752 223.256 367.434 223.171 367.11 223.16Z" fill="white"/>
<path d="M283 268.06L284.41 275.44C284.46 275.693 284.598 275.919 284.799 276.078C285.001 276.238 285.253 276.32 285.51 276.31L286.93 276.25C287.078 276.244 287.224 276.206 287.357 276.139C287.49 276.072 287.608 275.978 287.702 275.863C287.796 275.748 287.865 275.615 287.905 275.471C287.944 275.328 287.952 275.177 287.93 275.03L286.76 267.17C286.738 267.016 286.683 266.867 286.598 266.736C286.513 266.605 286.4 266.494 286.268 266.411C286.135 266.328 285.986 266.275 285.831 266.256C285.676 266.237 285.518 266.252 285.37 266.3L283.7 266.84C283.457 266.927 283.252 267.097 283.124 267.321C282.996 267.545 282.952 267.807 283 268.06Z" fill="#407BFF"/>
<path opacity="0.6" d="M283 268.06L284.41 275.44C284.46 275.693 284.598 275.919 284.799 276.078C285.001 276.238 285.253 276.32 285.51 276.31L286.93 276.25C287.078 276.244 287.224 276.206 287.357 276.139C287.49 276.072 287.608 275.978 287.702 275.863C287.796 275.748 287.865 275.615 287.905 275.471C287.944 275.328 287.952 275.177 287.93 275.03L286.76 267.17C286.738 267.016 286.683 266.867 286.598 266.736C286.513 266.605 286.4 266.494 286.268 266.411C286.135 266.328 285.986 266.275 285.831 266.256C285.676 266.237 285.518 266.252 285.37 266.3L283.7 266.84C283.457 266.927 283.252 267.097 283.124 267.321C282.996 267.545 282.952 267.807 283 268.06Z" fill="white"/>
<path d="M349 204.66C348.44 209.76 348.26 219.02 352.06 222.06C352.06 222.06 350.61 227.21 340.84 228.17C333.9 225.11 336.48 223.41 336.48 223.41C341.95 221.56 342.48 217.46 341.24 213.65L349 204.66Z" fill="#EBB376"/>
<path opacity="0.1" d="M348.14 210.33L346.14 209.81L343.66 210.81L341.22 213.63C341.548 214.598 341.733 215.609 341.77 216.63C347.15 215.81 348.14 210.33 348.14 210.33Z" fill="black"/>
<path d="M352.58 193.39C352.82 201.8 353.11 205.39 349.28 210.03C343.51 217.03 333.13 215.53 330.37 207.36C327.89 200.01 327.9 187.5 335.78 183.42C337.517 182.514 339.457 182.068 341.415 182.123C343.373 182.178 345.285 182.733 346.968 183.735C348.652 184.737 350.051 186.153 351.033 187.848C352.015 189.543 352.548 191.461 352.58 193.42V193.39Z" fill="#EBB376"/>
<path d="M355.16 199.82C354.838 201.416 353.896 202.819 352.54 203.72C350.73 204.9 349.18 203.44 349.14 201.39C349.14 199.56 350.01 196.73 352.08 196.39C352.533 196.326 352.995 196.375 353.424 196.532C353.854 196.689 354.238 196.95 354.543 197.291C354.847 197.633 355.063 198.044 355.171 198.488C355.278 198.933 355.275 199.397 355.16 199.84V199.82Z" fill="#EBB376"/>
<path d="M334.57 198.56C334.11 200.166 333.438 201.703 332.57 203.13C332.937 203.348 333.348 203.483 333.773 203.524C334.198 203.566 334.627 203.513 335.03 203.37L334.57 198.56Z" fill="#D58745"/>
<path d="M340.22 193.75C340.279 193.733 340.331 193.698 340.37 193.65C340.43 193.587 340.464 193.503 340.464 193.415C340.464 193.328 340.43 193.244 340.37 193.18C339.919 192.749 339.371 192.432 338.772 192.258C338.173 192.084 337.541 192.057 336.93 192.18C336.844 192.204 336.771 192.26 336.726 192.336C336.681 192.413 336.668 192.504 336.69 192.59C336.711 192.675 336.765 192.748 336.84 192.793C336.915 192.838 337.005 192.852 337.09 192.83C337.598 192.741 338.121 192.773 338.614 192.924C339.108 193.075 339.559 193.341 339.93 193.7C339.972 193.729 340.019 193.749 340.069 193.757C340.119 193.766 340.171 193.764 340.22 193.75Z" fill="#2E353A"/>
<path d="M328.48 194.5C328.422 194.489 328.367 194.465 328.32 194.43C328.285 194.403 328.256 194.369 328.235 194.33C328.214 194.292 328.2 194.249 328.196 194.206C328.191 194.162 328.195 194.118 328.208 194.075C328.221 194.033 328.242 193.994 328.27 193.96C328.655 193.467 329.153 193.073 329.722 192.812C330.291 192.551 330.914 192.43 331.54 192.46C331.627 192.473 331.705 192.518 331.759 192.587C331.813 192.656 331.838 192.743 331.83 192.83C331.82 192.916 331.776 192.994 331.709 193.049C331.642 193.103 331.556 193.129 331.47 193.12C330.953 193.104 330.44 193.211 329.972 193.431C329.504 193.652 329.096 193.981 328.78 194.39C328.744 194.433 328.697 194.466 328.645 194.485C328.592 194.504 328.535 194.51 328.48 194.5Z" fill="#2E353A"/>
<path d="M339.27 197C339.34 197.68 339.02 198.26 338.57 198.31C338.12 198.36 337.72 197.84 337.66 197.15C337.6 196.46 337.91 195.89 338.35 195.84C338.79 195.79 339.21 196.31 339.27 197Z" fill="#2E353A"/>
<path d="M331.57 197.7C331.64 198.37 331.32 198.96 330.88 199C330.44 199.04 330.03 198.52 329.96 197.84C329.89 197.16 330.21 196.58 330.65 196.54C331.09 196.5 331.52 197 331.57 197.7Z" fill="#2E353A"/>
<path d="M330.85 196.55L329.18 196.23C329.18 196.23 330.13 197.43 330.85 196.55Z" fill="#2E353A"/>
<path d="M338.55 195.85L336.88 195.53C336.88 195.53 337.83 196.73 338.55 195.85Z" fill="#2E353A"/>
<path d="M334.61 206.07C335.635 206.198 336.675 206.09 337.653 205.756C338.63 205.422 339.518 204.869 340.25 204.14C340.25 204.14 342.75 208.69 336.01 209.43C335.902 208.192 335.413 207.018 334.61 206.07Z" fill="#263238"/>
<path d="M335.21 206.12L335.7 207.12C335.7 207.12 338.88 207.12 340.57 204.93C340.49 204.644 340.382 204.366 340.25 204.1C339.595 204.766 338.809 205.29 337.941 205.637C337.074 205.985 336.144 206.149 335.21 206.12Z" fill="white"/>
<path d="M336.47 209.36C339.77 208.88 340.63 207.36 340.7 206.14C337.44 207 336.65 208.63 336.47 209.36Z" fill="#DE5753"/>
<path d="M337.89 186.7C337.282 187.828 336.416 188.797 335.363 189.527C334.31 190.257 333.099 190.727 331.83 190.9C327.29 191.69 328.91 203.54 328.91 203.54C328.91 203.54 319.1 179.62 340.46 181.32L337.89 186.7Z" fill="#263238"/>
<path d="M341 181.78C340.644 181.699 340.276 181.693 339.918 181.763C339.561 181.832 339.221 181.975 338.922 182.183C338.623 182.391 338.37 182.66 338.18 182.971C337.99 183.282 337.868 183.629 337.82 183.99C337.57 185.99 337.99 188.49 341.22 189.53C346.93 191.36 346.4 197.4 346.4 197.4L347.4 192.92C347.4 192.92 347.72 199.32 350.94 198.56C354.16 197.8 354.48 191.76 354.48 191.76L349.16 183.62L341 181.78Z" fill="#263238"/>
<path d="M337.38 221.77C337.453 221.74 337.533 221.731 337.611 221.744C337.69 221.757 337.763 221.791 337.823 221.843C337.883 221.894 337.927 221.962 337.951 222.037C337.976 222.112 337.979 222.193 337.96 222.27C337.58 223.92 337.25 227.5 341.6 227.5C345.95 227.5 349.86 223.95 351.53 222.24C351.784 221.98 352.109 221.8 352.465 221.723C352.821 221.647 353.191 221.677 353.53 221.81L354.67 222.26C354.79 222.308 354.898 222.382 354.987 222.476C355.076 222.57 355.143 222.682 355.184 222.805C355.225 222.928 355.239 223.058 355.224 223.187C355.21 223.316 355.167 223.44 355.1 223.55C353.17 226.75 346.25 236.95 340.66 228.68C340.66 228.68 337.41 233.68 335.41 229.21C334.674 227.522 334.516 225.638 334.96 223.85C335.054 223.455 335.244 223.089 335.512 222.784C335.781 222.479 336.12 222.244 336.5 222.1L337.38 221.77Z" fill="#407BFF"/>
<path opacity="0.6" d="M337.38 221.77C337.453 221.74 337.533 221.731 337.611 221.744C337.69 221.757 337.763 221.791 337.823 221.843C337.883 221.894 337.927 221.962 337.951 222.037C337.976 222.112 337.979 222.193 337.96 222.27C337.58 223.92 337.25 227.5 341.6 227.5C345.95 227.5 349.86 223.95 351.53 222.24C351.784 221.98 352.109 221.8 352.465 221.723C352.821 221.647 353.191 221.677 353.53 221.81L354.67 222.26C354.79 222.308 354.898 222.382 354.987 222.476C355.076 222.57 355.143 222.682 355.184 222.805C355.225 222.928 355.239 223.058 355.224 223.187C355.21 223.316 355.167 223.44 355.1 223.55C353.17 226.75 346.25 236.95 340.66 228.68C340.66 228.68 337.41 233.68 335.41 229.21C334.674 227.522 334.516 225.638 334.96 223.85C335.054 223.455 335.244 223.089 335.512 222.784C335.781 222.479 336.12 222.244 336.5 222.1L337.38 221.77Z" fill="white"/>
<path d="M317.81 227.82C317.945 227.717 318.099 227.641 318.264 227.6C318.429 227.558 318.601 227.551 318.769 227.579C318.937 227.607 319.097 227.669 319.24 227.761C319.383 227.853 319.505 227.974 319.6 228.116C319.694 228.257 319.758 228.417 319.788 228.584C319.818 228.752 319.813 228.924 319.773 229.089C319.734 229.255 319.661 229.41 319.559 229.547C319.457 229.683 319.328 229.796 319.18 229.88L301.09 241.88C300.955 241.97 300.803 242.031 300.644 242.062C300.485 242.093 300.321 242.092 300.163 242.06C299.842 241.994 299.56 241.804 299.38 241.53C299.2 241.257 299.135 240.924 299.201 240.603C299.266 240.282 299.457 240.001 299.73 239.82L317.81 227.82Z" fill="#263238"/>
<path opacity="0.6" d="M317.81 227.82C317.945 227.717 318.099 227.641 318.264 227.6C318.429 227.558 318.601 227.551 318.769 227.579C318.937 227.607 319.097 227.669 319.24 227.761C319.383 227.853 319.505 227.974 319.6 228.116C319.694 228.257 319.758 228.417 319.788 228.584C319.818 228.752 319.813 228.924 319.773 229.089C319.734 229.255 319.661 229.41 319.559 229.547C319.457 229.683 319.328 229.796 319.18 229.88L301.09 241.88C300.955 241.97 300.803 242.031 300.644 242.062C300.485 242.093 300.321 242.092 300.163 242.06C299.842 241.994 299.56 241.804 299.38 241.53C299.2 241.257 299.135 240.924 299.201 240.603C299.266 240.282 299.457 240.001 299.73 239.82L317.81 227.82Z" fill="white"/>
<path d="M299.73 239.79C299.157 240.385 298.672 241.058 298.29 241.79C298.254 241.853 298.236 241.925 298.239 241.998C298.241 242.071 298.264 242.141 298.305 242.201C298.345 242.262 298.402 242.309 298.468 242.339C298.535 242.369 298.608 242.38 298.68 242.37C299.504 242.309 300.316 242.131 301.09 241.84C301.225 241.751 301.341 241.636 301.432 241.502C301.523 241.368 301.587 241.217 301.619 241.058C301.652 240.899 301.652 240.735 301.622 240.576C301.591 240.417 301.529 240.266 301.44 240.13C301.351 239.995 301.236 239.879 301.101 239.788C300.967 239.697 300.816 239.634 300.657 239.601C300.499 239.569 300.335 239.568 300.176 239.599C300.017 239.629 299.865 239.691 299.73 239.78V239.79Z" fill="#263238"/>
<path opacity="0.8" d="M299.73 239.79C299.157 240.385 298.672 241.058 298.29 241.79C298.254 241.853 298.236 241.925 298.239 241.998C298.241 242.071 298.264 242.141 298.305 242.201C298.345 242.262 298.402 242.309 298.468 242.339C298.535 242.369 298.608 242.38 298.68 242.37C299.504 242.309 300.316 242.131 301.09 241.84C301.225 241.751 301.341 241.636 301.432 241.502C301.523 241.368 301.587 241.217 301.619 241.058C301.652 240.899 301.652 240.735 301.622 240.576C301.591 240.417 301.529 240.266 301.44 240.13C301.351 239.995 301.236 239.879 301.101 239.788C300.967 239.697 300.816 239.634 300.657 239.601C300.499 239.569 300.335 239.568 300.176 239.599C300.017 239.629 299.865 239.691 299.73 239.78V239.79Z" fill="white"/>
<path d="M324.71 247.78L316.82 242.25L315 234.68C314.832 233.949 314.461 233.28 313.931 232.75C313.4 232.219 312.731 231.849 312 231.68C311.052 231.465 310.059 231.602 309.205 232.066C308.351 232.53 307.695 233.288 307.36 234.2L306.75 235.84C306.586 236.286 306.502 236.756 306.5 237.23V238.62C306.5 239.62 306.875 240.583 307.55 241.32L308.63 242.5C308.92 242.815 309.257 243.081 309.63 243.29L314.31 245.9L321.7 253.28L324.71 247.78Z" fill="#EBB376"/>
<path d="M365.06 225.36C365.237 224.86 365.542 224.415 365.945 224.068C366.347 223.722 366.833 223.487 367.354 223.386C367.875 223.285 368.414 223.322 368.916 223.492C369.419 223.663 369.868 223.963 370.22 224.36C371.89 226.42 372.85 230.36 370 238.13C364.31 253.58 355.25 265.71 343.9 265.71C330.44 265.71 316.82 250.13 316.82 250.13L321.54 244.57C321.54 244.57 335.21 253.84 344.33 253.84C349.54 253.88 358 243.76 365.06 225.36Z" fill="#407BFF"/>
<path opacity="0.2" d="M365.06 225.36C365.237 224.86 365.542 224.415 365.945 224.068C366.347 223.722 366.833 223.487 367.354 223.386C367.875 223.285 368.414 223.322 368.916 223.492C369.419 223.663 369.868 223.963 370.22 224.36C371.89 226.42 372.85 230.36 370 238.13C364.31 253.58 355.25 265.71 343.9 265.71C330.44 265.71 316.82 250.13 316.82 250.13L321.54 244.57C321.54 244.57 335.21 253.84 344.33 253.84C349.54 253.88 358 243.76 365.06 225.36Z" fill="white"/>
<path d="M315.64 249.56L320.96 243.14C321.05 243.032 321.178 242.963 321.317 242.946C321.456 242.93 321.597 242.967 321.71 243.05L323.99 244.71C324.051 244.755 324.103 244.811 324.142 244.876C324.18 244.941 324.205 245.014 324.214 245.089C324.224 245.164 324.218 245.24 324.196 245.312C324.175 245.385 324.139 245.452 324.09 245.51L318.09 252.72C318.035 252.788 317.965 252.842 317.885 252.877C317.806 252.912 317.719 252.928 317.632 252.923C317.545 252.918 317.461 252.893 317.386 252.849C317.311 252.805 317.247 252.744 317.2 252.67L315.58 250.22C315.518 250.118 315.491 249.999 315.502 249.881C315.513 249.762 315.561 249.65 315.64 249.56Z" fill="#407BFF"/>
<path opacity="0.6" d="M315.64 249.56L320.96 243.14C321.05 243.032 321.178 242.963 321.317 242.946C321.456 242.93 321.597 242.967 321.71 243.05L323.99 244.71C324.051 244.755 324.103 244.811 324.142 244.876C324.18 244.941 324.205 245.014 324.214 245.089C324.224 245.164 324.218 245.24 324.196 245.312C324.175 245.385 324.139 245.452 324.09 245.51L318.09 252.72C318.035 252.788 317.965 252.842 317.885 252.877C317.806 252.912 317.719 252.928 317.632 252.923C317.545 252.918 317.461 252.893 317.386 252.849C317.311 252.805 317.247 252.744 317.2 252.67L315.58 250.22C315.518 250.118 315.491 249.999 315.502 249.881C315.513 249.762 315.561 249.65 315.64 249.56Z" fill="white"/>
<path d="M340.2 181.24H338.33V181.31C341.771 181.671 344.956 183.293 347.272 185.863C349.587 188.434 350.869 191.771 350.87 195.23H354.19C354.187 191.521 352.712 187.964 350.089 185.341C347.466 182.718 343.909 181.243 340.2 181.24Z" fill="#263238"/>
<path opacity="0.6" d="M340.2 181.24H338.33V181.31C341.771 181.671 344.956 183.293 347.272 185.863C349.587 188.434 350.869 191.771 350.87 195.23H354.19C354.187 191.521 352.712 187.964 350.089 185.341C347.466 182.718 343.909 181.243 340.2 181.24Z" fill="white"/>
<path d="M352.58 206.15C355.087 206.15 357.12 203.433 357.12 200.08C357.12 196.728 355.087 194.01 352.58 194.01C350.072 194.01 348.04 196.728 348.04 200.08C348.04 203.433 350.072 206.15 352.58 206.15Z" fill="#407BFF"/>
<path d="M357.64 200.08C357.64 202.79 356.82 204.08 354.64 204.08C352.46 204.08 351.64 202.81 351.64 200.08C351.64 197.35 352.47 196.08 354.64 196.08C356.81 196.08 357.64 197.36 357.64 200.08Z" fill="#263238"/>
<path opacity="0.5" d="M357.64 200.08C357.64 202.79 356.82 204.08 354.64 204.08C352.46 204.08 351.64 202.81 351.64 200.08C351.64 197.35 352.47 196.08 354.64 196.08C356.81 196.08 357.64 197.36 357.64 200.08Z" fill="white"/>
<path d="M355.3 203.69C356.791 203.69 358 202.074 358 200.08C358 198.086 356.791 196.47 355.3 196.47C353.809 196.47 352.6 198.086 352.6 200.08C352.6 202.074 353.809 203.69 355.3 203.69Z" fill="#263238"/>
<path opacity="0.7" d="M355.3 203.69C356.791 203.69 358 202.074 358 200.08C358 198.086 356.791 196.47 355.3 196.47C353.809 196.47 352.6 198.086 352.6 200.08C352.6 202.074 353.809 203.69 355.3 203.69Z" fill="white"/>
<path d="M170.08 410.97H165.29L163.19 285.67H172.18L170.08 410.97Z" fill="#263238"/>
<path opacity="0.7" d="M170.08 410.97H165.29L163.19 285.67H172.18L170.08 410.97Z" fill="white"/>
<path d="M222.99 410.97H218.19L216.09 285.67H225.09L222.99 410.97Z" fill="#263238"/>
<path opacity="0.7" d="M222.99 410.97H218.19L216.09 285.67H225.09L222.99 410.97Z" fill="white"/>
<path d="M258.12 283.57H167.68V293.37H258.12V283.57Z" fill="#263238"/>
<path opacity="0.5" d="M258.12 283.57H167.68V293.37H258.12V283.57Z" fill="white"/>
<path d="M311.17 283.57H258.13V293.37H311.17V283.57Z" fill="#263238"/>
<path opacity="0.5" d="M311.17 283.57H258.13V293.37H311.17V283.57Z" fill="white"/>
<path d="M313.43 410.97H308.63L306.53 285.67H315.52L313.43 410.97Z" fill="#263238"/>
<path opacity="0.7" d="M313.43 410.97H308.63L306.53 285.67H315.52L313.43 410.97Z" fill="white"/>
<path d="M318.36 277.27H247.74C246.277 277.27 245.09 278.456 245.09 279.92V283.02C245.09 284.484 246.277 285.67 247.74 285.67H318.36C319.824 285.67 321.01 284.484 321.01 283.02V279.92C321.01 278.456 319.824 277.27 318.36 277.27Z" fill="#263238"/>
<path d="M254.26 277.27H158.39C156.927 277.27 155.74 278.456 155.74 279.92V283.02C155.74 284.484 156.927 285.67 158.39 285.67H254.26C255.724 285.67 256.91 284.484 256.91 283.02V279.92C256.91 278.456 255.724 277.27 254.26 277.27Z" fill="#263238"/>
<path opacity="0.2" d="M254.26 277.27H158.39C156.927 277.27 155.74 278.456 155.74 279.92V283.02C155.74 284.484 156.927 285.67 158.39 285.67H254.26C255.724 285.67 256.91 284.484 256.91 283.02V279.92C256.91 278.456 255.724 277.27 254.26 277.27Z" fill="white"/>
<path d="M260.52 410.97H255.73L253.63 285.67H262.62L260.52 410.97Z" fill="#263238"/>
<path opacity="0.7" d="M260.52 410.97H255.73L253.63 285.67H262.62L260.52 410.97Z" fill="white"/>
<path d="M258 277.28C257.629 277.28 257.273 277.132 257.01 276.87C256.748 276.607 256.6 276.251 256.6 275.88C256.6 275.509 256.748 275.153 257.01 274.89C257.273 274.627 257.629 274.48 258 274.48H296.15C296.521 274.48 296.877 274.627 297.14 274.89C297.403 275.153 297.55 275.509 297.55 275.88C297.55 276.251 297.403 276.607 297.14 276.87C296.877 277.132 296.521 277.28 296.15 277.28H258Z" fill="#407BFF"/>
<path d="M261.28 274.86L256.2 238.72C256.093 238.062 255.76 237.462 255.258 237.024C254.756 236.586 254.117 236.337 253.45 236.32H248.59V277.27H259.21C259.517 277.287 259.824 277.234 260.107 277.113C260.389 276.993 260.64 276.809 260.841 276.576C261.041 276.343 261.185 276.067 261.261 275.769C261.337 275.472 261.344 275.16 261.28 274.86Z" fill="#407BFF"/>
<path d="M257.11 277.27H214C213.334 277.252 212.695 277.001 212.194 276.561C211.693 276.121 211.363 275.519 211.26 274.86L206.18 238.72C206.118 238.42 206.126 238.11 206.204 237.814C206.281 237.517 206.425 237.243 206.625 237.011C206.825 236.779 207.075 236.596 207.357 236.476C207.639 236.356 207.944 236.303 208.25 236.32H251.38C252.046 236.339 252.684 236.589 253.186 237.026C253.688 237.464 254.021 238.063 254.13 238.72L259.21 274.86C259.275 275.163 259.268 275.477 259.19 275.777C259.112 276.077 258.965 276.355 258.762 276.589C258.558 276.823 258.303 277.006 258.016 277.124C257.73 277.242 257.419 277.292 257.11 277.27Z" fill="#407BFF"/>
<path opacity="0.7" d="M257.11 277.27H214C213.334 277.252 212.695 277.001 212.194 276.561C211.693 276.121 211.363 275.519 211.26 274.86L206.18 238.72C206.118 238.42 206.126 238.11 206.204 237.814C206.281 237.517 206.425 237.243 206.625 237.011C206.825 236.779 207.075 236.596 207.357 236.476C207.639 236.356 207.944 236.303 208.25 236.32H251.38C252.046 236.339 252.684 236.589 253.186 237.026C253.688 237.464 254.021 238.063 254.13 238.72L259.21 274.86C259.275 275.163 259.268 275.477 259.19 275.777C259.112 276.077 258.965 276.355 258.762 276.589C258.558 276.823 258.303 277.006 258.016 277.124C257.73 277.242 257.419 277.292 257.11 277.27Z" fill="white"/>
<path opacity="0.7" d="M234.77 255.81C234.819 256.083 234.807 256.364 234.734 256.632C234.661 256.9 234.529 257.149 234.348 257.359C234.167 257.57 233.942 257.738 233.688 257.85C233.434 257.963 233.158 258.017 232.88 258.01C232.272 257.99 231.689 257.76 231.232 257.359C230.774 256.958 230.469 256.411 230.37 255.81C230.321 255.537 230.334 255.256 230.407 254.988C230.48 254.72 230.611 254.471 230.792 254.261C230.973 254.05 231.199 253.882 231.453 253.77C231.707 253.657 231.983 253.603 232.26 253.61C232.87 253.626 233.454 253.855 233.913 254.256C234.371 254.658 234.675 255.208 234.77 255.81Z" fill="white"/>
<path d="M197.75 256.46H181.09C180.826 256.46 180.564 256.518 180.325 256.631C180.085 256.743 179.873 256.906 179.703 257.109C179.533 257.312 179.41 257.55 179.342 257.806C179.274 258.062 179.263 258.329 179.31 258.59V258.74C178.479 258.533 177.607 258.561 176.79 258.82C173.79 259.72 173.7 262.4 174.6 265.41C175.5 268.42 177.04 270.61 180.05 269.71C180.535 269.562 180.996 269.346 181.42 269.07C182.017 270.478 182.985 271.698 184.22 272.6V274.8H194.56V272.6C196.302 271.338 197.49 269.455 197.88 267.34L199.5 258.59C199.547 258.332 199.536 258.067 199.47 257.813C199.404 257.56 199.284 257.323 199.117 257.121C198.951 256.918 198.742 256.754 198.506 256.64C198.27 256.526 198.012 256.465 197.75 256.46ZM179.66 267.8C177.66 268.39 176.66 266.95 176.08 264.97C175.5 262.99 175.55 261.24 177.52 260.65C178.246 260.41 179.037 260.468 179.72 260.81L180.89 267.13C180.534 267.441 180.114 267.669 179.66 267.8Z" fill="#407BFF"/>
<path opacity="0.5" d="M197.75 256.46H181.09C180.826 256.46 180.564 256.518 180.325 256.631C180.085 256.743 179.873 256.906 179.703 257.109C179.533 257.312 179.41 257.55 179.342 257.806C179.274 258.062 179.263 258.329 179.31 258.59V258.74C178.479 258.533 177.607 258.561 176.79 258.82C173.79 259.72 173.7 262.4 174.6 265.41C175.5 268.42 177.04 270.61 180.05 269.71C180.535 269.562 180.996 269.346 181.42 269.07C182.017 270.478 182.985 271.698 184.22 272.6V274.8H194.56V272.6C196.302 271.338 197.49 269.455 197.88 267.34L199.5 258.59C199.547 258.332 199.536 258.067 199.47 257.813C199.404 257.56 199.284 257.323 199.117 257.121C198.951 256.918 198.742 256.754 198.506 256.64C198.27 256.526 198.012 256.465 197.75 256.46ZM179.66 267.8C177.66 268.39 176.66 266.95 176.08 264.97C175.5 262.99 175.55 261.24 177.52 260.65C178.246 260.41 179.037 260.468 179.72 260.81L180.89 267.13C180.534 267.441 180.114 267.669 179.66 267.8Z" fill="white"/>
<path d="M195 277.39H183.81C183.112 277.392 182.425 277.22 181.81 276.89L178.01 274.81C177.863 274.727 177.747 274.597 177.681 274.441C177.615 274.286 177.602 274.112 177.644 273.948C177.686 273.785 177.781 273.639 177.914 273.534C178.047 273.43 178.211 273.372 178.38 273.37H200.38C200.55 273.372 200.713 273.43 200.846 273.534C200.98 273.639 201.075 273.785 201.117 273.948C201.159 274.112 201.146 274.286 201.079 274.441C201.013 274.597 200.898 274.727 200.75 274.81L196.95 276.89C196.35 277.212 195.681 277.384 195 277.39Z" fill="#407BFF"/>
<path opacity="0.4" d="M195 277.39H183.81C183.112 277.392 182.425 277.22 181.81 276.89L178.01 274.81C177.863 274.727 177.747 274.597 177.681 274.441C177.615 274.286 177.602 274.112 177.644 273.948C177.686 273.785 177.781 273.639 177.914 273.534C178.047 273.43 178.211 273.372 178.38 273.37H200.38C200.55 273.372 200.713 273.43 200.846 273.534C200.98 273.639 201.075 273.785 201.117 273.948C201.159 274.112 201.146 274.286 201.079 274.441C201.013 274.597 200.898 274.727 200.75 274.81L196.95 276.89C196.35 277.212 195.681 277.384 195 277.39Z" fill="white"/>
<path d="M269.57 137.29H203.42C200.526 137.29 198.18 139.636 198.18 142.53V195.12C198.18 198.014 200.526 200.36 203.42 200.36H269.57C272.464 200.36 274.81 198.014 274.81 195.12V142.53C274.81 139.636 272.464 137.29 269.57 137.29Z" fill="#407BFF"/>
<path opacity="0.6" d="M269.57 137.29H203.42C200.526 137.29 198.18 139.636 198.18 142.53V195.12C198.18 198.014 200.526 200.36 203.42 200.36H269.57C272.464 200.36 274.81 198.014 274.81 195.12V142.53C274.81 139.636 272.464 137.29 269.57 137.29Z" fill="white"/>
<path d="M233.83 149.13C233.83 149.13 228.13 146.21 225.23 152.63C222.33 159.05 215 155.19 218.08 168.2C221.16 181.21 208 176.79 214.33 186.29C220.66 195.79 230.33 189.29 235.63 189.46C240.93 189.63 251.17 192.96 253.63 187.04C256.09 181.12 251.88 179.13 251.79 175.92C251.7 172.71 257.03 165.02 252.71 161.54C244.81 155.14 247.92 145.54 233.83 149.13Z" fill="#2E353A"/>
<path d="M235.63 182.22C242.489 182.22 248.05 175.106 248.05 166.33C248.05 157.554 242.489 150.44 235.63 150.44C228.771 150.44 223.21 157.554 223.21 166.33C223.21 175.106 228.771 182.22 235.63 182.22Z" fill="#B97964"/>
<path d="M236.47 167.05C236.768 168.513 237.269 169.927 237.96 171.25C237.62 171.418 237.246 171.51 236.866 171.519C236.486 171.528 236.108 171.453 235.76 171.3L236.47 167.05Z" fill="#A24E3F"/>
<path d="M231 167.1C231 167.68 231.23 168.17 231.61 168.2C231.99 168.23 232.32 167.77 232.36 167.2C232.4 166.63 232.12 166.14 231.75 166.12C231.38 166.1 231 166.53 231 167.1Z" fill="#2E353A"/>
<path d="M228.93 165.07C228.878 165.08 228.823 165.08 228.77 165.07C228.711 165.004 228.679 164.919 228.679 164.83C228.679 164.742 228.711 164.656 228.77 164.59C229.118 164.177 229.558 163.851 230.055 163.639C230.552 163.427 231.091 163.335 231.63 163.37C231.72 163.385 231.8 163.434 231.854 163.507C231.908 163.579 231.932 163.67 231.92 163.76C231.916 163.805 231.902 163.848 231.88 163.887C231.858 163.926 231.828 163.96 231.793 163.987C231.757 164.014 231.716 164.033 231.673 164.044C231.63 164.055 231.585 164.057 231.54 164.05C231.113 164.027 230.686 164.105 230.295 164.279C229.904 164.453 229.559 164.717 229.29 165.05C229.238 165.086 229.177 165.107 229.113 165.11C229.05 165.114 228.987 165.1 228.93 165.07Z" fill="#2E353A"/>
<path d="M241.37 167.1C241.37 167.68 241.13 168.17 240.75 168.2C240.37 168.23 240.04 167.77 240 167.2C239.96 166.63 240.24 166.14 240.62 166.12C241 166.1 241.33 166.53 241.37 167.1Z" fill="#2E353A"/>
<path d="M243.43 165.07C243.486 165.08 243.544 165.08 243.6 165.07C243.659 165.004 243.692 164.919 243.692 164.83C243.692 164.742 243.659 164.656 243.6 164.59C243.253 164.176 242.813 163.849 242.316 163.637C241.819 163.425 241.279 163.334 240.74 163.37C240.652 163.387 240.573 163.437 240.519 163.509C240.466 163.581 240.441 163.671 240.45 163.76C240.456 163.805 240.471 163.848 240.494 163.887C240.517 163.926 240.548 163.96 240.584 163.987C240.62 164.014 240.662 164.034 240.706 164.044C240.75 164.055 240.795 164.057 240.84 164.05C241.267 164.028 241.694 164.107 242.085 164.281C242.476 164.455 242.82 164.718 243.09 165.05C243.139 165.085 243.197 165.106 243.257 165.109C243.317 165.113 243.377 165.099 243.43 165.07Z" fill="#2E353A"/>
<path d="M236.48 175.92C236.815 175.918 237.15 175.888 237.48 175.83C237.527 175.82 237.569 175.793 237.596 175.755C237.624 175.716 237.636 175.668 237.63 175.62C237.627 175.596 237.618 175.574 237.606 175.553C237.593 175.533 237.576 175.515 237.557 175.501C237.537 175.487 237.515 175.477 237.492 175.472C237.468 175.466 237.444 175.466 237.42 175.47C236.663 175.614 235.882 175.58 235.14 175.372C234.397 175.164 233.713 174.787 233.14 174.27C233.105 174.237 233.059 174.219 233.01 174.219C232.962 174.219 232.915 174.237 232.88 174.27C232.863 174.287 232.849 174.307 232.839 174.33C232.83 174.352 232.825 174.376 232.825 174.4C232.825 174.424 232.83 174.449 232.839 174.471C232.849 174.493 232.863 174.513 232.88 174.53C233.854 175.444 235.145 175.943 236.48 175.92Z" fill="#2E353A"/>
<path d="M234.47 192.61C239.479 192.542 244.394 191.24 248.78 188.82C247.187 188.521 245.571 188.367 243.95 188.36C241.336 189.798 238.383 190.509 235.4 190.42C230.02 190.42 227.12 188.36 227.12 188.36C225.927 188.359 224.735 188.429 223.55 188.57C225.12 190.12 228.55 192.61 234.47 192.61Z" fill="#577AFB"/>
<path d="M242.54 190.14L244.81 188.7C243.643 188.528 242.534 188.075 241.58 187.38C238.65 185.19 240.24 179.6 240.24 179.6H231.83C231.63 182.95 231.72 185.91 229.83 187.3C228.715 188.16 227.358 188.65 225.95 188.7L228.95 190.49C228.76 190.91 230.95 191.7 230.95 191.7L239.3 192.17L240.9 191.17C240.9 191.17 243 190.77 242.54 190.14Z" fill="#B97964"/>
<path d="M227.12 188.36C227.12 188.36 230.02 190.42 235.4 190.42C238.383 190.51 241.335 189.798 243.95 188.36C243.95 188.36 260.62 188.03 260.62 200.36H212.45C212.45 200.36 210.29 188.36 227.12 188.36Z" fill="#407BFF"/>
<path d="M222.53 163.32C222.53 163.32 223.08 168.66 224.83 168.48C226.58 168.3 225.35 160.06 228.65 159.48C231.95 158.9 233.83 158.17 233.96 156.1C234.09 154.03 239.21 155.48 238.52 152.85C240.28 153.625 241.686 155.03 242.46 156.79C243.89 159.85 244.29 158.29 245.34 160.42C246.39 162.55 247.34 168.83 249.02 164.24C250.7 159.65 246.39 155.79 246.39 155.79L242.58 151.29L239.02 150.48L235.97 149.85H231.88L229.14 150.48L225.23 154.67L222.83 158.79L222.53 163.32Z" fill="#2E353A"/>
<path d="M224.63 167.12C225.57 168.94 225.39 171.03 224.23 171.79C223.07 172.55 221.36 171.67 220.43 169.85C219.5 168.03 219.67 165.94 220.83 165.18C221.99 164.42 223.7 165.3 224.63 167.12Z" fill="#B97964"/>
<path d="M245.94 167.12C245 168.94 245.19 171.03 246.35 171.79C247.51 172.55 249.21 171.67 250.15 169.85C251.09 168.03 250.91 165.94 249.74 165.18C248.57 164.42 246.88 165.3 245.94 167.12Z" fill="#B97964"/>
<path d="M222.85 168.51C222.6 168.574 222.383 168.733 222.247 168.953C222.111 169.173 222.066 169.437 222.12 169.69L222.63 172.96C222.645 173.046 222.693 173.123 222.764 173.173C222.836 173.224 222.924 173.244 223.01 173.23C223.096 173.215 223.173 173.167 223.224 173.096C223.274 173.024 223.295 172.936 223.28 172.85L222.92 170.58H223.13C223.371 170.503 223.577 170.343 223.71 170.128C223.843 169.913 223.895 169.658 223.856 169.408C223.817 169.158 223.691 168.93 223.499 168.766C223.307 168.601 223.063 168.51 222.81 168.51H222.85Z" fill="white"/>
<path d="M248.32 168.51C248.571 168.574 248.787 168.733 248.923 168.953C249.059 169.173 249.105 169.437 249.05 169.69L248.53 172.96C248.515 173.046 248.467 173.123 248.396 173.173C248.325 173.224 248.236 173.244 248.15 173.23C248.063 173.215 247.986 173.167 247.933 173.096C247.881 173.025 247.859 172.937 247.87 172.85L248.23 170.58H248C247.758 170.503 247.552 170.342 247.419 170.126C247.286 169.91 247.235 169.653 247.275 169.403C247.315 169.152 247.443 168.925 247.637 168.761C247.831 168.597 248.076 168.508 248.33 168.51H248.32Z" fill="white"/>
<path d="M273.79 146.29C278.766 146.29 282.8 142.256 282.8 137.28C282.8 132.304 278.766 128.27 273.79 128.27C268.814 128.27 264.78 132.304 264.78 137.28C264.78 142.256 268.814 146.29 273.79 146.29Z" fill="#407BFF"/>
<path d="M268.6 142.47C268.46 142.329 268.381 142.139 268.381 141.94C268.381 141.741 268.46 141.551 268.6 141.41L277.92 132.09C278.061 131.949 278.251 131.871 278.45 131.871C278.649 131.871 278.84 131.949 278.98 132.09C279.121 132.231 279.2 132.421 279.2 132.62C279.2 132.819 279.121 133.009 278.98 133.15L269.67 142.47C269.527 142.609 269.335 142.686 269.135 142.686C268.936 142.686 268.744 142.609 268.6 142.47Z" fill="white"/>
<path d="M276.76 142.65H274.13V140.65C274.9 140.568 275.613 140.204 276.13 139.628C276.647 139.052 276.932 138.304 276.93 137.53V136.47C276.93 136.447 276.926 136.425 276.917 136.405C276.909 136.384 276.896 136.365 276.88 136.35C276.865 136.334 276.846 136.321 276.825 136.313C276.805 136.304 276.783 136.3 276.76 136.3H276.34C276.294 136.3 276.25 136.317 276.216 136.349C276.183 136.381 276.163 136.424 276.16 136.47C276.16 136.493 276.165 136.516 276.174 136.537C276.183 136.559 276.197 136.578 276.214 136.594C276.23 136.61 276.25 136.622 276.272 136.63C276.294 136.638 276.317 136.641 276.34 136.64H276.59V137.53C276.59 138.272 276.295 138.985 275.77 139.51C275.245 140.035 274.533 140.33 273.79 140.33C273.048 140.33 272.335 140.035 271.81 139.51C271.285 138.985 270.99 138.272 270.99 137.53V136.64H271.25C271.295 136.64 271.339 136.622 271.37 136.59C271.402 136.558 271.42 136.515 271.42 136.47C271.418 136.425 271.399 136.384 271.368 136.352C271.336 136.321 271.295 136.302 271.25 136.3H270.82C270.776 136.302 270.734 136.321 270.703 136.352C270.671 136.384 270.653 136.425 270.65 136.47V137.53C270.651 138.303 270.937 139.05 271.453 139.626C271.97 140.201 272.681 140.566 273.45 140.65V142.65H270.82C270.729 142.652 270.643 142.69 270.579 142.756C270.516 142.821 270.48 142.909 270.48 143V143.34H277.1V143C277.1 142.909 277.065 142.821 277.001 142.756C276.938 142.69 276.851 142.652 276.76 142.65Z" fill="white"/>
<path d="M271.68 137.57C271.717 138.106 271.956 138.608 272.349 138.974C272.741 139.341 273.258 139.545 273.795 139.545C274.332 139.545 274.849 139.341 275.242 138.974C275.635 138.608 275.873 138.106 275.91 137.57V133.34C275.93 133.05 275.89 132.759 275.793 132.485C275.696 132.211 275.543 131.96 275.345 131.748C275.147 131.536 274.907 131.366 274.64 131.25C274.374 131.134 274.086 131.075 273.795 131.075C273.505 131.075 273.217 131.134 272.95 131.25C272.684 131.366 272.444 131.536 272.246 131.748C272.047 131.96 271.895 132.211 271.797 132.485C271.7 132.759 271.66 133.05 271.68 133.34V137.57Z" fill="white"/>
<path d="M180.39 161.32H81.3499C78.4559 161.32 76.1099 163.666 76.1099 166.56V240.51C76.1099 243.404 78.4559 245.75 81.3499 245.75H180.39C183.284 245.75 185.63 243.404 185.63 240.51V166.56C185.63 163.666 183.284 161.32 180.39 161.32Z" fill="#407BFF"/>
<path d="M124.22 168.42C124.22 168.42 119.14 166.87 118.01 177.77C116.88 188.67 109.08 192.3 117.36 196.3C125.64 200.3 133.64 195.92 136.89 196.3C140.14 196.68 146.01 194.55 145.64 189.17C145.27 183.79 135.7 168.17 135.7 168.17L124.22 168.42Z" fill="#263238"/>
<path d="M165.63 216.4C163.84 222.4 158.7 238.3 154.77 237.75C149.94 237.09 146.61 219.75 146.61 219.75L147.94 198.75C147.94 198.75 153.27 198.75 155.61 225.59L161.25 213.45L165.63 216.4Z" fill="#263238"/>
<path d="M161.73 213.63L163.73 209.27L166.87 206.7L168.57 204.87C169.002 204.404 169.571 204.086 170.194 203.964C170.818 203.842 171.464 203.921 172.04 204.19L173.04 204.66C173.624 204.93 174.106 205.382 174.414 205.947C174.722 206.513 174.84 207.162 174.75 207.8L174.22 211.6L165.72 214.35C165.72 214.35 165.48 215.2 165.07 216.58L161.73 213.63Z" fill="#EEC1BB"/>
<path d="M160.93 212.1L166.89 216.18L166.43 218.44L159.84 213.76L160.93 212.1Z" fill="#263238"/>
<path opacity="0.2" d="M160.93 212.1L166.89 216.18L166.43 218.44L159.84 213.76L160.93 212.1Z" fill="white"/>
<path d="M115.52 245.75C115.52 245.75 114.61 221.92 107.44 200.75C120.709 197.644 134.43 196.967 147.94 198.75C147.94 198.75 151.27 213.92 147.27 245.75H115.52Z" fill="#263238"/>
<path opacity="0.2" d="M115.52 245.75C115.52 245.75 114.61 221.92 107.44 200.75C120.709 197.644 134.43 196.967 147.94 198.75C147.94 198.75 151.27 213.92 147.27 245.75H115.52Z" fill="white"/>
<path d="M120.58 232.43C121.79 231.97 122.5 231.68 122.5 231.68L127.88 229.18L131.88 225.38C132.128 225.141 132.321 224.851 132.445 224.53C132.569 224.209 132.621 223.865 132.597 223.521C132.573 223.178 132.474 222.844 132.307 222.543C132.14 222.242 131.909 221.981 131.63 221.78L129.1 220C128.843 219.816 128.553 219.686 128.245 219.617C127.937 219.547 127.619 219.541 127.308 219.596C126.998 219.652 126.702 219.77 126.437 219.942C126.173 220.115 125.946 220.338 125.77 220.6L121.25 227.33C121.25 227.33 120.25 227.62 118.63 228.02L120.58 232.43Z" fill="#EEC1BB"/>
<path d="M120.68 233.05C114.82 235.26 97.2599 241.31 91.9799 236.55C85.6099 230.8 107.44 200.75 107.44 200.75C113.27 207.34 111.17 214.15 111.17 214.15C111.17 214.15 99.9399 226 101 228.92C101.93 231.53 113.47 228.92 118.75 227.61L120.68 233.05Z" fill="#263238"/>
<path d="M119.44 226.89L121.94 233.22L119.94 234.39L117.36 226.89H119.44Z" fill="#263238"/>
<path opacity="0.2" d="M119.44 226.89L121.94 233.22L119.94 234.39L117.36 226.89H119.44Z" fill="white"/>
<path d="M134.67 197.81H132.81C132.526 195.913 132.701 193.975 133.32 192.16L126.02 184.72C126.39 188.12 126.55 194.56 124.96 198.1C123.96 198.17 123.03 198.25 122.12 198.34C122.58 199.68 124.34 203.09 130.4 203.09C136.46 203.09 135.34 199.26 134.67 197.81Z" fill="#EEC1BB"/>
<path opacity="0.1" d="M127.39 187.45L126.55 189.7C127.863 192.258 130.037 194.27 132.69 195.38C132.777 194.286 132.988 193.206 133.32 192.16L128.48 187.22L127.39 187.45Z" fill="black"/>
<path d="M122.3 179.15C124.07 185.89 124.67 188.79 128.81 191.61C135.03 195.87 142.93 192.23 143.22 185.09C143.49 178.66 140.56 168.71 133.34 167.31C131.752 167.002 130.113 167.104 128.575 167.605C127.038 168.107 125.653 168.991 124.553 170.176C123.452 171.361 122.671 172.806 122.284 174.376C121.897 175.946 121.916 177.589 122.34 179.15H122.3Z" fill="#EEC1BB"/>
<path d="M121.75 184.86C122.061 185.452 122.487 185.977 123.002 186.404C123.516 186.831 124.111 187.153 124.75 187.35C126.46 187.87 127.35 186.35 126.9 184.71C126.5 183.24 125.13 181.2 123.39 181.4C122.788 181.491 122.246 181.817 121.883 182.306C121.52 182.794 121.364 183.407 121.45 184.01C121.494 184.31 121.596 184.599 121.75 184.86Z" fill="#EEC1BB"/>
<path d="M137.84 179.06C138.58 180.231 139.478 181.295 140.51 182.22C140.27 182.481 139.975 182.685 139.647 182.819C139.318 182.952 138.964 183.01 138.61 182.99L137.84 179.06Z" fill="#D58745"/>
<path d="M131.83 176.53C131.784 176.54 131.736 176.54 131.69 176.53C131.628 176.491 131.584 176.429 131.568 176.358C131.551 176.287 131.562 176.212 131.6 176.15C131.857 175.699 132.218 175.317 132.653 175.035C133.088 174.754 133.584 174.58 134.1 174.53C134.173 174.53 134.244 174.557 134.298 174.608C134.352 174.658 134.385 174.726 134.39 174.8C134.393 174.872 134.367 174.943 134.318 174.997C134.27 175.052 134.202 175.085 134.13 175.09C133.704 175.135 133.295 175.281 132.937 175.516C132.579 175.751 132.281 176.068 132.07 176.44C132.042 176.476 132.005 176.504 131.963 176.52C131.92 176.535 131.874 176.539 131.83 176.53Z" fill="#2E353A"/>
<path d="M138.45 173.65C138.417 173.616 138.393 173.575 138.38 173.53C138.369 173.495 138.366 173.458 138.37 173.422C138.374 173.386 138.385 173.351 138.402 173.319C138.42 173.287 138.444 173.26 138.473 173.237C138.502 173.215 138.535 173.199 138.57 173.19C139.066 173.036 139.592 173.003 140.103 173.093C140.614 173.184 141.097 173.395 141.51 173.71C141.544 173.731 141.574 173.759 141.596 173.793C141.619 173.827 141.633 173.865 141.64 173.905C141.646 173.945 141.643 173.986 141.632 174.025C141.621 174.063 141.602 174.099 141.576 174.13C141.549 174.161 141.517 174.186 141.48 174.202C141.443 174.219 141.403 174.228 141.363 174.228C141.322 174.228 141.282 174.219 141.245 174.202C141.209 174.185 141.176 174.16 141.15 174.13C140.806 173.874 140.406 173.704 139.984 173.634C139.561 173.564 139.127 173.597 138.72 173.73C138.672 173.74 138.622 173.739 138.575 173.725C138.527 173.711 138.484 173.685 138.45 173.65Z" fill="#2E353A"/>
<path d="M133.73 178.91C133.84 179.47 134.22 179.91 134.59 179.79C134.96 179.67 135.16 179.21 135.04 178.65C134.92 178.09 134.55 177.71 134.19 177.78C133.83 177.85 133.62 178.35 133.73 178.91Z" fill="#2E353A"/>
<path d="M140 177.68C140.1 178.23 140.49 178.62 140.85 178.55C141.21 178.48 141.42 177.98 141.31 177.42C141.2 176.86 140.82 176.47 140.46 176.54C140.1 176.61 139.9 177.12 140 177.68Z" fill="#2E353A"/>
<path d="M140.32 176.6L141.58 175.96C141.58 175.96 141.1 177.13 140.32 176.6Z" fill="#2E353A"/>
<path d="M134 177.84L135.25 177.2C135.25 177.2 134.81 178.37 134 177.84Z" fill="#2E353A"/>
<path d="M139.22 184.77C137.666 184.682 136.106 184.729 134.56 184.91C134.854 185.447 135.313 185.876 135.87 186.131C136.427 186.387 137.051 186.457 137.65 186.33C139.4 186.17 139.22 184.77 139.22 184.77Z" fill="#2E353A"/>
<path d="M136.76 185.67C137.44 185.57 138.135 185.671 138.76 185.96C138.449 186.182 138.081 186.31 137.7 186.33C137.019 186.429 136.324 186.329 135.7 186.04C136.01 185.818 136.378 185.689 136.76 185.67Z" fill="#DE5753"/>
<path d="M139.06 184.76C139.035 184.88 138.977 184.99 138.892 185.079C138.807 185.167 138.699 185.23 138.58 185.26C137.581 185.338 136.578 185.338 135.58 185.26C135.422 185.264 135.265 185.231 135.123 185.163C134.98 185.095 134.856 184.995 134.76 184.87C136.189 184.73 137.626 184.693 139.06 184.76Z" fill="white"/>
<path d="M124.22 184.42C124.22 184.42 127.22 181.9 126.55 176.53C125.88 171.16 132.68 176.17 134.04 171.67C135.4 167.17 141.26 176.3 144.14 170.8C147.02 165.3 133.88 163.96 132.57 165.55C131.26 167.14 113.3 164.55 124.22 184.42Z" fill="#263238"/>
<path d="M176.79 229.04H84.9401C83.6256 229.04 82.5601 230.106 82.5601 231.42V235.94C82.5601 237.254 83.6256 238.32 84.9401 238.32H176.79C178.104 238.32 179.17 237.254 179.17 235.94V231.42C179.17 230.106 178.104 229.04 176.79 229.04Z" fill="white"/>
<path d="M94.6597 236V231.37L97.5597 233.69L94.6597 236Z" fill="#263238"/>
<path d="M102.23 235.05L103.5 233.71L102.23 232.36V235.05Z" fill="#263238"/>
<path d="M103.5 232.41V233.71V235.01H104.07V232.41H103.5Z" fill="#263238"/>
<path d="M89.9797 232.36L88.7197 233.71L89.9797 235.05V232.36Z" fill="#263238"/>
<path d="M88.7197 235.01V233.71V232.41H88.1396V235.01H88.7197Z" fill="#263238"/>
<path d="M174.69 233.03H112.92V234.39H174.69V233.03Z" fill="#263238"/>
<path d="M142.18 230.64H139.98V236.72H142.18V230.64Z" fill="#407BFF"/>
<path d="M333.799 159.514C336.768 146.931 328.975 134.323 316.392 131.353C303.809 128.383 291.2 136.176 288.231 148.759C285.261 161.343 293.054 173.951 305.637 176.921C318.22 179.891 330.829 172.098 333.799 159.514Z" fill="#407BFF"/>
<path opacity="0.7" d="M333.799 159.514C336.768 146.931 328.975 134.323 316.392 131.353C303.809 128.383 291.2 136.176 288.231 148.759C285.261 161.343 293.054 173.951 305.637 176.921C318.22 179.891 330.829 172.098 333.799 159.514Z" fill="white"/>
<g opacity="0.8">
<path d="M306.3 162.1C307.567 160.87 309.264 160.182 311.03 160.182C312.796 160.182 314.493 160.87 315.76 162.1C317.03 163.27 318.95 161.37 317.67 160.19C315.887 158.472 313.507 157.512 311.03 157.512C308.554 157.512 306.173 158.472 304.39 160.19C303.11 161.37 305.02 163.27 306.3 162.1Z" fill="#407BFF"/>
<path d="M310.11 165.91C310.354 165.669 310.682 165.533 311.025 165.533C311.368 165.533 311.697 165.669 311.94 165.91C313.22 167.09 315.13 165.18 313.85 164C313.092 163.269 312.079 162.86 311.025 162.86C309.971 162.86 308.959 163.269 308.2 164C306.92 165.18 308.84 167.09 310.11 165.91Z" fill="#407BFF"/>
<path d="M301.28 157.08C303.892 154.548 307.387 153.132 311.025 153.132C314.663 153.132 318.158 154.548 320.77 157.08C322.05 158.25 323.96 156.35 322.68 155.17C319.551 152.152 315.373 150.466 311.025 150.466C306.677 150.466 302.499 152.152 299.37 155.17C298.09 156.35 300.01 158.26 301.28 157.08Z" fill="#407BFF"/>
<path d="M296.71 152.5C300.549 148.781 305.685 146.701 311.03 146.701C316.375 146.701 321.511 148.781 325.35 152.5C326.62 153.69 328.53 151.79 327.26 150.59C322.907 146.378 317.087 144.023 311.03 144.023C304.973 144.023 299.153 146.378 294.8 150.59C293.53 151.79 295.44 153.69 296.71 152.5Z" fill="#407BFF"/>
</g>
<path d="M124.6 301.35C137.899 301.35 148.68 290.569 148.68 277.27C148.68 263.971 137.899 253.19 124.6 253.19C111.301 253.19 100.52 263.971 100.52 277.27C100.52 290.569 111.301 301.35 124.6 301.35Z" fill="#407BFF"/>
<path opacity="0.7" d="M124.6 301.35C137.899 301.35 148.68 290.569 148.68 277.27C148.68 263.971 137.899 253.19 124.6 253.19C111.301 253.19 100.52 263.971 100.52 277.27C100.52 290.569 111.301 301.35 124.6 301.35Z" fill="white"/>
<path d="M119.36 269.61V275.82L111.88 270.35V284.19L119.36 278.71V284.93H137.31V269.61H119.36Z" fill="#407BFF"/>
<path d="M409.524 187.837C412.168 176.635 405.231 165.411 394.029 162.767C382.827 160.123 371.603 167.061 368.959 178.263C366.315 189.465 373.253 200.689 384.455 203.333C395.656 205.976 406.881 199.039 409.524 187.837Z" fill="#407BFF"/>
<path opacity="0.7" d="M409.524 187.837C412.168 176.635 405.231 165.411 394.029 162.767C382.827 160.123 371.603 167.061 368.959 178.263C366.315 189.465 373.253 200.689 384.455 203.333C395.656 205.976 406.881 199.039 409.524 187.837Z" fill="white"/>
<path d="M395.32 194H390V190C391.569 189.823 393.018 189.075 394.071 187.898C395.124 186.722 395.708 185.199 395.71 183.62V181.46C395.707 181.369 395.669 181.282 395.604 181.219C395.539 181.155 395.451 181.12 395.36 181.12H394.49C394.44 181.111 394.388 181.114 394.339 181.127C394.29 181.14 394.244 181.164 394.205 181.197C394.166 181.23 394.135 181.271 394.114 181.317C394.092 181.363 394.081 181.414 394.081 181.465C394.081 181.516 394.092 181.566 394.114 181.612C394.135 181.658 394.166 181.699 394.205 181.732C394.244 181.765 394.29 181.789 394.339 181.802C394.388 181.816 394.44 181.818 394.49 181.81H395V183.62C395 185.134 394.398 186.586 393.328 187.657C392.257 188.728 390.804 189.33 389.29 189.33C387.776 189.33 386.323 188.728 385.252 187.657C384.182 186.586 383.58 185.134 383.58 183.62V181.81H384.1C384.15 181.818 384.202 181.816 384.251 181.802C384.3 181.789 384.346 181.765 384.385 181.732C384.424 181.699 384.455 181.658 384.476 181.612C384.498 181.566 384.509 181.516 384.509 181.465C384.509 181.414 384.498 181.363 384.476 181.317C384.455 181.271 384.424 181.23 384.385 181.197C384.346 181.164 384.3 181.14 384.251 181.127C384.202 181.114 384.15 181.111 384.1 181.12H383.23C383.185 181.118 383.139 181.126 383.097 181.143C383.054 181.159 383.016 181.184 382.983 181.216C382.95 181.247 382.925 181.285 382.907 181.327C382.889 181.369 382.88 181.414 382.88 181.46V183.62C382.88 185.199 383.463 186.724 384.516 187.901C385.57 189.078 387.02 189.825 388.59 190V194H383.2C383.014 194 382.836 194.074 382.705 194.205C382.574 194.336 382.5 194.514 382.5 194.7V195.4H396V194.7C396 194.518 395.929 194.342 395.802 194.212C395.675 194.081 395.502 194.005 395.32 194Z" fill="#407BFF"/>
<path d="M389.26 188C390.406 188 391.504 187.545 392.315 186.735C393.125 185.925 393.58 184.826 393.58 183.68H384.94C384.939 184.248 385.049 184.81 385.266 185.335C385.483 185.86 385.801 186.336 386.202 186.738C386.604 187.139 387.08 187.457 387.605 187.674C388.13 187.891 388.692 188.002 389.26 188Z" fill="#407BFF"/>
<path d="M393.58 175C393.58 173.854 393.125 172.756 392.315 171.945C391.504 171.135 390.406 170.68 389.26 170.68C388.114 170.68 387.015 171.135 386.205 171.945C385.395 172.756 384.94 173.854 384.94 175V182.86H393.58V175Z" fill="#407BFF"/>
</svg>
