<svg width="500" height="500" viewBox="0 0 500 500" fill="none" xmlns="http://www.w3.org/2000/svg">
<path d="M85.4801 451.18C-5.38986 398.72 -5.38986 313.66 85.4801 261.18C176.35 208.7 323.67 208.72 414.54 261.18C505.41 313.64 505.4 398.7 414.54 451.18C323.68 503.66 176.34 503.64 85.4801 451.18Z" fill="#F5F5F5"/>
<path d="M354.08 317.59C329.77 331.59 329.77 354.38 354.08 368.42C378.39 382.46 417.81 382.42 442.13 368.42C466.45 354.42 466.44 331.62 442.13 317.59C417.82 303.56 378.39 303.55 354.08 317.59Z" fill="#E6E6E6"/>
<path d="M324.09 455.94C323.692 455.705 323.281 455.491 322.86 455.3C321.382 454.799 319.939 454.201 318.54 453.51C316.853 452.504 315.249 451.367 313.74 450.11C309.41 446.4 304.04 443.58 299.57 440.11C294.42 436.11 288.7 432.75 284.12 428.11C279.02 422.93 275.6 416.39 271.53 410.37C267.94 405.06 263.53 399.93 257.84 397.16L262.84 394.3L320.4 361.13C322.4 359.96 322.4 358.07 320.4 356.91L173.41 272C172.277 271.428 171.025 271.13 169.755 271.13C168.485 271.13 167.233 271.428 166.1 272L42 343.66C40 344.83 40 346.72 42 347.88L189 432.72C190.133 433.292 191.385 433.59 192.655 433.59C193.925 433.59 195.177 433.292 196.31 432.72L206.42 426.88L220.93 418.45C220.93 418.45 221.54 425.26 224.81 429.94C227.67 434.03 236 439.88 240.57 441.89C244.872 443.743 249.056 445.856 253.1 448.22C257.45 450.79 261.99 453.08 266.34 455.71C268.61 456.952 270.642 458.588 272.34 460.54C273.26 461.69 273.96 462.98 274.78 464.21C278.299 469.2 283.24 473.013 288.96 475.15C294.626 477.43 300.623 478.78 306.72 479.15C314.6 479.59 323.07 479.24 328.83 472.95C331 470.59 331.11 465.43 330.01 462.56C328.821 459.76 326.74 457.433 324.09 455.94Z" fill="#E0E0E0"/>
<path d="M39.27 145.78L41.24 146.94L81.52 123.69L79.56 122.52L39.27 145.78Z" fill="#FAFAFA"/>
<path d="M79.5602 122.52L41.2402 144.64V104.5L79.5602 82.3999V122.52Z" fill="white"/>
<path d="M85.2303 74.8298L37.5303 102.37V153.37L85.2303 125.83V74.8298ZM81.5203 123.69L41.2403 147V104.51L81.5203 81.2498V123.69Z" fill="#F0F0F0"/>
<path d="M81.5201 123.69L79.5601 122.52V82.4L81.5201 81.25V123.69Z" fill="#E0E0E0"/>
<path d="M85.23 74.8299L83.23 73.6899L35.54 101.23L37.53 102.37L85.23 74.8299Z" fill="#FAFAFA"/>
<path d="M35.54 101.23L37.53 102.37V153.36L35.54 152.22V101.23Z" fill="#E0E0E0"/>
<path d="M78.06 121.32L42.73 141.71V131.51L51.57 111.12L57.07 116.22L55.09 124.77L67.29 98.6799L78.06 111.12V121.32Z" fill="#F0F0F0"/>
<path d="M56.7401 101.27C55.9781 101.764 55.3435 102.43 54.8882 103.216C54.4329 104.001 54.1697 104.883 54.1201 105.79C54.1201 107.46 55.2901 108.14 56.7401 107.3C57.4992 106.804 58.131 106.136 58.5844 105.351C59.0378 104.566 59.3001 103.685 59.3501 102.78C59.3501 101.11 58.1801 100.44 56.7401 101.27Z" fill="#F0F0F0"/>
<path d="M107.63 93.97L109.6 95.14L149.88 71.88L147.92 70.71L107.63 93.97Z" fill="#FAFAFA"/>
<path d="M147.92 70.7098L109.6 92.8298V52.6998L147.92 30.5898V70.7098Z" fill="white"/>
<path d="M153.59 23L105.89 50.54V101.54L153.59 74V23ZM149.88 71.86L109.6 95.14V52.7L149.88 29.44V71.86Z" fill="#F0F0F0"/>
<path d="M149.88 71.8799L147.92 70.7099V30.5899L149.88 29.4399V71.8799Z" fill="#E0E0E0"/>
<path d="M153.59 23.0199L151.59 21.8799L103.9 49.4199L105.89 50.5599L153.59 23.0199Z" fill="#FAFAFA"/>
<path d="M103.9 49.4199L105.89 50.5599V101.56L103.9 100.41V49.4199Z" fill="#E0E0E0"/>
<path d="M146.43 69.5099L111.09 89.9099V79.7099L119.93 59.3099L125.43 64.4099L123.45 72.9599L135.65 46.8699L146.43 59.3099V69.5099Z" fill="#F0F0F0"/>
<path d="M125.1 49.4598C124.336 49.9566 123.701 50.6268 123.246 51.4158C122.79 52.2048 122.528 53.0902 122.48 53.9998C122.48 55.6598 123.65 56.3398 125.1 55.5098C125.857 55.0144 126.488 54.3483 126.941 53.5651C127.394 52.7818 127.658 51.9033 127.71 50.9999C127.71 49.2998 126.54 48.6298 125.1 49.4598Z" fill="#F0F0F0"/>
<path d="M461.51 191.79L458.37 193.66L340.79 125.47L343.94 123.59L461.51 191.79Z" fill="#FAFAFA"/>
<path d="M343.94 123.59L458.37 189.96V102.18L343.94 35.8298V123.59Z" fill="white"/>
<path d="M401.06 65.64V157.11L395.13 153.69V62.21L401.06 65.64Z" fill="#F0F0F0"/>
<path d="M404.03 63.9199L401.06 65.6399V157.11L404.03 155.39V63.9199Z" fill="#E0E0E0"/>
<path d="M334.86 128.89L464.3 203.94V98.76L334.86 23.71V128.89ZM340.79 34L458.37 102.19V193.67L340.79 125.47V34Z" fill="#F0F0F0"/>
<path d="M340.79 125.47L343.94 123.59V35.83L340.79 33.99V125.47Z" fill="#E0E0E0"/>
<path d="M334.86 23.7099L338.05 21.8799L467.49 96.9299L464.3 98.7599L334.86 23.7099Z" fill="#FAFAFA"/>
<path d="M467.49 96.9299L464.3 98.7599V203.94L467.49 202.11V96.9299Z" fill="#E0E0E0"/>
<path d="M401.06 69.0499L395.14 65.6399V69.0599L401.06 72.4799V69.0499Z" fill="#E0E0E0"/>
<path opacity="0.15" d="M401.06 72.4798L404.03 70.7698L401.06 69.0498V72.4798Z" fill="black"/>
<path d="M68.9199 328.13L59.9999 333.26L56.2399 335.43C55.9299 332.34 55.0699 324.31 53.9299 315.59C52.3199 303.38 50.3399 294.77 46.0399 286.47C42.1499 278.94 36.3699 271.67 27.2299 262.18C13.6899 248.11 18.2899 234.58 29.8599 233.71C48.7399 232.28 60.5799 250.24 66.6499 270.39C71.9999 288 71.3299 314.11 68.9199 328.13Z" fill="#E0E0E0"/>
<path d="M63.3301 330.94H63.2501C63.0526 330.917 62.872 330.817 62.7483 330.662C62.6245 330.506 62.5676 330.308 62.5901 330.11C67.1601 287.48 51.2701 255.49 33.5001 242.69C33.3383 242.573 33.2295 242.397 33.1977 242.2C33.1658 242.003 33.2134 241.802 33.3301 241.64C33.4468 241.478 33.623 241.369 33.8199 241.338C34.0168 241.306 34.2183 241.353 34.3801 241.47C52.5001 254.52 68.7101 287.04 64.0801 330.27C64.0603 330.455 63.9726 330.626 63.8341 330.749C63.6955 330.873 63.5159 330.941 63.3301 330.94Z" fill="white"/>
<path d="M59.9999 333.26L56.2399 335.43L51.8999 338C50.8999 330 47.7099 318.11 38.3699 308.89C27.6899 298.36 14.0499 292.67 11.6499 283.43C9.36993 274.66 17.3299 268.31 30.3499 272.88C36.6255 275.228 42.124 279.275 46.2299 284.57C55.5499 296.19 61.4099 315.06 59.9999 333.26Z" fill="#EBEBEB"/>
<path d="M56.2398 335.7C56.0417 335.695 55.8535 335.612 55.7153 335.47C55.5771 335.329 55.4997 335.138 55.4998 334.94C55.7998 307.71 39.8198 287.68 23.8398 279.94C23.6608 279.853 23.5239 279.697 23.4592 279.509C23.3945 279.32 23.4073 279.114 23.4948 278.935C23.5823 278.756 23.7374 278.619 23.9259 278.554C24.1143 278.49 24.3208 278.503 24.4998 278.59C40.8998 286.59 57.2998 307.11 56.9998 334.99C56.9871 335.183 56.9014 335.364 56.7603 335.495C56.6191 335.627 56.433 335.7 56.2398 335.7Z" fill="white"/>
<path d="M353.66 301.74C353.685 301.46 353.785 301.192 353.948 300.964C354.112 300.735 354.333 300.555 354.59 300.44C355.288 300.088 356.058 299.905 356.84 299.905C357.621 299.905 358.392 300.088 359.09 300.44C359.347 300.555 359.57 300.736 359.735 300.964C359.9 301.192 360.002 301.46 360.03 301.74L348.69 341.32C348.667 341.514 348.594 341.7 348.479 341.857C348.363 342.015 348.208 342.14 348.03 342.22C347.538 342.471 346.993 342.602 346.44 342.602C345.887 342.602 345.342 342.471 344.85 342.22C344.671 342.14 344.517 342.015 344.401 341.857C344.285 341.7 344.213 341.514 344.19 341.32L353.66 301.74Z" fill="#455A64"/>
<path d="M441.1 301.74C441.075 301.46 440.975 301.192 440.811 300.964C440.648 300.735 440.427 300.554 440.17 300.44C439.471 300.087 438.698 299.903 437.915 299.903C437.132 299.903 436.359 300.087 435.66 300.44C435.403 300.554 435.182 300.735 435.018 300.964C434.855 301.192 434.755 301.46 434.73 301.74L446.07 341.32C446.093 341.514 446.165 341.699 446.281 341.857C446.397 342.015 446.551 342.14 446.73 342.22C447.222 342.471 447.767 342.602 448.32 342.602C448.873 342.602 449.418 342.471 449.91 342.22C450.088 342.14 450.243 342.015 450.359 341.857C450.475 341.699 450.547 341.514 450.57 341.32L441.1 301.74Z" fill="#455A64"/>
<path d="M401 306.81C400.974 306.53 400.875 306.262 400.711 306.034C400.548 305.805 400.326 305.624 400.07 305.51C399.371 305.157 398.598 304.973 397.815 304.973C397.031 304.973 396.259 305.157 395.56 305.51C395.303 305.624 395.082 305.805 394.918 306.034C394.755 306.262 394.655 306.53 394.63 306.81L395.56 359.09C395.581 359.282 395.653 359.465 395.767 359.621C395.881 359.778 396.033 359.901 396.21 359.98C396.704 360.231 397.251 360.362 397.805 360.362C398.359 360.362 398.906 360.231 399.4 359.98C399.576 359.901 399.729 359.778 399.843 359.621C399.957 359.465 400.028 359.282 400.05 359.09L401 306.81Z" fill="#455A64"/>
<path d="M454.84 279.69C454.84 271.26 449.32 262.83 438.17 256.39C415.88 243.52 379.75 243.52 357.46 256.39C346.31 262.83 340.79 271.26 340.8 279.69H340.74V284.22C340.88 292.54 346.46 300.84 357.46 307.22C379.75 320.09 415.88 320.09 438.17 307.22C449.17 300.87 454.76 292.57 454.89 284.22L454.84 279.69Z" fill="#407BFF"/>
<path opacity="0.3" d="M454.84 279.69C454.84 271.26 449.32 262.83 438.17 256.39C415.88 243.52 379.75 243.52 357.46 256.39C346.31 262.83 340.79 271.26 340.8 279.69H340.74V284.22C340.88 292.54 346.46 300.84 357.46 307.22C379.75 320.09 415.88 320.09 438.17 307.22C449.17 300.87 454.76 292.57 454.89 284.22L454.84 279.69Z" fill="white"/>
<path d="M357.41 256.39C335.12 269.26 335.12 290.12 357.41 302.99C379.7 315.86 415.83 315.86 438.12 302.99C460.41 290.12 460.41 269.26 438.12 256.39C415.83 243.52 379.7 243.52 357.41 256.39Z" fill="#407BFF"/>
<path opacity="0.6" d="M357.41 256.39C335.12 269.26 335.12 290.12 357.41 302.99C379.7 315.86 415.83 315.86 438.12 302.99C460.41 290.12 460.41 269.26 438.12 256.39C415.83 243.52 379.7 243.52 357.41 256.39Z" fill="white"/>
<path opacity="0.15" d="M362.25 280.09L402.4 303.27C403.611 303.886 404.951 304.208 406.31 304.208C407.669 304.208 409.009 303.886 410.22 303.27L436.66 288C438.82 286.76 438.82 284.74 436.66 283.49L396.51 260.31C395.299 259.693 393.959 259.372 392.6 259.372C391.241 259.372 389.901 259.693 388.69 260.31L362.25 275.57C360.09 276.82 360.09 278.84 362.25 280.09Z" fill="black"/>
<path d="M434.99 284.14L406.04 300.65L365.19 277.22L394.13 260.71L434.99 284.14Z" fill="black"/>
<path d="M405.71 299.39L433.63 283.39C432.907 281.019 432.959 278.479 433.78 276.14L406 292C406 292 405.51 293.73 405.71 299.39Z" fill="#F5F5F5"/>
<path d="M407.46 289.72C406.681 290.224 406.032 290.906 405.566 291.709C405.1 292.512 404.831 293.413 404.78 294.34V299.74C404.78 301.44 405.98 302.13 407.46 301.28L435 285.48V284.14L407.84 299.63C406.95 300.14 406.23 299.73 406.23 298.7V293.7C406.261 293.144 406.423 292.603 406.702 292.122C406.982 291.64 407.372 291.232 407.84 290.93L435 275.44V273.92L407.46 289.72Z" fill="#263238"/>
<path d="M435 273.93L394.13 250.5L366.61 266.29C365.831 266.794 365.182 267.476 364.716 268.279C364.25 269.082 363.981 269.983 363.93 270.91V276.31C363.896 276.64 363.95 276.973 364.087 277.276C364.224 277.578 364.439 277.838 364.71 278.03L405.57 301.46C405.296 301.27 405.079 301.011 404.94 300.708C404.801 300.405 404.746 300.071 404.78 299.74V294.34C404.833 293.413 405.104 292.511 405.572 291.708C406.039 290.905 406.69 290.224 407.47 289.72L435 273.93Z" fill="#455A64"/>
<path d="M405.56 291.71C405.078 292.505 404.806 293.41 404.77 294.34V299.74C404.736 300.071 404.791 300.405 404.93 300.708C405.069 301.011 405.286 301.27 405.56 301.46L364.71 278C364.439 277.808 364.224 277.548 364.087 277.246C363.95 276.943 363.896 276.61 363.93 276.28V270.88C363.964 269.952 364.232 269.047 364.71 268.25L405.56 291.71Z" fill="#37474F"/>
<path d="M251 57.4901C252.596 58.2246 254.077 59.1844 255.4 60.3401C256.672 61.4281 257.739 62.7354 258.55 64.2001C259.325 65.6042 259.786 67.1602 259.9 68.7601C260.001 70.4688 259.657 72.1746 258.9 73.7101C258.358 74.9448 257.576 76.0597 256.6 76.9901C255.731 77.7932 254.751 78.4668 253.69 78.9901C252.659 79.4868 251.584 79.8885 250.48 80.1901L247.37 81.0601C246.432 81.3113 245.518 81.6459 244.64 82.0601C243.856 82.426 243.191 83.0047 242.72 83.7301C242.49 84.0644 242.172 84.3277 241.8 84.4901C241.627 84.5741 241.437 84.6178 241.245 84.6178C241.053 84.6178 240.863 84.5741 240.69 84.4901L236.78 82.6801C236.403 82.5037 236.109 82.1883 235.96 81.8001C235.879 81.6166 235.844 81.4166 235.856 81.2166C235.868 81.0166 235.928 80.8224 236.03 80.6501C236.632 79.4471 237.477 78.3815 238.51 77.5201C239.439 76.7509 240.469 76.1117 241.57 75.6201C242.626 75.1485 243.72 74.7671 244.84 74.4801C245.95 74.2001 246.99 73.9201 247.95 73.6401C248.828 73.4009 249.676 73.0656 250.48 72.6401C251.178 72.2716 251.736 71.6852 252.07 70.9701C252.372 70.341 252.516 69.6475 252.488 68.9502C252.46 68.2528 252.262 67.573 251.91 66.9701C251.046 65.4839 249.713 64.3267 248.12 63.6801C245.2 62.3467 242.38 62.8134 239.66 65.0801C239.39 65.336 239.075 65.5395 238.73 65.6801C238.363 65.7717 237.975 65.7141 237.65 65.5201L233.48 63.6001C233.332 63.5359 233.198 63.4426 233.086 63.3258C232.975 63.209 232.887 63.0711 232.83 62.9201C232.756 62.7637 232.718 62.593 232.718 62.4201C232.718 62.2472 232.756 62.0764 232.83 61.9201C233.495 60.6533 234.46 59.5684 235.64 58.7601C236.97 57.8054 238.46 57.0975 240.04 56.6701C241.772 56.2014 243.568 56.0091 245.36 56.1001C247.313 56.1873 249.23 56.6597 251 57.4901ZM239.58 87.6601C239.763 87.7436 239.927 87.8639 240.061 88.0136C240.195 88.1633 240.297 88.3392 240.36 88.5301C240.442 88.7125 240.484 88.9102 240.484 89.1101C240.484 89.31 240.442 89.5076 240.36 89.6901L238.27 94.2201C238.098 94.5794 237.794 94.8583 237.421 94.9982C237.048 95.138 236.636 95.1279 236.27 94.9701L231.84 92.9701C231.484 92.7947 231.209 92.4896 231.071 92.1176C230.934 91.7455 230.944 91.3348 231.1 90.9701L233.19 86.4401C233.362 86.0807 233.666 85.8024 234.04 85.6642C234.413 85.5261 234.826 85.5389 235.19 85.7001L239.58 87.6601Z" fill="#407BFF"/>
<path d="M249.4 111C250.544 111.396 251.626 111.955 252.61 112.66C253.556 113.322 254.375 114.149 255.03 115.1C255.648 116.001 256.068 117.024 256.26 118.1C256.401 119.145 256.323 120.207 256.031 121.22C255.738 122.232 255.237 123.172 254.56 123.98C254.017 124.58 253.39 125.098 252.7 125.52C252.021 125.917 251.308 126.251 250.57 126.52L248.49 127.32C247.863 127.56 247.261 127.858 246.69 128.21C246.174 128.509 245.754 128.95 245.48 129.48C245.343 129.725 245.142 129.929 244.9 130.07C244.783 130.134 244.654 130.172 244.521 130.183C244.388 130.193 244.255 130.175 244.13 130.13L241.32 129.13C241.052 129.03 240.831 128.834 240.7 128.58C240.636 128.456 240.602 128.319 240.602 128.18C240.602 128.041 240.636 127.904 240.7 127.78C241.039 126.917 241.55 126.131 242.2 125.47C242.798 124.882 243.47 124.374 244.2 123.96C244.898 123.568 245.627 123.233 246.38 122.96C247.12 122.69 247.81 122.43 248.46 122.17C249.047 121.947 249.607 121.658 250.13 121.31C250.591 121.01 250.942 120.568 251.13 120.05C251.288 119.599 251.335 119.117 251.269 118.644C251.203 118.171 251.025 117.72 250.75 117.33C250.059 116.368 249.067 115.664 247.93 115.33C246.936 114.966 245.853 114.917 244.83 115.188C243.807 115.46 242.892 116.04 242.21 116.85C242.038 117.042 241.835 117.205 241.61 117.33C241.369 117.427 241.1 117.427 240.86 117.33L237.86 116.33C237.752 116.295 237.652 116.239 237.566 116.166C237.481 116.092 237.41 116.001 237.36 115.9C237.31 115.795 237.284 115.681 237.284 115.565C237.284 115.449 237.31 115.335 237.36 115.23C237.714 114.334 238.276 113.535 239 112.9C239.851 112.154 240.83 111.568 241.89 111.17C243.049 110.728 244.271 110.475 245.51 110.42C246.832 110.361 248.153 110.558 249.4 111ZM243.54 132.49C243.803 132.584 244.019 132.778 244.14 133.03C244.204 133.154 244.242 133.29 244.251 133.43C244.259 133.569 244.239 133.709 244.19 133.84L243.05 137.09C243.006 137.222 242.936 137.344 242.843 137.447C242.75 137.55 242.637 137.633 242.51 137.69C242.257 137.811 241.966 137.829 241.7 137.74L238.53 136.62C238.399 136.578 238.278 136.509 238.174 136.418C238.071 136.327 237.988 136.215 237.93 136.09C237.865 135.966 237.828 135.83 237.819 135.69C237.81 135.551 237.831 135.411 237.88 135.28L239 132C239.043 131.868 239.114 131.746 239.207 131.643C239.3 131.54 239.413 131.457 239.54 131.4C239.662 131.337 239.797 131.3 239.935 131.291C240.072 131.283 240.21 131.303 240.34 131.35L243.54 132.49Z" fill="#407BFF"/>
<g opacity="0.2">
<path d="M249.4 111C250.544 111.396 251.626 111.955 252.61 112.66C253.556 113.322 254.375 114.149 255.03 115.1C255.648 116.001 256.068 117.024 256.26 118.1C256.401 119.145 256.323 120.207 256.031 121.22C255.738 122.232 255.237 123.172 254.56 123.98C254.017 124.58 253.39 125.098 252.7 125.52C252.021 125.917 251.308 126.251 250.57 126.52L248.49 127.32C247.863 127.56 247.261 127.858 246.69 128.21C246.174 128.509 245.754 128.95 245.48 129.48C245.343 129.725 245.142 129.929 244.9 130.07C244.783 130.134 244.654 130.172 244.521 130.183C244.388 130.193 244.255 130.175 244.13 130.13L241.32 129.13C241.052 129.03 240.831 128.834 240.7 128.58C240.636 128.456 240.602 128.319 240.602 128.18C240.602 128.041 240.636 127.904 240.7 127.78C241.039 126.917 241.55 126.131 242.2 125.47C242.798 124.882 243.47 124.374 244.2 123.96C244.898 123.568 245.627 123.233 246.38 122.96C247.12 122.69 247.81 122.43 248.46 122.17C249.047 121.947 249.607 121.658 250.13 121.31C250.591 121.01 250.942 120.568 251.13 120.05C251.288 119.599 251.335 119.117 251.269 118.644C251.203 118.171 251.025 117.72 250.75 117.33C250.059 116.368 249.067 115.664 247.93 115.33C246.936 114.966 245.853 114.917 244.83 115.188C243.807 115.46 242.892 116.04 242.21 116.85C242.038 117.042 241.835 117.205 241.61 117.33C241.369 117.427 241.1 117.427 240.86 117.33L237.86 116.33C237.752 116.295 237.652 116.239 237.566 116.166C237.481 116.092 237.41 116.001 237.36 115.9C237.31 115.795 237.284 115.681 237.284 115.565C237.284 115.449 237.31 115.335 237.36 115.23C237.714 114.334 238.276 113.535 239 112.9C239.851 112.154 240.83 111.568 241.89 111.17C243.049 110.728 244.271 110.475 245.51 110.42C246.832 110.361 248.153 110.558 249.4 111ZM243.54 132.49C243.803 132.584 244.019 132.778 244.14 133.03C244.204 133.154 244.242 133.29 244.251 133.43C244.259 133.569 244.239 133.709 244.19 133.84L243.05 137.09C243.006 137.222 242.936 137.344 242.843 137.447C242.75 137.55 242.637 137.633 242.51 137.69C242.257 137.811 241.966 137.829 241.7 137.74L238.53 136.62C238.399 136.578 238.278 136.509 238.174 136.418C238.071 136.327 237.988 136.215 237.93 136.09C237.865 135.966 237.828 135.83 237.819 135.69C237.81 135.551 237.831 135.411 237.88 135.28L239 132C239.043 131.868 239.114 131.746 239.207 131.643C239.3 131.54 239.413 131.457 239.54 131.4C239.662 131.337 239.797 131.3 239.935 131.291C240.072 131.283 240.21 131.303 240.34 131.35L243.54 132.49Z" fill="black"/>
</g>
<path d="M286.28 115C286.444 115.012 286.604 115.057 286.75 115.132C286.897 115.208 287.026 115.313 287.13 115.44C287.24 115.563 287.324 115.707 287.376 115.864C287.427 116.02 287.446 116.186 287.43 116.35L287.12 120.41C287.112 120.575 287.069 120.736 286.993 120.883C286.917 121.03 286.81 121.158 286.68 121.26C286.559 121.37 286.417 121.455 286.262 121.508C286.107 121.561 285.943 121.583 285.78 121.57L281.78 121.26C281.45 121.235 281.144 121.079 280.928 120.828C280.712 120.577 280.605 120.25 280.63 119.92L280.94 115.85C280.952 115.686 280.997 115.526 281.072 115.38C281.148 115.234 281.253 115.104 281.38 115C281.502 114.891 281.644 114.808 281.799 114.757C281.954 114.705 282.118 114.686 282.28 114.7L286.28 115ZM286.43 88.6101C287.861 88.7129 289.269 89.0228 290.61 89.5301C291.897 90.0008 293.089 90.6985 294.13 91.5901C295.125 92.4457 295.924 93.5067 296.47 94.7001C297.045 95.9749 297.276 97.3782 297.14 98.7701C297.081 99.871 296.802 100.949 296.32 101.94C295.882 102.795 295.319 103.581 294.65 104.27C294.005 104.947 293.298 105.563 292.54 106.11L290.39 107.67C289.747 108.135 289.148 108.657 288.6 109.23C288.105 109.737 287.759 110.37 287.6 111.06C287.517 111.381 287.352 111.674 287.12 111.91C287.011 112.025 286.876 112.112 286.726 112.164C286.577 112.216 286.417 112.232 286.26 112.21L282.75 111.94C282.412 111.917 282.096 111.763 281.87 111.51C281.751 111.394 281.664 111.249 281.615 111.091C281.566 110.932 281.557 110.763 281.59 110.6C281.71 109.507 282.05 108.449 282.59 107.49C283.083 106.639 283.688 105.859 284.39 105.17C285.066 104.504 285.798 103.898 286.58 103.36C287.34 102.83 288.06 102.36 288.71 101.82C289.313 101.382 289.867 100.879 290.36 100.32C290.786 99.8377 291.045 99.2312 291.1 98.5901C291.15 98.0253 291.061 97.457 290.841 96.9343C290.622 96.4116 290.278 95.9502 289.84 95.5901C288.756 94.6957 287.405 94.1858 286 94.1401C283.38 93.9401 281.35 95.1401 279.92 97.6301C279.783 97.9022 279.6 98.149 279.38 98.3601C279.121 98.5305 278.807 98.5983 278.5 98.5501L274.76 98.2601C274.627 98.2544 274.497 98.2222 274.377 98.1656C274.257 98.1089 274.149 98.0289 274.06 97.9301C273.97 97.8267 273.902 97.7058 273.861 97.5751C273.82 97.4443 273.806 97.3065 273.82 97.1701C273.964 96.0084 274.389 94.8994 275.06 93.9401C275.812 92.831 276.753 91.8628 277.84 91.0801C279.028 90.2087 280.348 89.5335 281.75 89.0801C283.264 88.616 284.854 88.4529 286.43 88.6001V88.6101Z" fill="#407BFF"/>
<g opacity="0.3">
<path d="M286.28 115C286.444 115.012 286.604 115.057 286.75 115.132C286.897 115.208 287.026 115.313 287.13 115.44C287.24 115.563 287.324 115.707 287.376 115.864C287.427 116.02 287.446 116.186 287.43 116.35L287.12 120.41C287.112 120.575 287.069 120.736 286.993 120.883C286.917 121.03 286.81 121.158 286.68 121.26C286.559 121.37 286.417 121.455 286.262 121.508C286.107 121.561 285.943 121.583 285.78 121.57L281.78 121.26C281.45 121.235 281.144 121.079 280.928 120.828C280.712 120.577 280.605 120.25 280.63 119.92L280.94 115.85C280.952 115.686 280.997 115.526 281.072 115.38C281.148 115.234 281.253 115.104 281.38 115C281.502 114.891 281.644 114.808 281.799 114.757C281.954 114.705 282.118 114.686 282.28 114.7L286.28 115ZM286.43 88.6101C287.861 88.7129 289.269 89.0228 290.61 89.5301C291.897 90.0008 293.089 90.6985 294.13 91.5901C295.125 92.4457 295.924 93.5067 296.47 94.7001C297.045 95.9749 297.276 97.3782 297.14 98.7701C297.081 99.871 296.802 100.949 296.32 101.94C295.882 102.795 295.319 103.581 294.65 104.27C294.005 104.947 293.298 105.563 292.54 106.11L290.39 107.67C289.747 108.135 289.148 108.657 288.6 109.23C288.105 109.737 287.759 110.37 287.6 111.06C287.517 111.381 287.352 111.674 287.12 111.91C287.011 112.025 286.876 112.112 286.726 112.164C286.577 112.216 286.417 112.232 286.26 112.21L282.75 111.94C282.412 111.917 282.096 111.763 281.87 111.51C281.751 111.394 281.664 111.249 281.615 111.091C281.566 110.932 281.557 110.763 281.59 110.6C281.71 109.507 282.05 108.449 282.59 107.49C283.083 106.639 283.688 105.859 284.39 105.17C285.066 104.504 285.798 103.898 286.58 103.36C287.34 102.83 288.06 102.36 288.71 101.82C289.313 101.382 289.867 100.879 290.36 100.32C290.786 99.8377 291.045 99.2312 291.1 98.5901C291.15 98.0253 291.061 97.457 290.841 96.9343C290.622 96.4116 290.278 95.9502 289.84 95.5901C288.756 94.6957 287.405 94.1858 286 94.1401C283.38 93.9401 281.35 95.1401 279.92 97.6301C279.783 97.9022 279.6 98.149 279.38 98.3601C279.121 98.5305 278.807 98.5983 278.5 98.5501L274.76 98.2601C274.627 98.2544 274.497 98.2222 274.377 98.1656C274.257 98.1089 274.149 98.0289 274.06 97.9301C273.97 97.8267 273.902 97.7058 273.861 97.5751C273.82 97.4443 273.806 97.3065 273.82 97.1701C273.964 96.0084 274.389 94.8994 275.06 93.9401C275.812 92.831 276.753 91.8628 277.84 91.0801C279.028 90.2087 280.348 89.5335 281.75 89.0801C283.264 88.616 284.854 88.4529 286.43 88.6001V88.6101Z" fill="white"/>
</g>
<path d="M292 295.62C292.567 299.005 292.087 302.483 290.625 305.588C289.164 308.693 286.79 311.279 283.82 313L188 363L187.72 368.53L183.3 371L188.93 374.24L294.93 312.89L292 295.62Z" fill="#407BFF"/>
<path d="M193.79 162.65L169.29 176.79L273.77 242.85C277.074 244.943 279.9 247.709 282.064 250.967C284.228 254.225 285.682 257.903 286.33 261.76L301.55 360.28C301.595 360.551 301.706 360.807 301.872 361.026C302.038 361.246 302.254 361.421 302.503 361.538C302.752 361.655 303.025 361.71 303.3 361.698C303.575 361.686 303.842 361.608 304.08 361.47C304.65 361.15 304.98 360.47 304.78 358.12L296.08 253.43C295.59 247.52 291.82 240.43 285.8 235.69L193.79 162.65Z" fill="#407BFF"/>
<path opacity="0.1" d="M193.79 162.65L169.29 176.79L273.77 242.85C277.074 244.943 279.9 247.709 282.064 250.967C284.228 254.225 285.682 257.903 286.33 261.76L301.55 360.28C301.595 360.551 301.706 360.807 301.872 361.026C302.038 361.246 302.254 361.421 302.503 361.538C302.752 361.655 303.025 361.71 303.3 361.698C303.575 361.686 303.842 361.608 304.08 361.47C304.65 361.15 304.98 360.47 304.78 358.12L296.08 253.43C295.59 247.52 291.82 240.43 285.8 235.69L193.79 162.65Z" fill="black"/>
<path d="M293 301.59C293.552 304.901 293.081 308.301 291.652 311.338C290.223 314.375 287.903 316.905 285 318.59L195.55 370.28L200.32 380.15L286.72 330.26C287.859 329.608 289.138 329.242 290.449 329.192C291.76 329.142 293.064 329.411 294.248 329.975C295.432 330.54 296.463 331.382 297.25 332.432C298.038 333.481 298.559 334.705 298.77 336L293 301.59Z" fill="#407BFF"/>
<path opacity="0.1" d="M293 301.59C293.552 304.901 293.081 308.301 291.652 311.338C290.223 314.375 287.903 316.905 285 318.59L195.55 370.28L200.32 380.15L286.72 330.26C287.859 329.608 289.138 329.242 290.449 329.192C291.76 329.142 293.064 329.411 294.248 329.975C295.432 330.54 296.463 331.382 297.25 332.432C298.038 333.481 298.559 334.705 298.77 336L293 301.59Z" fill="black"/>
<path d="M181.77 370.33L180.56 363.13L90.2201 311L101.22 304.67L95.7401 301.51L91.6401 303.88C90.1461 304.758 88.4123 305.139 86.6881 304.969C84.9639 304.798 83.338 304.086 82.0443 302.933C80.7507 301.781 79.8558 300.248 79.4885 298.554C79.1212 296.861 79.3003 295.095 80.0001 293.51L80.3801 292.63L79.7801 294.01L71.6001 312.86L78.7101 317.61L84.7101 314.14L181.77 370.33Z" fill="#407BFF"/>
<path d="M182.94 364.5L90.5802 311.13C88.8772 310.022 87.4605 308.526 86.4455 306.765C85.4306 305.005 84.8463 303.03 84.7402 301V295.56C84.8478 293.534 85.4329 291.562 86.4478 289.805C87.4628 288.048 88.8788 286.556 90.5802 285.45L182.94 232.12C184.749 231.203 186.748 230.725 188.775 230.725C190.803 230.725 192.802 231.203 194.61 232.12L287 285.47C288.699 286.578 290.112 288.071 291.125 289.828C292.138 291.584 292.722 293.555 292.83 295.58V301.09C292.721 303.115 292.136 305.085 291.123 306.842C290.11 308.598 288.698 310.091 287 311.2L194.63 364.5C192.819 365.421 190.817 365.9 188.785 365.9C186.754 365.9 184.751 365.421 182.94 364.5Z" fill="#455A64"/>
<path d="M184.65 365.24C184.057 365.047 183.484 364.796 182.94 364.49L90.58 311.13C88.88 310.019 87.466 308.523 86.453 306.763C85.44 305.003 84.8565 303.028 84.75 301V295.55C84.854 293.753 85.3278 291.997 86.1417 290.392C86.9556 288.786 88.0921 287.366 89.48 286.22C87.41 288.08 87.78 290.56 90.58 292.22L182.5 345.3L184.65 365.24Z" fill="#263238"/>
<path d="M292.81 295.57V301.09C292.706 303.114 292.125 305.084 291.116 306.841C290.106 308.598 288.696 310.091 287 311.2L194.64 364.5C193.105 365.278 191.43 365.743 189.713 365.868C187.997 365.993 186.272 365.777 184.64 365.23L182.49 345.23L182.93 345.48C184.737 346.402 186.737 346.883 188.765 346.883C190.794 346.883 192.793 346.402 194.6 345.48L287 292.2C289.82 290.59 290.18 288.09 288.1 286.2C289.491 287.351 290.627 288.778 291.438 290.391C292.249 292.004 292.716 293.768 292.81 295.57Z" fill="#37474F"/>
<path d="M215.8 251.1L123.43 304.43C121.332 305.542 118.953 306.011 116.59 305.78C116.24 305.78 115.9 305.72 115.59 305.67H115.38L114.77 305.56H114.69C114.382 305.499 114.078 305.419 113.78 305.32C113.081 305.125 112.409 304.842 111.78 304.48L107 301.69C103.47 299.379 100.964 295.798 100 291.69L86.0004 213.29C85.9199 212.808 85.8798 212.319 85.8804 211.83C85.8804 211.64 85.8804 211.45 85.8804 211.26C85.9599 210.278 86.1752 209.312 86.5204 208.39C87.1352 206.687 88.1829 205.174 89.5604 204L89.9604 203.7C90.1594 203.555 90.3664 203.422 90.5804 203.3L182.94 149.97C184.751 149.061 186.749 148.587 188.775 148.587C190.802 148.587 192.8 149.061 194.61 149.97L199.36 152.72C200.399 153.345 201.345 154.113 202.17 155L202.64 155.52C203.269 156.239 203.837 157.008 204.34 157.82C204.46 157.987 204.57 158.161 204.67 158.34L204.93 158.81L205.29 159.5C205.4 159.73 205.51 159.96 205.6 160.19C205.69 160.42 205.76 160.58 205.83 160.77C205.876 160.86 205.912 160.953 205.94 161.05C206 161.22 206.05 161.39 206.1 161.56C206.15 161.73 206.23 162.01 206.28 162.23C206.325 162.391 206.362 162.555 206.39 162.72L220.44 241.14C220.692 243.069 220.389 245.031 219.568 246.794C218.746 248.558 217.439 250.051 215.8 251.1Z" fill="#455A64"/>
<path d="M102.36 222.76L116.36 301.17C117.01 304.83 120.16 306.3 123.36 304.43L215.72 251.11C217.366 250.058 218.678 248.558 219.501 246.787C220.325 245.016 220.626 243.047 220.37 241.11L206.32 162.71C205.67 159.04 202.52 157.58 199.32 159.44L107 212.76C105.355 213.813 104.045 215.313 103.223 217.084C102.401 218.855 102.102 220.825 102.36 222.76Z" fill="#37474F"/>
<path d="M121.05 305.38C119.595 305.75 118.089 305.885 116.59 305.78C116.24 305.78 115.9 305.72 115.59 305.67C115.28 305.62 115.05 305.59 114.77 305.53H114.69C114.382 305.469 114.078 305.389 113.78 305.29C113.081 305.095 112.409 304.813 111.78 304.45L107 301.69C103.47 299.379 100.964 295.798 100 291.69L86.0004 213.29C85.9199 212.808 85.8798 212.319 85.8804 211.83C85.8804 211.64 85.8804 211.45 85.8804 211.26C85.9599 210.278 86.1752 209.313 86.5204 208.39L103 217.75C102.347 219.331 102.143 221.061 102.41 222.75L116.41 301.16C116.89 303.89 118.76 305.41 121.03 305.22C121.031 305.274 121.037 305.328 121.05 305.38Z" fill="#263238"/>
<path d="M263.64 353.85C263.64 353.85 253.05 376.59 252.13 385.72C251.13 395.23 248.71 398.27 249.82 408.72C250.07 411 251.03 415.58 251.24 417.43C251.43 419.08 250.75 420.36 248.63 420.69C244.45 421.35 237.95 413.25 235.09 404.63C232.23 396.01 228.52 376.72 228.34 374.42C228.293 372.112 228.856 369.832 229.97 367.81C230.551 366.623 231.244 365.495 232.04 364.44C233.61 360.36 234.65 352.5 236.04 347.1L263.64 353.85Z" fill="#F28F8F"/>
<path d="M219.83 382.72C219.238 383.664 218.812 384.702 218.57 385.79C218.38 387.69 222.37 394.16 223.95 396.52C225.53 398.88 227.03 401.82 226.53 407.52C225.98 413.6 228.39 419.59 232.08 424.8C235.77 430.01 242.32 435.8 252.22 439.41C262.12 443.02 265.89 438.13 265.89 438.13C265.89 438.13 269.24 433.43 267.47 431.36C265.7 429.29 219.83 382.72 219.83 382.72Z" fill="#263238"/>
<path d="M232 364.44C231.7 364.44 231.16 364.31 230.33 365.22C230.01 365.56 227.96 369.99 226.33 372.29C224.7 374.59 220.49 378.89 219.79 382.72C221.79 390.28 228.49 395.79 229.2 402.87C229.91 409.95 229.63 418.12 240.02 427.24C250.41 436.36 261.47 437.8 265.57 435.71C269.67 433.62 269.52 429.33 264.35 420.92C258.86 411.99 255.78 393.06 255.78 393.05C255.2 389.75 256.11 384.28 252.96 382.11C251.384 381.197 249.625 380.644 247.81 380.49C245.81 380.17 243.52 379.89 241.81 380.98C240.346 382.066 239.363 383.68 239.07 385.48C238.794 387.264 238.4 389.028 237.89 390.76C237.68 391.3 237.33 391.89 236.75 391.95C235.89 392.03 235.48 390.95 235.36 390.07C234.693 385.53 234.047 380.987 233.42 376.44C233.1 374.23 232.78 372.01 232.47 369.8C232.22 368.09 231.54 366.11 232 364.44Z" fill="#37474F"/>
<path d="M277.38 385.68C277.38 385.68 283.79 412.36 289.52 422.48C295.25 432.6 298.16 437.48 305.59 444.91C307.2 446.52 310.83 449.49 312.15 450.8C313.33 451.96 313.61 453.39 312.15 454.98C309.31 458.11 296.43 459.73 288.8 454.82C281.17 449.91 273.74 438.82 269.1 434.75C267.36 433.22 265.72 431.65 264.1 429.97C262.48 428.29 262.85 426.69 262.59 424.78C262.46 423.85 262.41 421.3 262.41 421.3C261.09 416.83 257.9 409.89 256.16 405.56L277.38 385.68Z" fill="#FFA8A7"/>
<path d="M261.37 441.89C261.372 443.004 261.561 444.109 261.93 445.16C262.78 446.86 269.61 450.22 272.2 451.39C274.79 452.56 277.63 454.24 280.2 459.32C282.98 464.75 288.2 468.55 294.09 471C299.98 473.45 308.64 474.9 318.92 472.66C329.2 470.42 329.82 464.3 329.82 464.3C329.82 464.3 330.16 458.54 327.55 457.73C324.94 456.92 261.37 441.89 261.37 441.89Z" fill="#263238"/>
<path d="M262 419.92C261.73 420.06 261.21 420.25 261 421.46C260.92 421.92 261.54 426.76 261.38 429.57C261.2 432.57 259.94 438.27 261.38 441.89C267.06 447.24 275.7 448.33 280.06 453.95C284.42 459.57 288.54 466.63 302.19 468.83C315.84 471.03 325.97 466.36 328.33 462.41C330.69 458.46 328.28 454.91 319.42 450.54C310.03 445.89 297.36 431.54 297.35 431.49C295.608 429.452 293.998 427.304 292.53 425.06C291.62 423.7 291.64 422.32 289.53 422.19C288.531 422.189 287.542 422.386 286.62 422.77C284.73 423.43 282.87 424.18 281.06 425.02C280.116 425.339 279.322 425.994 278.83 426.86C278.563 427.865 278.677 428.934 279.15 429.86C280.383 433.193 281.616 436.527 282.85 439.86C278.69 437.86 275.97 433.86 273.19 430.15C271.651 427.976 269.813 426.03 267.73 424.37C266.741 423.614 265.655 422.995 264.5 422.53C264.08 422.37 262.97 422.28 262.67 421.97C262.53 421.82 262.44 421.14 262.32 421.09C262.193 420.706 262.086 420.315 262 419.92Z" fill="#37474F"/>
<path d="M210 249.11C221.65 256.43 261.8 275.93 278.49 289.3C283.31 293.16 285.64 299.23 283.39 310.86C280.27 326.97 268.39 361.45 268.39 361.45C267.154 364.527 266.177 367.701 265.47 370.94L204 307.88L210 249.11Z" fill="#407BFF"/>
<path opacity="0.4" d="M210 249.11C221.65 256.43 261.8 275.93 278.49 289.3C283.31 293.16 285.64 299.23 283.39 310.86C280.27 326.97 268.39 361.45 268.39 361.45C267.154 364.527 266.177 367.701 265.47 370.94L204 307.88L210 249.11Z" fill="white"/>
<path opacity="0.3" d="M263.64 323.52C261.97 317.23 257.76 313.85 254.02 311.3C239.11 301.14 218.02 286.4 214.24 283.54C215.87 279.54 218.58 272.49 215.61 265.64C215.61 265.64 214.49 280.64 206.23 286.82L206.14 286.97C208.24 289.8 249.77 345.83 267.76 362.97C267.96 362.44 268.17 361.97 268.38 361.49C268.38 361.49 269.16 359.22 270.38 355.59C268.78 346.22 266.15 333 263.64 323.52Z" fill="black"/>
<path d="M210.68 247.37L128.88 266.37C131.23 279.68 132.39 285.37 136.95 292.65C141.51 299.93 149.24 307.65 175.68 320.05C195.6 329.38 220.28 339.59 225.26 341.53C229.01 343 229.93 350.23 232.48 359.45C235.33 369.76 240.14 376.99 244.48 385.5C250.82 397.92 255.57 408.15 255.57 408.15C255.57 408.15 272.92 408.23 282.11 398.9C264.72 335.31 263.43 330.74 262.95 329.18C260.86 322.31 260.78 320.44 251.56 313.39C243.65 307.34 208.64 284.58 208.64 284.58C208.64 284.58 220.56 265.9 210.68 247.37Z" fill="#407BFF"/>
<path opacity="0.4" d="M210.68 247.37L128.88 266.37C131.23 279.68 132.39 285.37 136.95 292.65C141.51 299.93 149.24 307.65 175.68 320.05C195.6 329.38 220.28 339.59 225.26 341.53C229.01 343 229.93 350.23 232.48 359.45C235.33 369.76 240.14 376.99 244.48 385.5C250.82 397.92 255.57 408.15 255.57 408.15C255.57 408.15 272.92 408.23 282.11 398.9C264.72 335.31 263.43 330.74 262.95 329.18C260.86 322.31 260.78 320.44 251.56 313.39C243.65 307.34 208.64 284.58 208.64 284.58C208.64 284.58 220.56 265.9 210.68 247.37Z" fill="white"/>
<path d="M193.67 162.24C208.67 162.35 215.61 171.56 220.1 184.76C224.59 197.96 226.95 204.59 230.52 214.91C234.3 225.83 214.03 239.21 208.58 236.14L197.4 207.31C196.38 197.5 193.67 162.24 193.67 162.24Z" fill="#FFA8A7"/>
<path d="M192.92 158.58C201.19 158.98 207.68 161.7 210.7 164.48C213.72 167.26 215.85 168.1 222.47 188.15C227.25 202.62 228.06 205.94 228.06 205.94C228.06 205.94 217.87 218.81 198.22 217.26L194.84 209.26L192.92 158.58Z" fill="#263238"/>
<path d="M164.36 156.59L145 162.65C145 162.65 128.67 174.55 127 187.86C125.33 201.17 124.8 208.24 126.64 240.81C127.64 258.69 133.45 284.51 133.45 284.51C133.45 284.51 152.18 290.03 182.34 279.18C217.52 266.53 217.52 253.08 217.52 253.08C213.119 249.258 210.364 243.884 209.83 238.08C209.37 232.29 209.26 224.18 209.96 205.97C210.96 179.76 209.43 164.11 194.75 159.63C194.8 159.64 173.85 155.24 164.36 156.59Z" fill="#407BFF"/>
<path opacity="0.3" d="M164.36 156.59L145 162.65C145 162.65 128.67 174.55 127 187.86C125.33 201.17 124.8 208.24 126.64 240.81C127.64 258.69 133.45 284.51 133.45 284.51C133.45 284.51 152.18 290.03 182.34 279.18C217.52 266.53 217.52 253.08 217.52 253.08C213.119 249.258 210.364 243.884 209.83 238.08C209.37 232.29 209.26 224.18 209.96 205.97C210.96 179.76 209.43 164.11 194.75 159.63C194.8 159.64 173.85 155.24 164.36 156.59Z" fill="black"/>
<path d="M191.58 86.3602C171.74 82.2902 155.02 95.3602 151.58 107.48C146.21 126.18 163.98 140.62 166.79 151.06L215.12 113.19C215.82 105.53 211.42 90.4302 191.58 86.3602Z" fill="#263238"/>
<path d="M178.56 112.67C172.24 111.3 170.74 114.17 170.37 118.25C170 122.33 170.3 123.85 169.37 128.08C169.209 128.997 168.869 129.874 168.37 130.66C168.121 131.053 167.787 131.386 167.392 131.634C166.998 131.881 166.553 132.037 166.09 132.09C164.85 132.18 164.34 131.42 163.96 130.44C163.47 129.18 163.41 127.03 161.28 125.22C159.15 123.41 153.5 121.48 150.87 127.44C148.15 133.61 153.3 141.17 157.58 143.09C163.29 145.66 166.58 139.94 166.58 139.94L162.09 162.37C171.87 177.86 194.37 174 189.9 167.73L194.1 157.55C194.1 157.55 199.23 158.24 202.57 157.39C206.36 156.66 212.84 154.76 214.91 141.71C215.68 136.84 215.8 123.36 215.29 115.86C214.86 109.5 213.7 107.3 213.43 106.44C210.8 104.23 202.43 104.31 198.43 108.16C192.15 104 183.31 104.34 178.56 112.67Z" fill="#FFA8A7"/>
<path d="M199 144.46C198.138 143.557 197.016 142.945 195.79 142.71C195.236 142.583 194.668 142.526 194.1 142.54C193.497 142.514 192.899 142.663 192.38 142.97C192.303 143.037 192.246 143.124 192.215 143.221C192.183 143.317 192.178 143.421 192.2 143.52C192.2 143.68 192.34 143.98 192.54 143.99C192.828 143.987 193.115 143.964 193.4 143.92C193.71 143.92 194.01 143.92 194.32 143.92C194.821 143.917 195.322 143.974 195.81 144.09C196.295 144.203 196.765 144.374 197.21 144.6C197.674 144.877 198.121 145.181 198.55 145.51C198.596 145.552 198.651 145.581 198.711 145.596C198.771 145.611 198.834 145.611 198.894 145.596C198.955 145.582 199.01 145.552 199.056 145.511C199.103 145.47 199.138 145.418 199.16 145.36C199.22 145.21 199.238 145.046 199.209 144.887C199.181 144.728 199.108 144.58 199 144.46Z" fill="#B16668"/>
<path d="M194.1 157.55C187.2 156.98 183.5 155.83 180.51 154.61C175 152.36 172.73 151.78 168 140C168 140 168.52 150.42 175 155.74C180.11 160 192.7 161 192.7 161L194.1 157.55Z" fill="#F28F8F"/>
<path d="M213.24 110.16C210.69 103.04 202.91 97.6501 198.41 108.16C192.18 99.2601 181.41 100.5 179.08 111.81C177.721 118.167 177.968 124.763 179.8 131C179.8 131 172.8 127.59 172.53 117.83C172.53 117.83 171.45 124.91 172.3 127.72C172.3 127.72 155.06 126.08 150.12 120.84C150.12 120.84 145.93 101.34 159.07 96.3701C160.07 88.0001 172.79 77.3701 194.55 82.7201C216.31 88.0701 219.55 99.6001 219.55 99.6001C217.453 98.1636 215.169 97.0229 212.76 96.2101C216.886 100.197 219.381 105.576 219.76 111.3C220.48 120.98 215.63 125.95 215.63 125.95C215.63 125.95 215.29 115.86 213.24 110.16Z" fill="#37474F"/>
<path d="M158.65 97.73L151.77 92.58C152.489 91.6657 153.535 91.0654 154.687 90.905C155.839 90.7447 157.008 91.0368 157.95 91.72C158.401 92.0613 158.778 92.4902 159.058 92.981C159.339 93.4717 159.517 94.0142 159.582 94.5757C159.648 95.1372 159.599 95.7061 159.439 96.2482C159.278 96.7903 159.01 97.2943 158.65 97.73Z" fill="#37474F"/>
<path d="M159.59 97.2202L151.54 100.22C151.164 99.1209 151.226 97.9188 151.714 96.8643C152.202 95.8098 153.078 94.9844 154.16 94.5602C154.691 94.3662 155.255 94.2816 155.819 94.3112C156.383 94.3408 156.935 94.4842 157.442 94.7326C157.949 94.9811 158.401 95.3295 158.77 95.757C159.139 96.1845 159.418 96.6822 159.59 97.2202Z" fill="#37474F"/>
<path d="M195 101.32C195.079 101.322 195.157 101.297 195.22 101.25C195.288 101.194 195.331 101.113 195.34 101.025C195.35 100.938 195.324 100.85 195.27 100.78C187.88 91.5301 168.16 90.6501 160.46 95.3601C160.423 95.3831 160.39 95.4132 160.364 95.4488C160.339 95.4843 160.32 95.5246 160.31 95.5673C160.3 95.6101 160.298 95.6544 160.305 95.6977C160.312 95.7411 160.327 95.7827 160.35 95.8201C160.373 95.8576 160.403 95.8901 160.439 95.9159C160.474 95.9417 160.515 95.9602 160.557 95.9704C160.6 95.9806 160.644 95.9823 160.688 95.9754C160.731 95.9685 160.773 95.9531 160.81 95.9301C168.14 91.4501 187.68 92.3601 194.74 101.2C194.773 101.237 194.813 101.267 194.857 101.288C194.902 101.309 194.951 101.32 195 101.32Z" fill="#263238"/>
<path d="M192.29 127C192.295 127.518 192.148 128.026 191.867 128.461C191.586 128.895 191.183 129.238 190.709 129.445C190.235 129.653 189.71 129.717 189.2 129.628C188.69 129.54 188.217 129.303 187.84 128.948C187.463 128.593 187.199 128.135 187.08 127.631C186.962 127.127 186.994 126.6 187.173 126.114C187.352 125.628 187.67 125.206 188.088 124.899C188.505 124.593 189.003 124.416 189.52 124.39C189.874 124.378 190.226 124.436 190.557 124.561C190.888 124.686 191.191 124.875 191.449 125.118C191.706 125.361 191.913 125.652 192.058 125.975C192.202 126.298 192.281 126.646 192.29 127Z" fill="#263238"/>
<path d="M211.38 125.57C211.405 125.912 211.361 126.256 211.252 126.582C211.143 126.907 210.97 127.208 210.744 127.466C210.518 127.725 210.244 127.936 209.936 128.088C209.628 128.239 209.293 128.328 208.95 128.35C208.601 128.384 208.25 128.344 207.918 128.231C207.586 128.119 207.282 127.937 207.027 127.697C206.771 127.457 206.57 127.166 206.436 126.842C206.302 126.519 206.238 126.17 206.25 125.82C206.22 125.475 206.259 125.128 206.366 124.799C206.474 124.47 206.646 124.166 206.873 123.906C207.101 123.645 207.378 123.433 207.69 123.282C208.001 123.131 208.34 123.045 208.685 123.028C209.031 123.011 209.376 123.064 209.701 123.184C210.025 123.304 210.322 123.488 210.574 123.725C210.825 123.963 211.026 124.248 211.165 124.565C211.304 124.882 211.377 125.224 211.38 125.57Z" fill="#263238"/>
<path d="M198.34 121.43L199.51 139.38L208.84 135.44L198.34 121.43Z" fill="#F28F8F"/>
<path d="M183.31 120.18L188.47 115.43C189.096 116.144 189.421 117.073 189.378 118.021C189.336 118.97 188.928 119.865 188.24 120.52C187.899 120.831 187.498 121.07 187.062 121.221C186.625 121.373 186.163 121.435 185.702 121.403C185.242 121.371 184.792 121.247 184.381 121.036C183.97 120.826 183.606 120.535 183.31 120.18Z" fill="#263238"/>
<path d="M207.48 114.45L213.05 118.8C212.785 119.177 212.446 119.495 212.053 119.736C211.661 119.977 211.224 120.136 210.768 120.202C210.312 120.269 209.848 120.242 209.403 120.123C208.958 120.004 208.542 119.795 208.18 119.51C207.438 118.917 206.951 118.061 206.821 117.12C206.69 116.178 206.926 115.223 207.48 114.45Z" fill="#263238"/>
<path d="M163 138.61C165.39 138.05 167.23 140.22 167.23 140.22C167.23 140.22 169.1 139.01 170.23 140.22C170.962 140.989 171.47 141.944 171.7 142.98C171.7 142.98 173.64 141.62 174.96 143.17C175.772 144.146 176.365 145.285 176.7 146.51C176.7 146.51 178.43 145.85 179.92 148.11C180.99 149.74 182.99 152.28 185.54 153.35C187.83 154.35 186.72 155.76 184.21 156.42C181.7 157.08 161.96 139.75 161.96 139.75L163 138.61Z" fill="#F28F8F"/>
<path d="M141.31 229.47C142.23 230.37 161.26 220.63 162.64 208.68C157.59 207.49 140.39 219.33 141.31 229.47Z" fill="#263238"/>
<path d="M144.82 163.84C130.05 169.31 126.44 181.21 127.82 193.45C128.88 202.55 134.5 212.16 146.05 231.04C157.6 249.92 167.17 243.73 167.17 243.73L170.33 229.73L153.72 188.45C153.72 188.45 152.86 170.33 144.82 163.84Z" fill="#FFA8A7"/>
<path d="M161 206.41L158.57 200.29C158.57 200.29 149.77 216.85 153.92 227.64L161 206.41Z" fill="#F28F8F"/>
<path d="M145 162.65C133 166.89 128.63 171.81 126.78 182.35C125.53 189.48 126.48 194.6 129.66 204.46C132.95 214.7 141.53 229.46 141.53 229.46C141.65 223.52 153.02 210.06 162.85 208.67C162.85 208.67 157.2 191.54 155.51 186.87C153.82 182.2 150.16 168.19 145 162.65Z" fill="#263238"/>
<path d="M183.45 174.22C185.1 169.64 186.45 165.7 185.88 163.22C185.13 159.87 183.5 159.28 183.5 159.28C184.133 159.18 184.741 158.959 185.29 158.63C185.576 158.461 185.816 158.225 185.99 157.943C186.164 157.661 186.267 157.341 186.29 157.01C186.36 156.13 184.51 155.58 183.77 155.08C181.33 153.43 180.51 152.25 178.77 150C178.529 149.639 178.217 149.331 177.852 149.096C177.487 148.86 177.078 148.702 176.65 148.63C176.11 146.98 175.53 145.48 174.41 144.93C174.026 144.738 173.607 144.628 173.179 144.605C172.75 144.583 172.322 144.649 171.92 144.8C171.585 143.672 170.853 142.702 169.86 142.07C169.034 141.746 168.116 141.746 167.29 142.07C166.744 141.311 166.117 140.614 165.42 139.99C164.749 139.555 163.96 139.337 163.16 139.366C162.36 139.394 161.589 139.668 160.95 140.15C159.22 141.34 158.61 143.15 157.8 144.98C157.088 146.595 156.516 148.267 156.09 149.98C155.661 151.575 155.327 153.195 155.09 154.83C154.916 155.77 154.954 156.737 155.2 157.66C155.94 159.66 166.69 170.89 166.69 170.89C165.76 177.48 158.34 205.98 155.15 215.74C152.15 225.04 154.95 240.27 159.36 242.74C163.77 245.21 169.55 245.64 176.82 234.91C184.86 223 179.37 185.54 183.45 174.22Z" fill="#FFA8A7"/>
<path d="M167.21 243.73C170 242.73 173.11 240.26 176.57 235.24C174.98 234.89 173.36 234.63 171.78 234.44C169.08 234.1 166.78 232.9 164.17 232.12C164.112 232.082 164.045 232.059 163.976 232.054C163.906 232.05 163.837 232.063 163.774 232.093C163.712 232.124 163.658 232.17 163.619 232.227C163.579 232.284 163.556 232.351 163.55 232.42C163.357 233.051 163.309 233.717 163.407 234.37C163.506 235.022 163.749 235.644 164.12 236.19C164.761 237.015 165.543 237.719 166.43 238.27C166.71 238.46 167.19 238.66 168.21 239.27C168.64 239.53 168.98 239.84 168.9 240.21C168.66 241.36 164.83 241.35 164.12 241.35C161.78 241.318 159.459 240.923 157.24 240.18C156.699 240.026 156.179 239.808 155.69 239.53C155.218 239.228 154.79 238.861 154.42 238.44C153.898 237.909 153.408 237.348 152.95 236.76C151.903 235.202 150.7 233.755 149.36 232.44C148.432 231.628 147.276 231.122 146.05 230.99V231.06C157.62 249.86 167.21 243.73 167.21 243.73Z" fill="#F28F8F"/>
<path d="M183.72 159.05C182.69 159.237 181.633 159.22 180.61 159C179.902 158.922 179.219 158.697 178.604 158.339C177.989 157.98 177.456 157.497 177.04 156.92C177.04 156.92 176.88 152.62 176.43 152.97C175.98 153.32 176.1 156.66 176.1 156.66C175.444 156.309 174.861 155.837 174.38 155.27C173.47 155.84 174.7 156.84 175.97 157.64C176.704 158.181 177.483 158.656 178.3 159.06C179.604 159.557 180.985 159.821 182.38 159.84C182.814 159.799 183.252 159.856 183.661 160.009C184.07 160.161 184.439 160.404 184.74 160.72C184.29 160.09 183.72 159.05 183.72 159.05Z" fill="#B16668"/>
<path d="M177.35 148.77C177.19 148.77 177.03 148.93 176.88 148.9C175.48 148.67 173.97 149.14 171.96 150.43C170.242 151.729 168.74 153.292 167.51 155.06C167.51 155.06 167.84 153.06 170.51 150.66C173.18 148.26 175.86 147.82 177.35 148.77Z" fill="#B16668"/>
<path d="M172 144.52L171.94 145.02C167.1 146.64 164.66 149.94 162.94 152.46C162.94 152.46 163.08 150.24 166.63 147.19C168.161 145.853 170.01 144.934 172 144.52Z" fill="#B16668"/>
<path d="M166.59 141.22C165.72 141.45 164.51 142.54 163.06 144.16C161.537 145.843 160.331 147.788 159.5 149.9C160.44 148.38 163.69 143.49 167.61 142.17C167.159 142 166.792 141.658 166.59 141.22Z" fill="#B16668"/>
<path d="M163 166.89C165.714 169.407 169.162 170.991 172.84 171.41C170.765 171.715 168.648 171.558 166.64 170.95L163 166.89Z" fill="#B16668"/>
<path d="M181.42 212.16C181.59 207.65 181.63 203.16 181.64 198.62C181.65 194.08 181.64 189.62 181.79 185.06C181.865 182.799 182.055 180.542 182.36 178.3C182.512 177.174 182.75 176.061 183.07 174.97C183.38 173.87 183.81 172.83 184.16 171.76C184.95 169.654 185.503 167.468 185.81 165.24C185.91 164.135 185.749 163.022 185.34 161.99C185.037 160.946 184.365 160.047 183.45 159.46C183.408 159.439 183.376 159.402 183.361 159.357C183.346 159.312 183.349 159.263 183.37 159.22C183.397 159.18 183.435 159.148 183.48 159.13C184.155 159.035 184.797 158.777 185.35 158.38C185.608 158.178 185.813 157.917 185.95 157.62C186.02 157.487 186.061 157.342 186.073 157.192C186.086 157.043 186.067 156.892 186.02 156.75C185.569 156.26 185.007 155.886 184.38 155.66C183.736 155.333 183.129 154.937 182.57 154.48C181.441 153.599 180.432 152.574 179.57 151.43C179.13 150.89 178.7 150.3 178.25 149.79C177.84 149.274 177.244 148.94 176.59 148.86C176.548 148.86 176.507 148.846 176.472 148.821C176.438 148.796 176.413 148.761 176.4 148.72C176.108 147.617 175.609 146.578 174.93 145.66C174.559 145.266 174.073 144.999 173.54 144.9C173.001 144.804 172.447 144.849 171.93 145.03C171.903 145.04 171.874 145.043 171.844 145.041C171.815 145.039 171.787 145.032 171.761 145.019C171.735 145.006 171.712 144.988 171.693 144.966C171.674 144.943 171.659 144.918 171.65 144.89C171.374 143.949 170.815 143.115 170.05 142.5C169.643 142.254 169.183 142.109 168.708 142.076C168.233 142.043 167.758 142.123 167.32 142.31C167.275 142.325 167.226 142.326 167.18 142.313C167.134 142.301 167.092 142.275 167.06 142.24C166.471 141.338 165.714 140.557 164.83 139.94C164.359 139.726 163.848 139.616 163.33 139.616C162.813 139.616 162.301 139.726 161.83 139.94C160.83 140.365 159.983 141.083 159.4 142C158.837 142.942 158.353 143.929 157.95 144.95C157.08 146.97 156.41 149.07 155.95 151.22C155.7 152.29 155.48 153.38 155.32 154.47C155.227 155.009 155.173 155.554 155.16 156.1C155.112 156.623 155.17 157.15 155.33 157.65C155.655 158.286 156.051 158.883 156.51 159.43C156.96 160 157.43 160.57 157.9 161.12C158.84 162.24 159.81 163.33 160.79 164.42C162.75 166.587 164.75 168.734 166.79 170.86C166.8 170.875 166.805 170.892 166.805 170.91C166.805 170.928 166.8 170.945 166.79 170.96C166.47 173.08 165.99 175.17 165.51 177.25C165.03 179.33 164.51 181.41 163.98 183.48L160.77 195.91L163.83 183.45L165.29 177.2C165.76 175.12 166.23 173.03 166.54 170.92V171.03C164.54 168.91 162.54 166.78 160.54 164.61C159.54 163.53 158.54 162.43 157.63 161.32C157.15 160.76 156.68 160.2 156.23 159.62C155.747 159.05 155.331 158.426 154.99 157.76C154.784 157.215 154.705 156.63 154.76 156.05C154.783 155.491 154.836 154.933 154.92 154.38C155.08 153.28 155.29 152.19 155.54 151.1C156.017 148.926 156.704 146.802 157.59 144.76C158.003 143.724 158.495 142.721 159.06 141.76C159.659 140.776 160.541 139.996 161.59 139.52C162.122 139.276 162.7 139.149 163.285 139.149C163.87 139.149 164.449 139.276 164.98 139.52C165.484 139.807 165.932 140.183 166.3 140.63C166.678 141.043 167.032 141.477 167.36 141.93L167.11 141.86C167.616 141.663 168.157 141.571 168.7 141.59C169.256 141.6 169.798 141.771 170.26 142.08C170.703 142.396 171.075 142.801 171.35 143.27C171.637 143.716 171.865 144.197 172.03 144.7L171.75 144.56C172.342 144.358 172.975 144.31 173.59 144.42C174.212 144.542 174.779 144.857 175.21 145.32C175.927 146.284 176.45 147.377 176.75 148.54L176.56 148.39C177.323 148.484 178.021 148.867 178.51 149.46C179 150.02 179.4 150.58 179.84 151.13C180.684 152.252 181.669 153.26 182.77 154.13C183.305 154.57 183.885 154.953 184.5 155.27C184.82 155.42 185.14 155.58 185.5 155.76C185.844 155.941 186.136 156.206 186.35 156.53C186.454 156.913 186.436 157.318 186.3 157.691C186.164 158.063 185.916 158.384 185.59 158.61C184.995 159.033 184.311 159.313 183.59 159.43V159.09C184.609 159.708 185.359 160.686 185.69 161.83C185.887 162.372 186.034 162.931 186.13 163.5C186.195 164.075 186.195 164.655 186.13 165.23C185.815 167.483 185.249 169.694 184.44 171.82C184.09 172.89 183.65 173.94 183.34 175.01C183.023 176.088 182.786 177.188 182.63 178.3C182.3 180.53 182.15 182.78 182.04 185.03C181.86 189.54 181.85 194.03 181.79 198.58C181.73 203.13 181.64 207.65 181.42 212.16Z" fill="#B16668"/>
<path d="M195.77 256.27C192.66 257.44 188.7 259.99 184.54 261.12C180.17 262.226 175.663 262.691 171.16 262.5C168.796 262.469 166.435 262.302 164.09 262C161.63 261.67 159.55 260.38 157.33 259.3C155.11 258.22 152.75 256.95 151.92 254.65C151.48 253.45 151.53 252.08 150.86 250.99C150.45 250.32 149.81 249.83 149.35 249.2C148.695 248.106 148.311 246.872 148.23 245.6C148.028 244.237 147.693 242.898 147.23 241.6C146.238 238.736 145.059 235.939 143.7 233.23C143.637 233.14 143.612 233.029 143.63 232.92C143.683 232.812 143.776 232.73 143.89 232.69C144.781 232.389 145.738 232.338 146.657 232.542C147.575 232.747 148.42 233.199 149.1 233.85C150.443 235.166 151.646 236.617 152.69 238.18C153.15 238.76 153.64 239.32 154.16 239.86C154.533 240.275 154.96 240.638 155.43 240.94C155.918 241.22 156.438 241.438 156.98 241.59C159.2 242.33 161.52 242.728 163.86 242.77C164.57 242.77 168.4 242.77 168.65 241.63C168.73 241.25 168.38 240.94 167.95 240.69C166.95 240.1 166.45 239.89 166.18 239.69C165.285 239.141 164.499 238.433 163.86 237.6C163.489 237.054 163.246 236.432 163.147 235.78C163.049 235.127 163.097 234.461 163.29 233.83C163.319 233.712 163.386 233.607 163.48 233.53C163.548 233.501 163.621 233.485 163.695 233.485C163.769 233.485 163.842 233.501 163.91 233.53C166.49 234.31 168.82 235.53 171.52 235.85C174.177 236.132 176.799 236.675 179.35 237.47C181.1 238.177 182.886 238.795 184.7 239.32C185.763 239.573 186.867 239.608 187.944 239.425C189.021 239.241 190.05 238.841 190.97 238.25C195.39 235.81 205.09 228.03 210.27 224.35L229.86 212.82C229.86 212.82 231.22 216.82 232.57 221.61C235.16 230.82 234.86 232.61 230.75 236.53C223.89 243.09 210.8 250.61 195.77 256.27Z" fill="#FFA8A7"/>
<path d="M143.84 232.72C144.384 232.495 144.966 232.379 145.555 232.379C146.143 232.379 146.726 232.495 147.27 232.72C148.364 233.158 149.343 233.842 150.13 234.72C150.93 235.59 151.6 236.56 152.3 237.49C152.64 237.96 153.03 238.39 153.42 238.83C153.81 239.27 154.17 239.72 154.6 240.11C155.448 240.866 156.485 241.381 157.6 241.6C158.714 241.926 159.851 242.173 161 242.34C162.148 242.509 163.31 242.572 164.47 242.53C165.611 242.539 166.745 242.363 167.83 242.01C168.36 241.79 168.54 241.39 168.07 241.01C167.6 240.63 167.07 240.43 166.57 240.14C166.049 239.854 165.557 239.519 165.1 239.14C164.618 238.785 164.184 238.368 163.81 237.9C163.436 237.418 163.161 236.867 163.001 236.278C162.841 235.69 162.8 235.075 162.88 234.47C162.915 234.162 162.989 233.86 163.1 233.57C163.14 233.472 163.21 233.39 163.299 233.334C163.389 233.278 163.494 233.252 163.6 233.26C163.757 233.277 163.912 233.314 164.06 233.37C164.62 233.55 165.17 233.75 165.72 233.95C166.82 234.36 167.91 234.79 169.02 235.13C170.133 235.459 171.275 235.683 172.43 235.8C174.751 236.124 177.038 236.663 179.26 237.41C177.022 236.733 174.725 236.267 172.4 236.02C171.23 235.911 170.072 235.696 168.94 235.38C167.81 235.04 166.72 234.62 165.62 234.23C165.07 234.03 164.52 233.84 163.96 233.68C163.839 233.627 163.711 233.593 163.58 233.58C163.48 233.58 163.45 233.58 163.39 233.71C163.302 233.97 163.242 234.238 163.21 234.51C163.14 235.07 163.182 235.638 163.335 236.18C163.488 236.723 163.748 237.23 164.1 237.67C164.463 238.11 164.88 238.503 165.34 238.84C165.795 239.2 166.284 239.515 166.8 239.78C167.324 240.048 167.835 240.341 168.33 240.66C168.471 240.766 168.59 240.898 168.68 241.05C168.731 241.137 168.763 241.233 168.775 241.333C168.787 241.433 168.779 241.534 168.75 241.63C168.69 241.799 168.592 241.951 168.464 242.076C168.335 242.201 168.18 242.295 168.01 242.35C166.869 242.729 165.671 242.904 164.47 242.87C163.292 242.902 162.114 242.828 160.95 242.65C159.787 242.464 158.638 242.2 157.51 241.86C156.938 241.704 156.376 241.511 155.83 241.28C155.278 241.043 154.776 240.704 154.35 240.28C153.92 239.87 153.56 239.41 153.17 238.97C152.78 238.53 152.4 238.08 152.06 237.6C151.36 236.66 150.7 235.7 149.93 234.83C149.191 233.93 148.253 233.214 147.19 232.74C146.119 232.295 144.916 232.288 143.84 232.72Z" fill="#B16668"/>
<path d="M209.55 224.88C213.03 222.22 220.3 219.56 225.55 220.94C222.55 217.73 213.34 219.69 209.55 221.76V224.88Z" fill="#F28F8F"/>
<path d="M179.44 356.09C179.646 357.347 179.492 358.637 178.995 359.811C178.498 360.984 177.679 361.992 176.632 362.718C175.585 363.445 174.354 363.859 173.081 363.915C171.808 363.97 170.546 363.663 169.44 363.03L83.3402 313.32C81.143 312.055 79.3885 310.144 78.3151 307.847C77.2416 305.549 76.9013 302.978 77.3402 300.48L95.6502 257.22H84.6502L54.7902 343.07C54.6587 343.47 54.6504 343.9 54.7663 344.305C54.8823 344.71 55.1173 345.07 55.4407 345.34C55.7641 345.609 56.161 345.775 56.58 345.816C56.9989 345.857 57.4206 345.772 57.7902 345.57C58.1825 345.339 58.4907 344.989 58.6702 344.57L66.8202 325.3C68.331 323.644 70.3638 322.554 72.58 322.214C74.7961 321.874 77.062 322.303 79.0002 323.43L174.72 378.7C177.694 380.445 180.252 382.817 182.216 385.651C184.179 388.485 185.502 391.713 186.09 395.11L179.44 356.09Z" fill="#407BFF"/>
<path opacity="0.2" d="M179.44 356.09C179.646 357.347 179.492 358.637 178.995 359.811C178.498 360.984 177.679 361.992 176.632 362.718C175.585 363.445 174.354 363.859 173.081 363.915C171.808 363.97 170.546 363.663 169.44 363.03L83.3402 313.32C81.143 312.055 79.3885 310.144 78.3151 307.847C77.2416 305.549 76.9013 302.978 77.3402 300.48L95.6502 257.22H84.6502L54.7902 343.07C54.6587 343.47 54.6504 343.9 54.7663 344.305C54.8823 344.71 55.1173 345.07 55.4407 345.34C55.7641 345.609 56.161 345.775 56.58 345.816C56.9989 345.857 57.4206 345.772 57.7902 345.57C58.1825 345.339 58.4907 344.989 58.6702 344.57L66.8202 325.3C68.331 323.644 70.3638 322.554 72.58 322.214C74.7961 321.874 77.062 322.303 79.0002 323.43L174.72 378.7C177.694 380.445 180.252 382.817 182.216 385.651C184.179 388.485 185.502 391.713 186.09 395.11L179.44 356.09Z" fill="white"/>
<path d="M195.54 370.31C194.9 370.753 194.152 371.012 193.375 371.061C192.598 371.109 191.823 370.944 191.133 370.584C190.443 370.223 189.865 369.681 189.461 369.016C189.057 368.351 188.842 367.588 188.84 366.81L188.38 362.06L188.51 363.47L184.3 319.8C183.985 316.014 182.897 312.332 181.105 308.982C179.313 305.632 176.854 302.684 173.88 300.32L89.5302 233.32L87.8602 224.05C84.9495 226.359 82.6336 229.33 81.106 232.717C79.5784 236.103 78.8835 239.806 79.0792 243.516C79.275 247.226 80.3558 250.835 82.2314 254.042C84.1069 257.249 86.7227 259.961 89.8602 261.95L161.86 307.44C165.167 309.531 167.996 312.296 170.162 315.555C172.327 318.813 173.782 322.492 174.43 326.35L190.94 423.8C190.996 424.248 191.227 424.656 191.584 424.934C191.76 425.071 191.962 425.172 192.177 425.232C192.393 425.291 192.618 425.308 192.84 425.28C193.062 425.252 193.276 425.181 193.471 425.071C193.665 424.961 193.836 424.813 193.974 424.637C194.111 424.46 194.212 424.258 194.272 424.043C194.331 423.827 194.348 423.602 194.32 423.38L191.93 398.6C191.32 391.24 193.93 383.83 200.33 380.14" fill="#407BFF"/>
<path opacity="0.1" d="M195.54 370.31C194.9 370.753 194.152 371.012 193.375 371.061C192.598 371.109 191.823 370.944 191.133 370.584C190.443 370.223 189.865 369.681 189.461 369.016C189.057 368.351 188.842 367.588 188.84 366.81L188.38 362.06L188.51 363.47L184.3 319.8C183.985 316.014 182.897 312.332 181.105 308.982C179.313 305.632 176.854 302.684 173.88 300.32L89.5302 233.32L87.8602 224.05C84.9495 226.359 82.6336 229.33 81.106 232.717C79.5784 236.103 78.8835 239.806 79.0792 243.516C79.275 247.226 80.3558 250.835 82.2314 254.042C84.1069 257.249 86.7227 259.961 89.8602 261.95L161.86 307.44C165.167 309.531 167.996 312.296 170.162 315.555C172.327 318.813 173.782 322.492 174.43 326.35L190.94 423.8C190.996 424.248 191.227 424.656 191.584 424.934C191.76 425.071 191.962 425.172 192.177 425.232C192.393 425.291 192.618 425.308 192.84 425.28C193.062 425.252 193.276 425.181 193.471 425.071C193.665 424.961 193.836 424.813 193.974 424.637C194.111 424.46 194.212 424.258 194.272 424.043C194.331 423.827 194.348 423.602 194.32 423.38L191.93 398.6C191.32 391.24 193.93 383.83 200.33 380.14" fill="black"/>
</svg>
