<svg width="393" height="303" viewBox="0 0 393 303" fill="none" xmlns="http://www.w3.org/2000/svg">
<g opacity="0.1">
<path d="M137.62 338.295C248.723 338.295 338.79 295.237 338.79 242.122C338.79 189.008 248.723 145.95 137.62 145.95C26.5168 145.95 -63.55 189.008 -63.55 242.122C-63.55 295.237 26.5168 338.295 137.62 338.295Z" fill="#F5F5F5"/>
<path d="M208.38 349.381L362.62 275.648C366 274.033 366 271.417 362.62 269.802L79.1 134.855C77.2031 134.059 75.1065 133.644 72.9799 133.644C70.8534 133.644 68.7568 134.059 66.86 134.855L-87.38 208.547C-90.76 210.203 -90.76 212.786 -87.38 214.401L196.15 349.365C198.044 350.163 200.138 350.58 202.263 350.583C204.387 350.586 206.483 350.174 208.38 349.381Z" fill="#E0E0E0"/>
<path d="M207.47 59.1009C207.434 58.861 207.323 58.6331 207.147 58.4398C206.972 58.2466 206.738 58.0948 206.47 57.9997C205.733 57.6892 204.917 57.5273 204.09 57.5273C203.263 57.5273 202.447 57.6892 201.71 57.9997C201.443 58.0969 201.211 58.2492 201.036 58.4421C200.861 58.6349 200.749 58.8618 200.71 59.1009V186.754H207.44V59.1009H207.47Z" fill="#37474F"/>
<path d="M207.47 59.101C207.47 58.273 205.97 57.5278 204.11 57.5278C202.25 57.5278 200.75 58.2316 200.75 59.101C200.75 59.9704 202.25 60.6825 204.11 60.6825C205.97 60.6825 207.47 59.9704 207.47 59.101Z" fill="#455A64"/>
<path d="M223.43 87.104L179.53 66.106L172.93 69.2606L179.53 78.7247L223.43 99.731V87.104Z" fill="#4696E6"/>
<g opacity="0.4">
<path d="M223.43 87.104L179.53 66.106L172.93 69.2606L179.53 78.7247L223.43 99.731V87.104Z" fill="black"/>
</g>
<path d="M179.53 66.1059L182.83 64.5244L226.79 85.5556L223.43 87.104L179.53 66.1059Z" fill="#4696E6"/>
<g opacity="0.3">
<path d="M179.53 66.1059L182.83 64.5244L226.79 85.5556L223.43 87.104L179.53 66.1059Z" fill="black"/>
</g>
<path d="M226.79 98.1827L223.43 99.731V87.104L226.79 85.5557V98.1827Z" fill="#4696E6"/>
<path opacity="0.55" d="M226.79 98.1827L223.43 99.731V87.104L226.79 85.5557V98.1827Z" fill="black"/>
<path d="M182.406 76.2868C182.351 76.2599 182.303 76.2171 182.262 76.1584C182.227 76.1021 182.209 76.0432 182.209 75.9815V75.385C182.209 75.3458 182.22 75.2919 182.24 75.2232C182.26 75.149 182.313 75.0962 182.399 75.0649L183.185 74.5886C183.588 74.4422 183.919 74.3135 184.176 74.2028C184.438 74.0888 184.632 73.9699 184.758 73.8461C184.884 73.7223 184.947 73.5791 184.947 73.4167C184.947 73.2263 184.902 73.0475 184.811 72.8803C184.725 72.71 184.574 72.5724 184.357 72.4675C184.211 72.3967 184.087 72.3733 183.987 72.3973C183.891 72.4182 183.818 72.4724 183.767 72.56C183.717 72.6476 183.682 72.7454 183.661 72.8532C183.641 72.9163 183.606 72.9496 183.556 72.9532C183.51 72.9592 183.46 72.9488 183.404 72.922L182.459 72.4644C182.414 72.4425 182.376 72.4074 182.346 72.3591C182.315 72.3109 182.3 72.2615 182.3 72.2111C182.305 71.9447 182.356 71.7171 182.451 71.5282C182.552 71.3417 182.691 71.2016 182.867 71.1078C183.049 71.0108 183.263 70.9717 183.51 70.9905C183.762 71.0117 184.045 71.0979 184.357 71.2492C184.786 71.4566 185.149 71.708 185.446 72.0032C185.749 72.3008 185.978 72.6247 186.134 72.9748C186.291 73.3193 186.369 73.6736 186.369 74.0377C186.369 74.3121 186.313 74.543 186.202 74.7301C186.096 74.9141 185.943 75.0665 185.741 75.1874C185.544 75.305 185.31 75.4128 185.038 75.5106L184.342 75.9552L186.286 76.896C186.341 76.9228 186.386 76.9644 186.422 77.0207C186.462 77.0794 186.482 77.1396 186.482 77.2012V78.0498C186.482 78.1114 186.462 78.152 186.422 78.1717C186.386 78.1939 186.341 78.1915 186.286 78.1647L182.406 76.2868ZM187.453 78.7298C187.398 78.703 187.352 78.6614 187.317 78.6051C187.282 78.5488 187.264 78.4899 187.264 78.4283V74.4795C187.264 74.4179 187.282 74.376 187.317 74.3539C187.352 74.3317 187.398 74.3341 187.453 74.361L188.323 74.7819C188.378 74.8088 188.424 74.8503 188.459 74.9066C188.494 74.9629 188.512 75.0219 188.512 75.0835V75.4027C188.643 75.2926 188.814 75.2299 189.026 75.2148C189.238 75.1996 189.487 75.2616 189.775 75.4007C190.067 75.5423 190.324 75.7396 190.546 75.9926C190.773 76.248 190.949 76.5491 191.075 76.8957C191.206 77.2392 191.272 77.6154 191.272 78.0243V80.3684C191.272 80.43 191.252 80.4706 191.212 80.4903C191.176 80.5125 191.133 80.5113 191.083 80.4869L190.13 80.0257C190.08 80.0013 190.034 79.9597 189.994 79.901C189.959 79.8447 189.941 79.7857 189.941 79.7241V77.4305C189.941 77.1672 189.883 76.9375 189.767 76.7413C189.656 76.542 189.49 76.3887 189.268 76.2813C189.061 76.1812 188.895 76.1735 188.769 76.2581C188.648 76.3396 188.587 76.512 188.587 76.7752V79.0689C188.587 79.1305 188.567 79.1711 188.527 79.1908C188.492 79.2129 188.449 79.2118 188.398 79.1874L187.453 78.7298ZM193.583 81.7811C193.341 81.664 193.122 81.5158 192.925 81.3366C192.734 81.1543 192.567 80.9449 192.426 80.7086C192.29 80.469 192.184 80.2105 192.108 79.9331C192.033 79.65 191.99 79.3492 191.98 79.0307C191.975 78.9162 191.972 78.817 191.972 78.733C191.972 78.6434 191.975 78.5466 191.98 78.4426C191.99 78.145 192.033 77.8941 192.108 77.6898C192.184 77.4856 192.29 77.3296 192.426 77.2219C192.562 77.1141 192.729 77.063 192.925 77.0686C193.122 77.0685 193.341 77.1271 193.583 77.2442C193.835 77.3662 194.052 77.5188 194.233 77.7019C194.415 77.8793 194.569 78.0714 194.695 78.278V76.4801C194.695 76.4185 194.712 76.3766 194.748 76.3545C194.783 76.3323 194.828 76.3347 194.884 76.3616L195.806 76.8081C195.857 76.8325 195.9 76.8729 195.935 76.9292C195.975 76.9879 195.995 77.0481 195.995 77.1097V82.6548C195.995 82.7164 195.975 82.7571 195.935 82.7767C195.9 82.7989 195.857 82.7977 195.806 82.7733L194.952 82.3597C194.896 82.3328 194.851 82.2913 194.816 82.235C194.78 82.1787 194.763 82.1197 194.763 82.0581V81.7893C194.642 81.8931 194.485 81.9519 194.294 81.9656C194.102 81.9793 193.865 81.9178 193.583 81.7811ZM193.991 80.853C194.163 80.936 194.296 80.9614 194.392 80.9294C194.493 80.8942 194.566 80.8231 194.612 80.7163C194.662 80.6118 194.69 80.4852 194.695 80.3364C194.7 80.2269 194.702 80.1217 194.702 80.0208C194.702 79.92 194.7 79.8152 194.695 79.7063C194.69 79.5638 194.662 79.4216 194.612 79.2796C194.561 79.1319 194.485 78.9973 194.385 78.8757C194.284 78.7485 194.153 78.6458 193.991 78.5677C193.825 78.4872 193.691 78.4617 193.591 78.4913C193.495 78.5234 193.427 78.5969 193.386 78.7118C193.346 78.8267 193.321 78.9629 193.311 79.1204C193.296 79.2868 193.296 79.4604 193.311 79.6413C193.321 79.8087 193.346 79.9693 193.386 80.1232C193.427 80.2772 193.495 80.4166 193.591 80.5413C193.691 80.6686 193.825 80.7724 193.991 80.853ZM184.403 88.3372C183.898 88.0931 183.48 87.8122 183.147 87.4943C182.814 87.1708 182.562 86.8387 182.391 86.4981C182.22 86.1575 182.129 85.8391 182.119 85.5429C182.119 85.4981 182.134 85.4662 182.164 85.4473C182.199 85.4252 182.24 85.4251 182.285 85.447L183.238 85.9083C183.309 85.9424 183.361 85.9821 183.397 86.0272C183.437 86.0747 183.472 86.1282 183.503 86.1876C183.543 86.2912 183.598 86.3992 183.669 86.5118C183.745 86.6268 183.84 86.7376 183.956 86.8442C184.077 86.9475 184.226 87.0419 184.403 87.1273C184.695 87.2689 184.914 87.3246 185.06 87.2946C185.212 87.267 185.287 87.1664 185.287 86.9927C185.287 86.8695 185.247 86.7492 185.166 86.6317C185.086 86.5086 184.955 86.3724 184.773 86.2229C184.597 86.0703 184.36 85.8884 184.062 85.6772C183.679 85.4021 183.351 85.1286 183.079 84.8568C182.812 84.5818 182.608 84.2954 182.467 83.9974C182.325 83.6938 182.255 83.3684 182.255 83.0211C182.255 82.6795 182.341 82.4157 182.512 82.2298C182.688 82.0464 182.933 81.9547 183.245 81.9548C183.558 81.9548 183.929 82.0586 184.357 82.266C184.705 82.4344 185.01 82.6325 185.272 82.8602C185.539 83.0903 185.764 83.3334 185.945 83.5893C186.127 83.8451 186.263 84.0903 186.354 84.3246C186.449 84.5558 186.5 84.7623 186.505 84.944C186.505 84.9888 186.49 85.0235 186.459 85.048C186.429 85.067 186.391 85.0655 186.346 85.0435L185.348 84.5603C185.292 84.5335 185.244 84.4991 185.204 84.4572C185.164 84.4152 185.129 84.3617 185.098 84.2967C185.068 84.1588 184.987 84.0134 184.856 83.8603C184.73 83.7041 184.564 83.5759 184.357 83.4759C184.135 83.3685 183.961 83.3291 183.835 83.3577C183.714 83.3831 183.654 83.4855 183.654 83.6647C183.654 83.7767 183.687 83.8906 183.752 84.0064C183.823 84.1246 183.936 84.2523 184.092 84.3895C184.254 84.5292 184.473 84.6998 184.75 84.9013C185.209 85.2185 185.58 85.5183 185.862 85.8006C186.144 86.0773 186.351 86.3622 186.482 86.6553C186.613 86.9428 186.679 87.2574 186.679 87.5991C186.679 87.9799 186.58 88.2628 186.384 88.4477C186.192 88.6294 185.925 88.7101 185.582 88.6898C185.239 88.6695 184.846 88.5519 184.403 88.3372ZM189.364 90.6549C189.042 90.4987 188.762 90.3073 188.525 90.0806C188.293 89.8507 188.114 89.5848 187.988 89.283C187.862 88.9755 187.799 88.6285 187.799 88.242V86.6289L187.209 86.3434C187.154 86.3166 187.106 86.2738 187.065 86.215C187.03 86.1587 187.012 86.0998 187.012 86.0382V85.3576C187.012 85.296 187.03 85.2542 187.065 85.232C187.106 85.2124 187.154 85.2159 187.209 85.2428L187.799 85.5283V84.142C187.799 84.0804 187.816 84.0386 187.852 84.0164C187.892 83.9967 187.937 83.9991 187.988 84.0235L188.865 84.4481C188.921 84.475 188.966 84.5166 189.001 84.5728C189.037 84.6291 189.054 84.6881 189.054 84.7497V86.136L189.999 86.5935C190.055 86.6204 190.1 86.662 190.136 86.7182C190.171 86.7745 190.188 86.8335 190.188 86.8951V87.5756C190.188 87.6373 190.171 87.6791 190.136 87.7012C190.1 87.7234 190.055 87.721 189.999 87.6942L189.054 87.2366V88.7321C189.054 88.9225 189.087 89.0896 189.152 89.2334C189.218 89.3771 189.329 89.4868 189.485 89.5625L190.067 89.8443C190.123 89.8712 190.168 89.9127 190.204 89.969C190.239 90.0253 190.257 90.0843 190.257 90.1459V90.8768C190.257 90.9384 190.239 90.9803 190.204 91.0024C190.168 91.0246 190.123 91.0222 190.067 90.9954L189.364 90.6549ZM191.169 91.5284C191.105 91.4974 191.052 91.4495 191.012 91.3846C190.971 91.3198 190.951 91.2518 190.951 91.1808V86.63C190.951 86.5655 190.971 86.5205 191.012 86.495C191.052 86.463 191.105 86.4625 191.169 86.4934L192.171 86.9786C192.235 87.0095 192.287 87.0607 192.328 87.132C192.368 87.1969 192.389 87.2616 192.389 87.3261V87.7134C192.546 87.5892 192.732 87.5243 192.946 87.5187C193.167 87.5158 193.414 87.5804 193.687 87.7126L194.071 87.8983C194.129 87.9264 194.178 87.9729 194.219 88.0378C194.265 88.1054 194.289 88.1748 194.289 88.2458V89.2431C194.289 89.3076 194.265 89.3545 194.219 89.3836C194.178 89.4091 194.129 89.4078 194.071 89.3797L193.225 88.9705C192.987 88.8552 192.801 88.8394 192.668 88.9232C192.54 89.0033 192.476 89.1757 192.476 89.4404V91.9191C192.476 91.9901 192.453 92.0369 192.406 92.0596C192.365 92.0851 192.313 92.0824 192.249 92.0515L191.169 91.5284ZM196.966 94.4314C196.28 94.0996 195.734 93.6286 195.327 93.0186C194.921 92.4086 194.709 91.6928 194.691 90.871C194.691 90.8258 194.691 90.7677 194.691 90.6967C194.691 90.6257 194.691 90.5708 194.691 90.5321C194.709 90.0306 194.81 89.6441 194.996 89.3726C195.188 89.0975 195.449 88.9465 195.781 88.9196C196.118 88.8891 196.51 88.9821 196.957 89.1986C197.468 89.4461 197.89 89.763 198.221 90.1492C198.558 90.5383 198.811 90.9672 198.979 91.4361C199.148 91.905 199.232 92.3879 199.232 92.8849V93.1173C199.232 93.1883 199.209 93.2352 199.162 93.2579C199.121 93.2834 199.072 93.2821 199.014 93.2539L196.225 91.9039C196.225 91.9104 196.225 91.9201 196.225 91.933C196.225 91.9459 196.225 91.9588 196.225 91.9717C196.231 92.1617 196.26 92.3469 196.312 92.5271C196.365 92.7073 196.446 92.8693 196.556 93.0131C196.667 93.157 196.8 93.2668 196.957 93.3428C197.073 93.399 197.169 93.4261 197.245 93.4239C197.326 93.4181 197.393 93.402 197.445 93.3757C197.497 93.3429 197.538 93.3142 197.567 93.2895C197.62 93.2503 197.66 93.2312 197.689 93.2324C197.724 93.2299 197.776 93.2455 197.846 93.2793L198.927 93.8024C198.985 93.8305 199.031 93.8724 199.066 93.928C199.107 93.9799 199.124 94.0368 199.119 94.0985C199.113 94.2054 199.063 94.3139 198.97 94.4238C198.877 94.5337 198.741 94.6225 198.561 94.6903C198.386 94.7544 198.166 94.7701 197.898 94.7376C197.631 94.705 197.32 94.603 196.966 94.4314ZM196.225 90.9454L197.698 91.6583V91.639C197.698 91.4324 197.669 91.2376 197.611 91.0546C197.559 90.8743 197.474 90.7141 197.358 90.574C197.248 90.4366 197.114 90.33 196.957 90.254C196.8 90.1781 196.667 90.1554 196.556 90.1858C196.452 90.2191 196.37 90.2992 196.312 90.426C196.254 90.5528 196.225 90.7195 196.225 90.926V90.9454ZM202.141 96.9363C201.455 96.6044 200.909 96.1335 200.502 95.5235C200.095 94.9135 199.883 94.1976 199.866 93.3758C199.866 93.3306 199.866 93.2725 199.866 93.2015C199.866 93.1305 199.866 93.0757 199.866 93.0369C199.883 92.5354 199.985 92.1489 200.171 91.8774C200.363 91.6023 200.624 91.4513 200.955 91.4244C201.292 91.3939 201.684 91.4869 202.132 91.7035C202.643 91.951 203.064 92.2678 203.395 92.6541C203.732 93.0431 203.985 93.4721 204.154 93.9409C204.322 94.4098 204.406 94.8928 204.406 95.3898V95.6222C204.406 95.6932 204.383 95.74 204.337 95.7627C204.296 95.7882 204.247 95.7869 204.189 95.7588L201.4 94.4088C201.4 94.4152 201.4 94.4249 201.4 94.4378C201.4 94.4507 201.4 94.4637 201.4 94.4766C201.406 94.6666 201.435 94.8517 201.487 95.0319C201.539 95.2122 201.621 95.3742 201.731 95.518C201.841 95.6618 201.975 95.7717 202.132 95.8476C202.248 95.9039 202.344 95.9309 202.419 95.9287C202.501 95.9229 202.568 95.9068 202.62 95.8805C202.672 95.8477 202.713 95.819 202.742 95.7943C202.794 95.7551 202.835 95.7361 202.864 95.7372C202.899 95.7347 202.951 95.7503 203.021 95.7841L204.101 96.3072C204.16 96.3353 204.206 96.3772 204.241 96.4328C204.282 96.4848 204.299 96.5416 204.293 96.6034C204.287 96.7103 204.238 96.8187 204.145 96.9286C204.052 97.0385 203.915 97.1274 203.735 97.1951C203.561 97.2592 203.34 97.275 203.073 97.2424C202.806 97.2099 202.495 97.1078 202.141 96.9363ZM201.4 93.4502L202.873 94.1632V94.1438C202.873 93.9372 202.844 93.7424 202.785 93.5594C202.733 93.3792 202.649 93.219 202.533 93.0788C202.422 92.9415 202.289 92.8348 202.132 92.7589C201.975 92.6829 201.841 92.6602 201.731 92.6907C201.626 92.724 201.545 92.804 201.487 92.9308C201.429 93.0576 201.4 93.2243 201.4 93.4309V93.4502ZM207.533 99.4498C207.161 99.2698 206.839 99.0492 206.566 98.7879C206.299 98.523 206.092 98.2166 205.947 97.8687C205.802 97.5144 205.729 97.1145 205.729 96.6691V94.8101L205.049 94.481C204.985 94.4501 204.93 94.4008 204.884 94.3331C204.843 94.2682 204.823 94.2003 204.823 94.1293V93.345C204.823 93.274 204.843 93.2257 204.884 93.2002C204.93 93.1775 204.985 93.1817 205.049 93.2126L205.729 93.5417V91.944C205.729 91.873 205.75 91.8248 205.79 91.7993C205.837 91.7766 205.889 91.7793 205.947 91.8074L206.958 92.2968C207.022 92.3278 207.074 92.3757 207.115 92.4405C207.156 92.5054 207.176 92.5733 207.176 92.6443V94.242L208.265 94.7693C208.329 94.8002 208.381 94.8481 208.422 94.913C208.463 94.9779 208.483 95.0458 208.483 95.1168V95.9011C208.483 95.9721 208.463 96.0204 208.422 96.0459C208.381 96.0714 208.329 96.0686 208.265 96.0377L207.176 95.5104V97.2339C207.176 97.4533 207.214 97.6459 207.289 97.8116C207.365 97.9772 207.493 98.1037 207.673 98.1908L208.344 98.5157C208.408 98.5466 208.46 98.5945 208.501 98.6594C208.541 98.7243 208.562 98.7922 208.562 98.8632V99.7056C208.562 99.7766 208.541 99.8248 208.501 99.8503C208.46 99.8758 208.408 99.8731 208.344 99.8422L207.533 99.4498Z" fill="white"/>
<path d="M332.17 249.972L326.8 246.138C326.8 246.138 327.01 232.426 331.85 221.397C338.67 205.889 353.12 202.494 357.53 204.837C361.94 207.181 361.94 212.116 351.14 219.973C344.76 224.627 335.5 235.101 332.17 249.972Z" fill="#4696E6"/>
<g opacity="0.15">
<path d="M332.17 249.972L326.8 246.138C326.8 246.138 327.01 232.426 331.85 221.397C338.67 205.889 353.12 202.494 357.53 204.837C361.94 207.181 361.94 212.116 351.14 219.973C344.76 224.627 335.5 235.101 332.17 249.972Z" fill="black"/>
</g>
<path d="M331.48 243.24H331.54C331.598 243.243 331.656 243.235 331.71 243.219C331.764 243.203 331.814 243.178 331.857 243.146C331.9 243.113 331.934 243.074 331.959 243.031C331.983 242.987 331.997 242.94 332 242.893C333 227.517 344.16 212.257 353.88 206.974C353.928 206.949 353.97 206.916 354.003 206.877C354.036 206.838 354.059 206.794 354.071 206.748C354.083 206.702 354.084 206.654 354.073 206.608C354.063 206.561 354.041 206.517 354.01 206.477C353.945 206.397 353.845 206.342 353.731 206.322C353.617 206.302 353.499 206.319 353.4 206.37C343.49 211.76 332.16 227.243 331.12 242.851C331.111 242.942 331.143 243.031 331.209 243.103C331.276 243.175 331.372 243.224 331.48 243.24Z" fill="white"/>
<path d="M348 260.711C348.85 261.315 351.06 260.636 351.91 260.338C353.377 259.822 354.656 258.997 355.62 257.945C356.712 256.75 357.327 255.303 357.38 253.805C357.41 253.014 357.37 252.223 357.26 251.437L357.02 249.119C356.877 248.36 356.921 247.585 357.15 246.842C357.73 245.384 359.59 244.589 361.26 243.919C363.12 243.173 365.11 242.122 365.53 240.317C365.749 238.899 365.398 237.462 364.53 236.227C363.74 234.96 362.73 233.792 362.06 232.492C361.501 231.568 361.345 230.512 361.62 229.503C361.86 228.891 362.252 228.327 362.77 227.847C363.92 226.87 364.973 225.818 365.92 224.701C366.361 224.134 366.603 223.476 366.617 222.802C366.631 222.127 366.417 221.463 366 220.884C365.546 220.469 364.996 220.133 364.383 219.897C363.769 219.661 363.105 219.529 362.43 219.509C361.161 219.433 359.888 219.588 358.7 219.965C354.86 221 352.08 224.105 348.12 224.709C346.573 224.853 345.016 224.914 343.46 224.891C342.679 224.887 341.907 225.018 341.19 225.274C340.474 225.531 339.83 225.908 339.3 226.382C337.43 228.394 339.3 231.548 337.78 233.767C336.44 235.73 333.78 236.135 331.97 237.8C331.209 238.543 330.757 239.469 330.68 240.441C330.422 242.063 330.527 243.711 330.99 245.301C331.542 246.9 332.24 248.461 333.08 249.971C333.16 250.029 347.88 260.628 348 260.711Z" fill="#4696E6"/>
<path d="M339.21 254.832C339.267 254.84 339.326 254.839 339.382 254.829C339.439 254.818 339.492 254.798 339.54 254.771C339.587 254.743 339.628 254.708 339.659 254.667C339.689 254.627 339.71 254.581 339.72 254.534C342.34 240.234 354.09 225.885 361.03 222.283C361.125 222.231 361.193 222.15 361.219 222.058C361.245 221.965 361.227 221.868 361.17 221.786C361.139 221.745 361.099 221.71 361.052 221.682C361.005 221.654 360.951 221.634 360.894 221.623C360.837 221.612 360.779 221.611 360.721 221.619C360.664 221.627 360.609 221.645 360.56 221.671C353.48 225.339 341.51 239.928 338.85 254.418C338.833 254.512 338.861 254.608 338.928 254.686C338.995 254.763 339.096 254.816 339.21 254.832Z" fill="white"/>
<path d="M345.72 238.454H345.85C350.122 238.182 354.418 238.296 358.66 238.794C358.777 238.808 358.895 238.784 358.991 238.727C359.086 238.669 359.15 238.583 359.17 238.487C359.18 238.44 359.178 238.391 359.165 238.344C359.151 238.297 359.127 238.253 359.092 238.215C359.057 238.176 359.014 238.143 358.964 238.119C358.913 238.095 358.858 238.079 358.8 238.073C354.478 237.566 350.102 237.45 345.75 237.725C345.646 237.739 345.551 237.782 345.483 237.848C345.414 237.914 345.376 237.998 345.376 238.086C345.376 238.173 345.414 238.257 345.483 238.323C345.551 238.389 345.646 238.433 345.75 238.446L345.72 238.454Z" fill="white"/>
<path d="M51.78 83.6926L46.78 86.0855C46.7945 85.9035 46.7945 85.721 46.78 85.539V84.3384C46.78 82.2022 44.97 81.3411 42.78 82.4092C41.8207 82.8967 40.9989 83.549 40.37 84.3219C40.01 81.6392 37.46 80.6373 34.37 82.1194C32.6175 83.0723 31.1609 84.3539 30.1184 85.8601C29.076 87.3663 28.4769 89.0548 28.37 90.7886V92.5439C28.3508 93.2595 28.5251 93.9695 28.88 94.6222L24.73 96.6094C24.0806 96.9637 23.5399 97.4386 23.1511 97.9963C22.7622 98.554 22.5359 99.1792 22.49 99.822C22.49 101.006 23.49 101.478 24.73 100.898L51.82 87.9485C52.4694 87.5942 53.01 87.1193 53.3989 86.5616C53.7877 86.0038 54.0141 85.3787 54.06 84.7359C54 83.585 53 83.1047 51.78 83.6926Z" fill="#EBEBEB"/>
<path d="M72.5505 94.357L68.8805 96.1123C68.89 95.9772 68.89 95.8417 68.8805 95.7066V94.8289C68.8805 93.264 67.5505 92.6265 65.8805 93.4131C65.1773 93.7708 64.5767 94.2512 64.1205 94.8207C63.8505 92.85 61.9905 92.1214 59.7205 93.1647C58.4305 93.8617 57.357 94.8008 56.5873 95.9056C55.8176 97.0105 55.3733 98.25 55.2905 99.5237V100.84C55.2728 101.365 55.3993 101.886 55.6605 102.364L52.6605 103.821C52.1818 104.077 51.7834 104.424 51.4983 104.833C51.2132 105.242 51.0494 105.701 51.0205 106.173C51.0205 107.042 51.7505 107.39 52.6605 106.959L72.5505 97.5117C73.0292 97.2552 73.4276 96.9083 73.7127 96.4995C73.9978 96.0907 74.1616 95.6316 74.1905 95.1601C74.1905 94.2742 73.4605 93.9264 72.5505 94.357Z" fill="#EBEBEB"/>
<path d="M349.08 253.06C351.21 254.426 350.98 256.372 348.4 257.589L207.21 325.088C205.617 325.753 203.859 326.099 202.075 326.099C200.291 326.099 198.533 325.753 196.94 325.088L-72.88 196.093C-75.5 194.843 -75.71 192.881 -73.49 191.523C-74.81 192.35 -75.897 193.405 -76.6758 194.615C-77.4545 195.824 -77.9063 197.159 -78 198.528V204.15C-77.9078 205.627 -77.3939 207.065 -76.5004 208.346C-75.6069 209.627 -74.3593 210.715 -72.86 211.519L196.92 340.53C198.513 341.2 200.274 341.549 202.06 341.549C203.846 341.549 205.607 341.2 207.2 340.53L348.39 273.048C349.886 272.243 351.13 271.156 352.022 269.877C352.913 268.598 353.427 267.162 353.52 265.687V260.056C353.429 258.695 352.986 257.365 352.22 256.158C351.454 254.951 350.383 253.894 349.08 253.06Z" fill="#455A64"/>
<path d="M348.4 252.688L78.57 123.693C76.9768 123.03 75.2183 122.685 73.435 122.685C71.6517 122.685 69.8932 123.03 68.3 123.693L-72.88 191.192C-75.72 192.542 -75.72 194.744 -72.88 196.094L196.94 325.088C198.533 325.753 200.291 326.1 202.075 326.1C203.859 326.1 205.617 325.753 207.21 325.088L348.4 257.589C351.23 256.24 351.23 254.004 348.4 252.688Z" fill="#37474F"/>
<path d="M-73.49 191.523C-74.81 192.35 -75.897 193.405 -76.6758 194.615C-77.4545 195.824 -77.9063 197.159 -78 198.528V204.15C-77.9062 205.627 -77.3916 207.065 -76.4983 208.345C-75.6049 209.626 -74.3582 210.714 -72.86 211.519L196.92 340.53C198.504 341.227 200.277 341.577 202.07 341.548V326.098C200.281 326.126 198.513 325.779 196.93 325.088L-72.88 196.094C-75.5 194.843 -75.71 192.881 -73.49 191.523Z" fill="#263238"/>
<path d="M3.20008 165.458L23.3501 155.828C24.5601 155.257 24.6201 154.346 23.4901 153.808C22.8294 153.545 22.1034 153.414 21.3706 153.426C20.6377 153.437 19.9183 153.591 19.2701 153.874L-0.879918 163.512C-2.07992 164.083 -2.13992 164.986 -1.01992 165.524C-0.359841 165.789 0.366372 165.921 1.09966 165.909C1.83294 165.898 2.55259 165.743 3.20008 165.458Z" fill="black"/>
<path d="M87.7099 134.043C85.2899 132.884 82.7099 133.555 80.3299 134.722L-51.6701 197.766C-54.1001 198.925 -54.1101 200.805 -51.6701 201.972L187.82 316.485C189.186 317.057 190.695 317.355 192.225 317.355C193.755 317.355 195.264 317.057 196.63 316.485L328.63 253.433C331.07 252.273 331.06 250.386 328.63 249.226L87.7099 134.043Z" fill="#4696E6"/>
<path opacity="0.96" d="M87.7099 134.043C85.2899 132.884 82.7099 133.555 80.3299 134.722L-51.6701 197.766C-54.1001 198.925 -54.1101 200.805 -51.6701 201.972L187.82 316.485C189.186 317.057 190.695 317.355 192.225 317.355C193.755 317.355 195.264 317.057 196.63 316.485L328.63 253.433C331.07 252.273 331.06 250.386 328.63 249.226L87.7099 134.043Z" fill="white"/>
<g opacity="0.4">
<path d="M192.26 314.631L242 290.867L233.65 288.872C220.569 285.748 206.862 284.841 193.348 286.205C179.834 287.569 166.791 291.177 155 296.812L192.26 314.631Z" fill="#4696E6"/>
<path d="M250.55 286.768L324.82 251.264L275.11 227.508L245.78 285.634L250.55 286.768Z" fill="#4696E6"/>
<path d="M266.83 223.542L237.83 283.729C220.69 279.225 205.31 278.538 187.7 281.047L215.7 223.964L256.38 218.549L266.83 223.542Z" fill="#4696E6"/>
<path d="M174.87 283.357L185.03 262.657L106.1 254.907L92.8501 267.111L147.85 293.409C156.283 289.088 165.368 285.708 174.87 283.357Z" fill="#4696E6"/>
<path d="M225.56 203.835L250.26 215.618L217.65 219.981L225.56 203.835Z" fill="#4696E6"/>
<path d="M67.99 213.879C72.8445 213.879 76.78 212 76.78 209.681C76.78 207.363 72.8445 205.483 67.99 205.483C63.1354 205.483 59.2 207.363 59.2 209.681C59.2 212 63.1354 213.879 67.99 213.879Z" fill="#4696E6"/>
<path d="M203.45 224.37L81.36 212.389C80.07 214.823 77.87 215.369 72.74 216.297L106.8 248.589L188 256.488L203.45 224.37Z" fill="#4696E6"/>
<path d="M145.44 193.867L136.44 211.876L81 206.427C79.6658 205.293 78.0383 204.424 76.24 203.885L83.85 187.822L145.44 193.867Z" fill="#4696E6"/>
<path d="M216.09 199.29L206.56 218.756L145.76 212.786L155.31 193.32L216.09 199.29Z" fill="#4696E6"/>
<path d="M204.69 193.833L103.98 145.693L86.54 182.233L204.69 193.833Z" fill="#4696E6"/>
<path d="M60.6199 215.726L97.8099 250.941L84.5599 263.112L12.6699 228.75L56.9999 214.343C58.1362 214.921 59.3514 215.385 60.6199 215.726Z" fill="#4696E6"/>
<path d="M78.3499 181.43L96.9899 142.348L84.5599 136.412L5.37988 174.26L78.3499 181.43Z" fill="#4696E6"/>
<path d="M-5.22 179.236L-48 199.779L5.85 225.521L53.35 210.021C53.25 208.133 54.35 206.32 57.83 204.631C60.69 203.264 64.26 202.751 68.21 202.677L75.62 187.019L-5.22 179.236Z" fill="#4696E6"/>
</g>
<path d="M90.6904 180.097V167.834L113.56 170.078V182.332L90.6904 180.097Z" fill="#4696E6"/>
<path d="M113.561 170.078L118.271 159.157V172.678L113.561 182.332V170.078Z" fill="#4696E6"/>
<path d="M118.27 159.157L95.8904 156.921L90.6904 167.834L113.56 170.078L118.27 159.157Z" fill="#4696E6"/>
<path opacity="0.8" d="M90.6904 180.097V167.834L113.56 170.078V182.332L90.6904 180.097Z" fill="white"/>
<path opacity="0.75" d="M113.561 170.078L118.271 159.157V172.678L113.561 182.332V170.078Z" fill="white"/>
<path opacity="0.9" d="M118.27 159.157L95.8904 156.921L90.6904 167.834L113.56 170.078L118.27 159.157Z" fill="white"/>
<path d="M105.68 206.278V200.789L128.56 203.024V208.522L105.68 206.278Z" fill="#4696E6"/>
<path d="M128.561 203.024L132.641 193.56V200.317L128.561 208.522V203.024Z" fill="#4696E6"/>
<path d="M132.64 193.56L110.25 191.325L105.68 200.789L128.56 203.024L132.64 193.56Z" fill="#4696E6"/>
<path opacity="0.8" d="M105.68 206.278V200.789L128.56 203.024V208.522L105.68 206.278Z" fill="white"/>
<path opacity="0.75" d="M128.561 203.024L132.641 193.56V200.317L128.561 208.522V203.024Z" fill="white"/>
<path opacity="0.9" d="M132.64 193.56L110.25 191.325L105.68 200.789L128.56 203.024L132.64 193.56Z" fill="white"/>
<path d="M149.73 278.571V266.316L172.6 268.552V280.815L149.73 278.571Z" fill="#4696E6"/>
<path d="M172.601 268.552L177.321 257.639V271.16L172.601 280.815V268.552Z" fill="#4696E6"/>
<path d="M177.32 257.639L154.94 255.403L149.73 266.316L172.6 268.552L177.32 257.639Z" fill="#4696E6"/>
<path opacity="0.8" d="M149.73 278.571V266.316L172.6 268.552V280.815L149.73 278.571Z" fill="white"/>
<path opacity="0.75" d="M172.601 268.552L177.321 257.639V271.16L172.601 280.815V268.552Z" fill="white"/>
<path opacity="0.9" d="M177.32 257.639L154.94 255.403L149.73 266.316L172.6 268.552L177.32 257.639Z" fill="white"/>
<path d="M149.34 185.611V181.099L160.92 182.233V186.746L149.34 185.611Z" fill="#4696E6"/>
<path d="M160.92 182.233L163.3 176.702V181.861L160.92 186.746V182.233Z" fill="#4696E6"/>
<path d="M163.3 176.702L151.97 175.576L149.34 181.098L160.92 182.233L163.3 176.702Z" fill="#4696E6"/>
<path opacity="0.8" d="M149.34 185.611V181.099L160.92 182.233V186.746L149.34 185.611Z" fill="white"/>
<path opacity="0.75" d="M160.92 182.233L163.3 176.702V181.861L160.92 186.746V182.233Z" fill="white"/>
<path opacity="0.9" d="M163.3 176.702L151.97 175.576L149.34 181.098L160.92 182.233L163.3 176.702Z" fill="white"/>
<path d="M64.96 164.315V157.741L81.8 159.388V165.963L64.96 164.315Z" fill="#4696E6"/>
<path d="M81.8 159.389L85.2701 151.357V158.859L81.8 165.963V159.389Z" fill="#4696E6"/>
<path d="M85.27 151.357L68.7899 149.709L64.96 157.741L81.8 159.388L85.27 151.357Z" fill="#4696E6"/>
<path opacity="0.8" d="M64.96 164.315V157.741L81.8 159.388V165.963L64.96 164.315Z" fill="white"/>
<path opacity="0.75" d="M81.8 159.389L85.2701 151.357V158.859L81.8 165.963V159.389Z" fill="white"/>
<path opacity="0.9" d="M85.27 151.357L68.7899 149.709L64.96 157.741L81.8 159.388L85.27 151.357Z" fill="white"/>
<path d="M151.351 211.197V205.343L166.371 206.808V212.671L151.351 211.197Z" fill="#4696E6"/>
<path d="M166.37 206.808L169.46 199.646V206.336L166.37 212.67V206.808Z" fill="#4696E6"/>
<path d="M169.461 199.646L154.771 198.181L151.351 205.343L166.371 206.808L169.461 199.646Z" fill="#4696E6"/>
<path opacity="0.8" d="M151.351 211.197V205.343L166.371 206.808V212.671L151.351 211.197Z" fill="white"/>
<path opacity="0.75" d="M166.37 206.808L169.46 199.646V206.336L166.37 212.67V206.808Z" fill="white"/>
<path opacity="0.9" d="M169.461 199.646L154.771 198.181L151.351 205.343L166.371 206.808L169.461 199.646Z" fill="white"/>
<path d="M83.2305 204.209V198.181L98.6805 199.688V205.724L83.2305 204.209Z" fill="#4696E6"/>
<path d="M98.6799 199.687L101.86 192.318V199.199L98.6799 205.723V199.687Z" fill="#4696E6"/>
<path d="M101.86 192.318L86.7505 190.811L83.2305 198.18L98.6805 199.687L101.86 192.318Z" fill="#4696E6"/>
<path opacity="0.8" d="M83.2305 204.209V198.181L98.6805 199.688V205.724L83.2305 204.209Z" fill="white"/>
<path opacity="0.75" d="M98.6799 199.687L101.86 192.318V199.199L98.6799 205.723V199.687Z" fill="white"/>
<path opacity="0.9" d="M101.86 192.318L86.7505 190.811L83.2305 198.18L98.6805 199.687L101.86 192.318Z" fill="white"/>
<path d="M170.78 213.051V207.189L185.8 208.663V214.525L170.78 213.051Z" fill="#4696E6"/>
<path d="M185.8 208.663L188.89 201.5V208.182L185.8 214.525V208.663Z" fill="#4696E6"/>
<path d="M188.89 201.501L174.2 200.027L170.78 207.189L185.8 208.663L188.89 201.501Z" fill="#4696E6"/>
<path opacity="0.8" d="M170.78 213.051V207.189L185.8 208.663V214.525L170.78 213.051Z" fill="white"/>
<path opacity="0.75" d="M185.8 208.663L188.89 201.5V208.182L185.8 214.525V208.663Z" fill="white"/>
<path opacity="0.9" d="M188.89 201.501L174.2 200.027L170.78 207.189L185.8 208.663L188.89 201.501Z" fill="white"/>
<path d="M190.21 214.906V209.043L205.22 210.517V216.371L190.21 214.906Z" fill="#4696E6"/>
<path d="M205.22 210.518L208.32 203.347V210.037L205.22 216.372V210.518Z" fill="#4696E6"/>
<path d="M208.32 203.347L193.63 201.881L190.21 209.044L205.22 210.517L208.32 203.347Z" fill="#4696E6"/>
<path opacity="0.8" d="M190.21 214.906V209.043L205.22 210.517V216.371L190.21 214.906Z" fill="white"/>
<path opacity="0.75" d="M205.22 210.518L208.32 203.347V210.037L205.22 216.372V210.518Z" fill="white"/>
<path opacity="0.9" d="M208.32 203.347L193.63 201.881L190.21 209.044L205.22 210.517L208.32 203.347Z" fill="white"/>
<path d="M10.51 195.357V189.495L25.53 190.968V196.831L10.51 195.357Z" fill="#4696E6"/>
<path d="M25.53 190.968L28.62 183.806V190.488L25.53 196.831V190.968Z" fill="#4696E6"/>
<path d="M28.62 183.806L13.93 182.333L10.51 189.495L25.53 190.969L28.62 183.806Z" fill="#4696E6"/>
<path opacity="0.8" d="M10.51 195.357V189.495L25.53 190.968V196.831L10.51 195.357Z" fill="white"/>
<path opacity="0.75" d="M25.53 190.968L28.62 183.806V190.488L25.53 196.831V190.968Z" fill="white"/>
<path opacity="0.9" d="M28.62 183.806L13.93 182.333L10.51 189.495L25.53 190.969L28.62 183.806Z" fill="white"/>
<path d="M29.9404 197.212V191.35L44.9604 192.823V198.677L29.9404 197.212Z" fill="#4696E6"/>
<path d="M44.96 192.823L48.05 185.653V192.343L44.96 198.677V192.823Z" fill="#4696E6"/>
<path d="M48.0504 185.653L33.3604 184.187L29.9404 191.349L44.9604 192.823L48.0504 185.653Z" fill="#4696E6"/>
<path opacity="0.8" d="M29.9404 197.212V191.35L44.9604 192.823V198.677L29.9404 197.212Z" fill="white"/>
<path opacity="0.75" d="M44.96 192.823L48.05 185.653V192.343L44.96 198.677V192.823Z" fill="white"/>
<path opacity="0.9" d="M48.0504 185.653L33.3604 184.187L29.9404 191.349L44.9604 192.823L48.0504 185.653Z" fill="white"/>
<path d="M49.3701 199.058V193.204L64.3801 194.678V200.532L49.3701 199.058Z" fill="#4696E6"/>
<path d="M64.3801 194.678L67.4801 187.507V194.198L64.3801 200.532V194.678Z" fill="#4696E6"/>
<path d="M67.4801 187.507L52.7801 186.042L49.3701 193.204L64.3801 194.678L67.4801 187.507Z" fill="#4696E6"/>
<path opacity="0.8" d="M49.3701 199.058V193.204L64.3801 194.678V200.532L49.3701 199.058Z" fill="white"/>
<path opacity="0.75" d="M64.3801 194.678L67.4801 187.507V194.198L64.3801 200.532V194.678Z" fill="white"/>
<path opacity="0.9" d="M67.4801 187.507L52.7801 186.042L49.3701 193.204L64.3801 194.678L67.4801 187.507Z" fill="white"/>
<path d="M243.25 176.553V173.067L255.98 174.309V177.795L243.25 176.553Z" fill="#4696E6"/>
<path opacity="0.8" d="M243.25 176.553V173.067L255.98 174.309V177.795L243.25 176.553Z" fill="white"/>
<path d="M255.98 174.309L257.84 169.788V174.027L255.98 177.795V174.309Z" fill="#4696E6"/>
<path opacity="0.75" d="M255.98 174.309L257.84 169.788V174.027L255.98 177.795V174.309Z" fill="white"/>
<path d="M257.84 169.788L245.4 168.555L243.25 173.067L255.98 174.309L257.84 169.788Z" fill="#4696E6"/>
<path opacity="0.9" d="M257.84 169.788L245.4 168.555L243.25 173.067L255.98 174.309L257.84 169.788Z" fill="white"/>
<path d="M152.99 250.303V244.44L168.01 245.914V251.776L152.99 250.303Z" fill="#4696E6"/>
<path d="M168.01 245.915L171.1 238.744V245.434L168.01 251.777V245.915Z" fill="#4696E6"/>
<path d="M171.1 238.744L156.41 237.278L152.99 244.441L168.01 245.914L171.1 238.744Z" fill="#4696E6"/>
<path opacity="0.8" d="M152.99 250.303V244.44L168.01 245.914V251.776L152.99 250.303Z" fill="white"/>
<path opacity="0.75" d="M168.01 245.915L171.1 238.744V245.434L168.01 251.777V245.915Z" fill="white"/>
<path opacity="0.9" d="M171.1 238.744L156.41 237.278L152.99 244.441L168.01 245.914L171.1 238.744Z" fill="white"/>
<path d="M171.73 252.149V246.295L186.75 247.761V253.623L171.73 252.149Z" fill="#4696E6"/>
<path d="M186.75 247.761L189.85 240.599V247.281L186.75 253.623V247.761Z" fill="#4696E6"/>
<path d="M189.85 240.599L175.15 239.133L171.73 246.295L186.75 247.761L189.85 240.599Z" fill="#4696E6"/>
<path opacity="0.8" d="M171.73 252.149V246.295L186.75 247.761V253.623L171.73 252.149Z" fill="white"/>
<path opacity="0.75" d="M186.75 247.761L189.85 240.599V247.281L186.75 253.623V247.761Z" fill="white"/>
<path opacity="0.9" d="M189.85 240.599L175.15 239.133L171.73 246.295L186.75 247.761L189.85 240.599Z" fill="white"/>
<path d="M105.55 269.935V264.081L120.57 265.546V271.408L105.55 269.935Z" fill="#4696E6"/>
<path d="M120.57 265.546L123.66 258.384V265.075L120.57 271.409V265.546Z" fill="#4696E6"/>
<path d="M123.66 258.384L108.97 256.91L105.55 264.081L120.57 265.546L123.66 258.384Z" fill="#4696E6"/>
<path opacity="0.8" d="M105.55 269.935V264.081L120.57 265.546V271.408L105.55 269.935Z" fill="white"/>
<path opacity="0.75" d="M120.57 265.546L123.66 258.384V265.075L120.57 271.409V265.546Z" fill="white"/>
<path opacity="0.9" d="M123.66 258.384L108.97 256.91L105.55 264.081L120.57 265.546L123.66 258.384Z" fill="white"/>
<path d="M124.29 271.79V265.927L139.31 267.401V273.255L124.29 271.79Z" fill="#4696E6"/>
<path d="M139.311 267.401L142.411 260.231V266.921L139.311 273.255V267.401Z" fill="#4696E6"/>
<path d="M142.41 260.231L127.71 258.765L124.29 265.927L139.31 267.401L142.41 260.231Z" fill="#4696E6"/>
<path opacity="0.8" d="M124.29 271.79V265.927L139.31 267.401V273.255L124.29 271.79Z" fill="white"/>
<path opacity="0.75" d="M139.311 267.401L142.411 260.231V266.921L139.311 273.255V267.401Z" fill="white"/>
<path opacity="0.9" d="M142.41 260.231L127.71 258.765L124.29 265.927L139.31 267.401L142.41 260.231Z" fill="white"/>
<path d="M238.25 242.122V236.26L253.26 237.734V243.588L238.25 242.122Z" fill="#4696E6"/>
<path d="M253.26 237.734L256.36 230.563V237.254L253.26 243.588V237.734Z" fill="#4696E6"/>
<path d="M256.36 230.563L241.66 229.098L238.25 236.26L253.26 237.734L256.36 230.563Z" fill="#4696E6"/>
<path opacity="0.8" d="M238.25 242.122V236.26L253.26 237.734V243.588L238.25 242.122Z" fill="white"/>
<path opacity="0.75" d="M253.26 237.734L256.36 230.563V237.254L253.26 243.588V237.734Z" fill="white"/>
<path opacity="0.9" d="M256.36 230.563L241.66 229.098L238.25 236.26L253.26 237.734L256.36 230.563Z" fill="white"/>
<path d="M232.36 254.194V248.332L247.37 249.806V255.668L232.36 254.194Z" fill="#4696E6"/>
<path d="M247.37 249.806L250.47 242.636V249.326L247.37 255.668V249.806Z" fill="#4696E6"/>
<path d="M250.47 242.635L235.77 241.17L232.36 248.332L247.37 249.806L250.47 242.635Z" fill="#4696E6"/>
<path opacity="0.8" d="M232.36 254.194V248.332L247.37 249.806V255.668L232.36 254.194Z" fill="white"/>
<path opacity="0.75" d="M247.37 249.806L250.47 242.636V249.326L247.37 255.668V249.806Z" fill="white"/>
<path opacity="0.9" d="M250.47 242.635L235.77 241.17L232.36 248.332L247.37 249.806L250.47 242.635Z" fill="white"/>
<path d="M226.46 266.267V260.404L241.48 261.878V267.74L226.46 266.267Z" fill="#4696E6"/>
<path d="M241.48 261.878L244.58 254.708V261.398L241.48 267.741V261.878Z" fill="#4696E6"/>
<path d="M244.58 254.708L229.88 253.242L226.46 260.404L241.48 261.878L244.58 254.708Z" fill="#4696E6"/>
<path opacity="0.8" d="M226.46 266.267V260.404L241.48 261.878V267.74L226.46 266.267Z" fill="white"/>
<path opacity="0.75" d="M241.48 261.878L244.58 254.708V261.398L241.48 267.741V261.878Z" fill="white"/>
<path opacity="0.9" d="M244.58 254.708L229.88 253.242L226.46 260.404L241.48 261.878L244.58 254.708Z" fill="white"/>
<path d="M220.57 278.339V272.485L235.59 273.95V279.813L220.57 278.339Z" fill="#4696E6"/>
<path d="M235.59 273.95L238.69 266.788V273.47L235.59 279.813V273.95Z" fill="#4696E6"/>
<path d="M238.69 266.788L223.99 265.314L220.57 272.485L235.59 273.95L238.69 266.788Z" fill="#4696E6"/>
<path opacity="0.8" d="M220.57 278.339V272.485L235.59 273.95V279.813L220.57 278.339Z" fill="white"/>
<path opacity="0.75" d="M235.59 273.95L238.69 266.788V273.47L235.59 279.813V273.95Z" fill="white"/>
<path opacity="0.9" d="M238.69 266.788L223.99 265.314L220.57 272.485L235.59 273.95L238.69 266.788Z" fill="white"/>
<path d="M212.75 239.663V233.809L227.77 235.275V241.137L212.75 239.663Z" fill="#4696E6"/>
<path d="M227.771 235.275L230.871 228.113V234.795L227.771 241.137V235.275Z" fill="#4696E6"/>
<path d="M230.87 228.113L216.17 226.639L212.75 233.809L227.77 235.275L230.87 228.113Z" fill="#4696E6"/>
<path opacity="0.8" d="M212.75 239.663V233.809L227.77 235.275V241.137L212.75 239.663Z" fill="white"/>
<path opacity="0.75" d="M227.771 235.275L230.871 228.113V234.795L227.771 241.137V235.275Z" fill="white"/>
<path opacity="0.9" d="M230.87 228.113L216.17 226.639L212.75 233.809L227.77 235.275L230.87 228.113Z" fill="white"/>
<path d="M206.86 251.735V245.881L221.88 247.347V253.209L206.86 251.735Z" fill="#4696E6"/>
<path d="M221.88 247.347L224.98 240.185V246.875L221.88 253.209V247.347Z" fill="#4696E6"/>
<path d="M224.98 240.185L210.28 238.719L206.86 245.881L221.88 247.347L224.98 240.185Z" fill="#4696E6"/>
<path opacity="0.8" d="M206.86 251.735V245.881L221.88 247.347V253.209L206.86 251.735Z" fill="white"/>
<path opacity="0.75" d="M221.88 247.347L224.98 240.185V246.875L221.88 253.209V247.347Z" fill="white"/>
<path opacity="0.9" d="M224.98 240.185L210.28 238.719L206.86 245.881L221.88 247.347L224.98 240.185Z" fill="white"/>
<path d="M200.97 263.816V257.954L215.99 259.427V265.281L200.97 263.816Z" fill="#4696E6"/>
<path d="M215.99 259.427L219.09 252.257V258.947L215.99 265.281V259.427Z" fill="#4696E6"/>
<path d="M219.09 252.257L204.39 250.792L200.97 257.954L215.99 259.428L219.09 252.257Z" fill="#4696E6"/>
<path opacity="0.8" d="M200.97 263.816V257.954L215.99 259.427V265.281L200.97 263.816Z" fill="white"/>
<path opacity="0.75" d="M215.99 259.427L219.09 252.257V258.947L215.99 265.281V259.427Z" fill="white"/>
<path opacity="0.9" d="M219.09 252.257L204.39 250.792L200.97 257.954L215.99 259.428L219.09 252.257Z" fill="white"/>
<path d="M195.08 275.888V270.026L210.1 271.5V277.354L195.08 275.888Z" fill="#4696E6"/>
<path d="M210.101 271.5L213.201 264.329V271.019L210.101 277.354V271.5Z" fill="#4696E6"/>
<path d="M213.2 264.329L198.5 262.864L195.08 270.026L210.1 271.5L213.2 264.329Z" fill="#4696E6"/>
<path opacity="0.8" d="M195.08 275.888V270.026L210.1 271.5V277.354L195.08 275.888Z" fill="white"/>
<path opacity="0.75" d="M210.101 271.5L213.201 264.329V271.019L210.101 277.354V271.5Z" fill="white"/>
<path opacity="0.9" d="M213.2 264.329L198.5 262.864L195.08 270.026L210.1 271.5L213.2 264.329Z" fill="white"/>
<path d="M263.13 261.746V257.142L274.95 258.301V262.905L263.13 261.746Z" fill="#4696E6"/>
<path d="M274.95 258.301L277.38 252.663V257.92L274.95 262.905V258.301Z" fill="#4696E6"/>
<path d="M277.38 252.663L265.82 251.503L263.13 257.142L274.95 258.301L277.38 252.663Z" fill="#4696E6"/>
<path opacity="0.8" d="M263.13 261.746V257.142L274.95 258.301V262.905L263.13 261.746Z" fill="white"/>
<path opacity="0.75" d="M274.95 258.301L277.38 252.663V257.92L274.95 262.905V258.301Z" fill="white"/>
<path opacity="0.9" d="M277.38 252.663L265.82 251.503L263.13 257.142L274.95 258.301L277.38 252.663Z" fill="white"/>
<path d="M257.23 275.325V270.713L269.04 271.873V276.476L257.23 275.325Z" fill="#4696E6"/>
<path d="M269.04 271.872L271.48 266.233V271.491L269.04 276.476V271.872Z" fill="#4696E6"/>
<path d="M271.48 266.234L259.92 265.075L257.23 270.713L269.04 271.873L271.48 266.234Z" fill="#4696E6"/>
<path opacity="0.8" d="M257.23 275.325V270.713L269.04 271.873V276.476L257.23 275.325Z" fill="white"/>
<path opacity="0.75" d="M269.04 271.872L271.48 266.233V271.491L269.04 276.476V271.872Z" fill="white"/>
<path opacity="0.9" d="M271.48 266.234L259.92 265.075L257.23 270.713L269.04 271.873L271.48 266.234Z" fill="white"/>
<path d="M130.38 247.877V225.918L149 227.74V249.69L130.38 247.877Z" fill="#4696E6"/>
<path opacity="0.8" d="M130.38 247.877V225.918L149 227.74V249.69L130.38 247.877Z" fill="white"/>
<path d="M149 227.74L151.41 222.383V245.434L149 249.69V227.74Z" fill="#4696E6"/>
<path opacity="0.75" d="M149 227.74L151.41 222.383V245.434L149 249.69V227.74Z" fill="white"/>
<path d="M151.41 222.383L133.22 220.578L130.38 225.918L149 227.74L151.41 222.383Z" fill="#4696E6"/>
<path opacity="0.9" d="M151.41 222.383L133.22 220.578L130.38 225.918L149 227.74L151.41 222.383Z" fill="white"/>
<path d="M36.26 174.077V148.111L46.99 149.105V175.063L36.26 174.077Z" fill="#4696E6"/>
<path opacity="0.8" d="M36.26 174.077V148.111L46.99 149.105V175.063L36.26 174.077Z" fill="white"/>
<path d="M46.99 149.105L49.4 143.748V170.807L46.99 175.063V149.105Z" fill="#4696E6"/>
<path opacity="0.75" d="M46.99 149.105L49.4 143.748V170.807L46.99 175.063V149.105Z" fill="white"/>
<path d="M49.4 143.748L39.1 142.771L36.26 148.111L46.99 149.105L49.4 143.748Z" fill="#4696E6"/>
<path opacity="0.9" d="M49.4 143.748L39.1 142.771L36.26 148.111L46.99 149.105L49.4 143.748Z" fill="white"/>
<path d="M48.1904 173.167V150.272L53.8704 150.778V173.68L48.1904 173.167Z" fill="#4696E6"/>
<path opacity="0.8" d="M48.1904 173.167V150.272L53.8704 150.778V173.68L48.1904 173.167Z" fill="white"/>
<path d="M53.8701 150.777L54.7601 148.434V172.264L53.8701 173.68V150.777Z" fill="#4696E6"/>
<path opacity="0.75" d="M53.8701 150.777L54.7601 148.434V172.264L53.8701 173.68V150.777Z" fill="white"/>
<path d="M54.7604 148.434L49.4404 147.929L48.1904 150.272L53.8704 150.778L54.7604 148.434Z" fill="#4696E6"/>
<path opacity="0.9" d="M54.7604 148.434L49.4404 147.929L48.1904 150.272L53.8704 150.778L54.7604 148.434Z" fill="white"/>
<path d="M108.12 245.683V223.724L126.74 225.537V247.496L108.12 245.683Z" fill="#4696E6"/>
<path opacity="0.8" d="M108.12 245.683V223.724L126.74 225.537V247.496L108.12 245.683Z" fill="white"/>
<path d="M126.74 225.537L129.16 220.188V243.24L126.74 247.496V225.537Z" fill="#4696E6"/>
<path opacity="0.75" d="M126.74 225.537L129.16 220.188V243.24L126.74 247.496V225.537Z" fill="white"/>
<path d="M129.16 220.188L110.97 218.383L108.12 223.724L126.74 225.537L129.16 220.188Z" fill="#4696E6"/>
<path opacity="0.9" d="M129.16 220.188L110.97 218.383L108.12 223.724L126.74 225.537L129.16 220.188Z" fill="white"/>
<path d="M59.21 176.553V169.979L76.0399 171.626V178.201L59.21 176.553Z" fill="#4696E6"/>
<path d="M76.04 171.626L79.5201 163.595V171.096L76.04 178.201V171.626Z" fill="#4696E6"/>
<path d="M79.52 163.595L63.0399 161.947L59.21 169.979L76.0399 171.627L79.52 163.595Z" fill="#4696E6"/>
<path opacity="0.8" d="M59.21 176.553V169.979L76.0399 171.626V178.201L59.21 176.553Z" fill="white"/>
<path opacity="0.75" d="M76.04 171.626L79.5201 163.595V171.096L76.04 178.201V171.626Z" fill="white"/>
<path opacity="0.9" d="M79.52 163.595L63.0399 161.947L59.21 169.979L76.0399 171.627L79.52 163.595Z" fill="white"/>
<path d="M44.5201 223.658L32.4601 229.421L22.8 224.833L35.48 218.772L44.5201 223.658Z" fill="#4696E6"/>
<path opacity="0.9" d="M44.5201 223.658L32.4601 229.421L22.8 224.833L35.48 218.772L44.5201 223.658Z" fill="white"/>
<path d="M22.8 229.586V224.833L32.4601 229.421V234.198L22.8 229.586Z" fill="#4696E6"/>
<path opacity="0.8" d="M22.8 229.586V224.833L32.4601 229.421V234.198L22.8 229.586Z" fill="white"/>
<path d="M44.52 223.658V228.435L32.46 234.198V229.421L44.52 223.658Z" fill="#4696E6"/>
<path opacity="0.75" d="M44.52 223.658V228.435L32.46 234.198V229.421L44.52 223.658Z" fill="white"/>
<path d="M58 230.241L45.94 236.004L36.29 231.416L48.97 225.364L58 230.241Z" fill="#4696E6"/>
<path opacity="0.9" d="M58 230.241L45.94 236.004L36.29 231.416L48.97 225.364L58 230.241Z" fill="white"/>
<path d="M36.29 236.169V231.416L45.94 236.003V240.781L36.29 236.169Z" fill="#4696E6"/>
<path opacity="0.8" d="M36.29 236.169V231.416L45.94 236.003V240.781L36.29 236.169Z" fill="white"/>
<path d="M58.0004 230.241V235.018L45.9404 240.781V236.004L58.0004 230.241Z" fill="#4696E6"/>
<path opacity="0.75" d="M58.0004 230.241V235.018L45.9404 240.781V236.004L58.0004 230.241Z" fill="white"/>
<path d="M71.76 236.765L59.7 242.52L50.04 237.941L62.72 231.88L71.76 236.765Z" fill="#4696E6"/>
<path opacity="0.9" d="M71.76 236.765L59.7 242.52L50.04 237.941L62.72 231.88L71.76 236.765Z" fill="white"/>
<path d="M50.04 242.685V237.941L59.7 242.52V247.306L50.04 242.685Z" fill="#4696E6"/>
<path opacity="0.8" d="M50.04 242.685V237.941L59.7 242.52V247.306L50.04 242.685Z" fill="white"/>
<path d="M71.7599 236.765V241.543L59.7 247.306V242.52L71.7599 236.765Z" fill="#4696E6"/>
<path opacity="0.75" d="M71.7599 236.765V241.543L59.7 247.306V242.52L71.7599 236.765Z" fill="white"/>
<path d="M91.2805 239.705L79.2206 245.467L69.5605 240.88L82.2406 234.828L91.2805 239.705Z" fill="#4696E6"/>
<path opacity="0.9" d="M91.2805 239.705L79.2206 245.467L69.5605 240.88L82.2406 234.828L91.2805 239.705Z" fill="white"/>
<path d="M69.5605 252.315V240.88L79.2206 245.467V256.935L69.5605 252.315Z" fill="#4696E6"/>
<path opacity="0.8" d="M69.5605 252.315V240.88L79.2206 245.467V256.935L69.5605 252.315Z" fill="white"/>
<path d="M91.28 239.705V251.164L79.22 256.935V245.467L91.28 239.705Z" fill="#4696E6"/>
<path opacity="0.75" d="M91.28 239.705V251.164L79.22 256.935V245.467L91.28 239.705Z" fill="white"/>
<path d="M19.1704 212.819L6.10043 216.868L-3.55957 212.289L10.1404 207.942L19.1704 212.819Z" fill="#4696E6"/>
<path opacity="0.9" d="M19.1704 212.819L6.10043 216.868L-3.55957 212.289L10.1404 207.942L19.1704 212.819Z" fill="white"/>
<path d="M-3.55957 217.034V212.29L6.10043 216.868V221.654L-3.55957 217.034Z" fill="#4696E6"/>
<path opacity="0.8" d="M-3.55957 217.034V212.29L6.10043 216.868V221.654L-3.55957 217.034Z" fill="white"/>
<path d="M19.1706 212.819V217.597L6.10059 221.654V216.868L19.1706 212.819Z" fill="#4696E6"/>
<path opacity="0.75" d="M19.1706 212.819V217.597L6.10059 221.654V216.868L19.1706 212.819Z" fill="white"/>
<path d="M40.1306 206.196L27.0506 210.253L17.3906 205.666L31.0906 201.319L40.1306 206.196Z" fill="#4696E6"/>
<path opacity="0.9" d="M40.1306 206.196L27.0506 210.253L17.3906 205.666L31.0906 201.319L40.1306 206.196Z" fill="white"/>
<path d="M17.3906 210.418V205.666L27.0506 210.253V215.03L17.3906 210.418Z" fill="#4696E6"/>
<path opacity="0.8" d="M17.3906 210.418V205.666L27.0506 210.253V215.03L17.3906 210.418Z" fill="white"/>
<path d="M40.1301 206.195V210.981L27.05 215.03V210.253L40.1301 206.195Z" fill="#4696E6"/>
<path opacity="0.75" d="M40.1301 206.195V210.981L27.05 215.03V210.253L40.1301 206.195Z" fill="white"/>
<path d="M119.48 182.432V175.51L143.92 177.894V184.816L119.48 182.432Z" fill="#4696E6"/>
<path opacity="0.75" d="M119.48 182.432V175.51L143.92 177.894V184.816L119.48 182.432Z" fill="white"/>
<path d="M143.92 177.894L149.08 165.93V174.243L143.92 184.816V177.894Z" fill="#4696E6"/>
<path opacity="0.65" d="M143.92 177.894L149.08 165.93V174.243L143.92 184.816V177.894Z" fill="white"/>
<path d="M149.08 165.93L125.18 163.545L119.48 175.51L143.92 177.894L149.08 165.93Z" fill="#4696E6"/>
<path opacity="0.9" d="M149.08 165.93L125.18 163.545L119.48 175.51L143.92 177.894L149.08 165.93Z" fill="white"/>
<path d="M122.62 173.787V140.021L141.76 141.884V175.65L122.62 173.787Z" fill="#4696E6"/>
<path opacity="0.75" d="M122.62 173.787V140.021L141.76 141.884V175.65L122.62 173.787Z" fill="white"/>
<path d="M141.76 141.884L145.94 132.197V167.08L141.76 175.65V141.884Z" fill="#4696E6"/>
<path opacity="0.65" d="M141.76 141.884L145.94 132.197V167.08L141.76 175.65V141.884Z" fill="white"/>
<path d="M145.94 132.197L127.24 130.334L122.62 140.022L141.76 141.885L145.94 132.197Z" fill="#4696E6"/>
<path opacity="0.9" d="M145.94 132.197L127.24 130.334L122.62 140.022L141.76 141.885L145.94 132.197Z" fill="white"/>
<path d="M128.59 137.844V119.438L139.03 120.456V138.862L128.59 137.844Z" fill="#4696E6"/>
<path opacity="0.75" d="M128.59 137.844V119.438L139.03 120.456V138.862L128.59 137.844Z" fill="white"/>
<path d="M139.03 120.456L141.31 115.173V134.193L139.03 138.862V120.456Z" fill="#4696E6"/>
<path opacity="0.65" d="M139.03 120.456L141.31 115.173V134.193L139.03 138.862V120.456Z" fill="white"/>
<path d="M141.31 115.173L131.1 114.155L128.59 119.437L139.03 120.456L141.31 115.173Z" fill="#4696E6"/>
<path opacity="0.9" d="M141.31 115.173L131.1 114.155L128.59 119.437L139.03 120.456L141.31 115.173Z" fill="white"/>
<path d="M239.28 231.002V177.795L258.43 179.658V232.865L239.28 231.002Z" fill="#4696E6"/>
<path opacity="0.75" d="M239.28 231.002V177.795L258.43 179.658V232.865L239.28 231.002Z" fill="white"/>
<path d="M258.43 179.658L261.23 172.876V227.202L258.43 232.865V179.658Z" fill="#4696E6"/>
<path opacity="0.65" d="M258.43 179.658L261.23 172.876V227.202L258.43 232.865V179.658Z" fill="white"/>
<path d="M261.23 172.877L242.52 171.014L239.28 177.795L258.43 179.658L261.23 172.877Z" fill="#4696E6"/>
<path opacity="0.9" d="M261.23 172.877L242.52 171.014L239.28 177.795L258.43 179.658L261.23 172.877Z" fill="white"/>
<path d="M270.26 247.976V198.71L286.95 200.242V249.516L270.26 247.976Z" fill="#4696E6"/>
<path opacity="0.75" d="M270.26 247.976V198.71L286.95 200.242V249.516L270.26 247.976Z" fill="white"/>
<path d="M286.95 200.242L290.71 191.92V242.892L286.95 249.516V200.242Z" fill="#4696E6"/>
<path opacity="0.65" d="M286.95 200.242L290.71 191.92V242.892L286.95 249.516V200.242Z" fill="white"/>
<path d="M290.71 191.92L274.68 190.389L270.26 198.71L286.95 200.242L290.71 191.92Z" fill="#4696E6"/>
<path opacity="0.9" d="M290.71 191.92L274.68 190.389L270.26 198.71L286.95 200.242L290.71 191.92Z" fill="white"/>
<path d="M288.83 246.568V202.072L297.67 202.858V247.355L288.83 246.568Z" fill="#4696E6"/>
<path opacity="0.75" d="M288.83 246.568V202.072L297.67 202.858V247.355L288.83 246.568Z" fill="white"/>
<path d="M297.67 202.859L299.04 199.207V245.169L297.67 247.355V202.859Z" fill="#4696E6"/>
<path opacity="0.65" d="M297.67 202.859L299.04 199.207V245.169L297.67 247.355V202.859Z" fill="white"/>
<path d="M299.04 199.207L290.77 198.429L288.83 202.072L297.67 202.859L299.04 199.207Z" fill="#4696E6"/>
<path opacity="0.9" d="M299.04 199.207L290.77 198.429L288.83 202.072L297.67 202.859L299.04 199.207Z" fill="white"/>
<path d="M8.28015 200.035V193.701L-16.0898 205.351V211.685" fill="#4696E6"/>
<path opacity="0.15" d="M8.28015 193.701L-16.0898 205.351V211.685L8.28015 200.035V193.701Z" fill="black"/>
<path d="M8.28003 193.701L-16.09 182.051L-40.47 193.701L-16.09 205.351L8.28003 193.701Z" fill="#4696E6"/>
<path opacity="0.5" d="M8.28003 193.701L-16.09 182.051L-40.47 193.701L-16.09 205.351L8.28003 193.701Z" fill="black"/>
<path d="M-16.0898 204.374L8.28015 192.724V190.786L-16.0898 202.436V204.374Z" fill="#4696E6"/>
<path opacity="0.15" d="M-16.0898 204.374L8.28015 192.724V190.786L-16.0898 202.436V204.374Z" fill="black"/>
<path d="M8.28003 190.786L-16.09 179.136L-40.47 190.786L-16.09 202.436L8.28003 190.786Z" fill="#4696E6"/>
<path opacity="0.5" d="M8.28003 190.786L-16.09 179.136L-40.47 190.786L-16.09 202.436L8.28003 190.786Z" fill="black"/>
<path d="M-16.0898 201.244L8.28015 189.594V187.657L-16.0898 199.307V201.244Z" fill="#4696E6"/>
<path opacity="0.15" d="M-16.0898 201.244L8.28015 189.594V187.657L-16.0898 199.307V201.244Z" fill="black"/>
<path d="M8.28003 187.656L-16.09 176.006L-40.47 187.656L-16.09 199.306L8.28003 187.656Z" fill="#4696E6"/>
<path opacity="0.5" d="M8.28003 187.656L-16.09 176.006L-40.47 187.656L-16.09 199.306L8.28003 187.656Z" fill="black"/>
<path d="M-16.0898 148.202L4.22015 138.498V187.408L-16.0898 197.12V148.202Z" fill="#4696E6"/>
<path d="M4.22059 138.498L-16.0894 128.786L-36.3994 138.498L-16.0894 148.202L4.22059 138.498Z" fill="#4696E6"/>
<path opacity="0.4" d="M4.22059 138.498L-16.0894 128.786L-36.3994 138.498L-16.0894 148.202L4.22059 138.498Z" fill="black"/>
<path d="M-16.0898 146.265V105.064L0.150154 97.1147V138.498L-16.0898 146.265Z" fill="#4696E6"/>
<path d="M0.150154 97.1145L-16.0898 89.439L-32.3398 97.1145L-16.0898 105.063L0.150154 97.1145Z" fill="#4696E6"/>
<path opacity="0.4" d="M0.150154 97.1145L-16.0898 89.439L-32.3398 97.1145L-16.0898 105.063L0.150154 97.1145Z" fill="black"/>
<path d="M246.11 289.31C246.031 289.307 245.953 289.293 245.88 289.268C245.75 289.211 232.3 283.622 211.62 282.835C190.94 282.048 181.08 285.319 180.98 285.319C180.888 285.349 180.787 285.355 180.69 285.338C180.593 285.322 180.505 285.282 180.435 285.224C180.365 285.166 180.317 285.092 180.296 285.012C180.276 284.932 180.284 284.849 180.32 284.772L210.73 222.54L139.63 215.676C139.552 215.668 139.477 215.645 139.412 215.61C139.346 215.574 139.291 215.526 139.252 215.47C139.212 215.414 139.188 215.351 139.183 215.286C139.177 215.221 139.19 215.156 139.22 215.096L150.49 192.012L6.62989 177.869C6.5635 177.864 6.49905 177.848 6.44048 177.822C6.38192 177.795 6.33047 177.759 6.28928 177.716C6.24809 177.673 6.21802 177.623 6.20094 177.569C6.18385 177.516 6.18009 177.46 6.1899 177.406C6.20499 177.295 6.27232 177.194 6.37721 177.124C6.48211 177.054 6.61606 177.021 6.74989 177.033L151.28 191.266C151.356 191.275 151.43 191.299 151.494 191.335C151.558 191.37 151.611 191.418 151.65 191.473C151.684 191.531 151.702 191.595 151.702 191.66C151.702 191.724 151.684 191.788 151.65 191.846L140.37 214.939L211.47 221.803C211.547 221.811 211.621 221.832 211.687 221.867C211.753 221.901 211.809 221.947 211.85 222.002C211.884 222.061 211.902 222.126 211.902 222.192C211.902 222.258 211.884 222.323 211.85 222.383L181.61 284.243C184.7 283.415 194.35 281.345 211.61 281.999C232.52 282.785 246.15 288.457 246.29 288.515C246.35 288.54 246.403 288.574 246.446 288.615C246.489 288.657 246.522 288.706 246.543 288.758C246.563 288.811 246.571 288.866 246.565 288.921C246.56 288.976 246.541 289.029 246.51 289.078C246.472 289.141 246.415 289.196 246.346 289.236C246.276 289.277 246.195 289.302 246.11 289.31Z" fill="#455A64"/>
<path d="M4.43994 9.24743C4.43994 -1.45861 -4.07006 -6.07057 -14.5601 -1.04461C-25.0501 3.98135 -33.5601 16.7243 -33.5601 27.4303V29.9143C-33.5601 38.1943 -22.2801 47.7246 -17.0901 51.6907C-16.7969 51.9087 -16.4469 52.0676 -16.0674 52.1553C-15.6878 52.2429 -15.289 52.2568 -14.9019 52.1959C-14.5149 52.135 -14.15 52.0009 -13.8357 51.8042C-13.5214 51.6074 -13.2663 51.3532 -13.0901 51.0614C-8.61006 43.4687 4.43994 20.591 4.43994 11.7232V9.24743ZM-14.5601 26.2297C-19.8101 28.7137 -24.0701 26.71 -24.0701 21.684C-24.0701 16.658 -19.8301 10.5722 -14.5801 8.08823C-9.33006 5.60423 -5.07006 7.60799 -5.07006 12.634C-5.07006 17.6599 -9.33006 23.7209 -14.5801 26.2297H-14.5601Z" fill="#4696E6"/>
<path d="M4.43994 9.24743C4.43994 -1.45861 -4.07006 -6.07057 -14.5601 -1.04461C-25.0501 3.98135 -33.5601 16.7243 -33.5601 27.4303V29.9143C-33.5601 38.1943 -22.2801 47.7246 -17.0901 51.6907C-16.7969 51.9087 -16.4469 52.0676 -16.0674 52.1553C-15.6878 52.2429 -15.289 52.2568 -14.9019 52.1959C-14.5149 52.135 -14.15 52.0009 -13.8357 51.8042C-13.5214 51.6074 -13.2663 51.3532 -13.0901 51.0614C-8.61006 43.4687 4.43994 20.591 4.43994 11.7232V9.24743ZM-14.5601 26.2297C-19.8101 28.7137 -24.0701 26.71 -24.0701 21.684C-24.0701 16.658 -19.8301 10.5722 -14.5801 8.08823C-9.33006 5.60423 -5.07006 7.60799 -5.07006 12.634C-5.07006 17.6599 -9.33006 23.7209 -14.5801 26.2297H-14.5601Z" fill="#4696E6"/>
<path d="M129.94 97.222V96.394C129.957 95.3465 130.169 94.3075 130.57 93.3138C131.506 90.7446 133.498 88.5273 136.2 87.0459C136.789 86.6988 137.475 86.4804 138.193 86.4109C138.912 86.3414 139.64 86.4231 140.31 86.6484L138.14 85.6134C137.608 85.3256 136.985 85.1756 136.35 85.1829H136H135.69C135.578 85.1914 135.468 85.208 135.36 85.2325L135.04 85.2988C134.807 85.356 134.58 85.4279 134.36 85.5141L134.01 85.6465L133.65 85.8039C130.2 87.4599 127.4 91.5999 127.4 95.1603V95.9883C127.4 99.5073 133.12 103.333 133.12 103.333L135.43 104.417L135.32 104.343C133.65 103.068 129.94 99.9295 129.94 97.222ZM136.77 89.8197C136.775 89.9107 136.775 90.0019 136.77 90.0929V90.184C136.775 90.2391 136.775 90.2945 136.77 90.3496C136.71 91.2474 136.395 92.1208 135.852 92.8991C135.308 93.6774 134.55 94.3386 133.64 94.8291L133.46 94.9119L133.27 94.9864L133.09 95.0444C133.35 96.3029 134.62 96.7417 136.16 96.0131C137.068 95.5212 137.823 94.8595 138.365 94.0814C138.907 93.3032 139.22 92.4305 139.28 91.5336C139.32 90.0598 138.22 89.3808 136.77 89.8197Z" fill="#4696E6"/>
<path opacity="0.6" d="M129.94 97.222V96.394C129.957 95.3465 130.169 94.3075 130.57 93.3138C131.506 90.7446 133.498 88.5273 136.2 87.0459C136.789 86.6988 137.475 86.4804 138.193 86.4109C138.912 86.3414 139.64 86.4231 140.31 86.6484L138.14 85.6134C137.608 85.3256 136.985 85.1756 136.35 85.1829H136H135.69C135.578 85.1914 135.468 85.208 135.36 85.2325L135.04 85.2988C134.807 85.356 134.58 85.4279 134.36 85.5141L134.01 85.6465L133.65 85.8039C130.2 87.4599 127.4 91.5999 127.4 95.1603V95.9883C127.4 99.5073 133.12 103.333 133.12 103.333L135.43 104.417L135.32 104.343C133.65 103.068 129.94 99.9295 129.94 97.222Z" fill="white"/>
<path opacity="0.6" d="M136.74 89.8198C136.745 89.9108 136.745 90.002 136.74 90.093C136.74 90.093 136.74 90.1509 136.74 90.1841V90.3497C136.682 91.2469 136.369 92.1201 135.827 92.8984C135.285 93.6767 134.529 94.3382 133.62 94.8291L133.43 94.912L133.25 94.9865L133.06 95.0444C133.33 96.303 134.6 96.7418 136.13 96.0132C137.039 95.5223 137.795 94.8608 138.337 94.0824C138.879 93.3041 139.192 92.4309 139.25 91.5337C139.29 90.0599 138.2 89.3809 136.74 89.8198Z" fill="white"/>
<path d="M142.45 90.4406C142.45 86.9216 139.65 85.4063 136.2 87.0541C132.75 88.7018 130 92.8997 130 96.4187V97.2467C130 99.9543 133.7 103.092 135.41 104.401C135.506 104.475 135.622 104.53 135.749 104.56C135.875 104.59 136.009 104.596 136.138 104.576C136.268 104.556 136.39 104.51 136.494 104.444C136.599 104.378 136.683 104.292 136.74 104.194C138.21 101.71 142.5 94.1832 142.5 91.2686L142.45 90.4406ZM136.2 96.0213C134.47 96.8493 133.07 96.1786 133.07 94.5309C133.131 93.6346 133.447 92.7628 133.991 91.986C134.534 91.2093 135.291 90.5494 136.2 90.0597C137.92 89.2317 139.32 89.9024 139.32 91.5584C139.258 92.4526 138.944 93.3222 138.402 94.0974C137.86 94.8726 137.106 95.5315 136.2 96.0213Z" fill="#4696E6"/>
<path d="M142.45 90.4406C142.45 86.9216 139.65 85.4063 136.2 87.0541C132.75 88.7018 130 92.8997 130 96.4187V97.2467C130 99.9543 133.7 103.092 135.41 104.401C135.506 104.475 135.622 104.53 135.749 104.56C135.875 104.59 136.009 104.596 136.138 104.576C136.268 104.556 136.39 104.51 136.494 104.444C136.599 104.378 136.683 104.292 136.74 104.194C138.21 101.71 142.5 94.1832 142.5 91.2686L142.45 90.4406ZM136.2 96.0213C134.47 96.8493 133.07 96.1786 133.07 94.5309C133.131 93.6346 133.447 92.7628 133.991 91.986C134.534 91.2093 135.291 90.5494 136.2 90.0597C137.92 89.2317 139.32 89.9024 139.32 91.5584C139.258 92.4526 138.944 93.3222 138.402 94.0974C137.86 94.8726 137.106 95.5315 136.2 96.0213Z" fill="#4696E6"/>
<g opacity="0.8">
<path d="M142.45 90.4406C142.45 86.9216 139.65 85.4063 136.2 87.0541C132.75 88.7018 130 92.8997 130 96.4187V97.2467C130 99.9543 133.7 103.092 135.41 104.401C135.506 104.475 135.622 104.53 135.749 104.56C135.875 104.59 136.009 104.596 136.138 104.576C136.268 104.556 136.39 104.51 136.494 104.444C136.599 104.378 136.683 104.292 136.74 104.194C138.21 101.71 142.5 94.1832 142.5 91.2686L142.45 90.4406ZM136.2 96.0213C134.47 96.8493 133.07 96.1786 133.07 94.5309C133.131 93.6346 133.447 92.7628 133.991 91.986C134.534 91.2093 135.291 90.5494 136.2 90.0597C137.92 89.2317 139.32 89.9024 139.32 91.5584C139.258 92.4526 138.944 93.3222 138.402 94.0974C137.86 94.8726 137.106 95.5315 136.2 96.0213Z" fill="white"/>
</g>
<path d="M246.41 151.332V150.504C246.427 149.456 246.639 148.417 247.04 147.424C247.976 144.855 249.968 142.637 252.67 141.156C253.26 140.809 253.945 140.59 254.664 140.521C255.382 140.451 256.11 140.533 256.78 140.758L254.61 139.74C254.075 139.452 253.448 139.302 252.81 139.309H252.51H252.19L251.87 139.359L251.54 139.425C251.308 139.485 251.081 139.557 250.86 139.641L250.52 139.773L250.16 139.93C246.71 141.586 243.91 145.768 243.91 149.287V150.115C243.91 153.634 249.63 157.459 249.63 157.459L251.94 158.544L251.83 158.469C250.12 157.128 246.41 153.998 246.41 151.332ZM253.24 143.93C253.246 144.021 253.246 144.112 253.24 144.203V144.294C253.245 144.349 253.245 144.404 253.24 144.46C253.18 145.357 252.866 146.231 252.322 147.009C251.778 147.787 251.02 148.448 250.11 148.939L249.93 149.022L249.74 149.096L249.56 149.154C249.83 150.413 251.1 150.81 252.64 150.123C253.548 149.631 254.303 148.969 254.845 148.191C255.387 147.413 255.701 146.54 255.76 145.644C255.79 144.145 254.69 143.449 253.24 143.88V143.93Z" fill="#4696E6"/>
<path opacity="0.6" d="M246.41 151.332V150.504C246.427 149.456 246.639 148.417 247.04 147.424C247.976 144.855 249.968 142.637 252.67 141.156C253.26 140.809 253.945 140.59 254.664 140.521C255.382 140.451 256.11 140.533 256.78 140.758L254.61 139.74C254.075 139.452 253.448 139.302 252.81 139.309H252.51H252.19L251.87 139.359L251.54 139.425C251.308 139.485 251.081 139.557 250.86 139.641L250.52 139.773L250.16 139.93C246.71 141.586 243.91 145.768 243.91 149.287V150.115C243.91 153.634 249.63 157.459 249.63 157.459L251.94 158.544L251.83 158.469C250.12 157.128 246.41 153.998 246.41 151.332Z" fill="white"/>
<path opacity="0.6" d="M253.211 143.88C253.216 143.971 253.216 144.062 253.211 144.153C253.211 144.153 253.211 144.211 253.211 144.244V144.41C253.152 145.307 252.84 146.18 252.298 146.959C251.755 147.737 250.999 148.399 250.091 148.89L249.901 148.972L249.721 149.047L249.531 149.105C249.801 150.363 251.071 150.761 252.601 150.074C253.509 149.583 254.266 148.921 254.808 148.143C255.35 147.364 255.662 146.491 255.721 145.594C255.761 144.145 254.661 143.45 253.211 143.88Z" fill="white"/>
<path d="M258.92 144.509C258.92 140.99 256.12 139.475 252.67 141.122C249.22 142.77 246.41 146.968 246.41 150.487V151.315C246.41 154.023 250.12 157.161 251.83 158.469C251.926 158.543 252.043 158.598 252.169 158.628C252.296 158.659 252.429 158.664 252.558 158.644C252.688 158.624 252.81 158.579 252.914 158.512C253.019 158.446 253.103 158.36 253.16 158.262C254.63 155.778 258.92 148.252 258.92 145.337V144.509ZM252.67 150.09C250.94 150.918 249.54 150.247 249.54 148.599C249.599 147.7 249.912 146.825 250.456 146.045C251 145.265 251.759 144.603 252.67 144.112C254.39 143.284 255.79 143.954 255.79 145.61C255.731 146.507 255.418 147.38 254.876 148.158C254.334 148.937 253.578 149.598 252.67 150.09Z" fill="#4696E6"/>
<path d="M258.92 144.509C258.92 140.99 256.12 139.475 252.67 141.122C249.22 142.77 246.41 146.968 246.41 150.487V151.315C246.41 154.023 250.12 157.161 251.83 158.469C251.926 158.543 252.043 158.598 252.169 158.628C252.296 158.659 252.429 158.664 252.558 158.644C252.688 158.624 252.81 158.579 252.914 158.512C253.019 158.446 253.103 158.36 253.16 158.262C254.63 155.778 258.92 148.252 258.92 145.337V144.509ZM252.67 150.09C250.94 150.918 249.54 150.247 249.54 148.599C249.599 147.7 249.912 146.825 250.456 146.045C251 145.265 251.759 144.603 252.67 144.112C254.39 143.284 255.79 143.954 255.79 145.61C255.731 146.507 255.418 147.38 254.876 148.158C254.334 148.937 253.578 149.598 252.67 150.09Z" fill="#4696E6"/>
<g opacity="0.8">
<path d="M258.92 144.509C258.92 140.99 256.12 139.475 252.67 141.122C249.22 142.77 246.41 146.968 246.41 150.487V151.315C246.41 154.023 250.12 157.161 251.83 158.469C251.926 158.543 252.043 158.598 252.169 158.628C252.296 158.659 252.429 158.664 252.558 158.644C252.688 158.624 252.81 158.579 252.914 158.512C253.019 158.446 253.103 158.36 253.16 158.262C254.63 155.778 258.92 148.252 258.92 145.337V144.509ZM252.67 150.09C250.94 150.918 249.54 150.247 249.54 148.599C249.599 147.7 249.912 146.825 250.456 146.045C251 145.265 251.759 144.603 252.67 144.112C254.39 143.284 255.79 143.954 255.79 145.61C255.731 146.507 255.418 147.38 254.876 148.158C254.334 148.937 253.578 149.598 252.67 150.09Z" fill="white"/>
</g>
</g>
</svg>
