<svg width="250" height="250" viewBox="0 0 250 250" fill="none" xmlns="http://www.w3.org/2000/svg">
<g id="On the way-bro 1">
<g id="freepik--background-simple--inject-479">
<path id="Vector" d="M191.185 55.575C191.185 55.575 168.29 35.1 136.08 39.72C103.87 44.34 78.7 69.31 57.77 89C36.84 108.69 33.63 136.085 49.175 155.5C64.72 174.915 84.865 163.84 113.225 174.455C141.585 185.07 147.525 192.205 177.115 185.65C206.705 179.095 225.835 142.925 218.525 107.415C211.215 71.905 191.185 55.575 191.185 55.575Z" fill="#407BFF"/>
<path id="Vector_2" opacity="0.8" d="M191.185 55.575C191.185 55.575 168.29 35.1 136.08 39.72C103.87 44.34 78.7 69.31 57.77 89C36.84 108.69 33.63 136.085 49.175 155.5C64.72 174.915 84.865 163.84 113.225 174.455C141.585 185.07 147.525 192.205 177.115 185.65C206.705 179.095 225.835 142.925 218.525 107.415C211.215 71.905 191.185 55.575 191.185 55.575Z" fill="white"/>
</g>
<g id="freepik--Clouds--inject-479">
<path id="Vector_3" d="M195.195 121.155C192.925 119.92 191.89 120.95 191.065 119.92C190.24 118.89 193.34 116.2 187.14 113.515C187.14 113.515 186.73 107.735 178.26 107.515C169.79 107.295 172.065 113.3 169.795 114.745C167.525 116.19 166.905 113.92 164.63 115.365C162.355 116.81 163.39 119.7 161.535 120.115C159.68 120.53 157.195 118.255 154.925 119.7C152.655 121.145 152.65 122.385 151.62 122.385C150.59 122.385 148.52 121.56 147.285 122.385C146.05 123.21 144.6 124.245 144.6 124.245H196.85C196.85 124.245 197.47 122.395 195.195 121.155Z" fill="#407BFF"/>
<path id="Vector_4" opacity="0.5" d="M195.195 121.155C192.925 119.92 191.89 120.95 191.065 119.92C190.24 118.89 193.34 116.2 187.14 113.515C187.14 113.515 186.73 107.735 178.26 107.515C169.79 107.295 172.065 113.3 169.795 114.745C167.525 116.19 166.905 113.92 164.63 115.365C162.355 116.81 163.39 119.7 161.535 120.115C159.68 120.53 157.195 118.255 154.925 119.7C152.655 121.145 152.65 122.385 151.62 122.385C150.59 122.385 148.52 121.56 147.285 122.385C146.05 123.21 144.6 124.245 144.6 124.245H196.85C196.85 124.245 197.47 122.395 195.195 121.155Z" fill="white"/>
<path id="Vector_5" d="M181.755 48.915C178.585 47.18 177.14 48.625 175.985 47.18C174.83 45.735 179.16 42 170.5 38.235C170.5 38.235 169.925 30.155 158.09 29.865C146.255 29.575 149.435 37.945 146.26 39.965C143.085 41.985 142.215 38.81 139.045 40.83C135.875 42.85 137.31 46.895 134.715 47.47C132.12 48.045 128.65 44.87 125.5 46.895C122.35 48.92 122.325 50.645 120.88 50.645C119.435 50.645 116.55 49.49 114.82 50.645C113.09 51.8 111.065 53.24 111.065 53.24H184.065C184.065 53.24 184.93 50.645 181.755 48.915Z" fill="#407BFF"/>
<path id="Vector_6" opacity="0.5" d="M181.755 48.915C178.585 47.18 177.14 48.625 175.985 47.18C174.83 45.735 179.16 42 170.5 38.235C170.5 38.235 169.925 30.155 158.09 29.865C146.255 29.575 149.435 37.945 146.26 39.965C143.085 41.985 142.215 38.81 139.045 40.83C135.875 42.85 137.31 46.895 134.715 47.47C132.12 48.045 128.65 44.87 125.5 46.895C122.35 48.92 122.325 50.645 120.88 50.645C119.435 50.645 116.55 49.49 114.82 50.645C113.09 51.8 111.065 53.24 111.065 53.24H184.065C184.065 53.24 184.93 50.645 181.755 48.915Z" fill="white"/>
<path id="Vector_7" d="M98.36 85.81C96.09 84.57 95.055 85.605 94.23 84.57C93.405 83.535 96.5 80.855 90.305 78.17C90.305 78.17 89.89 72.385 81.425 72.17C72.96 71.955 75.23 77.955 72.955 79.4C70.68 80.845 70.065 78.575 67.795 80.02C65.525 81.465 66.555 84.355 64.695 84.77C62.835 85.185 60.36 82.91 58.085 84.355C55.81 85.8 55.815 87.04 54.78 87.04C53.745 87.04 51.685 86.215 50.445 87.04C49.205 87.865 47.76 88.9 47.76 88.9H100C100 88.9 100.63 87.05 98.36 85.81Z" fill="#407BFF"/>
<path id="Vector_8" opacity="0.5" d="M98.36 85.81C96.09 84.57 95.055 85.605 94.23 84.57C93.405 83.535 96.5 80.855 90.305 78.17C90.305 78.17 89.89 72.385 81.425 72.17C72.96 71.955 75.23 77.955 72.955 79.4C70.68 80.845 70.065 78.575 67.795 80.02C65.525 81.465 66.555 84.355 64.695 84.77C62.835 85.185 60.36 82.91 58.085 84.355C55.81 85.8 55.815 87.04 54.78 87.04C53.745 87.04 51.685 86.215 50.445 87.04C49.205 87.865 47.76 88.9 47.76 88.9H100C100 88.9 100.63 87.05 98.36 85.81Z" fill="white"/>
</g>
<g id="freepik--Trees--inject-479">
<path id="Vector_9" d="M121.14 179.785H121.53C122.315 179.755 124.03 179.7 124.5 179.7C125.09 179.7 126.08 180.985 125.19 182.17C124.3 183.355 123.69 184.74 122.425 185.035C121.16 185.33 121.335 186.125 120.425 187.11C119.515 188.095 117.065 188.3 115.78 188C114.495 187.7 115.68 181.28 115.88 181C116.08 180.72 118.27 182.16 121.14 179.785Z" fill="white" stroke="#263238" stroke-width="0.5" stroke-linecap="round" stroke-linejoin="round"/>
<path id="Vector_10" d="M122.425 185.025C123.71 184.73 124.3 183.345 125.19 182.16C125.371 181.934 125.489 181.663 125.529 181.377C125.57 181.09 125.532 180.797 125.42 180.53C125.085 181.724 124.423 182.801 123.51 183.64C122.62 184.335 121.93 183.94 121.435 184.53C120.94 185.12 120.435 186.31 117.875 186.31C116.976 186.327 116.079 186.218 115.21 185.985C115.21 187.05 115.355 187.89 115.8 187.985C117.085 188.285 119.555 188.085 120.445 187.095C121.335 186.105 121.14 185.32 122.425 185.025Z" fill="white" stroke="#263238" stroke-width="0.5" stroke-linecap="round" stroke-linejoin="round"/>
<path id="Vector_11" d="M138.04 183.445C138.04 183.445 137.745 187.005 137.94 187.695C138.135 188.385 140.115 189.08 141.205 188.88C142.295 188.68 144.27 187.3 144.27 187.3C144.27 187.3 148.62 185.62 150.2 184.63C151.78 183.64 152.275 182.455 151.09 182.16C149.905 181.865 145.95 181.07 144.765 180.775C143.58 180.48 143.575 181.565 141.005 182.16C138.435 182.755 138.04 183.445 138.04 183.445Z" fill="white" stroke="#263238" stroke-width="0.5" stroke-linecap="round" stroke-linejoin="round"/>
<path id="Vector_12" d="M150.5 183.445C148.179 184.766 145.768 185.922 143.285 186.905C141.557 187.616 139.621 187.634 137.88 186.955C137.878 187.203 137.9 187.451 137.945 187.695C138.145 188.385 140.12 189.08 141.21 188.88C142.3 188.68 144.275 187.3 144.275 187.3C144.275 187.3 148.625 185.62 150.205 184.63C151.555 183.785 152.11 182.8 151.505 182.345C151.268 182.79 150.922 183.169 150.5 183.445Z" fill="white" stroke="#263238" stroke-width="0.5" stroke-linecap="round" stroke-linejoin="round"/>
<path id="Vector_13" d="M120.625 113.695C120.625 113.695 119.5 120 119.1 123.535C118.7 127.07 117.76 135.855 117.76 140.06C117.76 144.265 117.5 151.9 117.5 151.9C117.5 151.9 117.115 154.96 116.45 157.725C115.785 160.49 115.495 165.75 115.59 168.33C115.685 170.91 115.685 178.07 115.685 178.07C115.633 178.903 115.633 179.737 115.685 180.57C115.78 181.525 115.97 182.67 116.925 182.67C117.88 182.67 119.6 182.67 120.27 182.1C121.133 181.27 121.645 180.141 121.7 178.945C121.795 177.515 122.2 172.64 122.275 171.495C122.35 170.35 125.715 156.215 126.095 153.255C126.475 150.295 126.67 148.67 126.67 148.67L130.2 130.14L131.255 130.33C131.255 130.33 137.255 152.87 137.255 154.4C137.255 155.93 136.585 162.9 137.35 166.815C138.115 170.73 138 184.09 138 184.09C138.384 184.508 138.881 184.807 139.43 184.95C140.29 185.14 142.775 184.565 143.73 183.04C144.685 181.515 145.065 178.74 145.065 177.975C145.065 177.21 145.925 161.55 145.925 157.535C145.925 153.52 145.545 148.655 145.545 148.27C145.545 147.885 144.59 129.745 144.305 128.12C144.02 126.495 140.77 113.315 140.77 113.315C140.77 113.315 130.845 116.275 120.625 113.695Z" fill="#263238" stroke="#263238" stroke-width="0.5" stroke-linecap="round" stroke-linejoin="round"/>
<path id="Vector_14" d="M112.22 99.655C112.22 99.655 110.98 102.81 110.79 104.43C110.6 106.05 111.65 109.015 112.605 109.59C113.56 110.165 116.71 108.92 117.19 108.155C117.67 107.39 119.86 102.425 119.86 102.425C117.111 102.205 114.472 101.248 112.22 99.655Z" fill="white" stroke="#263238" stroke-width="0.5" stroke-linecap="round" stroke-linejoin="round"/>
<path id="Vector_15" d="M142.435 101.585L138.67 118.28H141.125L144.73 101.255L142.435 101.585Z" fill="#263238" stroke="#263238" stroke-width="0.5" stroke-linecap="round" stroke-linejoin="round"/>
<path id="Vector_16" d="M145.5 88.43C145.5 88.43 147.3 88.105 147.79 88.43C148.28 88.755 148.29 90.395 148.29 91.05C148.29 91.705 147.79 93.505 147.965 94.325C148.14 95.145 150.915 99.015 152.06 101.475C153.205 103.935 151.735 107.855 150.425 109.475C149.115 111.095 146.49 105.275 145.67 103.31C144.85 101.345 143.545 89.23 143.545 89.23L145.5 88.43Z" fill="white" stroke="#263238" stroke-width="0.5" stroke-linecap="round" stroke-linejoin="round"/>
<path id="Vector_17" d="M149 98.62C149 98.62 151.6 103.065 151.695 104.5C151.79 105.935 151.12 109 150.455 110.04C149.79 111.08 148.07 110.185 146.825 109.515C145.672 108.937 144.759 107.973 144.245 106.79C143.67 105.55 142.125 102.44 142.125 102.44C142.125 102.44 146.33 101.295 149 98.62Z" fill="white" stroke="#263238" stroke-width="0.5" stroke-linecap="round" stroke-linejoin="round"/>
<path id="Vector_18" d="M125.59 80C124.387 80.2819 123.231 80.7331 122.155 81.34C120.53 82.295 117.95 84.205 117.09 85.73C116.23 87.255 113.655 93.85 112.41 96.335C111.165 98.82 110.79 99.675 110.79 99.675C110.79 99.675 112.29 101.875 114.32 102.735C116.35 103.595 119.86 103.785 119.86 103.785C119.86 103.785 120.36 113.525 120.625 114.96C120.89 116.395 124.16 117.25 128.935 117.46C133.71 117.67 140.395 115.935 141.255 114.96C142.115 113.985 140.97 103.785 140.97 103.785C142.524 103.556 144.057 103.205 145.555 102.735C147.465 102.065 149.95 98.815 149.95 98.815C149.95 98.815 146.51 90.41 145.84 88.98C145.17 87.55 145.65 86.98 142.975 85.065C141.267 83.8632 139.443 82.8364 137.53 82C137.53 82 133.53 80.09 130.175 79.71C126.82 79.33 125.59 80 125.59 80Z" fill="white" stroke="#263238" stroke-width="0.5" stroke-linecap="round" stroke-linejoin="round"/>
<path id="Vector_19" d="M139.44 67C139.44 67 140.49 67.575 140.49 68.15C140.49 68.725 139.345 69.965 139.345 69.965C139.447 70.8521 139.447 71.7479 139.345 72.635C139.155 73.59 140.11 74.635 139.345 75.31C138.58 75.985 136.29 75.98 136.29 75.98L135.62 80.185L127.025 79.035L126.74 76.36C126.74 76.36 124.445 74.45 123.68 72.36C122.915 70.27 123.015 69.685 123.18 68.36C123.345 67.035 124.805 64.25 127.68 63.585C130.195 62.9841 132.82 63.0168 135.32 63.68C137.34 64.22 139.44 67 139.44 67Z" fill="white" stroke="#263238" stroke-width="0.5" stroke-linecap="round" stroke-linejoin="round"/>
<path id="Vector_20" d="M135.61 73.605V73.58" stroke="#263238" stroke-width="0.5" stroke-linecap="round" stroke-linejoin="round"/>
<path id="Vector_21" d="M133.14 75.78C134.185 75.3545 135.056 74.588 135.61 73.605C135.575 73.675 135.425 73.87 134.955 73.87C134.38 73.87 133.04 72.82 132.66 71.87C132.28 70.92 133.235 69.765 133.9 69.765C134.565 69.765 135.525 71.105 136.29 70.625C137.055 70.145 136.96 68.05 136.96 68.05C137.149 67.0846 137.437 66.1412 137.82 65.235C137.113 64.5304 136.26 63.9908 135.32 63.655C132.82 62.9918 130.195 62.9591 127.68 63.56C124.815 64.225 123.38 66.995 123.18 68.335C122.98 69.675 122.895 70.245 123.68 72.335C124.465 74.425 126.74 76.335 126.74 76.335C128.36 76.45 131.325 76.545 133.14 75.78Z" fill="#263238" stroke="#263238" stroke-width="0.5" stroke-linecap="round" stroke-linejoin="round"/>
<path id="Vector_22" d="M122.825 81.03C122.825 81.03 124.54 78.26 125.4 77.88C126.26 77.5 132.47 77.5 133.71 77.69C134.95 77.88 137.15 79.41 137.53 80.27C137.91 81.13 138.2 81.795 138.2 81.795V82.37C138.2 82.37 134.095 80.46 130.2 80.46C127.731 80.4694 125.266 80.66 122.825 81.03Z" fill="white" stroke="#263238" stroke-width="0.5" stroke-linecap="round" stroke-linejoin="round"/>
<path id="Vector_23" d="M138.2 82.37C137.399 84.0842 136.487 85.7443 135.47 87.34C134.392 89.098 133.551 90.9911 132.97 92.97L135.97 93.28C135.97 93.28 138.055 87.78 139.305 85.985C139.813 85.2189 140.371 84.4873 140.975 83.795C140.975 83.795 139.785 82.295 138.2 82.37Z" fill="#263238" stroke="#263238" stroke-width="0.5" stroke-linecap="round" stroke-linejoin="round"/>
<path id="Vector_24" d="M122.825 81.03C122.825 81.03 122.325 84.53 122.545 86.405C122.66 87.9996 122.66 89.6004 122.545 91.195L120.355 91.925C120.355 91.925 119.73 85.88 119.94 84.525C120.15 83.17 120.355 82.235 120.355 82.235C120.355 82.235 121.745 81 122.825 81.03Z" fill="#263238" stroke="#263238" stroke-width="0.5" stroke-linecap="round" stroke-linejoin="round"/>
<path id="Vector_25" d="M118.375 113.085C118.375 113.085 116.92 113.585 116.375 116.085C115.83 118.585 117.315 121.3 120.335 122.55C123.355 123.8 128.26 124.425 132.835 124.635C137.41 124.845 141.17 124.425 142.835 121.505C144.5 118.585 143.875 115.46 141.895 114.94C139.915 114.42 137.725 115.565 130.12 114.835C126.171 114.514 122.247 113.929 118.375 113.085Z" fill="#407BFF" stroke="#263238" stroke-width="0.5" stroke-linecap="round" stroke-linejoin="round"/>
<path id="Vector_26" d="M136.765 116.69C134.84 118.935 134.36 124.39 138.21 124.39H138.405C140.405 123.99 141.95 123.145 142.87 121.53C144.165 119.26 144.07 116.865 143.035 115.67L141.485 114.625C140.596 114.608 139.714 114.784 138.899 115.141C138.084 115.497 137.356 116.026 136.765 116.69Z" fill="#407BFF" stroke="#263238" stroke-width="0.5" stroke-linecap="round" stroke-linejoin="round"/>
<path id="Vector_27" d="M139.09 119.63C139.09 119.63 139.015 121.225 140.905 120.63C141.35 120.452 141.737 120.152 142.02 119.765C142.303 119.378 142.471 118.918 142.505 118.44C142.521 118.322 142.529 118.204 142.53 118.085C142.555 117.285 142.275 116.585 141.705 116.42C140.395 116.055 137.205 118.45 137.205 120.195C137.205 121.94 139.24 122.52 141.055 121.355C142.87 120.19 143.38 118.96 143.235 116.055" stroke="#263238" stroke-width="0.5" stroke-linecap="round" stroke-linejoin="round"/>
<path id="Vector_28" d="M118.795 89.635C118.795 89.635 127.13 90.365 131.615 90.465C136.1 90.565 138.285 90.155 139.615 91.615C140.945 93.075 142.615 108.705 143.365 111.52C144.115 114.335 142.865 115.17 139.72 116.315C136.575 117.46 131.59 117.46 125.855 116.315C120.12 115.17 117.62 114.315 116.995 111.815C116.37 109.315 116.79 101.285 116.79 96.815C116.79 92.345 116.395 89.74 118.795 89.635Z" fill="#407BFF" stroke="#263238" stroke-width="0.5" stroke-linecap="round" stroke-linejoin="round"/>
<path id="Vector_29" d="M138.5 105.92C139.815 105.78 141.108 105.479 142.35 105.025C141.55 99.525 140.535 92.565 139.655 91.615C138.3 90.155 136.11 90.57 131.655 90.465C127.2 90.36 118.835 89.635 118.835 89.635C116.435 89.74 116.835 92.345 116.835 96.825C116.835 98.68 116.76 101.135 116.725 103.56C117.315 103.915 124.16 107.625 138.5 105.92Z" fill="#407BFF" stroke="#263238" stroke-width="0.5" stroke-linecap="round" stroke-linejoin="round"/>
<path id="Vector_30" d="M118.56 103.055C118.695 104.566 118.654 106.088 118.44 107.59C118.232 108.852 118.114 110.127 118.085 111.405L120.11 112.24C120.11 112.24 120.47 109.02 120.71 107.59C120.873 106.243 120.953 104.887 120.95 103.53L118.56 103.055Z" fill="#263238" stroke="#263238" stroke-width="0.5" stroke-linecap="round" stroke-linejoin="round"/>
<path id="Vector_31" d="M134.07 104.5C134.07 104.5 133.95 106.65 133.715 108.2C133.48 109.75 133.115 113.42 133.115 113.42H135.5C135.5 113.42 136.335 109.75 136.335 108.32C136.335 106.89 136.455 104.38 136.455 104.38L134.07 104.5Z" fill="#263238" stroke="#263238" stroke-width="0.5" stroke-linecap="round" stroke-linejoin="round"/>
<path id="Vector_32" d="M143.39 111.5C142.66 108.685 140.995 93.055 139.64 91.595C139.431 91.3736 139.19 91.1849 138.925 91.035C138.055 91.315 136.775 92.005 137.345 93.575C138.18 95.865 139.015 107.125 138.595 110.665C138.175 114.205 135.885 115.88 137.97 116.71L138.085 116.755C138.649 116.641 139.203 116.488 139.745 116.295C142.87 115.17 144.12 114.335 143.39 111.5Z" fill="#407BFF" stroke="#263238" stroke-width="0.5" stroke-linecap="round" stroke-linejoin="round"/>
<path id="Vector_33" d="M130.175 130.125L126.09 129.03" stroke="white" stroke-width="0.5" stroke-linecap="round" stroke-linejoin="round"/>
<path id="Vector_34" d="M121.285 62.315C121.285 62.315 122.44 68.815 122.44 69.57C122.44 70.325 122.63 70.525 125.69 70.715C128.75 70.905 132.945 71.1 135.335 69.86C137.725 68.62 141.925 65.75 142.785 63.86C143.645 61.97 143.07 61.665 140.785 61.665H137.92C137.92 61.665 137.25 58.895 135.42 58.035C133.59 57.175 130.74 55.455 127.685 56.795C124.63 58.135 122.35 58.77 121.285 62.315Z" fill="#407BFF" stroke="#263238" stroke-width="0.5" stroke-linecap="round" stroke-linejoin="round"/>
<path id="Vector_35" d="M137.245 68.33C137.037 68.5281 136.876 68.7708 136.775 69.04C139.13 67.615 142.08 65.405 142.775 63.84C143.635 61.93 143.06 61.645 140.775 61.645H137.91C137.91 61.645 138.77 64.415 138.77 65.37C138.77 66.325 138.39 67.185 137.245 68.33Z" fill="#263238" stroke="#263238" stroke-width="0.5" stroke-linecap="round" stroke-linejoin="round"/>
<path id="Vector_36" d="M124.185 69.82C124.185 69.82 123.385 67.025 124.85 66.76C126.315 66.495 127.915 70.09 127.915 70.09C126.666 70.2337 125.401 70.1421 124.185 69.82Z" fill="#263238" stroke="#263238" stroke-width="0.5" stroke-linecap="round" stroke-linejoin="round"/>
<path id="Vector_37" d="M164.165 196.735H182.965C182.605 194.435 181.125 194.84 180.93 191.275C180.83 189.48 182.49 187.275 182.35 184.905C182.23 182.96 180.315 180.97 180.165 178.75C180.035 176.75 181.665 174.52 181.51 172.36C181.36 170.32 179.415 168.36 179.245 166.235C179.075 164.11 180.68 161.92 180.49 159.825C180.3 157.73 178.325 155.825 178.115 153.745C177.905 151.665 179.45 149.335 179.21 147.305C178.96 145.15 176.925 143.305 176.65 141.305C176.345 139.09 177.785 136.73 177.45 134.805C177.035 132.465 174.86 130.775 174.4 129.05C173.545 125.835 173.655 122.735 172.645 122.55C171.635 122.365 171.325 125.37 170.51 128.765C170.1 130.47 167.97 132.2 167.62 134.54C167.335 136.435 168.84 138.74 168.595 140.94C168.375 142.915 166.39 144.81 166.2 146.94C166.015 148.94 167.625 151.18 167.47 153.285C167.315 155.39 165.39 157.285 165.26 159.37C165.13 161.455 166.785 163.635 166.67 165.69C166.555 167.745 164.67 169.785 164.57 171.81C164.465 173.955 166.16 176.115 166.07 178.105C165.98 180.305 164.115 182.325 164.07 184.25C163.985 186.59 165.7 188.75 165.65 190.53C165.535 194.39 163.765 193.59 163.7 196.7L164.165 196.735Z" fill="#407BFF"/>
<path id="Vector_38" opacity="0.5" d="M164.165 196.735H182.965C182.605 194.435 181.125 194.84 180.93 191.275C180.83 189.48 182.49 187.275 182.35 184.905C182.23 182.96 180.315 180.97 180.165 178.75C180.035 176.75 181.665 174.52 181.51 172.36C181.36 170.32 179.415 168.36 179.245 166.235C179.075 164.11 180.68 161.92 180.49 159.825C180.3 157.73 178.325 155.825 178.115 153.745C177.905 151.665 179.45 149.335 179.21 147.305C178.96 145.15 176.925 143.305 176.65 141.305C176.345 139.09 177.785 136.73 177.45 134.805C177.035 132.465 174.86 130.775 174.4 129.05C173.545 125.835 173.655 122.735 172.645 122.55C171.635 122.365 171.325 125.37 170.51 128.765C170.1 130.47 167.97 132.2 167.62 134.54C167.335 136.435 168.84 138.74 168.595 140.94C168.375 142.915 166.39 144.81 166.2 146.94C166.015 148.94 167.625 151.18 167.47 153.285C167.315 155.39 165.39 157.285 165.26 159.37C165.13 161.455 166.785 163.635 166.67 165.69C166.555 167.745 164.67 169.785 164.57 171.81C164.465 173.955 166.16 176.115 166.07 178.105C165.98 180.305 164.115 182.325 164.07 184.25C163.985 186.59 165.7 188.75 165.65 190.53C165.535 194.39 163.765 193.59 163.7 196.7L164.165 196.735Z" fill="white"/>
<path id="Vector_39" d="M172.235 128.725V195.865" stroke="#263238" stroke-width="0.5" stroke-miterlimit="10"/>
<path id="Vector_40" d="M175.17 135.765L172.11 138.41L169.605 135.07" stroke="#263238" stroke-width="0.5" stroke-miterlimit="10"/>
<path id="Vector_41" d="M175.17 147.45L172.11 150.095L169.605 146.755" stroke="#263238" stroke-width="0.5" stroke-miterlimit="10"/>
<path id="Vector_42" d="M175.17 158.44L172.11 161.085L169.605 157.745" stroke="#263238" stroke-width="0.5" stroke-miterlimit="10"/>
<path id="Vector_43" d="M175.17 171.52L172.11 174.165L169.605 170.825" stroke="#263238" stroke-width="0.5" stroke-miterlimit="10"/>
<path id="Vector_44" d="M175.17 184.735L172.11 187.38L169.605 184.04" stroke="#263238" stroke-width="0.5" stroke-miterlimit="10"/>
<path id="Vector_45" d="M56.5 185.25H80.89C80.42 182.25 78.505 182.79 78.25 178.165C78.125 175.84 80.28 172.955 80.09 169.9C79.94 167.4 77.455 164.795 77.26 161.9C77.085 159.3 79.205 156.4 79 153.61C78.805 150.96 76.29 148.415 76.065 145.665C75.84 142.915 77.925 140.06 77.68 137.345C77.435 134.63 74.87 132.13 74.6 129.455C74.32 126.7 76.33 123.735 76.025 121.1C75.695 118.305 73.06 115.89 72.7 113.315C72.3 110.445 74.17 107.38 73.735 104.9C73.195 101.865 70.375 99.67 69.78 97.435C68.67 93.26 68.81 89.24 67.5 88.98C66.105 88.7 65.79 92.64 64.73 97.045C64.2 99.26 61.435 101.5 60.98 104.545C60.615 107 62.565 109.99 62.245 112.85C61.96 115.41 59.39 117.85 59.14 120.65C58.905 123.265 60.99 126.15 60.785 128.885C60.585 131.545 58.09 134.08 57.915 136.78C57.74 139.48 59.915 142.31 59.75 144.975C59.585 147.64 57.15 150.29 57.025 152.92C56.89 155.7 59.085 158.505 58.98 161.085C58.86 163.945 56.445 166.585 56.355 169.085C56.245 172.115 58.475 174.915 58.405 177.225C58.255 182.225 55.96 181.2 55.905 185.225L56.5 185.25Z" fill="#407BFF"/>
<path id="Vector_46" d="M66.9851 97.01V184.12" stroke="#263238" stroke-width="0.5" stroke-miterlimit="10"/>
<path id="Vector_47" d="M70.7951 106.145L66.8201 109.575L63.5701 105.24" stroke="#263238" stroke-width="0.5" stroke-miterlimit="10"/>
<path id="Vector_48" d="M70.7951 121.305L66.8201 124.735L63.5701 120.405" stroke="#263238" stroke-width="0.5" stroke-miterlimit="10"/>
<path id="Vector_49" d="M70.7951 135.565L66.8201 138.995L63.5701 134.665" stroke="#263238" stroke-width="0.5" stroke-miterlimit="10"/>
<path id="Vector_50" d="M70.7951 152.535L66.8201 155.965L63.5701 151.63" stroke="#263238" stroke-width="0.5" stroke-miterlimit="10"/>
<path id="Vector_51" d="M70.7951 169.68L66.8201 173.11L63.5701 168.78" stroke="#263238" stroke-width="0.5" stroke-miterlimit="10"/>
<path id="Vector_52" d="M41.745 189.065H59.805C59.46 186.855 58.04 187.245 57.85 183.82C57.755 182.095 59.35 179.965 59.215 177.7C59.1 175.835 57.26 173.92 57.12 171.785C56.99 169.86 58.56 167.725 58.405 165.65C58.265 163.685 56.405 161.805 56.235 159.765C56.065 157.725 57.61 155.615 57.43 153.605C57.25 151.595 55.35 149.745 55.15 147.765C54.95 145.785 56.43 143.53 56.2 141.58C55.96 139.51 54.005 137.72 53.74 135.815C53.445 133.69 54.83 131.42 54.505 129.585C54.11 127.34 52.005 125.715 51.58 124.055C50.76 120.97 50.86 117.99 49.895 117.795C48.93 117.6 48.625 120.51 47.84 123.77C47.445 125.41 45.4 127.07 45.065 129.315C44.795 131.14 46.24 133.35 46.005 135.465C45.79 137.36 43.885 139.18 43.7 141.24C43.525 143.18 45.07 145.315 44.92 147.34C44.77 149.365 42.92 151.185 42.795 153.185C42.67 155.185 44.265 157.28 44.155 159.255C44.045 161.23 42.23 163.19 42.155 165.135C42.055 167.195 43.655 169.27 43.6 171.18C43.515 173.295 41.725 175.235 41.66 177.085C41.58 179.335 43.23 181.405 43.16 183.115C43.05 186.83 41.35 186.06 41.29 189.045L41.745 189.065Z" fill="#407BFF"/>
<path id="Vector_53" opacity="0.5" d="M41.745 189.065H59.805C59.46 186.855 58.04 187.245 57.85 183.82C57.755 182.095 59.35 179.965 59.215 177.7C59.1 175.835 57.26 173.92 57.12 171.785C56.99 169.86 58.56 167.725 58.405 165.65C58.265 163.685 56.405 161.805 56.235 159.765C56.065 157.725 57.61 155.615 57.43 153.605C57.25 151.595 55.35 149.745 55.15 147.765C54.95 145.785 56.43 143.53 56.2 141.58C55.96 139.51 54.005 137.72 53.74 135.815C53.445 133.69 54.83 131.42 54.505 129.585C54.11 127.34 52.005 125.715 51.58 124.055C50.76 120.97 50.86 117.99 49.895 117.795C48.93 117.6 48.625 120.51 47.84 123.77C47.445 125.41 45.4 127.07 45.065 129.315C44.795 131.14 46.24 133.35 46.005 135.465C45.79 137.36 43.885 139.18 43.7 141.24C43.525 143.18 45.07 145.315 44.92 147.34C44.77 149.365 42.92 151.185 42.795 153.185C42.67 155.185 44.265 157.28 44.155 159.255C44.045 161.23 42.23 163.19 42.155 165.135C42.055 167.195 43.655 169.27 43.6 171.18C43.515 173.295 41.725 175.235 41.66 177.085C41.58 179.335 43.23 181.405 43.16 183.115C43.05 186.83 41.35 186.06 41.29 189.045L41.745 189.065Z" fill="white"/>
<path id="Vector_54" d="M49.5 123.735V188.23" stroke="#263238" stroke-width="0.5" stroke-miterlimit="10"/>
<path id="Vector_55" d="M52.3201 130.495L49.3801 133.035L46.9751 129.825" stroke="#263238" stroke-width="0.5" stroke-miterlimit="10"/>
<path id="Vector_56" d="M52.3201 141.72L49.3801 144.26L46.9751 141.05" stroke="#263238" stroke-width="0.5" stroke-miterlimit="10"/>
<path id="Vector_57" d="M52.3201 152.28L49.3801 154.82L46.9751 151.61" stroke="#263238" stroke-width="0.5" stroke-miterlimit="10"/>
<path id="Vector_58" d="M52.3201 164.84L49.3801 167.38L46.9751 164.175" stroke="#263238" stroke-width="0.5" stroke-miterlimit="10"/>
<path id="Vector_59" d="M52.3201 177.535L49.3801 180.075L46.9751 176.87" stroke="#263238" stroke-width="0.5" stroke-miterlimit="10"/>
<path id="Vector_60" d="M180.65 202.035H205.045C204.575 199.035 202.66 199.575 202.405 194.955C202.275 192.625 204.43 189.745 204.245 186.685C204.09 184.185 201.605 181.585 201.415 178.685C201.24 176.085 203.36 173.185 203.155 170.395C202.96 167.745 200.44 165.205 200.22 162.45C200 159.695 202.08 156.845 201.835 154.13C201.59 151.415 199.025 148.92 198.755 146.24C198.485 143.56 200.485 140.525 200.175 137.89C199.85 135.09 197.21 132.675 196.855 130.1C196.455 127.23 198.325 124.165 197.885 121.69C197.35 118.655 194.525 116.46 193.93 114.22C192.825 110.05 192.965 106.03 191.655 105.765C190.26 105.49 189.94 109.43 188.885 113.835C188.35 116.045 185.59 118.29 185.135 121.335C184.77 123.795 186.72 126.785 186.4 129.64C186.115 132.2 183.54 134.64 183.29 137.44C183.055 140.06 185.145 142.94 184.94 145.68C184.74 148.335 182.245 150.87 182.07 153.57C181.895 156.27 184.07 159.1 183.905 161.77C183.74 164.44 181.305 167.08 181.175 169.71C181.045 172.49 183.24 175.3 183.13 177.88C183.015 180.735 180.595 183.38 180.51 185.88C180.4 188.915 182.63 191.715 182.56 194.025C182.41 199.025 180.115 198 180.035 202.025L180.65 202.035Z" fill="#407BFF"/>
<path id="Vector_61" d="M191.125 113.8V200.91" stroke="#263238" stroke-width="0.5" stroke-miterlimit="10"/>
<path id="Vector_62" d="M194.93 122.93L190.96 126.36L187.71 122.03" stroke="#263238" stroke-width="0.5" stroke-miterlimit="10"/>
<path id="Vector_63" d="M194.93 138.095L190.96 141.525L187.71 137.19" stroke="#263238" stroke-width="0.5" stroke-miterlimit="10"/>
<path id="Vector_64" d="M194.93 152.355L190.96 155.78L187.71 151.45" stroke="#263238" stroke-width="0.5" stroke-miterlimit="10"/>
<path id="Vector_65" d="M194.93 169.32L190.96 172.75L187.71 168.42" stroke="#263238" stroke-width="0.5" stroke-miterlimit="10"/>
<path id="Vector_66" d="M194.93 186.47L190.96 189.9L187.71 185.565" stroke="#263238" stroke-width="0.5" stroke-miterlimit="10"/>
</g>
<g id="freepik--Sign--inject-479">
<path id="Vector_67" d="M89.4973 132.339L86.439 132.237L84.6023 187.312L87.6606 187.414L89.4973 132.339Z" fill="#263238" stroke="#263238" stroke-width="0.5" stroke-linecap="round" stroke-linejoin="round"/>
<path id="Vector_68" d="M101.885 116.885L100.22 117.285V122.795L102.065 123.335L101.885 116.885Z" fill="#407BFF" stroke="#263238" stroke-width="0.5" stroke-linecap="round" stroke-linejoin="round"/>
<path id="Vector_69" d="M69.6099 113.845L69.6899 132.52L100.66 135.73L100.365 141.64L111.77 131.855L101.885 116.885L101.86 122.8L69.6099 113.845Z" fill="#263238" stroke="#263238" stroke-width="0.5" stroke-linecap="round" stroke-linejoin="round"/>
<path id="Vector_70" d="M69.6099 113.845L67.1099 114.125L67.4249 133.34L69.6899 132.52L69.6099 113.845Z" fill="#407BFF" stroke="#263238" stroke-width="0.5" stroke-linecap="round" stroke-linejoin="round"/>
<path id="Vector_71" d="M67.4248 133.34L99.2498 136.49L100.66 135.73L69.6898 132.52L67.4248 133.34Z" fill="#407BFF" stroke="#263238" stroke-width="0.5" stroke-linecap="round" stroke-linejoin="round"/>
<path id="Vector_72" d="M99.2499 136.49L99.1699 141.705L100.365 141.64L100.66 135.73L99.2499 136.49Z" fill="#407BFF" stroke="#263238" stroke-width="0.5" stroke-linecap="round" stroke-linejoin="round"/>
</g>
<g id="freepik--Floor--inject-479">
<g id="Vector_73">
<path d="M38.0249 189.945C38.0249 189.945 81.1149 168.69 146.635 179.54C197.97 188.04 214.87 210 214.87 210" fill="white"/>
<path d="M38.0249 189.945C38.0249 189.945 81.1149 168.69 146.635 179.54C197.97 188.04 214.87 210 214.87 210" stroke="#263238" stroke-width="0.5" stroke-linecap="round" stroke-linejoin="round"/>
</g>
<path id="Vector_74" d="M111.725 180.525L103.65 177.26C63.7499 179.26 38.7499 191.76 38.7499 191.76L35.4999 192.5C32.8583 193.718 30.3054 195.12 27.8599 196.695L39.7199 196.885L60.0449 195.56L45.4599 200.85L59.5949 197.755L82.9999 196.87L69.3049 193.34L90.4999 191.13L70.6199 191.57L86.6199 188.305L107.31 184.945L99.8099 184.5L101.665 183.885L111.725 180.525Z" fill="#407BFF"/>
<path id="Vector_75" d="M162 183.75L166.5 186.5L155.5 186.25L160.5 189L157.5 190L164.75 193.5L157.75 194.5L164.5 200L127.25 200.25L137.75 204.25L133.75 206L159.25 210L187 217L175.25 210.5C175.25 210.5 202 217.75 203 218.25C204 218.75 209.75 221 210.5 221.25C211.25 221.5 201.5 213.75 201.5 213.75L211.5 216.25L201.5 205L206 205.5L202.75 202.75L209.25 205.5C209.25 205.5 191.25 191 162 183.75Z" fill="#407BFF"/>
</g>
</g>
</svg>
