<svg width="250" height="251" viewBox="0 0 250 251" fill="none" xmlns="http://www.w3.org/2000/svg">
<g id="People search-bro 1">
<g id="freepik--background-simple--inject-201">
<path id="Vector" d="M37.3999 112.175C37.3999 112.175 34.3449 146.23 59.8999 171.915C85.4549 197.6 124.5 203.465 156 209.055C187.5 214.645 214.075 199.3 221.08 172.49C228.085 145.68 204.785 135.08 195.4 102.7C186.015 70.32 188.43 60.265 162.9 38.2C137.37 16.135 92.3449 23.13 65.4999 53.3C38.6549 83.47 37.3999 112.175 37.3999 112.175Z" fill="#4696E6"/>
<path id="Vector_2" opacity="0.7" d="M37.3999 112.175C37.3999 112.175 34.3449 146.23 59.8999 171.915C85.4549 197.6 124.5 203.465 156 209.055C187.5 214.645 214.075 199.3 221.08 172.49C228.085 145.68 204.785 135.08 195.4 102.7C186.015 70.32 188.43 60.265 162.9 38.2C137.37 16.135 92.3449 23.13 65.4999 53.3C38.6549 83.47 37.3999 112.175 37.3999 112.175Z" fill="white"/>
</g>
<g id="freepik--Floor--inject-201">
<path id="Vector_3" d="M229 217.17C229 218.435 184 219.465 128.5 219.465C73 219.465 28 218.435 28 217.17C28 215.905 73 214.875 128.5 214.875C184 214.875 229 215.9 229 217.17Z" fill="#4696E6"/>
<path id="Vector_4" opacity="0.6" d="M229 217.17C229 218.435 184 219.465 128.5 219.465C73 219.465 28 218.435 28 217.17C28 215.905 73 214.875 128.5 214.875C184 214.875 229 215.9 229 217.17Z" fill="white"/>
</g>
<g id="freepik--Plants--inject-201">
<path id="Vector_5" d="M192.84 137.255C192.81 137.255 193.175 135.445 193.21 135.33C193.63 134.04 195.21 131.785 196.71 131.79C196.963 131.798 197.211 131.858 197.438 131.968C197.666 132.077 197.868 132.234 198.031 132.427C198.194 132.62 198.315 132.845 198.386 133.087C198.456 133.33 198.475 133.585 198.44 133.835C198.33 134.905 197.37 135.835 196.5 136.335C195.5 136.96 192.84 137.255 192.84 137.255Z" fill="#4696E6"/>
<path id="Vector_6" d="M189.89 125.06C191.325 125.56 192.035 128.225 191.99 129.56C191.99 129.675 191.715 131.505 191.69 131.495H191.66C191.78 131.91 191.895 132.36 192.015 132.855C192.23 133.765 192.465 134.8 192.645 135.94C192.854 137.169 192.989 138.41 193.05 139.655C193.129 141.048 193.082 142.445 192.91 143.83C192.912 143.847 192.912 143.863 192.91 143.88C193.1 143.475 193.66 142.38 193.715 142.28C194.46 141.14 196.57 139.385 198.035 139.78C198.277 139.854 198.5 139.978 198.691 140.143C198.882 140.309 199.036 140.514 199.142 140.743C199.249 140.972 199.306 141.221 199.31 141.474C199.314 141.727 199.264 141.978 199.165 142.21C198.78 143.21 197.61 143.84 196.635 144.115C195.535 144.43 193.08 144.06 192.885 144.03C192.675 145.433 192.372 146.821 191.98 148.185C191.755 148.98 191.505 149.775 191.24 150.57C191.415 150.225 191.57 149.92 191.6 149.88C192.345 148.745 194.455 146.985 195.92 147.38C196.162 147.454 196.385 147.578 196.576 147.743C196.767 147.909 196.921 148.114 197.027 148.343C197.134 148.572 197.191 148.821 197.195 149.074C197.199 149.327 197.149 149.578 197.05 149.81C196.66 150.81 195.495 151.44 194.52 151.715C193.545 151.99 191.43 151.715 190.875 151.645L190.565 152.555C190.065 154.01 189.565 155.46 189.1 156.895C188.94 157.395 188.8 157.895 188.66 158.395C188.81 158.09 188.945 157.83 188.97 157.795C189.715 156.66 191.825 154.9 193.29 155.295C193.532 155.369 193.755 155.493 193.946 155.658C194.137 155.824 194.291 156.029 194.397 156.258C194.504 156.487 194.561 156.736 194.565 156.989C194.569 157.242 194.519 157.493 194.42 157.725C194.03 158.725 192.865 159.355 191.89 159.63C190.915 159.905 189.005 159.665 188.345 159.575C188.215 160.075 188.085 160.615 187.985 161.125C187.92 161.475 187.84 161.81 187.795 162.165C187.75 162.52 187.695 162.86 187.65 163.205C187.58 163.87 187.505 164.555 187.455 165.205C187.415 165.66 187.385 166.09 187.355 166.525C187.51 166.025 187.855 165.025 187.855 164.96C188.392 163.89 189.194 162.976 190.185 162.305C190.24 162.185 190.305 162.069 190.38 161.96C190.518 161.748 190.698 161.567 190.911 161.429C191.123 161.291 191.362 161.199 191.612 161.16C191.862 161.121 192.118 161.135 192.362 161.201C192.606 161.268 192.834 161.385 193.03 161.545C194.18 162.545 193.895 165.27 193.365 166.52C193.335 166.595 192.905 167.36 192.625 167.835C192.83 167.58 193.03 167.335 193.245 167.07C193.67 166.57 194.105 166.07 194.575 165.505L195.285 164.73C195.52 164.465 195.785 164.23 196.055 163.96C196.665 163.37 197.31 162.805 197.975 162.245C197.52 161.875 195.93 160.535 195.475 159.62C195.02 158.705 194.695 157.43 195.17 156.47C195.273 156.239 195.424 156.032 195.613 155.864C195.802 155.695 196.025 155.569 196.266 155.492C196.507 155.416 196.762 155.391 197.013 155.42C197.265 155.449 197.507 155.531 197.725 155.66C199.015 156.465 199.145 159.21 198.81 160.525C198.81 160.61 198.445 161.525 198.245 162.025C198.645 161.69 199.045 161.36 199.46 161.025C200.665 160.095 201.91 159.195 203.15 158.285C203.53 158.01 203.905 157.725 204.285 157.445C204.12 157.315 202.195 155.76 201.685 154.74C201.23 153.835 200.905 152.55 201.38 151.585C201.485 151.355 201.636 151.15 201.825 150.982C202.014 150.814 202.237 150.688 202.477 150.612C202.718 150.536 202.972 150.511 203.223 150.539C203.475 150.567 203.717 150.647 203.935 150.775C205.225 151.585 205.355 154.33 205.02 155.645C204.995 155.745 204.495 157.065 204.35 157.395C205.18 156.78 206 156.155 206.785 155.51C207.843 154.639 208.845 153.702 209.785 152.705C209.705 152.645 207.695 151.03 207.17 149.985C206.715 149.075 206.385 147.795 206.865 146.83C206.97 146.6 207.121 146.395 207.31 146.227C207.499 146.059 207.722 145.933 207.962 145.857C208.203 145.781 208.457 145.756 208.708 145.784C208.96 145.812 209.202 145.892 209.42 146.02C210.71 146.83 210.835 149.57 210.505 150.89C210.48 150.975 210.1 151.985 209.91 152.46L209.985 152.505C210.904 151.473 211.731 150.362 212.455 149.185C212.86 148.54 213.215 147.905 213.545 147.275C213.135 147.015 211.295 145.775 210.72 144.905C210.145 144.035 209.72 142.815 210.07 141.805C210.148 141.565 210.276 141.343 210.445 141.156C210.615 140.968 210.822 140.818 211.053 140.716C211.284 140.613 211.534 140.561 211.787 140.562C212.04 140.562 212.289 140.616 212.52 140.72C213.89 141.385 214.32 144.095 214.135 145.44C214.135 145.515 213.935 146.245 213.795 146.78C213.94 146.495 214.09 146.2 214.225 145.925C214.725 144.89 215.12 143.925 215.465 143.035C215.655 142.535 215.815 142.085 215.965 141.66C215.7 141.195 214.66 139.31 214.56 138.275C214.46 137.24 214.62 135.95 215.41 135.225C215.59 135.047 215.805 134.909 216.042 134.819C216.279 134.73 216.532 134.692 216.784 134.708C217.037 134.724 217.284 134.792 217.508 134.91C217.732 135.027 217.929 135.191 218.085 135.39C219 136.61 218.13 139.21 217.345 140.32C217.275 140.415 216.04 141.795 216.025 141.77V141.74C215.89 142.155 215.74 142.595 215.57 143.07C215.245 143.95 214.87 144.945 214.39 145.995C213.885 147.134 213.314 148.243 212.68 149.315C211.977 150.519 211.167 151.657 210.26 152.715L210.225 152.755C210.605 152.52 211.69 151.9 211.78 151.865C213.025 151.325 215.755 151.025 216.755 152.17C216.916 152.365 217.034 152.591 217.102 152.835C217.17 153.078 217.186 153.333 217.149 153.583C217.111 153.833 217.022 154.072 216.886 154.286C216.75 154.499 216.571 154.681 216.36 154.82C215.48 155.445 214.165 155.32 213.195 155.015C212.105 154.67 210.26 153.015 210.115 152.87C209.166 153.927 208.147 154.919 207.065 155.84C206.44 156.38 205.79 156.905 205.135 157.425C205.47 157.23 205.77 157.06 205.815 157.045C207.065 156.505 209.815 156.205 210.815 157.35C210.976 157.545 211.094 157.772 211.161 158.015C211.229 158.259 211.244 158.514 211.206 158.764C211.169 159.014 211.079 159.254 210.942 159.466C210.806 159.679 210.626 159.861 210.415 160C209.535 160.625 208.22 160.5 207.25 160.195C206.28 159.89 204.67 158.495 204.25 158.125L203.5 158.8C202.28 159.735 201.055 160.66 199.885 161.61C199.47 161.945 199.075 162.285 198.68 162.61L199.27 162.28C200.52 161.745 203.27 161.44 204.27 162.59C204.431 162.785 204.549 163.012 204.616 163.255C204.684 163.499 204.699 163.754 204.661 164.004C204.624 164.254 204.534 164.494 204.397 164.706C204.261 164.919 204.081 165.101 203.87 165.24C202.995 165.86 201.675 165.74 200.71 165.43C199.745 165.12 198.28 163.87 197.785 163.43C197.39 163.79 196.99 164.155 196.625 164.525C196.38 164.78 196.125 165.025 195.895 165.285L195.2 166.075C194.775 166.575 194.335 167.12 193.935 167.635C193.65 167.99 193.39 168.335 193.125 168.68C193.53 168.345 194.345 167.705 194.415 167.68C195.57 166.96 198.22 166.25 199.385 167.23C199.573 167.399 199.724 167.606 199.827 167.838C199.93 168.069 199.983 168.319 199.983 168.573C199.983 168.826 199.93 169.076 199.827 169.307C199.724 169.539 199.573 169.746 199.385 169.915C198.615 170.66 197.295 170.74 196.29 170.58C195.185 170.41 193.185 169.105 192.935 168.945C192.5 169.515 192.08 170.08 191.695 170.615C190.35 172.475 189.3 174.075 188.58 175.205L188.51 175.32L187.58 174.87C187.625 174.795 187.675 174.725 187.725 174.645C188.475 173.52 189.57 171.93 190.97 170.08C191.41 169.495 191.895 168.88 192.395 168.25C191.876 167.684 191.394 167.086 190.95 166.46C189.88 166.88 187.655 166.9 187.365 166.9C187.32 167.62 187.28 168.32 187.255 168.98C187.155 171.275 187.165 173.185 187.185 174.525C187.185 174.58 187.185 174.63 187.185 174.68L186.16 174.18C186.16 172.85 186.21 171.055 186.345 168.93C186.39 168.195 186.455 167.43 186.525 166.615C186.245 166.545 183.925 165.95 183.055 165.25C182.185 164.55 181.425 163.59 181.455 162.515C181.453 162.26 181.504 162.008 181.607 161.775C181.709 161.542 181.86 161.333 182.049 161.163C182.238 160.992 182.461 160.863 182.703 160.785C182.946 160.707 183.202 160.682 183.455 160.71C184.955 160.905 186.23 163.34 186.48 164.675C186.48 164.755 186.56 165.63 186.59 166.175C186.62 165.85 186.645 165.53 186.68 165.175C186.75 164.51 186.835 163.845 186.925 163.135C186.98 162.79 187.04 162.445 187.095 162.095C187.15 161.745 187.24 161.385 187.31 161.03C187.495 160.2 187.72 159.375 187.965 158.53C187.385 158.47 185.32 158.225 184.435 157.715C183.55 157.205 182.575 156.32 182.435 155.255C182.395 155.005 182.407 154.75 182.472 154.505C182.537 154.261 182.653 154.033 182.812 153.836C182.971 153.64 183.17 153.479 183.395 153.364C183.62 153.249 183.867 153.183 184.12 153.17C185.62 153.135 187.26 155.35 187.71 156.63C187.74 156.71 187.955 157.67 188.065 158.195C188.215 157.695 188.365 157.195 188.535 156.695C189.035 155.255 189.57 153.81 190.1 152.37C190.265 151.93 190.425 151.485 190.6 151.045C190.39 151.045 187.93 150.79 186.94 150.22C186.06 149.72 185.08 148.825 184.94 147.76C184.9 147.51 184.912 147.255 184.977 147.01C185.042 146.766 185.158 146.538 185.317 146.341C185.476 146.145 185.675 145.984 185.9 145.869C186.125 145.754 186.372 145.688 186.625 145.675C188.125 145.635 189.765 147.855 190.215 149.135C190.25 149.235 190.56 150.61 190.62 150.965C190.975 149.995 191.315 149.02 191.62 148.05C192.031 146.74 192.353 145.403 192.585 144.05C192.49 144.05 189.92 143.805 188.905 143.22C188.025 142.72 187.045 141.825 186.905 140.76C186.865 140.51 186.877 140.255 186.942 140.01C187.007 139.766 187.123 139.538 187.282 139.341C187.441 139.145 187.64 138.984 187.865 138.869C188.09 138.754 188.337 138.688 188.59 138.675C190.115 138.64 191.735 140.855 192.18 142.135C192.21 142.22 192.45 143.27 192.55 143.77H192.64C192.838 142.403 192.915 141.021 192.87 139.64C192.87 138.88 192.795 138.14 192.725 137.445C192.225 137.445 190.035 137.445 189.06 137.03C188.085 136.615 187.06 135.845 186.81 134.8C186.743 134.557 186.728 134.302 186.765 134.052C186.803 133.802 186.893 133.563 187.03 133.35C187.166 133.138 187.345 132.956 187.557 132.817C187.768 132.679 188.006 132.586 188.255 132.545C189.755 132.34 191.615 134.365 192.205 135.59C192.235 135.655 192.485 136.37 192.66 136.895C192.62 136.575 192.59 136.245 192.545 135.945C192.39 134.8 192.18 133.765 191.985 132.85C191.87 132.35 191.755 131.85 191.645 131.43C191.145 131.185 189.26 130.185 188.605 129.38C187.95 128.575 187.375 127.38 187.63 126.38C187.686 126.142 187.79 125.917 187.936 125.72C188.081 125.524 188.265 125.358 188.477 125.235C188.688 125.111 188.922 125.032 189.165 125.002C189.408 124.972 189.655 124.992 189.89 125.06Z" fill="#4696E6"/>
<path id="Vector_7" d="M217.41 148.525C216.22 148.475 213.84 147.255 213.84 147.255C213.84 147.255 215.12 145.93 215.21 145.86C216.275 145.01 218.825 144 220.095 144.86C220.301 145.007 220.474 145.195 220.603 145.412C220.732 145.63 220.814 145.872 220.843 146.123C220.873 146.374 220.85 146.628 220.775 146.87C220.7 147.111 220.576 147.335 220.41 147.525C219.725 148.335 218.425 148.565 217.41 148.525Z" fill="#4696E6"/>
<g id="Group" opacity="0.5">
<path id="Vector_8" d="M192.84 137.255C192.81 137.255 193.175 135.445 193.21 135.33C193.63 134.04 195.21 131.785 196.71 131.79C196.962 131.798 197.211 131.858 197.438 131.968C197.666 132.077 197.868 132.234 198.031 132.427C198.194 132.62 198.315 132.845 198.385 133.087C198.456 133.33 198.474 133.585 198.44 133.835C198.33 134.905 197.37 135.835 196.5 136.335C195.5 136.96 192.84 137.255 192.84 137.255Z" fill="white"/>
<path id="Vector_9" d="M189.89 125.06C191.325 125.56 192.035 128.225 191.99 129.56C191.99 129.675 191.715 131.505 191.69 131.495H191.66C191.78 131.91 191.895 132.36 192.015 132.855C192.23 133.765 192.465 134.8 192.645 135.94C192.854 137.169 192.989 138.41 193.05 139.655C193.129 141.048 193.082 142.445 192.91 143.83C192.912 143.847 192.912 143.863 192.91 143.88C193.1 143.475 193.66 142.38 193.715 142.28C194.46 141.14 196.57 139.385 198.035 139.78C198.277 139.854 198.5 139.978 198.691 140.143C198.882 140.309 199.036 140.514 199.142 140.743C199.249 140.972 199.306 141.221 199.31 141.474C199.314 141.727 199.264 141.978 199.165 142.21C198.78 143.21 197.61 143.84 196.635 144.115C195.535 144.43 193.08 144.06 192.885 144.03C192.675 145.433 192.372 146.821 191.98 148.185C191.755 148.98 191.505 149.775 191.24 150.57C191.415 150.225 191.57 149.92 191.6 149.88C192.345 148.745 194.455 146.985 195.92 147.38C196.162 147.454 196.385 147.578 196.576 147.743C196.767 147.909 196.921 148.114 197.027 148.343C197.134 148.572 197.191 148.821 197.195 149.074C197.199 149.327 197.149 149.578 197.05 149.81C196.66 150.81 195.495 151.44 194.52 151.715C193.545 151.99 191.43 151.715 190.875 151.645L190.565 152.555C190.065 154.01 189.565 155.46 189.1 156.895C188.94 157.395 188.8 157.895 188.66 158.395C188.81 158.09 188.945 157.83 188.97 157.795C189.715 156.66 191.825 154.9 193.29 155.295C193.532 155.369 193.755 155.493 193.946 155.658C194.137 155.824 194.291 156.029 194.397 156.258C194.504 156.487 194.561 156.736 194.565 156.989C194.569 157.242 194.519 157.493 194.42 157.725C194.03 158.725 192.865 159.355 191.89 159.63C190.915 159.905 189.005 159.665 188.345 159.575C188.215 160.075 188.085 160.615 187.985 161.125C187.92 161.475 187.84 161.81 187.795 162.165C187.75 162.52 187.695 162.86 187.65 163.205C187.58 163.87 187.505 164.555 187.455 165.205C187.415 165.66 187.385 166.09 187.355 166.525C187.51 166.025 187.855 165.025 187.855 164.96C188.392 163.89 189.194 162.976 190.185 162.305C190.24 162.185 190.305 162.069 190.38 161.96C190.518 161.748 190.698 161.567 190.911 161.429C191.123 161.291 191.362 161.199 191.612 161.16C191.862 161.121 192.118 161.135 192.362 161.201C192.606 161.268 192.834 161.385 193.03 161.545C194.18 162.545 193.895 165.27 193.365 166.52C193.335 166.595 192.905 167.36 192.625 167.835C192.83 167.58 193.03 167.335 193.245 167.07C193.67 166.57 194.105 166.07 194.575 165.505L195.285 164.73C195.52 164.465 195.785 164.23 196.055 163.96C196.665 163.37 197.31 162.805 197.975 162.245C197.52 161.875 195.93 160.535 195.475 159.62C195.02 158.705 194.695 157.43 195.17 156.47C195.273 156.239 195.424 156.032 195.613 155.864C195.802 155.695 196.025 155.569 196.266 155.492C196.507 155.416 196.762 155.391 197.013 155.42C197.265 155.449 197.507 155.531 197.725 155.66C199.015 156.465 199.145 159.21 198.81 160.525C198.81 160.61 198.445 161.525 198.245 162.025C198.645 161.69 199.045 161.36 199.46 161.025C200.665 160.095 201.91 159.195 203.15 158.285C203.53 158.01 203.905 157.725 204.285 157.445C204.12 157.315 202.195 155.76 201.685 154.74C201.23 153.835 200.905 152.55 201.38 151.585C201.485 151.355 201.636 151.15 201.825 150.982C202.014 150.814 202.237 150.688 202.477 150.612C202.718 150.536 202.972 150.511 203.223 150.539C203.475 150.567 203.717 150.647 203.935 150.775C205.225 151.585 205.355 154.33 205.02 155.645C204.995 155.745 204.495 157.065 204.35 157.395C205.18 156.78 206 156.155 206.785 155.51C207.843 154.639 208.845 153.702 209.785 152.705C209.705 152.645 207.695 151.03 207.17 149.985C206.715 149.075 206.385 147.795 206.865 146.83C206.97 146.6 207.121 146.395 207.31 146.227C207.499 146.059 207.722 145.933 207.962 145.857C208.203 145.781 208.457 145.756 208.708 145.784C208.96 145.812 209.202 145.892 209.42 146.02C210.71 146.83 210.835 149.57 210.505 150.89C210.48 150.975 210.1 151.985 209.91 152.46L209.985 152.505C210.904 151.473 211.731 150.362 212.455 149.185C212.86 148.54 213.215 147.905 213.545 147.275C213.135 147.015 211.295 145.775 210.72 144.905C210.145 144.035 209.72 142.815 210.07 141.805C210.148 141.565 210.276 141.343 210.445 141.156C210.615 140.968 210.822 140.818 211.053 140.716C211.284 140.613 211.534 140.561 211.787 140.562C212.04 140.562 212.289 140.616 212.52 140.72C213.89 141.385 214.32 144.095 214.135 145.44C214.135 145.515 213.935 146.245 213.795 146.78C213.94 146.495 214.09 146.2 214.225 145.925C214.725 144.89 215.12 143.925 215.465 143.035C215.655 142.535 215.815 142.085 215.965 141.66C215.7 141.195 214.66 139.31 214.56 138.275C214.46 137.24 214.62 135.95 215.41 135.225C215.59 135.047 215.805 134.909 216.042 134.819C216.279 134.73 216.532 134.692 216.784 134.708C217.037 134.724 217.284 134.792 217.508 134.91C217.732 135.027 217.929 135.191 218.085 135.39C219 136.61 218.13 139.21 217.345 140.32C217.275 140.415 216.04 141.795 216.025 141.77V141.74C215.89 142.155 215.74 142.595 215.57 143.07C215.245 143.95 214.87 144.945 214.39 145.995C213.885 147.134 213.314 148.243 212.68 149.315C211.977 150.519 211.167 151.657 210.26 152.715L210.225 152.755C210.605 152.52 211.69 151.9 211.78 151.865C213.025 151.325 215.755 151.025 216.755 152.17C216.916 152.365 217.034 152.591 217.102 152.835C217.17 153.078 217.186 153.333 217.149 153.583C217.111 153.833 217.022 154.072 216.886 154.286C216.75 154.499 216.571 154.681 216.36 154.82C215.48 155.445 214.165 155.32 213.195 155.015C212.105 154.67 210.26 153.015 210.115 152.87C209.166 153.927 208.147 154.919 207.065 155.84C206.44 156.38 205.79 156.905 205.135 157.425C205.47 157.23 205.77 157.06 205.815 157.045C207.065 156.505 209.815 156.205 210.815 157.35C210.976 157.545 211.094 157.772 211.161 158.015C211.229 158.259 211.244 158.514 211.206 158.764C211.169 159.014 211.079 159.254 210.942 159.466C210.806 159.679 210.626 159.861 210.415 160C209.535 160.625 208.22 160.5 207.25 160.195C206.28 159.89 204.67 158.495 204.25 158.125L203.5 158.8C202.28 159.735 201.055 160.66 199.885 161.61C199.47 161.945 199.075 162.285 198.68 162.61L199.27 162.28C200.52 161.745 203.27 161.44 204.27 162.59C204.431 162.785 204.549 163.012 204.616 163.255C204.684 163.499 204.699 163.754 204.661 164.004C204.624 164.254 204.534 164.494 204.397 164.706C204.261 164.919 204.081 165.101 203.87 165.24C202.995 165.86 201.675 165.74 200.71 165.43C199.745 165.12 198.28 163.87 197.785 163.43C197.39 163.79 196.99 164.155 196.625 164.525C196.38 164.78 196.125 165.025 195.895 165.285L195.2 166.075C194.775 166.575 194.335 167.12 193.935 167.635C193.65 167.99 193.39 168.335 193.125 168.68C193.53 168.345 194.345 167.705 194.415 167.68C195.57 166.96 198.22 166.25 199.385 167.23C199.573 167.399 199.724 167.606 199.827 167.838C199.93 168.069 199.983 168.319 199.983 168.573C199.983 168.826 199.93 169.076 199.827 169.307C199.724 169.539 199.573 169.746 199.385 169.915C198.615 170.66 197.295 170.74 196.29 170.58C195.185 170.41 193.185 169.105 192.935 168.945C192.5 169.515 192.08 170.08 191.695 170.615C190.35 172.475 189.3 174.075 188.58 175.205L188.51 175.32L187.58 174.87C187.625 174.795 187.675 174.725 187.725 174.645C188.475 173.52 189.57 171.93 190.97 170.08C191.41 169.495 191.895 168.88 192.395 168.25C191.876 167.684 191.394 167.086 190.95 166.46C189.88 166.88 187.655 166.9 187.365 166.9C187.32 167.62 187.28 168.32 187.255 168.98C187.155 171.275 187.165 173.185 187.185 174.525C187.185 174.58 187.185 174.63 187.185 174.68L186.16 174.18C186.16 172.85 186.21 171.055 186.345 168.93C186.39 168.195 186.455 167.43 186.525 166.615C186.245 166.545 183.925 165.95 183.055 165.25C182.185 164.55 181.425 163.59 181.455 162.515C181.453 162.26 181.504 162.008 181.607 161.775C181.709 161.542 181.86 161.333 182.049 161.163C182.238 160.992 182.461 160.863 182.703 160.785C182.946 160.707 183.202 160.682 183.455 160.71C184.955 160.905 186.23 163.34 186.48 164.675C186.48 164.755 186.56 165.63 186.59 166.175C186.62 165.85 186.645 165.53 186.68 165.175C186.75 164.51 186.835 163.845 186.925 163.135C186.98 162.79 187.04 162.445 187.095 162.095C187.15 161.745 187.24 161.385 187.31 161.03C187.495 160.2 187.72 159.375 187.965 158.53C187.385 158.47 185.32 158.225 184.435 157.715C183.55 157.205 182.575 156.32 182.435 155.255C182.395 155.005 182.407 154.75 182.472 154.505C182.537 154.261 182.653 154.033 182.812 153.836C182.971 153.64 183.17 153.479 183.395 153.364C183.62 153.249 183.867 153.183 184.12 153.17C185.62 153.135 187.26 155.35 187.71 156.63C187.74 156.71 187.955 157.67 188.065 158.195C188.215 157.695 188.365 157.195 188.535 156.695C189.035 155.255 189.57 153.81 190.1 152.37C190.265 151.93 190.425 151.485 190.6 151.045C190.39 151.045 187.93 150.79 186.94 150.22C186.06 149.72 185.08 148.825 184.94 147.76C184.9 147.51 184.912 147.255 184.977 147.01C185.042 146.766 185.158 146.538 185.317 146.341C185.476 146.145 185.675 145.984 185.9 145.869C186.125 145.754 186.372 145.688 186.625 145.675C188.125 145.635 189.765 147.855 190.215 149.135C190.25 149.235 190.56 150.61 190.62 150.965C190.975 149.995 191.315 149.02 191.62 148.05C192.031 146.74 192.353 145.403 192.585 144.05C192.49 144.05 189.92 143.805 188.905 143.22C188.025 142.72 187.045 141.825 186.905 140.76C186.865 140.51 186.877 140.255 186.942 140.01C187.007 139.766 187.123 139.538 187.282 139.341C187.441 139.145 187.64 138.984 187.865 138.869C188.09 138.754 188.337 138.688 188.59 138.675C190.115 138.64 191.735 140.855 192.18 142.135C192.21 142.22 192.45 143.27 192.55 143.77H192.64C192.838 142.403 192.915 141.021 192.87 139.64C192.87 138.88 192.795 138.14 192.725 137.445C192.225 137.445 190.035 137.445 189.06 137.03C188.085 136.615 187.06 135.845 186.81 134.8C186.743 134.557 186.728 134.302 186.765 134.052C186.803 133.802 186.893 133.563 187.03 133.35C187.166 133.138 187.345 132.956 187.557 132.817C187.768 132.679 188.006 132.586 188.255 132.545C189.755 132.34 191.615 134.365 192.205 135.59C192.235 135.655 192.485 136.37 192.66 136.895C192.62 136.575 192.59 136.245 192.545 135.945C192.39 134.8 192.18 133.765 191.985 132.85C191.87 132.35 191.755 131.85 191.645 131.43C191.145 131.185 189.26 130.185 188.605 129.38C187.95 128.575 187.375 127.38 187.63 126.38C187.686 126.142 187.79 125.917 187.936 125.72C188.081 125.524 188.265 125.358 188.477 125.235C188.688 125.111 188.922 125.032 189.165 125.002C189.408 124.972 189.655 124.992 189.89 125.06Z" fill="white"/>
<path id="Vector_10" d="M217.41 148.525C216.22 148.475 213.84 147.255 213.84 147.255C213.84 147.255 215.12 145.93 215.21 145.86C216.275 145.01 218.825 144 220.095 144.86C220.301 145.007 220.474 145.195 220.603 145.412C220.732 145.63 220.814 145.872 220.843 146.123C220.873 146.374 220.85 146.628 220.775 146.87C220.7 147.111 220.576 147.335 220.41 147.525C219.725 148.335 218.425 148.565 217.41 148.525Z" fill="white"/>
</g>
<path id="Vector_11" d="M203.5 178.3C203.5 178.3 196.28 160.9 192.24 161.655C188.2 162.41 199.17 189.395 199.17 189.395C199.17 189.395 186.5 165.45 177.83 165.45C169.16 165.45 181.005 191.95 191.97 200.755C191.97 200.755 174.65 182.095 164.55 186.13C154.45 190.165 184.755 209.075 184.755 209.075C184.755 209.075 167.145 203.53 169.17 207.815C171.195 212.1 176.67 212.86 176.67 212.86L156.75 213.86H226.035L210.445 212.36C210.445 212.36 226.61 204.29 222.28 201.01C217.95 197.73 208.425 204.8 208.425 204.8C208.425 204.8 224.88 186.64 221.705 179.835C218.53 173.03 204.385 192.19 204.385 192.19C204.385 192.19 215.93 167.73 213.62 163.44C211.31 159.15 203.5 178.3 203.5 178.3Z" fill="#4696E6"/>
<path id="Vector_12" opacity="0.4" d="M203.5 178.3C203.5 178.3 196.28 160.9 192.24 161.655C188.2 162.41 199.17 189.395 199.17 189.395C199.17 189.395 186.5 165.45 177.83 165.45C169.16 165.45 181.005 191.95 191.97 200.755C191.97 200.755 174.65 182.095 164.55 186.13C154.45 190.165 184.755 209.075 184.755 209.075C184.755 209.075 167.145 203.53 169.17 207.815C171.195 212.1 176.67 212.86 176.67 212.86L156.75 213.86H226.035L210.445 212.36C210.445 212.36 226.61 204.29 222.28 201.01C217.95 197.73 208.425 204.8 208.425 204.8C208.425 204.8 224.88 186.64 221.705 179.835C218.53 173.03 204.385 192.19 204.385 192.19C204.385 192.19 215.93 167.73 213.62 163.44C211.31 159.15 203.5 178.3 203.5 178.3Z" fill="white"/>
<path id="Vector_13" d="M205.83 179.23C199.5 197.99 199.5 211.27 199.5 211.27C199.5 211.27 207 211.56 214.795 205.77" stroke="#263238" stroke-width="0.5" stroke-linecap="round" stroke-linejoin="round"/>
<path id="Vector_14" d="M202.655 189.33C201.345 183.72 199.607 178.219 197.455 172.875" stroke="#263238" stroke-width="0.5" stroke-linecap="round" stroke-linejoin="round"/>
<path id="Vector_15" d="M183.89 178.36L200.055 202.3C200.055 202.3 211.025 193.065 214.775 187.87" stroke="#263238" stroke-width="0.5" stroke-linecap="round" stroke-linejoin="round"/>
<path id="Vector_16" d="M199.765 208.095C199.765 208.095 182.735 200.01 175.805 195.395" stroke="#263238" stroke-width="0.5" stroke-linecap="round" stroke-linejoin="round"/>
</g>
<g id="freepik--Page--inject-201">
<path id="Vector_17" d="M110.65 53.1349L106.845 47.0649H73.335V53.1349V55.3199V161.815H211.27V53.1349H110.65Z" fill="#263238"/>
<path id="Vector_18" d="M210.36 55.9199H74.3599V159.61H210.36V55.9199Z" fill="white"/>
<g id="Clip path group">
<mask id="mask0_1077_8748" style="mask-type:luminance" maskUnits="userSpaceOnUse" x="74" y="55" width="137" height="105">
<g id="freepik--clip-path--inject-201">
<path id="Vector_19" d="M210.36 55.9199H74.3599V159.61H210.36V55.9199Z" fill="white"/>
</g>
</mask>
<g mask="url(#mask0_1077_8748)">
<g id="Group_2">
<path id="Vector_20" opacity="0.17" d="M211.025 55.0798H207.87V160.36H211.025V55.0798Z" fill="black"/>
<path id="Vector_21" opacity="0.17" d="M211.025 115.425H207.87V159.545H211.025V115.425Z" fill="black"/>
<path id="Vector_22" d="M210.54 54.5898H73.8198V65.6998H210.54V54.5898Z" fill="#4696E6"/>
<path id="Vector_23" d="M172.2 58.1299H115.405V64.4699H172.2V58.1299Z" fill="white"/>
<path id="Vector_24" d="M109.07 58.1299H100.15V64.4699H109.07V58.1299Z" fill="white"/>
<path id="Vector_25" opacity="0.3" d="M172.2 58.1299H164.795V64.4699H172.2V58.1299Z" fill="black"/>
<path id="Vector_26" d="M167.72 62.3047C168.617 62.3047 169.345 61.5772 169.345 60.6797C169.345 59.7822 168.617 59.0547 167.72 59.0547C166.822 59.0547 166.095 59.7822 166.095 60.6797C166.095 61.5772 166.822 62.3047 167.72 62.3047Z" stroke="white" stroke-width="0.5" stroke-miterlimit="10"/>
<path id="Vector_27" d="M168.875 61.8298L170.395 63.3448" stroke="white" stroke-width="0.5" stroke-linecap="round" stroke-linejoin="round"/>
<path id="Vector_28" opacity="0.3" d="M124.765 75.3848H113.04V87.1098H124.765V75.3848Z" fill="black"/>
<path id="Vector_29" d="M127.64 77.1548H137.15" stroke="#263238" stroke-linecap="round" stroke-linejoin="round"/>
<path id="Vector_30" opacity="0.3" d="M127.64 80.6899H147.55" stroke="#263238" stroke-linecap="round" stroke-linejoin="round"/>
<path id="Vector_31" opacity="0.3" d="M127.64 82.7949H155.955" stroke="#263238" stroke-linecap="round" stroke-linejoin="round"/>
<path id="Vector_32" d="M166.79 79.3647H158.165V83.1247H166.79V79.3647Z" fill="#4696E6"/>
<path id="Vector_33" opacity="0.3" d="M176.305 79.3647H167.68V83.1247H176.305V79.3647Z" fill="black"/>
<path id="Vector_34" opacity="0.3" d="M124.765 91.9749H113.04V103.7H124.765V91.9749Z" fill="black"/>
<path id="Vector_35" d="M127.64 93.7449H137.15" stroke="#263238" stroke-linecap="round" stroke-linejoin="round"/>
<path id="Vector_36" opacity="0.3" d="M127.64 97.2847H147.55" stroke="#263238" stroke-linecap="round" stroke-linejoin="round"/>
<path id="Vector_37" opacity="0.3" d="M127.64 99.3848H155.955" stroke="#263238" stroke-linecap="round" stroke-linejoin="round"/>
<path id="Vector_38" d="M166.79 95.9548H158.165V99.7148H166.79V95.9548Z" fill="#4696E6"/>
<path id="Vector_39" opacity="0.3" d="M176.305 95.9548H167.68V99.7148H176.305V95.9548Z" fill="black"/>
<path id="Vector_40" opacity="0.3" d="M124.765 108.565H113.04V120.29H124.765V108.565Z" fill="black"/>
<path id="Vector_41" d="M127.64 110.335H137.15" stroke="#263238" stroke-linecap="round" stroke-linejoin="round"/>
<path id="Vector_42" opacity="0.3" d="M127.64 113.875H147.55" stroke="#263238" stroke-linecap="round" stroke-linejoin="round"/>
<path id="Vector_43" opacity="0.3" d="M127.64 115.975H155.955" stroke="#263238" stroke-linecap="round" stroke-linejoin="round"/>
<path id="Vector_44" d="M166.79 112.545H158.165V116.305H166.79V112.545Z" fill="#4696E6"/>
<path id="Vector_45" opacity="0.3" d="M176.305 112.545H167.68V116.305H176.305V112.545Z" fill="black"/>
<path id="Vector_46" opacity="0.3" d="M124.765 125.155H113.04V136.88H124.765V125.155Z" fill="black"/>
<path id="Vector_47" d="M127.64 126.925H137.15" stroke="#263238" stroke-linecap="round" stroke-linejoin="round"/>
<path id="Vector_48" opacity="0.3" d="M127.64 130.465H147.55" stroke="#263238" stroke-linecap="round" stroke-linejoin="round"/>
<path id="Vector_49" opacity="0.3" d="M127.64 132.565H155.955" stroke="#263238" stroke-linecap="round" stroke-linejoin="round"/>
<path id="Vector_50" d="M166.79 129.135H158.165V132.895H166.79V129.135Z" fill="#4696E6"/>
<path id="Vector_51" opacity="0.3" d="M176.305 129.135H167.68V132.895H176.305V129.135Z" fill="black"/>
<path id="Vector_52" opacity="0.3" d="M124.765 141.745H113.04V153.47H124.765V141.745Z" fill="black"/>
<path id="Vector_53" d="M127.64 143.515H137.15" stroke="#263238" stroke-linecap="round" stroke-linejoin="round"/>
<path id="Vector_54" opacity="0.3" d="M127.64 147.055H147.55" stroke="#263238" stroke-linecap="round" stroke-linejoin="round"/>
<path id="Vector_55" opacity="0.3" d="M127.64 149.155H155.955" stroke="#263238" stroke-linecap="round" stroke-linejoin="round"/>
<path id="Vector_56" d="M166.79 145.725H158.165V149.485H166.79V145.725Z" fill="#4696E6"/>
<path id="Vector_57" opacity="0.3" d="M176.305 145.725H167.68V149.485H176.305V145.725Z" fill="black"/>
<path id="Vector_58" d="M115.205 70.1898C115.807 70.1898 116.295 69.7018 116.295 69.0998C116.295 68.4978 115.807 68.0098 115.205 68.0098C114.603 68.0098 114.115 68.4978 114.115 69.0998C114.115 69.7018 114.603 70.1898 115.205 70.1898Z" stroke="#263238" stroke-width="0.5" stroke-miterlimit="10"/>
<path id="Vector_59" d="M115.98 69.8699L117 70.8899" stroke="#263238" stroke-width="0.5" stroke-linecap="round" stroke-linejoin="round"/>
<path id="Vector_60" d="M120.145 70.5348H119.065L118.945 70.8798C118.92 70.9568 118.873 71.0247 118.81 71.0748C118.786 71.0959 118.758 71.112 118.728 71.1223C118.698 71.1326 118.667 71.1369 118.635 71.1348C118.573 71.131 118.513 71.1121 118.46 71.0798C118.432 71.0633 118.408 71.0408 118.39 71.014C118.372 70.9872 118.36 70.9568 118.355 70.9248C118.331 70.8466 118.331 70.7629 118.355 70.6848L119.025 68.9498C119.055 68.8599 119.094 68.7729 119.14 68.6898C119.176 68.6281 119.223 68.5738 119.28 68.5298C119.323 68.4952 119.372 68.4697 119.425 68.4548C119.532 68.4213 119.647 68.4213 119.755 68.4548C119.807 68.4707 119.856 68.4962 119.9 68.5298C119.956 68.5738 120.004 68.6281 120.04 68.6898C120.086 68.7729 120.124 68.8599 120.155 68.9498L120.825 70.6848C120.844 70.7636 120.844 70.846 120.825 70.9248C120.819 70.9564 120.807 70.9865 120.788 71.0132C120.77 71.0399 120.747 71.0625 120.72 71.0798C120.667 71.1121 120.607 71.131 120.545 71.1348C120.479 71.1382 120.415 71.1167 120.365 71.0748C120.304 71.0231 120.259 70.9556 120.235 70.8798L120.145 70.5348ZM119.605 69.0048L119.2 70.1498H120L119.605 69.0048Z" fill="#263238"/>
<path id="Vector_61" d="M121.29 71.0447C121.24 70.9549 121.217 70.8523 121.225 70.7497V68.8647C121.217 68.7622 121.24 68.6596 121.29 68.5697C121.315 68.5368 121.347 68.5107 121.385 68.4941C121.423 68.4775 121.464 68.4708 121.505 68.4747C121.548 68.471 121.591 68.4776 121.631 68.4941C121.671 68.5107 121.707 68.5366 121.735 68.5697C121.788 68.6584 121.813 68.7615 121.805 68.8647V70.7497C121.813 70.8529 121.788 70.956 121.735 71.0447C121.707 71.0779 121.671 71.1038 121.631 71.1203C121.591 71.1368 121.548 71.1435 121.505 71.1397C121.464 71.1437 121.423 71.137 121.385 71.1204C121.347 71.1037 121.315 71.0777 121.29 71.0447Z" fill="#263238"/>
<path id="Vector_62" d="M122.345 71.0449C122.295 70.955 122.272 70.8525 122.28 70.7499V68.8649C122.272 68.7623 122.295 68.6597 122.345 68.5699C122.368 68.537 122.4 68.5109 122.437 68.4942C122.474 68.4775 122.515 68.4708 122.555 68.4749C122.598 68.4702 122.642 68.4765 122.682 68.4931C122.722 68.5097 122.757 68.5361 122.785 68.5699C122.84 68.658 122.866 68.7611 122.86 68.8649V70.7499C122.866 70.8536 122.84 70.9567 122.785 71.0449C122.757 71.0787 122.722 71.1051 122.682 71.1217C122.642 71.1383 122.598 71.1445 122.555 71.1399C122.515 71.1439 122.474 71.1373 122.437 71.1206C122.4 71.1039 122.368 71.0778 122.345 71.0449Z" fill="#263238"/>
<path id="Vector_63" d="M124.5 71.0399C124.433 70.9627 124.398 70.8621 124.405 70.7599V68.8249C124.402 68.7744 124.411 68.7239 124.432 68.6777C124.453 68.6316 124.485 68.5912 124.525 68.5599C124.61 68.4969 124.714 68.4651 124.82 68.4699H125.56C125.665 68.4645 125.77 68.4645 125.875 68.4699C125.97 68.4798 126.064 68.4999 126.155 68.5299C126.238 68.5539 126.316 68.5929 126.385 68.6449C126.448 68.6988 126.499 68.7652 126.535 68.8399C126.573 68.9301 126.591 69.0271 126.59 69.1249C126.59 69.4749 126.395 69.6849 126 69.7499C126.081 69.7576 126.162 69.7744 126.24 69.7999C126.301 69.8216 126.354 69.8597 126.395 69.9099C126.439 69.9588 126.471 70.0169 126.49 70.0799C126.513 70.1636 126.529 70.2488 126.54 70.3349L126.575 70.5799C126.602 70.718 126.586 70.861 126.53 70.9899C126.502 71.0341 126.463 71.0693 126.416 71.0915C126.369 71.1137 126.316 71.1218 126.265 71.1149C126.218 71.1183 126.171 71.1105 126.127 71.0923C126.084 71.074 126.045 71.0458 126.015 71.0099C125.949 70.9067 125.913 70.7874 125.91 70.6649V70.4249C125.906 70.315 125.865 70.2095 125.795 70.1249C125.752 70.0893 125.703 70.0626 125.649 70.0463C125.596 70.03 125.54 70.0244 125.485 70.0299H125.105V70.7349C125.109 70.7864 125.103 70.8381 125.086 70.8871C125.07 70.936 125.044 70.9812 125.01 71.0199C124.978 71.0522 124.94 71.0774 124.897 71.0937C124.855 71.1101 124.81 71.1173 124.765 71.1149C124.718 71.1237 124.669 71.1215 124.624 71.1085C124.578 71.0955 124.535 71.072 124.5 71.0399ZM125.37 69.6199C125.436 69.6255 125.503 69.6255 125.57 69.6199C125.63 69.6096 125.688 69.5928 125.745 69.5699C125.799 69.5464 125.846 69.5084 125.88 69.4599C125.912 69.4018 125.927 69.3361 125.925 69.2699C125.93 69.2268 125.93 69.1831 125.925 69.1399C125.914 69.1049 125.899 69.0714 125.88 69.0399C125.859 69.0134 125.834 68.9913 125.805 68.9749L125.715 68.9349C125.68 68.9307 125.645 68.9307 125.61 68.9349H125.495H125.085V69.6699L125.37 69.6199Z" fill="#263238"/>
<path id="Vector_64" d="M127.4 71.0598C127.254 70.9894 127.133 70.8782 127.05 70.7398C126.96 70.5778 126.915 70.3949 126.92 70.2098C126.915 70.0355 126.957 69.8631 127.04 69.7098C127.12 69.5674 127.237 69.4498 127.38 69.3698C127.533 69.2851 127.705 69.242 127.88 69.2448C128.015 69.2425 128.149 69.2663 128.275 69.3148C128.38 69.357 128.474 69.4259 128.545 69.5148C128.61 69.599 128.661 69.6937 128.695 69.7948C128.725 69.9074 128.742 70.0232 128.745 70.1398C128.745 70.2398 128.68 70.2898 128.56 70.2898H127.5C127.494 70.3548 127.503 70.4203 127.527 70.4811C127.551 70.5419 127.589 70.5963 127.637 70.64C127.686 70.6837 127.744 70.7154 127.807 70.7328C127.87 70.7501 127.936 70.7525 128 70.7398C128.086 70.7406 128.171 70.7236 128.25 70.6898C128.325 70.6583 128.396 70.6162 128.46 70.5648C128.482 70.5499 128.508 70.542 128.535 70.542C128.561 70.542 128.588 70.5499 128.61 70.5648C128.638 70.578 128.662 70.5976 128.681 70.6219C128.7 70.6461 128.713 70.6745 128.72 70.7048C128.732 70.7337 128.734 70.7657 128.727 70.7962C128.72 70.8267 128.703 70.8542 128.68 70.8748C128.642 70.9095 128.602 70.9412 128.56 70.9698C128.514 71.0017 128.465 71.0301 128.415 71.0548C128.347 71.0909 128.275 71.1162 128.2 71.1298C128.11 71.1379 128.02 71.1379 127.93 71.1298C127.75 71.1469 127.569 71.123 127.4 71.0598ZM128.26 70.0598C128.259 69.9448 128.226 69.8323 128.165 69.7348C128.133 69.6941 128.092 69.6621 128.045 69.642C127.998 69.6219 127.946 69.6142 127.895 69.6198C127.842 69.6166 127.789 69.6258 127.741 69.6467C127.692 69.6675 127.649 69.6994 127.615 69.7398C127.544 69.8316 127.503 69.9436 127.5 70.0598H128.26Z" fill="#263238"/>
<path id="Vector_65" d="M129.115 70.94C129.083 70.9187 129.06 70.8868 129.05 70.85C129.04 70.8157 129.04 70.7792 129.05 70.745C129.061 70.7098 129.08 70.6774 129.105 70.65C129.13 70.6244 129.164 70.6085 129.2 70.605C129.244 70.6017 129.287 70.6122 129.325 70.635C129.349 70.6444 129.373 70.6561 129.395 70.67L129.49 70.72L129.61 70.76C129.663 70.7652 129.717 70.7652 129.77 70.76H129.89L130.015 70.735C130.051 70.7275 130.083 70.7102 130.11 70.685C130.135 70.6577 130.149 70.6221 130.15 70.585C130.148 70.5655 130.142 70.5466 130.132 70.53C130.121 70.5135 130.107 70.4997 130.09 70.49C130.043 70.454 129.988 70.43 129.93 70.42L129.675 70.35L129.45 70.28C129.389 70.2602 129.331 70.2351 129.275 70.205C129.222 70.1808 129.176 70.1449 129.14 70.1C129.107 70.0598 129.082 70.0141 129.065 69.965C129.044 69.9022 129.033 69.8362 129.035 69.77C129.036 69.6867 129.059 69.6051 129.1 69.5327C129.141 69.4602 129.199 69.3991 129.27 69.355C129.457 69.2501 129.672 69.2081 129.885 69.235C129.957 69.2355 130.029 69.2439 130.1 69.26L130.25 69.305L130.39 69.365C130.43 69.3819 130.464 69.4118 130.485 69.45C130.496 69.484 130.496 69.5209 130.485 69.555C130.481 69.5905 130.469 69.6247 130.45 69.655C130.441 69.6705 130.428 69.6839 130.414 69.6942C130.399 69.7046 130.382 69.7117 130.365 69.715C130.322 69.7269 130.277 69.7269 130.235 69.715C130.116 69.6698 129.991 69.6396 129.865 69.625H129.725C129.678 69.6259 129.631 69.6379 129.59 69.66C129.571 69.6663 129.554 69.6783 129.543 69.6945C129.531 69.7106 129.525 69.7301 129.525 69.75C129.525 69.7693 129.53 69.7883 129.538 69.8056C129.547 69.8229 129.56 69.8381 129.575 69.85C129.624 69.8808 129.678 69.9028 129.735 69.915L129.99 69.975C130.076 69.9987 130.161 70.0271 130.245 70.06C130.314 70.0839 130.378 70.1194 130.435 70.165C130.49 70.2044 130.533 70.258 130.56 70.32C130.591 70.3889 130.607 70.4642 130.605 70.54C130.611 70.6637 130.574 70.7856 130.5 70.885C130.426 70.9818 130.325 71.0548 130.21 71.095C130.074 71.1379 129.932 71.1549 129.79 71.145C129.55 71.1443 129.315 71.073 129.115 70.94Z" fill="#263238"/>
<path id="Vector_66" d="M131.105 70.9747C130.979 70.8389 130.911 70.6597 130.915 70.4747V69.7047C130.909 69.601 130.935 69.4979 130.99 69.4097C131.017 69.3759 131.053 69.3495 131.093 69.3329C131.133 69.3163 131.177 69.3101 131.22 69.3147C131.261 69.3108 131.302 69.3175 131.34 69.3341C131.378 69.3508 131.41 69.3768 131.435 69.4097C131.485 69.4996 131.508 69.6022 131.5 69.7047V70.4647C131.496 70.5558 131.526 70.6452 131.585 70.7147C131.612 70.7439 131.646 70.7667 131.683 70.7814C131.72 70.7961 131.76 70.8024 131.8 70.7997C131.85 70.8012 131.9 70.7917 131.945 70.7718C131.991 70.7519 132.032 70.7222 132.065 70.6847C132.102 70.6452 132.131 70.5989 132.149 70.5482C132.168 70.4976 132.177 70.4437 132.175 70.3897V69.7047C132.169 69.6017 132.194 69.4993 132.245 69.4097C132.274 69.37 132.312 69.3388 132.357 69.3194C132.402 69.3001 132.451 69.2933 132.5 69.2997C132.541 69.2953 132.582 69.3018 132.62 69.3184C132.658 69.3351 132.691 69.3614 132.715 69.3947C132.768 69.4835 132.793 69.5865 132.785 69.6897V70.8297C132.791 70.9163 132.764 71.002 132.71 71.0697C132.68 71.0974 132.644 71.1184 132.605 71.1313C132.567 71.1442 132.526 71.1488 132.485 71.1447C132.295 71.1447 132.2 71.0397 132.2 70.8247C132.155 70.9385 132.076 71.0361 131.975 71.1047C131.859 71.1694 131.728 71.2006 131.595 71.1947C131.502 71.1961 131.41 71.1771 131.326 71.1391C131.241 71.1011 131.166 71.045 131.105 70.9747Z" fill="#263238"/>
<path id="Vector_67" d="M133.295 71.0448C133.245 70.9549 133.222 70.8524 133.23 70.7498V68.8648C133.222 68.7622 133.245 68.6596 133.295 68.5698C133.319 68.5369 133.35 68.5108 133.387 68.4941C133.424 68.4774 133.465 68.4707 133.505 68.4748C133.549 68.471 133.593 68.4777 133.634 68.4942C133.675 68.5107 133.711 68.5366 133.74 68.5698C133.793 68.6585 133.818 68.7616 133.81 68.8648V70.7498C133.818 70.853 133.793 70.9561 133.74 71.0448C133.711 71.078 133.675 71.1039 133.634 71.1204C133.593 71.1369 133.549 71.1435 133.505 71.1398C133.465 71.1438 133.424 71.1372 133.387 71.1205C133.35 71.1038 133.319 71.0777 133.295 71.0448Z" fill="#263238"/>
<path id="Vector_68" d="M134.53 71C134.415 70.8463 134.362 70.6557 134.38 70.465V69.685H134.265C134.238 69.6873 134.21 69.684 134.185 69.6754C134.159 69.6668 134.135 69.653 134.115 69.635C134.096 69.6131 134.082 69.5877 134.073 69.5602C134.064 69.5326 134.062 69.5036 134.065 69.475C134.06 69.4484 134.062 69.4211 134.071 69.3955C134.079 69.3699 134.093 69.3466 134.112 69.3276C134.131 69.3085 134.155 69.2943 134.18 69.286C134.206 69.2777 134.233 69.2757 134.26 69.28H134.42L134.46 68.92C134.46 68.695 134.575 68.585 134.735 68.585C134.895 68.585 134.965 68.705 134.965 68.955V69.3H135.19C135.315 69.3 135.38 69.37 135.38 69.505C135.384 69.5322 135.382 69.5601 135.373 69.5863C135.365 69.6125 135.35 69.6363 135.331 69.6558C135.311 69.6753 135.287 69.6899 135.261 69.6985C135.235 69.707 135.207 69.7092 135.18 69.705H134.965V70.36C134.957 70.4711 134.976 70.5825 135.02 70.685C135.042 70.716 135.073 70.74 135.108 70.7542C135.143 70.7684 135.182 70.7721 135.22 70.765H135.33C135.362 70.7642 135.394 70.7748 135.42 70.795C135.445 70.8161 135.464 70.8438 135.475 70.875C135.477 70.9099 135.477 70.945 135.475 70.98C135.475 71.0155 135.464 71.0503 135.445 71.08C135.427 71.1079 135.401 71.1291 135.37 71.14C135.232 71.1809 135.088 71.1978 134.945 71.19C134.866 71.188 134.789 71.1702 134.718 71.1375C134.646 71.1048 134.582 71.058 134.53 71Z" fill="#263238"/>
<path id="Vector_69" d="M135.78 70.94C135.75 70.9172 135.727 70.8858 135.715 70.85C135.705 70.8158 135.705 70.7793 135.715 70.745C135.726 70.7098 135.745 70.6774 135.77 70.65C135.795 70.6244 135.829 70.6085 135.865 70.605C135.909 70.601 135.953 70.6115 135.99 70.635L136.06 70.67L136.155 70.72L136.275 70.76C136.328 70.7652 136.382 70.7652 136.435 70.76H136.56L136.68 70.735C136.716 70.7276 136.749 70.7102 136.775 70.685C136.789 70.6733 136.801 70.6585 136.809 70.6416C136.817 70.6247 136.822 70.6062 136.822 70.5875C136.822 70.5688 136.817 70.5503 136.809 70.5334C136.801 70.5166 136.789 70.5017 136.775 70.49C136.726 70.4551 136.669 70.4312 136.61 70.42L136.36 70.35L136.13 70.28C136.07 70.2593 136.011 70.2342 135.955 70.205C135.902 70.1809 135.856 70.1449 135.82 70.1C135.787 70.0598 135.762 70.0141 135.745 69.965C135.734 69.9005 135.734 69.8345 135.745 69.77C135.743 69.6867 135.763 69.6043 135.804 69.5314C135.844 69.4584 135.903 69.3976 135.975 69.355C136.163 69.2491 136.381 69.207 136.595 69.235C136.666 69.2353 136.736 69.2437 136.805 69.26L136.96 69.305L137.095 69.365C137.135 69.3819 137.169 69.4118 137.19 69.45C137.21 69.4812 137.219 69.5182 137.215 69.555C137.213 69.5902 137.202 69.6244 137.185 69.655C137.164 69.6859 137.132 69.7074 137.095 69.715C137.054 69.7271 137.011 69.7271 136.97 69.715C136.849 69.6698 136.723 69.6396 136.595 69.625H136.455C136.408 69.6259 136.362 69.6379 136.32 69.66C136.302 69.6671 136.287 69.6796 136.276 69.6956C136.265 69.7117 136.26 69.7307 136.26 69.75C136.259 69.7696 136.263 69.789 136.272 69.8065C136.281 69.824 136.294 69.839 136.31 69.85C136.359 69.8818 136.413 69.9039 136.47 69.915L136.72 69.975C136.808 69.9981 136.895 70.0265 136.98 70.06C137.047 70.0851 137.109 70.1205 137.165 70.165C137.22 70.2056 137.264 70.2587 137.295 70.32C137.322 70.39 137.336 70.4648 137.335 70.54C137.344 70.6641 137.307 70.7871 137.23 70.885C137.157 70.9829 137.056 71.0562 136.94 71.095C136.804 71.1386 136.662 71.1555 136.52 71.145C136.258 71.1567 135.999 71.0849 135.78 70.94Z" fill="#263238"/>
<path id="Vector_70" opacity="0.3" d="M112.9 72.6797H179.305" stroke="#263238" stroke-width="0.5" stroke-linecap="round" stroke-linejoin="round"/>
<path id="Vector_71" opacity="0.3" d="M110.02 66.6797V153.775" stroke="#263238" stroke-width="0.5" stroke-linecap="round" stroke-linejoin="round"/>
<path id="Vector_72" opacity="0.3" d="M182.07 66.6797V153.775" stroke="#263238" stroke-width="0.5" stroke-linecap="round" stroke-linejoin="round"/>
<path id="Vector_73" opacity="0.3" d="M108.62 72.5149H79.6648" stroke="#263238" stroke-width="0.5" stroke-linecap="round" stroke-linejoin="round"/>
<path id="Vector_74" opacity="0.3" d="M82.8948 80.6899H97.7148" stroke="#263238" stroke-linecap="round" stroke-linejoin="round"/>
<path id="Vector_75" opacity="0.3" d="M82.8948 82.7949H103.97" stroke="#263238" stroke-linecap="round" stroke-linejoin="round"/>
<path id="Vector_76" opacity="0.3" d="M82.8948 91.0547H97.7148" stroke="#263238" stroke-linecap="round" stroke-linejoin="round"/>
<path id="Vector_77" opacity="0.3" d="M82.8948 93.1597H103.97" stroke="#263238" stroke-linecap="round" stroke-linejoin="round"/>
<path id="Vector_78" opacity="0.3" d="M82.8948 101.42H97.7148" stroke="#263238" stroke-linecap="round" stroke-linejoin="round"/>
<path id="Vector_79" opacity="0.3" d="M82.8948 103.525H103.97" stroke="#263238" stroke-linecap="round" stroke-linejoin="round"/>
<path id="Vector_80" opacity="0.3" d="M82.8948 111.785H97.7148" stroke="#263238" stroke-linecap="round" stroke-linejoin="round"/>
<path id="Vector_81" opacity="0.3" d="M82.8948 113.89H103.97" stroke="#263238" stroke-linecap="round" stroke-linejoin="round"/>
<path id="Vector_82" opacity="0.3" d="M82.8948 122.15H97.7148" stroke="#263238" stroke-linecap="round" stroke-linejoin="round"/>
<path id="Vector_83" opacity="0.3" d="M82.8948 124.255H103.97" stroke="#263238" stroke-linecap="round" stroke-linejoin="round"/>
<path id="Vector_84" opacity="0.3" d="M82.8948 132.515H97.7148" stroke="#263238" stroke-linecap="round" stroke-linejoin="round"/>
<path id="Vector_85" opacity="0.3" d="M82.8948 134.62H103.97" stroke="#263238" stroke-linecap="round" stroke-linejoin="round"/>
<path id="Vector_86" opacity="0.3" d="M82.8948 142.88H97.7148" stroke="#263238" stroke-linecap="round" stroke-linejoin="round"/>
<path id="Vector_87" opacity="0.3" d="M82.8948 144.985H103.97" stroke="#263238" stroke-linecap="round" stroke-linejoin="round"/>
</g>
</g>
</g>
<path id="Vector_88" d="M210.36 55.9199H74.3599V159.61H210.36V55.9199Z" stroke="#263238" stroke-width="0.5" stroke-linecap="round" stroke-linejoin="round"/>
</g>
<g id="freepik--Character--inject-201">
<path id="Vector_89" d="M46.7548 212.14C46.7548 212.14 46.5198 213.195 43.8348 214.595C41.1498 215.995 38.1148 217.98 39.6298 218.795C41.1448 219.61 46.5198 217.745 48.0398 216.345C49.5598 214.945 51.3048 214.125 51.3048 212.96C51.3048 211.795 49.9048 211.09 48.7398 211.09C48.3418 211.046 47.9399 211.123 47.586 211.31C47.2321 211.497 46.9425 211.787 46.7548 212.14Z" fill="#263238" stroke="#263238" stroke-width="0.5" stroke-linecap="round" stroke-linejoin="round"/>
<path id="Vector_90" d="M49.09 206.54C48.39 208.64 46.52 209.805 46.52 210.39C46.5572 210.978 46.6357 211.563 46.755 212.14C47.5936 212.621 48.4982 212.977 49.44 213.195C50.725 213.425 51.305 212.96 51.305 212.96C51.305 212.96 52.71 211.91 53.06 211.56C53.41 211.21 54.345 210.625 54.225 209.455C54.105 208.285 53.64 207.82 54.11 206.77C54.58 205.72 64.5 189.61 64.5 189.61L56.33 186.455C56.33 186.455 49.79 204.435 49.09 206.54Z" fill="#263238" stroke="#263238" stroke-width="0.5" stroke-linecap="round" stroke-linejoin="round"/>
<path id="Vector_91" d="M88.1999 214.01C88.1999 214.01 95.5549 217.395 95.6749 218.215C95.7949 219.035 90.5349 219.145 88.1999 218.915C85.8649 218.685 84.3499 216.695 84.3499 216.695C84.3499 216.695 85.1649 213.66 88.1999 214.01Z" fill="#263238" stroke="#263238" stroke-width="0.5" stroke-linecap="round" stroke-linejoin="round"/>
<path id="Vector_92" d="M77.46 186.69C77.46 186.69 80.495 205.605 81.665 209.225C82.835 212.845 81.31 212.49 81.895 213.545C82.6359 214.653 83.4564 215.706 84.35 216.695C84.35 216.695 86.45 214.825 87.385 214.695C88.32 214.565 89.02 214.46 89.02 214.46C89.02 214.46 88.55 212.125 88.2 211.66C87.85 211.195 87.615 209.56 87.265 208.275C86.915 206.99 86.335 185.74 86.335 185.74C86.335 185.74 79.91 186.925 77.46 186.69Z" fill="#263238" stroke="#263238" stroke-width="0.5" stroke-linecap="round" stroke-linejoin="round"/>
<path id="Vector_93" d="M65.1999 107.415C63.5986 108.555 62.0767 109.803 60.6449 111.15C57.8449 113.72 53.1749 117.455 52.9399 118.275C52.7049 119.095 56.0949 134.385 57.3799 139.275C58.6649 144.165 59.0149 166.71 57.3799 174.415C56.3228 179.271 54.8782 184.035 53.0599 188.66C56.6567 191.126 60.9583 192.355 65.3149 192.16C72.5549 191.805 75.8149 189.825 79.4449 190.16C83.0749 190.495 87.1498 190.39 89.0198 187.94C90.8898 185.49 92.8698 184.555 94.0198 183.035C94.7265 182.086 95.1323 180.947 95.1848 179.765C95.1848 179.765 94.1348 175.795 90.2799 163.305C86.4249 150.815 86.4299 134.115 85.7299 130.615C85.0299 127.115 83.3949 116.49 81.7599 113.57C80.1249 110.65 73.4999 108.465 70.2199 107.885C66.9399 107.305 66.3699 106.83 65.1999 107.415Z" fill="#4696E6"/>
<g id="Clip path group_2">
<mask id="mask1_1077_8748" style="mask-type:luminance" maskUnits="userSpaceOnUse" x="52" y="107" width="44" height="86">
<g id="freepik--clip-path-2--inject-201">
<path id="Vector_94" d="M65.1999 107.415C63.5986 108.555 62.0767 109.803 60.6449 111.15C57.8449 113.72 53.1749 117.455 52.9399 118.275C52.7049 119.095 56.0949 134.385 57.3799 139.275C58.6649 144.165 59.0149 166.71 57.3799 174.415C56.3228 179.271 54.8782 184.035 53.0599 188.66C56.6567 191.126 60.9583 192.355 65.3149 192.16C72.5549 191.805 75.8149 189.825 79.4449 190.16C83.0749 190.495 87.1498 190.39 89.0198 187.94C90.8898 185.49 92.8698 184.555 94.0198 183.035C94.7265 182.086 95.1323 180.947 95.1848 179.765C95.1848 179.765 94.1348 175.795 90.2799 163.305C86.4249 150.815 86.4299 134.115 85.7299 130.615C85.0299 127.115 83.3949 116.49 81.7599 113.57C80.1249 110.65 73.4999 108.465 70.2199 107.885C66.9399 107.305 66.3699 106.83 65.1999 107.415Z" fill="white"/>
</g>
</mask>
<g mask="url(#mask1_1077_8748)">
<g id="Group_3">
<path id="Vector_95" opacity="0.15" d="M55.9697 106.715H54.1997V194.745H55.9697V106.715Z" fill="black"/>
<path id="Vector_96" opacity="0.15" d="M62.0596 106.715H60.2896V194.745H62.0596V106.715Z" fill="black"/>
<path id="Vector_97" opacity="0.15" d="M68.1545 106.715H66.3845V194.745H68.1545V106.715Z" fill="black"/>
<path id="Vector_98" opacity="0.15" d="M74.2497 106.715H72.4797V194.745H74.2497V106.715Z" fill="black"/>
<path id="Vector_99" opacity="0.15" d="M80.3398 106.715H78.5698V194.745H80.3398V106.715Z" fill="black"/>
<path id="Vector_100" opacity="0.15" d="M86.4345 106.715H84.6646V194.745H86.4345V106.715Z" fill="black"/>
<path id="Vector_101" opacity="0.15" d="M92.5295 106.715H90.7595V194.745H92.5295V106.715Z" fill="black"/>
<path id="Vector_102" d="M50.6147 108.705C65.8997 108.815 80.8447 108.815 96.1497 108.765" stroke="white" stroke-width="0.5" stroke-miterlimit="10"/>
<path id="Vector_103" d="M50.6147 109.685C65.8997 109.75 80.8447 109.75 96.1497 109.72" stroke="white" stroke-width="0.5" stroke-miterlimit="10"/>
<path id="Vector_104" d="M50.6147 113.8C65.8997 113.94 80.8447 113.94 96.1497 113.875" stroke="white" stroke-width="0.5" stroke-miterlimit="10"/>
<path id="Vector_105" d="M50.6147 114.8C65.8997 114.895 80.8447 114.895 96.1497 114.855" stroke="white" stroke-width="0.5" stroke-miterlimit="10"/>
<path id="Vector_106" d="M50.6147 118.925C65.8997 119.09 80.8447 119.09 96.1497 119.02" stroke="white" stroke-width="0.5" stroke-miterlimit="10"/>
<path id="Vector_107" d="M50.6147 119.905C65.8997 120.025 80.8447 120.025 96.1497 119.975" stroke="white" stroke-width="0.5" stroke-miterlimit="10"/>
<path id="Vector_108" d="M50.6147 124.035C65.8997 124.23 80.8447 124.23 96.1497 124.145" stroke="white" stroke-width="0.5" stroke-miterlimit="10"/>
<path id="Vector_109" d="M50.6147 125.021C65.8997 125.161 80.8447 125.161 96.1497 125.101" stroke="white" stroke-width="0.5" stroke-miterlimit="10"/>
<path id="Vector_110" d="M50.6147 129.146C65.8997 129.366 80.8447 129.366 96.1497 129.271" stroke="white" stroke-width="0.5" stroke-miterlimit="10"/>
<path id="Vector_111" d="M50.6147 130.13C65.8997 130.3 80.8447 130.3 96.1497 130.225" stroke="white" stroke-width="0.5" stroke-miterlimit="10"/>
<path id="Vector_112" d="M50.6147 134.255C65.4347 134.035 80.8447 134.035 95.8297 134.13" stroke="white" stroke-width="0.5" stroke-miterlimit="10"/>
<path id="Vector_113" d="M50.6147 135.24C65.8997 135.435 80.8447 135.435 96.1497 135.35" stroke="white" stroke-width="0.5" stroke-miterlimit="10"/>
<path id="Vector_114" d="M50.6147 139.365C65.8997 139.17 80.8447 139.17 96.1497 139.26" stroke="white" stroke-width="0.5" stroke-miterlimit="10"/>
<path id="Vector_115" d="M50.6147 140.35C65.8997 140.575 80.8447 140.575 96.1497 140.475" stroke="white" stroke-width="0.5" stroke-miterlimit="10"/>
<path id="Vector_116" d="M50.6147 144.475C65.8997 144.31 80.8447 144.31 96.1497 144.385" stroke="white" stroke-width="0.5" stroke-miterlimit="10"/>
<path id="Vector_117" d="M50.6147 145.461C65.8997 145.246 80.8447 145.246 96.1497 145.341" stroke="white" stroke-width="0.5" stroke-miterlimit="10"/>
<path id="Vector_118" d="M50.6147 149.59C65.8997 149.445 80.8447 149.445 96.1497 149.51" stroke="white" stroke-width="0.5" stroke-miterlimit="10"/>
<path id="Vector_119" d="M50.6147 150.57C65.8997 150.38 80.8447 150.38 96.1497 150.465" stroke="white" stroke-width="0.5" stroke-miterlimit="10"/>
<path id="Vector_120" d="M50.6147 154.7C65.8997 154.585 80.8447 154.585 96.1497 154.635" stroke="white" stroke-width="0.5" stroke-miterlimit="10"/>
<path id="Vector_121" d="M50.6147 155.68C65.8997 155.52 80.8447 155.52 96.1497 155.59" stroke="white" stroke-width="0.5" stroke-miterlimit="10"/>
<path id="Vector_122" d="M50.6147 159.8C65.8997 159.71 80.8447 159.71 96.1497 159.75" stroke="white" stroke-width="0.5" stroke-miterlimit="10"/>
<path id="Vector_123" d="M50.6147 160.8C65.8997 160.665 80.8447 160.665 96.1497 160.725" stroke="white" stroke-width="0.5" stroke-miterlimit="10"/>
<path id="Vector_124" d="M50.6147 164.92C65.8997 164.86 80.8447 164.86 96.1497 164.885" stroke="white" stroke-width="0.5" stroke-miterlimit="10"/>
<path id="Vector_125" d="M50.6147 165.9C65.8997 165.79 80.8447 165.79 96.1497 165.84" stroke="white" stroke-width="0.5" stroke-miterlimit="10"/>
<path id="Vector_126" d="M50.6147 170.03C65.8997 169.995 80.8447 169.995 96.1497 170.03" stroke="white" stroke-width="0.5" stroke-miterlimit="10"/>
<path id="Vector_127" d="M50.6147 171.015C65.8997 170.93 80.8447 170.93 96.1497 170.965" stroke="white" stroke-width="0.5" stroke-miterlimit="10"/>
<path id="Vector_128" d="M50.6147 175.14C65.8997 175.14 80.8447 175.14 96.1497 175.14" stroke="white" stroke-width="0.5" stroke-miterlimit="10"/>
<path id="Vector_129" d="M50.6147 176.125C65.8997 176.065 80.8447 176.065 96.1497 176.09" stroke="white" stroke-width="0.5" stroke-miterlimit="10"/>
<path id="Vector_130" d="M50.6147 180.25C65.8997 180.25 80.8447 180.25 96.1497 180.25" stroke="white" stroke-width="0.5" stroke-miterlimit="10"/>
<path id="Vector_131" d="M50.6147 181.235C65.8997 181.205 80.8447 181.205 96.1497 181.235" stroke="white" stroke-width="0.5" stroke-miterlimit="10"/>
<path id="Vector_132" d="M50.6147 185.36C65.8997 185.405 80.8447 185.405 96.1497 185.385" stroke="white" stroke-width="0.5" stroke-miterlimit="10"/>
<path id="Vector_133" d="M50.6147 186.345H96.1497" stroke="white" stroke-width="0.5" stroke-miterlimit="10"/>
<path id="Vector_134" d="M50.6147 190.47C65.8997 190.545 80.8447 190.545 96.1497 190.51" stroke="white" stroke-width="0.5" stroke-miterlimit="10"/>
<path id="Vector_135" d="M50.6147 191.455C65.8997 191.455 80.8447 191.455 96.1497 191.455" stroke="white" stroke-width="0.5" stroke-miterlimit="10"/>
<path id="Vector_136" opacity="0.3" d="M68.3897 137.3L68.7047 139.165C68.7047 139.165 62.3197 139.325 60.9197 139.325H58.7397L59.3647 148.665C59.3647 148.665 60.1397 155.355 60.9197 164.54C61.6997 173.725 58.9197 186.8 58.9197 188.36C58.9197 189.92 57.3647 191.63 61.0997 192.405C64.8347 193.18 69.8197 193.03 70.5997 191.005C71.3797 188.98 74.4947 172.48 73.8697 176.06C73.2447 179.64 70.1347 192.095 72.3147 192.715C74.4947 193.335 80.2547 191.005 83.9897 191.16C87.7247 191.315 90.9897 190.07 91.3047 188.515C91.6197 186.96 89.4347 172.635 89.4347 172.635L94.1047 185.555C94.1047 185.555 94.7297 186.335 91.6047 190.055C88.4797 193.775 74.4847 195.055 67.0097 195.055C59.5347 195.055 50.3547 189.61 50.3547 189.61C50.3547 189.61 58.4497 176.22 56.8897 165.015C55.3297 153.81 55.4897 134.015 55.4897 134.015C55.4897 134.015 59.6947 135.26 62.6497 135.26C65.6047 135.26 68.3897 137.3 68.3897 137.3Z" fill="black"/>
<path id="Vector_137" opacity="0.3" d="M75.1748 118.87L78.6748 140.19C78.6748 140.19 82.3048 139.8 83.6748 138.62C85.0448 137.44 85.6348 133.91 85.6348 133.91L81.4998 117.33L75.1748 118.87Z" fill="black"/>
</g>
</g>
</g>
<path id="Vector_138" d="M65.1999 107.415C63.5986 108.555 62.0767 109.803 60.6449 111.15C57.8449 113.72 53.1749 117.455 52.9399 118.275C52.7049 119.095 56.0949 134.385 57.3799 139.275C58.6649 144.165 59.0149 166.71 57.3799 174.415C56.3228 179.271 54.8782 184.035 53.0599 188.66C56.6567 191.126 60.9583 192.355 65.3149 192.16C72.5549 191.805 75.8149 189.825 79.4449 190.16C83.0749 190.495 87.1498 190.39 89.0198 187.94C90.8898 185.49 92.8698 184.555 94.0198 183.035C94.7265 182.086 95.1323 180.947 95.1848 179.765C95.1848 179.765 94.1349 175.795 90.2799 163.305C86.4248 150.815 86.4299 134.115 85.7299 130.615C85.0299 127.115 83.3949 116.49 81.7599 113.57C80.1249 110.65 73.4999 108.465 70.2199 107.885C66.9399 107.305 66.3699 106.83 65.1999 107.415Z" stroke="#263238" stroke-width="0.5" stroke-linecap="round" stroke-linejoin="round"/>
<path id="Vector_139" d="M65.7748 120.45L72.3898 129.765L76.2698 117.98C76.2698 117.98 75.9998 112.9 74.0298 111.12C72.0598 109.34 69.8598 106.71 66.5698 109.03C63.2798 111.35 63.8848 114.4 64.0348 116.03C64.1848 117.66 65.7748 120.45 65.7748 120.45Z" fill="white" stroke="#263238" stroke-width="0.5" stroke-miterlimit="10"/>
<path id="Vector_140" d="M68.21 116.785L70.15 119.025L69.705 125.89L72.39 129.765L74.18 124.845L71.79 119.025L72.09 115.445L69.705 113.355L68.21 116.785Z" fill="#263238" stroke="#263238" stroke-width="0.5" stroke-miterlimit="10"/>
<path id="Vector_141" d="M69.9649 115.94L65.7749 120.44C65.7749 120.44 63.5999 113.675 63.2749 111.34C62.9499 109.005 63.6749 108.52 64.8849 107.795C66.0949 107.07 67.9949 107.38 69.4749 107.715C70.9549 108.05 71.7349 108.68 72.0549 109.325C72.3749 109.97 75.8399 118.43 75.8399 118.43L69.9649 115.94Z" fill="white" stroke="#263238" stroke-width="0.5" stroke-miterlimit="10"/>
<path id="Vector_142" d="M72.4199 128.3C75.1749 142.385 78.5149 166.49 75.3949 190.23" stroke="#263238" stroke-width="0.5" stroke-miterlimit="10"/>
<path id="Vector_143" d="M74.8298 134.275C75.2136 134.275 75.5248 133.964 75.5248 133.58C75.5248 133.196 75.2136 132.885 74.8298 132.885C74.4459 132.885 74.1348 133.196 74.1348 133.58C74.1348 133.964 74.4459 134.275 74.8298 134.275Z" fill="#263238"/>
<path id="Vector_144" d="M76.8249 150.02C77.2087 150.02 77.5199 149.709 77.5199 149.325C77.5199 148.941 77.2087 148.63 76.8249 148.63C76.441 148.63 76.1299 148.941 76.1299 149.325C76.1299 149.709 76.441 150.02 76.8249 150.02Z" fill="#263238"/>
<path id="Vector_145" d="M62.805 104.225C62.805 104.225 64.05 106.84 64.17 108.445C64.29 110.05 68.215 115.875 69.58 115.875C70.945 115.875 70.89 111.475 70.71 109.515C70.53 107.555 71.065 106.48 71.245 106.245C71.425 106.01 68.745 105.295 67.085 104.045C65.425 102.795 64.05 102.615 63.395 102.855C62.74 103.095 62.805 104.225 62.805 104.225Z" fill="white"/>
<g id="Clip path group_3">
<mask id="mask2_1077_8748" style="mask-type:luminance" maskUnits="userSpaceOnUse" x="62" y="102" width="10" height="14">
<g id="freepik--clip-path-3--inject-201">
<path id="Vector_146" d="M62.805 104.225C62.805 104.225 64.05 106.84 64.17 108.445C64.29 110.05 68.215 115.875 69.58 115.875C70.945 115.875 70.89 111.475 70.71 109.515C70.53 107.555 71.065 106.48 71.245 106.245C71.425 106.01 68.745 105.295 67.085 104.045C65.425 102.795 64.05 102.615 63.395 102.855C62.74 103.095 62.805 104.225 62.805 104.225Z" fill="white"/>
</g>
</mask>
<g mask="url(#mask2_1077_8748)">
<g id="Group_4">
<path id="Vector_147" d="M67.085 104.045C65.42 102.795 64.05 102.615 63.395 102.855C62.74 103.095 62.805 104.225 62.805 104.225C62.805 104.225 64.05 106.84 64.17 108.445C64.1681 108.463 64.1681 108.482 64.17 108.5C65.2878 108.899 66.4557 109.139 67.64 109.215C68.6572 109.303 69.6819 109.227 70.675 108.99C70.625 107.365 71.075 106.46 71.235 106.245C71.395 106.03 68.75 105.3 67.085 104.045Z" fill="#4696E6"/>
<path id="Vector_148" opacity="0.5" d="M67.085 104.045C65.42 102.795 64.05 102.615 63.395 102.855C62.74 103.095 62.805 104.225 62.805 104.225C62.805 104.225 64.05 106.84 64.17 108.445C64.1681 108.463 64.1681 108.482 64.17 108.5C65.2878 108.899 66.4557 109.139 67.64 109.215C68.6572 109.303 69.6819 109.227 70.675 108.99C70.625 107.365 71.075 106.46 71.235 106.245C71.395 106.03 68.75 105.3 67.085 104.045Z" fill="white"/>
</g>
</g>
</g>
<path id="Vector_149" d="M62.805 104.225C62.805 104.225 64.05 106.84 64.17 108.445C64.29 110.05 68.215 115.875 69.58 115.875C70.945 115.875 70.89 111.475 70.71 109.515C70.53 107.555 71.065 106.48 71.245 106.245C71.425 106.01 68.745 105.295 67.085 104.045C65.425 102.795 64.05 102.615 63.395 102.855C62.74 103.095 62.805 104.225 62.805 104.225Z" stroke="#263238" stroke-width="0.5" stroke-linecap="round" stroke-linejoin="round"/>
<path id="Vector_150" d="M60.0698 102.615C60.0698 102.615 62.0298 104.64 63.0998 104.875C64.1698 105.11 64.9448 104.28 64.5248 103.45C64.1048 102.62 64.3498 101.37 65.5948 101.545C66.8398 101.72 67.8548 100.655 67.4398 99.2301C67.0248 97.8051 66.3698 96.4351 64.8248 96.7301C63.2798 97.0251 58.5798 99.9401 60.0698 102.615Z" fill="#263238" stroke="#263238" stroke-width="0.5" stroke-linecap="round" stroke-linejoin="round"/>
<path id="Vector_151" d="M73.0301 94.7099C73.0301 94.7099 73.9801 96.7899 74.8701 97.6249C75.7601 98.4599 76.5351 98.2749 76.2401 98.9299C75.9451 99.5849 74.6351 100.43 74.6351 100.43C74.6351 100.43 74.7551 103.4 74.6351 104.825C74.5151 106.25 74.6351 106.67 73.3251 106.91C71.5268 107.139 69.7 106.929 68.0001 106.3C66.8482 105.929 65.8741 105.146 65.2651 104.1C64.7043 104.119 64.1437 104.059 63.6001 103.92C62.4701 103.685 61.5201 101.305 62.1751 100.42C62.459 100.058 62.8745 99.8239 63.3307 99.7677C63.7869 99.7115 64.2469 99.8381 64.6101 100.12C65.0301 100.62 65.5051 101.07 65.8601 101.07C66.2151 101.07 66.9301 100.775 66.5151 99.9999C66.1001 99.2249 65.6201 98.5749 66.2751 98.0399C66.9301 97.5049 71.9601 94.6499 73.0301 94.7099Z" fill="white"/>
<g id="Clip path group_4">
<mask id="mask3_1077_8748" style="mask-type:luminance" maskUnits="userSpaceOnUse" x="61" y="94" width="16" height="13">
<g id="freepik--clip-path-4--inject-201">
<path id="Vector_152" d="M73.0301 94.7099C73.0301 94.7099 73.9801 96.7899 74.8701 97.6249C75.7601 98.4599 76.5351 98.2749 76.2401 98.9299C75.9451 99.5849 74.6351 100.43 74.6351 100.43C74.6351 100.43 74.7551 103.4 74.6351 104.825C74.5151 106.25 74.6351 106.67 73.3251 106.91C71.5268 107.139 69.7 106.929 68.0001 106.3C66.8482 105.929 65.8741 105.146 65.2651 104.1C64.7043 104.119 64.1437 104.059 63.6001 103.92C62.4701 103.685 61.5201 101.305 62.1751 100.42C62.459 100.058 62.8745 99.8239 63.3307 99.7677C63.7869 99.7115 64.2469 99.8381 64.6101 100.12C65.0301 100.62 65.5051 101.07 65.8601 101.07C66.2151 101.07 66.9301 100.775 66.5151 99.9999C66.1001 99.2249 65.6201 98.5749 66.2751 98.0399C66.9301 97.5049 71.9601 94.6499 73.0301 94.7099Z" fill="white"/>
</g>
</mask>
<g mask="url(#mask3_1077_8748)">
<g id="Group_5">
<path id="Vector_153" d="M73.0302 94.7099C71.9602 94.6499 66.9052 97.5049 66.2502 98.0399C65.5952 98.5749 66.0752 99.2299 66.4902 99.9999C66.9052 100.77 66.1902 101.07 65.8352 101.07C65.4802 101.07 65.0052 100.595 64.5852 100.12C64.222 99.8381 63.762 99.7115 63.3058 99.7677C62.8496 99.8239 62.4341 100.058 62.1502 100.42C61.4952 101.31 62.4452 103.69 63.5752 103.92C63.7052 103.95 63.8302 103.97 63.9452 103.99C67.0731 101.199 70.5485 98.8247 74.2852 96.9249C73.8097 96.2204 73.3901 95.4798 73.0302 94.7099Z" fill="#4696E6"/>
<path id="Vector_154" opacity="0.5" d="M73.0302 94.7099C71.9602 94.6499 66.9052 97.5049 66.2502 98.0399C65.5952 98.5749 66.0752 99.2299 66.4902 99.9999C66.9052 100.77 66.1902 101.07 65.8352 101.07C65.4802 101.07 65.0052 100.595 64.5852 100.12C64.222 99.8381 63.762 99.7115 63.3058 99.7677C62.8496 99.8239 62.4341 100.058 62.1502 100.42C61.4952 101.31 62.4452 103.69 63.5752 103.92C63.7052 103.95 63.8302 103.97 63.9452 103.99C67.0731 101.199 70.5485 98.8247 74.2852 96.9249C73.8097 96.2204 73.3901 95.4798 73.0302 94.7099Z" fill="white"/>
</g>
</g>
</g>
<path id="Vector_155" d="M73.0301 94.7099C73.0301 94.7099 73.9801 96.7899 74.8701 97.6249C75.7601 98.4599 76.5351 98.2749 76.2401 98.9299C75.9451 99.5849 74.6351 100.43 74.6351 100.43C74.6351 100.43 74.7551 103.4 74.6351 104.825C74.5151 106.25 74.6351 106.67 73.3251 106.91C71.5268 107.139 69.7 106.929 68.0001 106.3C66.8482 105.929 65.8741 105.146 65.2651 104.1C64.7043 104.119 64.1437 104.059 63.6001 103.92C62.4701 103.685 61.5201 101.305 62.1751 100.42C62.459 100.058 62.8745 99.8239 63.3307 99.7677C63.7869 99.7115 64.2469 99.8381 64.6101 100.12C65.0301 100.62 65.5051 101.07 65.8601 101.07C66.2151 101.07 66.9301 100.775 66.5151 99.9999C66.1001 99.2249 65.6201 98.5749 66.2751 98.0399C66.9301 97.5049 71.9601 94.6499 73.0301 94.7099Z" stroke="#263238" stroke-width="0.5" stroke-linecap="round" stroke-linejoin="round"/>
<path id="Vector_156" d="M74.6349 100.42C74.0995 100.527 73.5907 100.739 73.1383 101.045C72.6859 101.351 72.2989 101.743 71.9999 102.2C71.0599 103.7 71.9999 103.955 72.5849 103.6C73.1699 103.245 74.2199 102.435 74.8049 102.1C75.3899 101.765 75.5349 100.3 74.6349 100.42Z" fill="#263238" stroke="#263238" stroke-width="0.5" stroke-linecap="round" stroke-linejoin="round"/>
<path id="Vector_157" d="M72.1561 98.6885C72.3393 98.6188 72.3564 98.217 72.1942 97.7912C72.032 97.3654 71.752 97.0768 71.5688 97.1466C71.3856 97.2164 71.3685 97.6181 71.5307 98.0439C71.6929 98.4697 71.9729 98.7583 72.1561 98.6885Z" fill="#263238"/>
<path id="Vector_158" d="M70.0947 96.725C70.4111 96.5083 70.7763 96.3734 71.1576 96.3324C71.5389 96.2914 71.9245 96.3455 72.2797 96.49" stroke="#263238" stroke-width="0.5" stroke-linecap="round" stroke-linejoin="round"/>
<path id="Vector_159" d="M57.9999 107.075C59.218 104.615 60.8253 102.368 62.7599 100.42C66.0299 97.0901 78.2599 93.6401 78.9299 92.6901C79.5999 91.7401 73.2799 93.2851 73.2799 93.2851C73.2799 93.2851 69.5949 88.8251 64.2449 88.5251C58.8949 88.2251 57.3499 94.0551 57.2899 96.9701C57.2299 99.8851 58.7149 103.27 58.7149 103.27C58.7149 103.27 57.0349 107.55 57.9999 107.075Z" fill="#4696E6"/>
<g id="Clip path group_5">
<mask id="mask4_1077_8748" style="mask-type:luminance" maskUnits="userSpaceOnUse" x="57" y="88" width="22" height="20">
<g id="freepik--clip-path-5--inject-201">
<path id="Vector_160" d="M57.9999 107.075C59.218 104.615 60.8253 102.368 62.7599 100.42C66.0299 97.0901 78.2599 93.6401 78.9299 92.6901C79.5999 91.7401 73.2799 93.2851 73.2799 93.2851C73.2799 93.2851 69.5949 88.8251 64.2449 88.5251C58.8949 88.2251 57.3499 94.0551 57.2899 96.9701C57.2299 99.8851 58.7149 103.27 58.7149 103.27C58.7149 103.27 57.0349 107.55 57.9999 107.075Z" fill="white"/>
</g>
</mask>
<g mask="url(#mask4_1077_8748)">
<g id="Group_6">
<path id="Vector_161" opacity="0.15" d="M62.0596 86.3999H60.2896V111.15H62.0596V86.3999Z" fill="black"/>
<path id="Vector_162" opacity="0.15" d="M68.1548 86.3999H66.3848V111.15H68.1548V86.3999Z" fill="black"/>
<path id="Vector_163" opacity="0.15" d="M74.2497 86.3999H72.4797V111.15H74.2497V86.3999Z" fill="black"/>
<path id="Vector_164" opacity="0.15" d="M80.3398 86.3999H78.5698V111.15H80.3398V86.3999Z" fill="black"/>
<path id="Vector_165" d="M54.6047 90.1049C63.7447 90.1049 72.8847 90.0782 82.0247 90.0249" stroke="white" stroke-width="0.5" stroke-miterlimit="10"/>
<path id="Vector_166" d="M54.6047 91.0549C63.7447 91.0549 72.8847 91.0382 82.0247 91.0049" stroke="white" stroke-width="0.5" stroke-miterlimit="10"/>
<path id="Vector_167" d="M54.6047 95.2348C63.7447 95.2348 72.8847 95.2014 82.0247 95.1348" stroke="white" stroke-width="0.5" stroke-miterlimit="10"/>
<path id="Vector_168" d="M54.6047 96.1847C63.7447 96.1847 72.8847 96.1614 82.0247 96.1147" stroke="white" stroke-width="0.5" stroke-miterlimit="10"/>
<path id="Vector_169" d="M54.6047 100.365C63.7447 100.365 72.8847 100.325 82.0247 100.245" stroke="white" stroke-width="0.5" stroke-miterlimit="10"/>
<path id="Vector_170" d="M54.6047 101.3C63.7447 101.3 72.8847 101.272 82.0247 101.215" stroke="white" stroke-width="0.5" stroke-miterlimit="10"/>
<path id="Vector_171" d="M54.6047 105.495C63.7447 105.495 72.8847 105.448 82.0247 105.355" stroke="white" stroke-width="0.5" stroke-miterlimit="10"/>
<path id="Vector_172" d="M54.6047 106.44C63.7447 106.44 72.8847 106.405 82.0247 106.335" stroke="white" stroke-width="0.5" stroke-miterlimit="10"/>
</g>
</g>
</g>
<path id="Vector_173" d="M57.9999 107.075C59.218 104.615 60.8253 102.368 62.7599 100.42C66.0299 97.0901 78.2599 93.6401 78.9299 92.6901C79.5999 91.7401 73.2799 93.2851 73.2799 93.2851C73.2799 93.2851 69.5949 88.8251 64.2449 88.5251C58.8949 88.2251 57.3499 94.0551 57.2899 96.9701C57.2299 99.8851 58.7149 103.27 58.7149 103.27C58.7149 103.27 57.0349 107.55 57.9999 107.075Z" stroke="#263238" stroke-width="0.5" stroke-linecap="round" stroke-linejoin="round"/>
<path id="Vector_174" d="M58.6998 103.27C58.6998 103.27 57.0348 107.55 57.9848 107.075C59.2029 104.615 60.8103 102.368 62.7448 100.42C66.0148 97.0902 78.2448 93.6402 78.9148 92.6902C79.5848 91.7402 73.2648 93.2852 73.2648 93.2852C73.2648 93.2852 69.0448 95.4852 65.5398 97.7852C63.1262 99.4403 60.8398 101.274 58.6998 103.27Z" fill="#4696E6" stroke="#263238" stroke-width="0.5" stroke-linecap="round" stroke-linejoin="round"/>
<path id="Vector_175" d="M60.2449 89.835C60.2449 89.835 60.3049 95.6 64.5849 98.515" stroke="#263238" stroke-width="0.5" stroke-linecap="round" stroke-linejoin="round"/>
<path id="Vector_176" d="M58.8399 145.3L60.6599 145.8C60.6599 145.8 63.8049 143.605 64.1599 143.54C64.5149 143.475 67.4899 145.175 68.4349 145.93C69.3799 146.685 70.5699 147.5 70.2549 147.75C69.9399 148 69.2549 147.685 68.8099 147.435C68.3649 147.185 65.6699 145.865 65.6699 145.865C65.6699 145.865 67.6699 147.185 68.3699 147.75C69.0699 148.315 70.0649 148.63 69.8149 148.945C69.7556 149.043 69.6768 149.128 69.5833 149.194C69.4899 149.26 69.3838 149.306 69.2718 149.33C69.1597 149.353 69.044 149.353 68.9318 149.33C68.8197 149.307 68.7135 149.261 68.6199 149.195C67.9949 148.88 64.7899 147.06 64.7899 147.06C64.7899 147.06 67.4899 148.88 67.9949 149.32C68.4999 149.76 68.4949 150.39 67.9299 150.39C67.3649 150.39 65.7949 149.57 65.2299 149.26C64.6649 148.95 63.0299 148.125 63.0299 148.125C63.7324 148.897 64.3822 149.716 64.9749 150.575C65.3549 151.27 65.9199 152.15 65.2899 152.15C64.6599 152.15 63.7899 150.705 63.3449 150.2C62.8999 149.695 61.2699 149.13 61.2699 149.13C60.5074 149.49 59.7076 149.765 58.8849 149.95C57.8149 150.135 55.6799 147.875 55.6799 147.875L58.8399 145.3Z" fill="white" stroke="#263238" stroke-width="0.5" stroke-linecap="round" stroke-linejoin="round"/>
<path id="Vector_177" d="M60.66 145.82L59.105 147.69" stroke="#263238" stroke-width="0.5" stroke-linecap="round" stroke-linejoin="round"/>
<path id="Vector_178" d="M64.8099 147.08L63.8049 146.48" stroke="#263238" stroke-width="0.5" stroke-linecap="round" stroke-linejoin="round"/>
<path id="Vector_179" d="M65.6901 145.885L64.5601 145.265" stroke="#263238" stroke-width="0.5" stroke-linecap="round" stroke-linejoin="round"/>
<path id="Vector_180" d="M44.5349 124.46C44.5349 124.46 37.0649 130.65 36.9449 131.115C36.8249 131.58 55.8599 149.215 55.8599 149.215L59.3599 145.36L48.9699 131.465L56.9099 126.465C56.9099 126.465 57.6099 122.615 56.4449 120.395C56.0844 119.737 55.5843 119.166 54.9796 118.722C54.375 118.278 53.6805 117.972 52.9449 117.825L44.5349 124.46Z" fill="#4696E6"/>
<g id="Clip path group_6">
<mask id="mask5_1077_8748" style="mask-type:luminance" maskUnits="userSpaceOnUse" x="36" y="117" width="24" height="33">
<g id="freepik--clip-path-6--inject-201">
<path id="Vector_181" d="M44.5349 124.46C44.5349 124.46 37.0649 130.65 36.9449 131.115C36.8249 131.58 55.8599 149.215 55.8599 149.215L59.3599 145.36L48.9699 131.465L56.9099 126.465C56.9099 126.465 57.6099 122.615 56.4449 120.395C56.0844 119.737 55.5843 119.166 54.9796 118.722C54.375 118.278 53.6805 117.972 52.9449 117.825L44.5349 124.46Z" fill="white"/>
</g>
</mask>
<g mask="url(#mask5_1077_8748)">
<g id="Group_7">
<path id="Vector_182" opacity="0.15" d="M37.6899 115.355H35.9199V152.95H37.6899V115.355Z" fill="black"/>
<path id="Vector_183" opacity="0.15" d="M43.78 115.355H42.01V152.95H43.78V115.355Z" fill="black"/>
<path id="Vector_184" opacity="0.15" d="M49.875 115.355H48.105V152.95H49.875V115.355Z" fill="black"/>
<path id="Vector_185" opacity="0.15" d="M55.97 115.355H54.2V152.95H55.97V115.355Z" fill="black"/>
<path id="Vector_186" d="M32.0352 119.03C45.8202 119.09 59.8302 119.09 73.6102 118.925" stroke="white" stroke-width="0.5" stroke-miterlimit="10"/>
<path id="Vector_187" d="M32.0352 119.98C45.8202 120.025 59.8302 120.025 73.6102 119.905" stroke="white" stroke-width="0.5" stroke-miterlimit="10"/>
<path id="Vector_188" d="M32.0352 124.155C45.8202 124.23 59.8302 124.23 73.6102 124.035" stroke="white" stroke-width="0.5" stroke-miterlimit="10"/>
<path id="Vector_189" d="M32.0352 125.11C45.8202 125.16 59.8302 125.16 73.6102 125.02" stroke="white" stroke-width="0.5" stroke-miterlimit="10"/>
<path id="Vector_190" d="M32.0352 129.3C45.8202 129.38 59.8302 129.38 73.6102 129.16" stroke="white" stroke-width="0.5" stroke-miterlimit="10"/>
<path id="Vector_191" d="M32.0352 130.235C45.8202 130.3 59.8302 130.3 73.6102 130.13" stroke="white" stroke-width="0.5" stroke-miterlimit="10"/>
<path id="Vector_192" opacity="0.3" d="M40.6851 126.095C40.6851 126.095 44.4201 128.43 45.9751 129.055C47.5301 129.68 50.6451 131.08 50.6451 131.08L54.2251 129.21L45.8201 122.36L40.6851 126.095Z" fill="black"/>
<path id="Vector_193" d="M32.0352 134.12C45.8202 134.035 59.8302 134.035 73.6102 134.255" stroke="white" stroke-width="0.5" stroke-miterlimit="10"/>
<path id="Vector_194" d="M32.0352 135.365C45.8202 135.435 59.8302 135.435 73.6102 135.24" stroke="white" stroke-width="0.5" stroke-miterlimit="10"/>
<path id="Vector_195" d="M32.0352 139.245C45.8202 139.17 59.8302 139.17 73.6102 139.365" stroke="white" stroke-width="0.5" stroke-miterlimit="10"/>
<path id="Vector_196" d="M32.0352 140.49C45.8202 140.575 59.8302 140.575 73.6102 140.35" stroke="white" stroke-width="0.5" stroke-miterlimit="10"/>
<path id="Vector_197" d="M32.0352 144.37C45.8202 144.31 59.8302 144.31 73.6102 144.475" stroke="white" stroke-width="0.5" stroke-miterlimit="10"/>
<path id="Vector_198" d="M32.0352 145.325C45.8202 145.245 59.8302 145.245 73.6102 145.46" stroke="white" stroke-width="0.5" stroke-miterlimit="10"/>
<path id="Vector_199" d="M32.0352 149.5C45.8202 149.445 59.8302 149.445 73.6102 149.59" stroke="white" stroke-width="0.5" stroke-miterlimit="10"/>
</g>
</g>
</g>
<path id="Vector_200" d="M44.5349 124.46C44.5349 124.46 37.0649 130.65 36.9449 131.115C36.8249 131.58 55.8599 149.215 55.8599 149.215L59.3599 145.36L48.9699 131.465L56.9099 126.465C56.9099 126.465 57.6099 122.615 56.4449 120.395C56.0844 119.737 55.5843 119.166 54.9796 118.722C54.375 118.278 53.6805 117.972 52.9449 117.825L44.5349 124.46Z" stroke="#263238" stroke-width="0.5" stroke-linecap="round" stroke-linejoin="round"/>
<path id="Vector_201" d="M96.725 124.21C96.725 124.21 89.44 120.06 86.42 117.11C83.4 114.16 82.15 112.775 81.835 113.905C81.52 115.035 84.475 129.905 85.04 130.175C85.605 130.445 97.54 134.7 99.93 134.825C102.32 134.95 103.93 135.14 104.205 134.075C104.48 133.01 102.705 129.74 100.495 127.16C98.285 124.58 96.725 124.21 96.725 124.21Z" fill="#4696E6"/>
<g id="Clip path group_7">
<mask id="mask6_1077_8748" style="mask-type:luminance" maskUnits="userSpaceOnUse" x="81" y="113" width="24" height="22">
<g id="freepik--clip-path-7--inject-201">
<path id="Vector_202" d="M96.725 124.21C96.725 124.21 89.44 120.06 86.42 117.11C83.4 114.16 82.15 112.775 81.835 113.905C81.52 115.035 84.475 129.905 85.04 130.175C85.605 130.445 97.54 134.7 99.93 134.825C102.32 134.95 103.93 135.14 104.205 134.075C104.48 133.01 102.705 129.74 100.495 127.16C98.285 124.58 96.725 124.21 96.725 124.21Z" fill="white"/>
</g>
</mask>
<g mask="url(#mask6_1077_8748)">
<g id="Group_8">
<path id="Vector_203" opacity="0.15" d="M86.4348 118.39H84.6648V138.24H86.4348V118.39Z" fill="black"/>
<path id="Vector_204" opacity="0.15" d="M92.5298 118.39H90.7598V138.24H92.5298V118.39Z" fill="black"/>
<path id="Vector_205" opacity="0.15" d="M98.6199 118.39H96.8499V138.24H98.6199V118.39Z" fill="black"/>
<path id="Vector_206" opacity="0.15" d="M104.715 118.39H102.945V138.24H104.715V118.39Z" fill="black"/>
<path id="Vector_207" d="M79.4248 119.905C88.0915 119.999 96.7448 120.017 105.385 119.96" stroke="white" stroke-width="0.5" stroke-miterlimit="10"/>
<path id="Vector_208" d="M79.4248 124.035C88.0915 124.192 96.7448 124.22 105.385 124.12" stroke="white" stroke-width="0.5" stroke-miterlimit="10"/>
<path id="Vector_209" d="M79.4248 125.02C88.0915 125.133 96.7448 125.153 105.385 125.08" stroke="white" stroke-width="0.5" stroke-miterlimit="10"/>
<path id="Vector_210" d="M79.4248 129.145C88.0915 129.322 96.7448 129.355 105.385 129.245" stroke="white" stroke-width="0.5" stroke-miterlimit="10"/>
<path id="Vector_211" d="M79.4248 130.13C88.0915 130.263 96.7448 130.288 105.385 130.205" stroke="white" stroke-width="0.5" stroke-miterlimit="10"/>
<path id="Vector_212" opacity="0.3" d="M89.2499 133.1C89.2499 133.1 94.0749 131.545 95.6349 129.055C97.1949 126.565 96.5699 125.005 95.1649 123.295C94.3514 122.282 93.1851 121.615 91.8999 121.425C91.8999 121.425 91.1199 127.185 89.2499 128.275C87.902 129.125 86.6498 130.117 85.5149 131.235L89.2499 133.1Z" fill="black"/>
<path id="Vector_213" d="M79.4248 134.255C88.0915 134.079 96.7448 134.047 105.385 134.16" stroke="white" stroke-width="0.5" stroke-miterlimit="10"/>
</g>
</g>
</g>
<path id="Vector_214" d="M96.725 124.21C96.725 124.21 89.44 120.06 86.42 117.11C83.4 114.16 82.15 112.775 81.835 113.905C81.52 115.035 84.475 129.905 85.04 130.175C85.605 130.445 97.54 134.7 99.93 134.825C102.32 134.95 103.93 135.14 104.205 134.075C104.48 133.01 102.705 129.74 100.495 127.16C98.285 124.58 96.725 124.21 96.725 124.21Z" stroke="#263238" stroke-width="0.5" stroke-linecap="round" stroke-linejoin="round"/>
<path id="Vector_215" d="M63.565 108.935C63.565 108.935 66.835 118.975 68.235 125.865C69.635 132.755 70.235 139.17 70.235 139.17C70.235 139.17 68.235 137.89 62.88 137.42C57.525 136.95 55.06 136.135 52.725 131.7C50.39 127.265 48.87 127.615 46.535 126.915C44.2 126.215 43.5 124.915 43.5 124.915C43.5 124.915 62.75 108.8 63.565 108.935ZM70.965 108.06C72.6966 111.527 74.1059 115.145 75.175 118.87C76.995 125.15 79.575 138.87 79.575 138.87C79.575 138.87 84.035 138.37 85.355 135.54C86.675 132.71 86.735 131.64 88.855 130.89C90.975 130.14 93.885 128.565 94.135 126.555C94.3191 125.197 94.5913 123.853 94.95 122.53C94.95 122.53 83.205 112.795 81.38 111.53C79.555 110.265 71.47 107.56 70.965 108.06Z" fill="#4696E6"/>
<g id="Clip path group_8">
<mask id="mask7_1077_8748" style="mask-type:luminance" maskUnits="userSpaceOnUse" x="43" y="107" width="52" height="33">
<g id="freepik--clip-path-8--inject-201">
<path id="Vector_216" d="M63.565 108.935C63.565 108.935 66.835 118.975 68.235 125.865C69.635 132.755 70.235 139.17 70.235 139.17C70.235 139.17 68.235 137.89 62.88 137.42C57.525 136.95 55.06 136.135 52.725 131.7C50.39 127.265 48.87 127.615 46.535 126.915C44.2 126.215 43.5 124.915 43.5 124.915C43.5 124.915 62.75 108.8 63.565 108.935ZM70.965 108.06C72.6966 111.527 74.1059 115.145 75.175 118.87C76.995 125.15 79.575 138.87 79.575 138.87C79.575 138.87 84.035 138.37 85.355 135.54C86.675 132.71 86.735 131.64 88.855 130.89C90.975 130.14 93.885 128.565 94.135 126.555C94.3191 125.197 94.5913 123.853 94.95 122.53C94.95 122.53 83.205 112.795 81.38 111.53C79.555 110.265 71.47 107.56 70.965 108.06Z" fill="white"/>
</g>
</mask>
<g mask="url(#mask7_1077_8748)">
<g id="Group_9">
<path id="Vector_217" opacity="0.15" d="M43.7803 115.08H42.0103V148.68H43.7803V115.08Z" fill="black"/>
<path id="Vector_218" opacity="0.15" d="M49.875 115.08H48.105V148.68H49.875V115.08Z" fill="black"/>
<path id="Vector_219" opacity="0.15" d="M55.9702 104.355H54.2002V148.685H55.9702V104.355Z" fill="black"/>
<path id="Vector_220" opacity="0.15" d="M62.06 104.355H60.29V148.685H62.06V104.355Z" fill="black"/>
<path id="Vector_221" opacity="0.15" d="M68.1553 104.355H66.3853V148.685H68.1553V104.355Z" fill="black"/>
<path id="Vector_222" opacity="0.15" d="M74.25 104.355H72.48V148.685H74.25V104.355Z" fill="black"/>
<path id="Vector_223" opacity="0.15" d="M80.3403 104.355H78.5703V148.685H80.3403V104.355Z" fill="black"/>
<path id="Vector_224" opacity="0.15" d="M86.435 104.355H84.665V148.685H86.435V104.355Z" fill="black"/>
<path id="Vector_225" opacity="0.15" d="M92.5303 104.355H90.7603V148.685H92.5303V104.355Z" fill="black"/>
<path id="Vector_226" d="M51.4102 108.705C65.9102 108.815 80.3802 108.815 94.6802 108.77" stroke="white" stroke-width="0.5" stroke-miterlimit="10"/>
<path id="Vector_227" d="M51.4102 109.685C65.9102 109.75 80.3802 109.75 94.6802 109.725" stroke="white" stroke-width="0.5" stroke-miterlimit="10"/>
<path id="Vector_228" d="M51.4102 113.8C65.9102 113.94 80.3802 113.94 94.6802 113.885" stroke="white" stroke-width="0.5" stroke-miterlimit="10"/>
<path id="Vector_229" d="M51.4102 114.8C65.9102 114.895 80.3802 114.895 94.6802 114.855" stroke="white" stroke-width="0.5" stroke-miterlimit="10"/>
<path id="Vector_230" d="M34.1401 118.925C54.2251 119.09 74.3051 119.09 94.5501 119.01" stroke="white" stroke-width="0.5" stroke-miterlimit="10"/>
<path id="Vector_231" d="M34.1401 119.905C54.2251 120.025 74.3051 120.025 94.5501 119.965" stroke="white" stroke-width="0.5" stroke-miterlimit="10"/>
<path id="Vector_232" d="M34.1401 124.035C54.2251 124.23 74.3051 124.23 94.5501 124.135" stroke="white" stroke-width="0.5" stroke-miterlimit="10"/>
<path id="Vector_233" d="M34.1401 125.02C54.2251 125.16 74.3051 125.16 94.5501 125.09" stroke="white" stroke-width="0.5" stroke-miterlimit="10"/>
<path id="Vector_234" d="M34.1401 129.145C54.2251 129.365 74.3051 129.365 94.5501 129.255" stroke="white" stroke-width="0.5" stroke-miterlimit="10"/>
<path id="Vector_235" d="M34.1401 130.13C54.2251 130.3 74.3051 130.3 94.5501 130.215" stroke="white" stroke-width="0.5" stroke-miterlimit="10"/>
<path id="Vector_236" d="M34.1401 134.255C54.2251 134.035 74.3051 134.035 94.5501 134.145" stroke="white" stroke-width="0.5" stroke-miterlimit="10"/>
<path id="Vector_237" d="M34.1401 135.24C54.2251 135.435 74.3051 135.435 94.5501 135.34" stroke="white" stroke-width="0.5" stroke-miterlimit="10"/>
<path id="Vector_238" d="M34.1401 139.365C54.2251 139.17 74.3051 139.17 94.5501 139.27" stroke="white" stroke-width="0.5" stroke-miterlimit="10"/>
</g>
</g>
</g>
<path id="Vector_239" d="M63.565 108.935C63.565 108.935 66.835 118.975 68.235 125.865C69.635 132.755 70.235 139.17 70.235 139.17C70.235 139.17 68.235 137.89 62.88 137.42C57.525 136.95 55.06 136.135 52.725 131.7C50.39 127.265 48.87 127.615 46.535 126.915C44.2 126.215 43.5 124.915 43.5 124.915C43.5 124.915 62.75 108.8 63.565 108.935ZM70.965 108.06C72.6966 111.527 74.1059 115.145 75.175 118.87C76.995 125.15 79.575 138.87 79.575 138.87C79.575 138.87 84.035 138.37 85.355 135.54C86.675 132.71 86.735 131.64 88.855 130.89C90.975 130.14 93.885 128.565 94.135 126.555C94.3191 125.197 94.5913 123.853 94.95 122.53C94.95 122.53 83.205 112.795 81.38 111.53C79.555 110.265 71.47 107.56 70.965 108.06Z" stroke="#263238" stroke-width="0.5" stroke-linecap="round" stroke-linejoin="round"/>
<path id="Vector_240" d="M91.3599 107.705C91.3599 107.705 91.8299 110.495 91.9899 111.16C92.1499 111.825 93.6749 113.755 93.6749 113.755L91.1249 115.365C90.5182 114.268 89.8504 113.207 89.1249 112.185C88.6949 111.75 86.5349 111.185 85.9049 110.335C85.2749 109.485 85.4349 108.49 85.2749 107.86C85.1149 107.23 83.6649 105.425 84.0199 105.15C84.3749 104.875 85.1199 105.11 85.4699 105.545C85.8199 105.98 85.8249 106.605 85.9699 106.92C86.1149 107.235 88.0499 108.42 88.0499 108.42C88.0499 108.42 87.1849 105.945 87.0499 105.595C87.0173 105.499 87.006 105.398 87.017 105.297C87.028 105.197 87.0608 105.1 87.1133 105.014C87.1657 104.928 87.2365 104.854 87.3206 104.798C87.4047 104.742 87.5 104.705 87.5999 104.69C87.9899 104.69 89.7599 106.42 89.7599 106.42L91.3599 107.705Z" stroke="#263238" stroke-width="0.5" stroke-linecap="round" stroke-linejoin="round"/>
<path id="Vector_241" d="M83.9257 102.923C85.4647 102.154 85.5755 99.2558 84.1734 96.4497C82.7712 93.6435 80.387 91.992 78.848 92.761C77.3091 93.53 77.1982 96.4282 78.6004 99.2343C80.0025 102.041 82.3868 103.692 83.9257 102.923Z" fill="white" stroke="#263238" stroke-width="0.5" stroke-linecap="round" stroke-linejoin="round"/>
<path id="Vector_242" d="M83.3028 102.258C84.3601 101.729 84.2556 99.3768 83.0694 97.0029C81.8832 94.629 80.0646 93.1329 79.0073 93.6611C77.9501 94.1894 78.0546 96.5421 79.2408 98.916C80.4269 101.29 82.2456 102.786 83.3028 102.258Z" fill="white" stroke="#263238" stroke-width="0.5" stroke-linecap="round" stroke-linejoin="round"/>
<path id="Vector_243" d="M83.7749 102.725L88.1899 109.325C88.2459 109.41 88.3187 109.482 88.4038 109.538C88.489 109.594 88.5846 109.631 88.6849 109.649C88.7851 109.666 88.8878 109.663 88.9867 109.639C89.0856 109.615 89.1786 109.571 89.2599 109.51C89.3397 109.45 89.4069 109.376 89.4575 109.29C89.5081 109.204 89.5411 109.109 89.5546 109.01C89.5681 108.912 89.5618 108.811 89.5361 108.715C89.5104 108.619 89.4658 108.529 89.4049 108.45L84.4999 102.2C84.4726 102.161 84.4378 102.129 84.3976 102.104C84.3574 102.079 84.3126 102.063 84.2659 102.056C84.2192 102.049 84.1715 102.051 84.1258 102.063C84.0801 102.075 84.0372 102.096 83.9999 102.125L83.8349 102.235C83.7633 102.293 83.717 102.376 83.7058 102.468C83.6946 102.559 83.7193 102.651 83.7749 102.725Z" fill="#263238" stroke="#263238" stroke-width="0.5" stroke-linecap="round" stroke-linejoin="round"/>
<path id="Vector_244" d="M87 103.65C87 103.65 85.69 104.46 85.75 104.9C85.81 105.34 86 105.52 86.375 105.52C86.75 105.52 87.745 104.96 88.12 104.775C88.495 104.59 88.225 103.155 87 103.65Z" fill="white" stroke="#263238" stroke-width="0.5" stroke-linecap="round" stroke-linejoin="round"/>
<path id="Vector_245" d="M87.4999 105.15C87.0319 105.772 86.6123 106.429 86.2449 107.115C86.2049 107.39 88.4799 109.615 88.8749 109.615C89.2699 109.615 91.4299 108.28 91.3499 107.73C91.2699 107.18 89.0699 105.53 88.6799 105.135C88.2899 104.74 87.9399 104.6 87.4999 105.15Z" fill="white" stroke="#263238" stroke-width="0.5" stroke-linecap="round" stroke-linejoin="round"/>
<path id="Vector_246" d="M86.9199 107.9L89.0399 105.385" stroke="#263238" stroke-width="0.5" stroke-linecap="round" stroke-linejoin="round"/>
<path id="Vector_247" d="M90.2199 106.605L88.0999 109" stroke="#263238" stroke-width="0.5" stroke-linecap="round" stroke-linejoin="round"/>
<path id="Vector_248" d="M96.5349 128.545L90.0649 114.975L94.8399 112.475C94.8399 112.475 99.9299 118.38 102.005 122.475C104.08 126.57 105.005 133.095 104.205 134.1C103.405 135.105 99.7399 134.41 97.9199 133.28" fill="#4696E6"/>
<g id="Clip path group_9">
<mask id="mask8_1077_8748" style="mask-type:luminance" maskUnits="userSpaceOnUse" x="90" y="112" width="15" height="23">
<g id="freepik--clip-path-9--inject-201">
<path id="Vector_249" d="M96.5349 128.545L90.0649 114.975L94.8399 112.475C94.8399 112.475 99.9299 118.38 102.005 122.475C104.08 126.57 105.005 133.095 104.205 134.1C103.405 135.105 99.7399 134.41 97.9199 133.28" fill="white"/>
</g>
</mask>
<g mask="url(#mask8_1077_8748)">
<g id="Group_10">
<path id="Vector_250" opacity="0.15" d="M92.53 110.22H90.76V137.54H92.53V110.22Z" fill="black"/>
<path id="Vector_251" opacity="0.15" d="M98.6201 110.22H96.8501V137.54H98.6201V110.22Z" fill="black"/>
<path id="Vector_252" opacity="0.15" d="M104.715 110.22H102.945V137.54H104.715V110.22Z" fill="black"/>
<path id="Vector_253" d="M85.4451 113.8C93.9451 113.94 102.795 113.94 111.2 113.8" stroke="white" stroke-width="0.5" stroke-miterlimit="10"/>
<path id="Vector_254" d="M85.4451 114.8C93.9451 114.895 102.795 114.895 111.2 114.8" stroke="white" stroke-width="0.5" stroke-miterlimit="10"/>
<path id="Vector_255" d="M85.4451 118.925C93.9451 119.09 102.795 119.09 111.2 118.925" stroke="white" stroke-width="0.5" stroke-miterlimit="10"/>
<path id="Vector_256" d="M85.4451 119.905C93.9451 120.025 102.795 120.025 111.2 119.905" stroke="white" stroke-width="0.5" stroke-miterlimit="10"/>
<path id="Vector_257" d="M85.4451 124.035C93.9451 124.23 102.795 124.23 111.2 124.035" stroke="white" stroke-width="0.5" stroke-miterlimit="10"/>
<path id="Vector_258" d="M85.4451 125.02C93.9451 125.16 102.795 125.16 111.2 125.02" stroke="white" stroke-width="0.5" stroke-miterlimit="10"/>
<path id="Vector_259" d="M85.4451 129.145C93.9451 129.365 102.795 129.365 111.2 129.145" stroke="white" stroke-width="0.5" stroke-miterlimit="10"/>
<path id="Vector_260" d="M85.4451 130.13C93.9451 130.3 102.795 130.3 111.2 130.13" stroke="white" stroke-width="0.5" stroke-miterlimit="10"/>
<path id="Vector_261" d="M85.4451 134.255C93.9451 134.035 102.795 134.035 111.2 134.255" stroke="white" stroke-width="0.5" stroke-miterlimit="10"/>
</g>
</g>
</g>
<path id="Vector_262" d="M96.5349 128.545L90.0649 114.975L94.8399 112.475C94.8399 112.475 99.9299 118.38 102.005 122.475C104.08 126.57 105.005 133.095 104.205 134.1C103.405 135.105 99.7399 134.41 97.9199 133.28" stroke="#263238" stroke-width="0.5" stroke-linecap="round" stroke-linejoin="round"/>
</g>
</g>
</svg>
