<svg width="12" height="12" viewBox="0 0 12 12" fill="none" xmlns="http://www.w3.org/2000/svg">
<g id="Frame">
<path id="Vector" d="M4.5 1.5H2.5C1.94772 1.5 1.5 1.94772 1.5 2.5V4.5C1.5 5.05228 1.94772 5.5 2.5 5.5H4.5C5.05228 5.5 5.5 5.05228 5.5 4.5V2.5C5.5 1.94772 5.05228 1.5 4.5 1.5Z" stroke="#F5F5F6" stroke-linecap="round" stroke-linejoin="round"/>
<path id="Vector_2" d="M3.5 5.5V7.5C3.5 7.76522 3.60536 8.01957 3.79289 8.20711C3.98043 8.39464 4.23478 8.5 4.5 8.5H6.5" stroke="#F5F5F6" stroke-linecap="round" stroke-linejoin="round"/>
<path id="Vector_3" d="M9.5 6.5H7.5C6.94772 6.5 6.5 6.94772 6.5 7.5V9.5C6.5 10.0523 6.94772 10.5 7.5 10.5H9.5C10.0523 10.5 10.5 10.0523 10.5 9.5V7.5C10.5 6.94772 10.0523 6.5 9.5 6.5Z" stroke="#F5F5F6" stroke-linecap="round" stroke-linejoin="round"/>
</g>
</svg>
