<svg width="24" height="24" viewBox="0 0 24 24" fill="none" xmlns="http://www.w3.org/2000/svg">
<path d="M2.06251 12.3474C1.97916 12.1229 1.97916 11.8759 2.06251 11.6514C2.87421 9.68324 4.25202 8.00042 6.02128 6.81628C7.79053 5.63214 9.87155 5 12.0005 5C14.1295 5 16.2105 5.63214 17.9797 6.81628C19.749 8.00042 21.1268 9.68324 21.9385 11.6514C22.0218 11.8759 22.0218 12.1229 21.9385 12.3474C21.1268 14.3155 19.749 15.9983 17.9797 17.1825C16.2105 18.3666 14.1295 18.9988 12.0005 18.9988C9.87155 18.9988 7.79053 18.3666 6.02128 17.1825C4.25202 15.9983 2.87421 14.3155 2.06251 12.3474Z" stroke="#494C4D" stroke-width="2" stroke-linecap="round" stroke-linejoin="round"/>
<path d="M12.0005 14.9994C13.6573 14.9994 15.0005 13.6562 15.0005 11.9994C15.0005 10.3425 13.6573 8.99939 12.0005 8.99939C10.3436 8.99939 9.00049 10.3425 9.00049 11.9994C9.00049 13.6562 10.3436 14.9994 12.0005 14.9994Z" stroke="#494C4D" stroke-width="2" stroke-linecap="round" stroke-linejoin="round"/>
</svg>
