<svg width="41" height="40" viewBox="0 0 41 40" fill="none" xmlns="http://www.w3.org/2000/svg">
<g id="Frame">
<path id="Vector" d="M10.9167 13.3611C10.9167 10.7199 11.9659 8.18699 13.8334 6.31944C15.701 4.45189 18.2339 3.40271 20.875 3.40271C23.5161 3.40271 26.0491 4.45189 27.9166 6.31944C29.7842 8.18699 30.8334 10.7199 30.8334 13.3611C30.8334 24.9791 35.8125 28.2986 35.8125 28.2986H5.9375C5.9375 28.2986 10.9167 24.9791 10.9167 13.3611Z" stroke="#234B73" stroke-width="3.31945" stroke-linecap="round" stroke-linejoin="round"/>
<path id="Vector_2" d="M18.0537 34.9375C18.3315 35.4428 18.7399 35.8642 19.2362 36.1577C19.7326 36.4512 20.2986 36.6061 20.8752 36.6061C21.4519 36.6061 22.0179 36.4512 22.5142 36.1577C23.0106 35.8642 23.419 35.4428 23.6968 34.9375" stroke="#234B73" stroke-width="3.31945" stroke-linecap="round" stroke-linejoin="round"/>
</g>
</svg>
