<svg width="12" height="12" viewBox="0 0 12 12" fill="none" xmlns="http://www.w3.org/2000/svg">
<g id="Frame">
<path id="Vector" d="M6.49512 3.37012L7.46012 5.09012" stroke="#F5F5F6" stroke-linecap="round" stroke-linejoin="round"/>
<path id="Vector_2" d="M9.56812 6C9.1027 6.47402 8.54748 6.85054 7.93491 7.10757C7.32233 7.3646 6.66468 7.49698 6.00037 7.49698C5.33605 7.49698 4.6784 7.3646 4.06583 7.10757C3.45325 6.85054 2.89804 6.47402 2.43262 6" stroke="#F5F5F6" stroke-linecap="round" stroke-linejoin="round"/>
<path id="Vector_3" d="M10.4999 10.5001L9.41992 8.58008" stroke="#F5F5F6" stroke-linecap="round" stroke-linejoin="round"/>
<path id="Vector_4" d="M1.5 10.5001L5.51 3.37012" stroke="#F5F5F6" stroke-linecap="round" stroke-linejoin="round"/>
<path id="Vector_5" d="M6 3.5C6.55228 3.5 7 3.05228 7 2.5C7 1.94772 6.55228 1.5 6 1.5C5.44772 1.5 5 1.94772 5 2.5C5 3.05228 5.44772 3.5 6 3.5Z" stroke="#F5F5F6" stroke-linecap="round" stroke-linejoin="round"/>
</g>
</svg>
